<?xml version="1.0" encoding="UTF-8" standalone="no"?><svg xmlns="http://www.w3.org/2000/svg" xmlns:xlink="http://www.w3.org/1999/xlink" contentStyleType="text/css" height="690px" preserveAspectRatio="none" style="width:567px;height:690px;background:#FFFFFF;" version="1.1" viewBox="0 0 567 690" width="567px" zoomAndPan="magnify"><defs/><g><!--MD5=[1d128861812e435bc422c00dd5eed5e6]
class dobj--><g id="elem_dobj"><rect codeLine="2" fill="#F1F1F1" height="113.1875" id="dobj" rx="2.5" ry="2.5" style="stroke:#181818;stroke-width:0.5;" width="229" x="229" y="7"/><ellipse cx="324.25" cy="23" fill="#ADD1B2" rx="11" ry="11" style="stroke:#181818;stroke-width:1.0;"/><path d="M327.2188,28.6406 Q326.6406,28.9375 326,29.0781 Q325.3594,29.2344 324.6563,29.2344 Q322.1563,29.2344 320.8281,27.5938 Q319.5156,25.9375 319.5156,22.8125 Q319.5156,19.6875 320.8281,18.0313 Q322.1563,16.375 324.6563,16.375 Q325.3594,16.375 326,16.5313 Q326.6563,16.6875 327.2188,16.9844 L327.2188,19.7031 Q326.5938,19.125 326,18.8594 Q325.4063,18.5781 324.7813,18.5781 Q323.4375,18.5781 322.75,19.6563 Q322.0625,20.7188 322.0625,22.8125 Q322.0625,24.9063 322.75,25.9844 Q323.4375,27.0469 324.7813,27.0469 Q325.4063,27.0469 326,26.7813 Q326.5938,26.5 327.2188,25.9219 L327.2188,28.6406 Z " fill="#000000"/><text fill="#000000" font-family="sans-serif" font-size="14" lengthAdjust="spacing" textLength="30" x="344.75" y="27.8467">dobj</text><line style="stroke:#181818;stroke-width:0.5;" x1="230" x2="457" y1="39" y2="39"/><rect fill="none" height="6" style="stroke:#C82930;stroke-width:1.0;" width="6" x="237" y="47"/><text fill="#000000" font-family="sans-serif" font-size="14" lengthAdjust="spacing" textLength="30" x="249" y="55.9951">data</text><rect fill="none" height="6" style="stroke:#C82930;stroke-width:1.0;" width="6" x="237" y="63.2969"/><text fill="#000000" font-family="sans-serif" font-size="14" lengthAdjust="spacing" textLength="54" x="249" y="72.292">doState</text><line style="stroke:#181818;stroke-width:0.5;" x1="230" x2="457" y1="79.5938" y2="79.5938"/><ellipse cx="240" cy="90.5938" fill="#84BE84" rx="3" ry="3" style="stroke:#038048;stroke-width:1.0;"/><text fill="#000000" font-family="sans-serif" font-size="14" font-style="italic" lengthAdjust="spacing" textLength="107" x="249" y="96.5889">data() : &lt;data&gt;</text><ellipse cx="240" cy="106.8906" fill="#84BE84" rx="3" ry="3" style="stroke:#038048;stroke-width:1.0;"/><text fill="#000000" font-family="sans-serif" font-size="14" font-style="italic" lengthAdjust="spacing" textLength="203" x="249" y="112.8857">do(function, ...chunk) : chunk</text></g><!--MD5=[b33bf8eb1a30ce50f6a73a2dda669439]
class compositedobj--><g id="elem_compositedobj"><rect codeLine="9" fill="#F1F1F1" height="145.7813" id="compositedobj" rx="2.5" ry="2.5" style="stroke:#181818;stroke-width:0.5;" width="229" x="229" y="180"/><ellipse cx="287.75" cy="196" fill="#ADD1B2" rx="11" ry="11" style="stroke:#181818;stroke-width:1.0;"/><path d="M290.7188,201.6406 Q290.1406,201.9375 289.5,202.0781 Q288.8594,202.2344 288.1563,202.2344 Q285.6563,202.2344 284.3281,200.5938 Q283.0156,198.9375 283.0156,195.8125 Q283.0156,192.6875 284.3281,191.0313 Q285.6563,189.375 288.1563,189.375 Q288.8594,189.375 289.5,189.5313 Q290.1563,189.6875 290.7188,189.9844 L290.7188,192.7031 Q290.0938,192.125 289.5,191.8594 Q288.9063,191.5781 288.2813,191.5781 Q286.9375,191.5781 286.25,192.6563 Q285.5625,193.7188 285.5625,195.8125 Q285.5625,197.9063 286.25,198.9844 Q286.9375,200.0469 288.2813,200.0469 Q288.9063,200.0469 289.5,199.7813 Q290.0938,199.5 290.7188,198.9219 L290.7188,201.6406 Z " fill="#000000"/><text fill="#000000" font-family="sans-serif" font-size="14" lengthAdjust="spacing" textLength="103" x="308.25" y="200.8467">compositedobj</text><line style="stroke:#181818;stroke-width:0.5;" x1="230" x2="457" y1="212" y2="212"/><text fill="#000000" font-family="sans-serif" font-size="14" lengthAdjust="spacing" textLength="87" x="235" y="228.9951">children : list</text><line style="stroke:#181818;stroke-width:0.5;" x1="230" x2="457" y1="236.2969" y2="236.2969"/><ellipse cx="240" cy="247.2969" fill="#84BE84" rx="3" ry="3" style="stroke:#038048;stroke-width:1.0;"/><text fill="#000000" font-family="sans-serif" font-size="14" lengthAdjust="spacing" textLength="107" x="249" y="253.292">data() : &lt;data&gt;</text><ellipse cx="240" cy="263.5938" fill="#84BE84" rx="3" ry="3" style="stroke:#038048;stroke-width:1.0;"/><text fill="#000000" font-family="sans-serif" font-size="14" lengthAdjust="spacing" textLength="203" x="249" y="269.5889">do(function, ...chunk) : chunk</text><ellipse cx="240" cy="279.8906" fill="#84BE84" rx="3" ry="3" style="stroke:#038048;stroke-width:1.0;"/><text fill="#000000" font-family="sans-serif" font-size="14" lengthAdjust="spacing" textLength="90" x="249" y="285.8857">getChildren()</text><ellipse cx="240" cy="296.1875" fill="#84BE84" rx="3" ry="3" style="stroke:#038048;stroke-width:1.0;"/><text fill="#000000" font-family="sans-serif" font-size="14" lengthAdjust="spacing" textLength="70" x="249" y="302.1826">addChild()</text><ellipse cx="240" cy="312.4844" fill="#84BE84" rx="3" ry="3" style="stroke:#038048;stroke-width:1.0;"/><text fill="#000000" font-family="sans-serif" font-size="14" lengthAdjust="spacing" textLength="96" x="249" y="318.4795">removeChild()</text></g><!--MD5=[276382e3c498b6c1daa37bd79e75248e]
class chunk--><g id="elem_chunk"><rect codeLine="18" fill="#F1F1F1" height="80.5938" id="chunk" rx="2.5" ry="2.5" style="stroke:#181818;stroke-width:0.5;" width="229" x="169" y="494"/><ellipse cx="257.75" cy="510" fill="#ADD1B2" rx="11" ry="11" style="stroke:#181818;stroke-width:1.0;"/><path d="M260.7188,515.6406 Q260.1406,515.9375 259.5,516.0781 Q258.8594,516.2344 258.1563,516.2344 Q255.6563,516.2344 254.3281,514.5938 Q253.0156,512.9375 253.0156,509.8125 Q253.0156,506.6875 254.3281,505.0313 Q255.6563,503.375 258.1563,503.375 Q258.8594,503.375 259.5,503.5313 Q260.1563,503.6875 260.7188,503.9844 L260.7188,506.7031 Q260.0938,506.125 259.5,505.8594 Q258.9063,505.5781 258.2813,505.5781 Q256.9375,505.5781 256.25,506.6563 Q255.5625,507.7188 255.5625,509.8125 Q255.5625,511.9063 256.25,512.9844 Q256.9375,514.0469 258.2813,514.0469 Q258.9063,514.0469 259.5,513.7813 Q260.0938,513.5 260.7188,512.9219 L260.7188,515.6406 Z " fill="#000000"/><text fill="#000000" font-family="sans-serif" font-size="14" lengthAdjust="spacing" textLength="43" x="278.25" y="514.8467">chunk</text><line style="stroke:#181818;stroke-width:0.5;" x1="170" x2="397" y1="526" y2="526"/><line style="stroke:#181818;stroke-width:0.5;" x1="170" x2="397" y1="534" y2="534"/><ellipse cx="180" cy="545" fill="#84BE84" rx="3" ry="3" style="stroke:#038048;stroke-width:1.0;"/><text fill="#000000" font-family="sans-serif" font-size="14" lengthAdjust="spacing" textLength="107" x="189" y="550.9951">data() : &lt;data&gt;</text><ellipse cx="180" cy="561.2969" fill="#84BE84" rx="3" ry="3" style="stroke:#038048;stroke-width:1.0;"/><text fill="#000000" font-family="sans-serif" font-size="14" lengthAdjust="spacing" textLength="203" x="189" y="567.292">do(function, ...chunk) : chunk</text></g><!--MD5=[7956194bdb6308525aaa53476ed36bda]
class colBlockMat--><g id="elem_colBlockMat"><rect fill="#F1F1F1" height="48" id="colBlockMat" rx="2.5" ry="2.5" style="stroke:#181818;stroke-width:0.5;" width="115" x="7" y="510.5"/><ellipse cx="22" cy="526.5" fill="#ADD1B2" rx="11" ry="11" style="stroke:#181818;stroke-width:1.0;"/><path d="M24.9688,532.1406 Q24.3906,532.4375 23.75,532.5781 Q23.1094,532.7344 22.4063,532.7344 Q19.9063,532.7344 18.5781,531.0938 Q17.2656,529.4375 17.2656,526.3125 Q17.2656,523.1875 18.5781,521.5313 Q19.9063,519.875 22.4063,519.875 Q23.1094,519.875 23.75,520.0313 Q24.4063,520.1875 24.9688,520.4844 L24.9688,523.2031 Q24.3438,522.625 23.75,522.3594 Q23.1563,522.0781 22.5313,522.0781 Q21.1875,522.0781 20.5,523.1563 Q19.8125,524.2188 19.8125,526.3125 Q19.8125,528.4063 20.5,529.4844 Q21.1875,530.5469 22.5313,530.5469 Q23.1563,530.5469 23.75,530.2813 Q24.3438,530 24.9688,529.4219 L24.9688,532.1406 Z " fill="#000000"/><text fill="#000000" font-family="sans-serif" font-size="14" lengthAdjust="spacing" textLength="83" x="36" y="531.3467">colBlockMat</text><line style="stroke:#181818;stroke-width:0.5;" x1="8" x2="121" y1="542.5" y2="542.5"/><line style="stroke:#181818;stroke-width:0.5;" x1="8" x2="121" y1="550.5" y2="550.5"/></g><!--MD5=[211f34abff53f59b1f5cfd8cc85d44c6]
class colChunk--><g id="elem_colChunk"><rect fill="#F1F1F1" height="48" id="colChunk" rx="2.5" ry="2.5" style="stroke:#181818;stroke-width:0.5;" width="97" x="146" y="635"/><ellipse cx="161" cy="651" fill="#ADD1B2" rx="11" ry="11" style="stroke:#181818;stroke-width:1.0;"/><path d="M163.9688,656.6406 Q163.3906,656.9375 162.75,657.0781 Q162.1094,657.2344 161.4063,657.2344 Q158.9063,657.2344 157.5781,655.5938 Q156.2656,653.9375 156.2656,650.8125 Q156.2656,647.6875 157.5781,646.0313 Q158.9063,644.375 161.4063,644.375 Q162.1094,644.375 162.75,644.5313 Q163.4063,644.6875 163.9688,644.9844 L163.9688,647.7031 Q163.3438,647.125 162.75,646.8594 Q162.1563,646.5781 161.5313,646.5781 Q160.1875,646.5781 159.5,647.6563 Q158.8125,648.7188 158.8125,650.8125 Q158.8125,652.9063 159.5,653.9844 Q160.1875,655.0469 161.5313,655.0469 Q162.1563,655.0469 162.75,654.7813 Q163.3438,654.5 163.9688,653.9219 L163.9688,656.6406 Z " fill="#000000"/><text fill="#000000" font-family="sans-serif" font-size="14" lengthAdjust="spacing" textLength="65" x="175" y="655.8467">colChunk</text><line style="stroke:#181818;stroke-width:0.5;" x1="147" x2="242" y1="667" y2="667"/><line style="stroke:#181818;stroke-width:0.5;" x1="147" x2="242" y1="675" y2="675"/></g><!--MD5=[8ef761028dae83a6f2ce3eb1fa468ac7]
class rowBlockMat--><g id="elem_rowBlockMat"><rect fill="#F1F1F1" height="48" id="rowBlockMat" rx="2.5" ry="2.5" style="stroke:#181818;stroke-width:0.5;" width="120" x="440.5" y="510.5"/><ellipse cx="455.5" cy="526.5" fill="#ADD1B2" rx="11" ry="11" style="stroke:#181818;stroke-width:1.0;"/><path d="M458.4688,532.1406 Q457.8906,532.4375 457.25,532.5781 Q456.6094,532.7344 455.9063,532.7344 Q453.4063,532.7344 452.0781,531.0938 Q450.7656,529.4375 450.7656,526.3125 Q450.7656,523.1875 452.0781,521.5313 Q453.4063,519.875 455.9063,519.875 Q456.6094,519.875 457.25,520.0313 Q457.9063,520.1875 458.4688,520.4844 L458.4688,523.2031 Q457.8438,522.625 457.25,522.3594 Q456.6563,522.0781 456.0313,522.0781 Q454.6875,522.0781 454,523.1563 Q453.3125,524.2188 453.3125,526.3125 Q453.3125,528.4063 454,529.4844 Q454.6875,530.5469 456.0313,530.5469 Q456.6563,530.5469 457.25,530.2813 Q457.8438,530 458.4688,529.4219 L458.4688,532.1406 Z " fill="#000000"/><text fill="#000000" font-family="sans-serif" font-size="14" lengthAdjust="spacing" textLength="88" x="469.5" y="531.3467">rowBlockMat</text><line style="stroke:#181818;stroke-width:0.5;" x1="441.5" x2="559.5" y1="542.5" y2="542.5"/><line style="stroke:#181818;stroke-width:0.5;" x1="441.5" x2="559.5" y1="550.5" y2="550.5"/></g><!--MD5=[d302f12d9d6dcc6ed72d3f8b4c1e68f2]
class rowChunk--><g id="elem_rowChunk"><rect fill="#F1F1F1" height="48" id="rowChunk" rx="2.5" ry="2.5" style="stroke:#181818;stroke-width:0.5;" width="102" x="320.5" y="635"/><ellipse cx="335.5" cy="651" fill="#ADD1B2" rx="11" ry="11" style="stroke:#181818;stroke-width:1.0;"/><path d="M338.4688,656.6406 Q337.8906,656.9375 337.25,657.0781 Q336.6094,657.2344 335.9063,657.2344 Q333.4063,657.2344 332.0781,655.5938 Q330.7656,653.9375 330.7656,650.8125 Q330.7656,647.6875 332.0781,646.0313 Q333.4063,644.375 335.9063,644.375 Q336.6094,644.375 337.25,644.5313 Q337.9063,644.6875 338.4688,644.9844 L338.4688,647.7031 Q337.8438,647.125 337.25,646.8594 Q336.6563,646.5781 336.0313,646.5781 Q334.6875,646.5781 334,647.6563 Q333.3125,648.7188 333.3125,650.8125 Q333.3125,652.9063 334,653.9844 Q334.6875,655.0469 336.0313,655.0469 Q336.6563,655.0469 337.25,654.7813 Q337.8438,654.5 338.4688,653.9219 L338.4688,656.6406 Z " fill="#000000"/><text fill="#000000" font-family="sans-serif" font-size="14" lengthAdjust="spacing" textLength="70" x="349.5" y="655.8467">rowChunk</text><line style="stroke:#181818;stroke-width:0.5;" x1="321.5" x2="421.5" y1="667" y2="667"/><line style="stroke:#181818;stroke-width:0.5;" x1="321.5" x2="421.5" y1="675" y2="675"/></g><!--MD5=[816d2048ceebc0da7029cbcb1915f10c]
class olistDobj--><g id="elem_olistDobj"><rect fill="#F1F1F1" height="48" id="olistDobj" rx="2.5" ry="2.5" style="stroke:#181818;stroke-width:0.5;" width="92" x="101.5" y="386"/><ellipse cx="116.5" cy="402" fill="#ADD1B2" rx="11" ry="11" style="stroke:#181818;stroke-width:1.0;"/><path d="M119.4688,407.6406 Q118.8906,407.9375 118.25,408.0781 Q117.6094,408.2344 116.9063,408.2344 Q114.4063,408.2344 113.0781,406.5938 Q111.7656,404.9375 111.7656,401.8125 Q111.7656,398.6875 113.0781,397.0313 Q114.4063,395.375 116.9063,395.375 Q117.6094,395.375 118.25,395.5313 Q118.9063,395.6875 119.4688,395.9844 L119.4688,398.7031 Q118.8438,398.125 118.25,397.8594 Q117.6563,397.5781 117.0313,397.5781 Q115.6875,397.5781 115,398.6563 Q114.3125,399.7188 114.3125,401.8125 Q114.3125,403.9063 115,404.9844 Q115.6875,406.0469 117.0313,406.0469 Q117.6563,406.0469 118.25,405.7813 Q118.8438,405.5 119.4688,404.9219 L119.4688,407.6406 Z " fill="#000000"/><text fill="#000000" font-family="sans-serif" font-size="14" lengthAdjust="spacing" textLength="60" x="130.5" y="406.8467">olistDobj</text><line style="stroke:#181818;stroke-width:0.5;" x1="102.5" x2="192.5" y1="418" y2="418"/><line style="stroke:#181818;stroke-width:0.5;" x1="102.5" x2="192.5" y1="426" y2="426"/></g><!--MD5=[7ebd8c988b08061e82ac4a98002c39e1]
class uolistDobj--><g id="elem_uolistDobj"><rect fill="#F1F1F1" height="48" id="uolistDobj" rx="2.5" ry="2.5" style="stroke:#181818;stroke-width:0.5;" width="101" x="229" y="386"/><ellipse cx="244" cy="402" fill="#ADD1B2" rx="11" ry="11" style="stroke:#181818;stroke-width:1.0;"/><path d="M246.9688,407.6406 Q246.3906,407.9375 245.75,408.0781 Q245.1094,408.2344 244.4063,408.2344 Q241.9063,408.2344 240.5781,406.5938 Q239.2656,404.9375 239.2656,401.8125 Q239.2656,398.6875 240.5781,397.0313 Q241.9063,395.375 244.4063,395.375 Q245.1094,395.375 245.75,395.5313 Q246.4063,395.6875 246.9688,395.9844 L246.9688,398.7031 Q246.3438,398.125 245.75,397.8594 Q245.1563,397.5781 244.5313,397.5781 Q243.1875,397.5781 242.5,398.6563 Q241.8125,399.7188 241.8125,401.8125 Q241.8125,403.9063 242.5,404.9844 Q243.1875,406.0469 244.5313,406.0469 Q245.1563,406.0469 245.75,405.7813 Q246.3438,405.5 246.9688,404.9219 L246.9688,407.6406 Z " fill="#000000"/><text fill="#000000" font-family="sans-serif" font-size="14" lengthAdjust="spacing" textLength="69" x="258" y="406.8467">uolistDobj</text><line style="stroke:#181818;stroke-width:0.5;" x1="230" x2="329" y1="418" y2="418"/><line style="stroke:#181818;stroke-width:0.5;" x1="230" x2="329" y1="426" y2="426"/></g><!--MD5=[b6d03f3aabb8848f8ce1464e7111cda3]
class setDobj--><g id="elem_setDobj"><rect fill="#F1F1F1" height="48" id="setDobj" rx="2.5" ry="2.5" style="stroke:#181818;stroke-width:0.5;" width="86" x="365.5" y="386"/><ellipse cx="380.5" cy="402" fill="#ADD1B2" rx="11" ry="11" style="stroke:#181818;stroke-width:1.0;"/><path d="M383.4688,407.6406 Q382.8906,407.9375 382.25,408.0781 Q381.6094,408.2344 380.9063,408.2344 Q378.4063,408.2344 377.0781,406.5938 Q375.7656,404.9375 375.7656,401.8125 Q375.7656,398.6875 377.0781,397.0313 Q378.4063,395.375 380.9063,395.375 Q381.6094,395.375 382.25,395.5313 Q382.9063,395.6875 383.4688,395.9844 L383.4688,398.7031 Q382.8438,398.125 382.25,397.8594 Q381.6563,397.5781 381.0313,397.5781 Q379.6875,397.5781 379,398.6563 Q378.3125,399.7188 378.3125,401.8125 Q378.3125,403.9063 379,404.9844 Q379.6875,406.0469 381.0313,406.0469 Q381.6563,406.0469 382.25,405.7813 Q382.8438,405.5 383.4688,404.9219 L383.4688,407.6406 Z " fill="#000000"/><text fill="#000000" font-family="sans-serif" font-size="14" lengthAdjust="spacing" textLength="54" x="394.5" y="406.8467">setDobj</text><line style="stroke:#181818;stroke-width:0.5;" x1="366.5" x2="450.5" y1="418" y2="418"/><line style="stroke:#181818;stroke-width:0.5;" x1="366.5" x2="450.5" y1="426" y2="426"/></g><!--MD5=[b09e0b353786a2d45bcaaa1498670b68]
reverse link dobj to compositedobj--><g id="link_dobj_compositedobj"><path codeLine="24" d="M331.16,133.27 C330.65,148.41 330.62,164.5 331.05,179.77 " fill="none" id="dobj-backto-compositedobj" style="stroke:#181818;stroke-width:1.0;"/><polygon fill="none" points="331.73,120.25,327.4765,126.073,331.2156,132.239,335.4691,126.4159,331.73,120.25" style="stroke:#181818;stroke-width:1.0;"/></g><!--MD5=[b09e0b353786a2d45bcaaa1498670b68]
reverse link dobj to compositedobj--><g id="link_dobj_compositedobj"><path codeLine="25" d="M356.79,140.68 C357.1,153.59 357.07,166.96 356.68,179.77 " fill="none" id="dobj-backto-compositedobj-1" style="stroke:#181818;stroke-width:1.0;"/><polygon fill="none" points="349.77,140.51,355.96,120.25,363.76,139.95,349.77,140.51" style="stroke:#181818;stroke-width:1.0;"/></g><!--MD5=[9043a9934cef8c8a21a3b006e2faeac5]
reverse link dobj to chunk--><g id="link_dobj_chunk"><path codeLine="26" d="M443.49,134.29 C456.47,147.88 467.88,163.2 475.5,180 C522.16,282.83 530.2,338.78 469.5,434 C452.57,460.56 426.02,480.5 398.23,495.28 " fill="none" id="dobj-backto-chunk" style="stroke:#181818;stroke-width:1.0;"/><polygon fill="none" points="438.44,139.14,428.9,120.22,448.16,129.06,438.44,139.14" style="stroke:#181818;stroke-width:1.0;"/></g><!--MD5=[5bc3d692c46e4374e849bf828c5cc05e]
reverse link compositedobj to colBlockMat--><g id="link_compositedobj_colBlockMat"><path codeLine="28" d="M210.3,292.49 C163.03,312.78 114.04,342.73 83.5,386 C57.22,423.23 58.15,479.24 61.26,510.43 " fill="none" id="compositedobj-backto-colBlockMat" style="stroke:#181818;stroke-width:1.0;"/><polygon fill="none" points="207.82,285.95,228.99,284.92,213.09,298.92,207.82,285.95" style="stroke:#181818;stroke-width:1.0;"/></g><!--MD5=[85d10842934355e9f0b7d576d8239618]
reverse link chunk to colChunk--><g id="link_chunk_colChunk"><path codeLine="29" d="M242.81,591.51 C231.7,606.8 220.27,622.52 211.32,634.84 " fill="none" id="chunk-backto-colChunk" style="stroke:#181818;stroke-width:1.0;"/><polygon fill="none" points="237.19,587.34,254.6,575.27,248.51,595.57,237.19,587.34" style="stroke:#181818;stroke-width:1.0;"/></g><!--MD5=[342c71a38f276667d5f88d2b660e6926]
reverse link colBlockMat to colChunk--><g id="link_colBlockMat_colChunk"><path codeLine="30" d="M98.7,567.73 C121,588.74 149.59,615.68 169.72,634.65 " fill="none" id="colBlockMat-backto-colChunk" style="stroke:#181818;stroke-width:1.0;"/><polygon fill="none" points="88.95,558.54,90.5724,565.5662,97.6822,566.771,96.0598,559.7447,88.95,558.54" style="stroke:#181818;stroke-width:1.0;"/></g><!--MD5=[e651919c79dc695329b7f3cd90e394a3]
reverse link compositedobj to rowBlockMat--><g id="link_compositedobj_rowBlockMat"><path codeLine="32" d="M439.18,341.39 C450.71,355.38 461.3,370.42 469.5,386 C490.77,426.4 497.45,480.26 499.54,510.45 " fill="none" id="compositedobj-backto-rowBlockMat" style="stroke:#181818;stroke-width:1.0;"/><polygon fill="none" points="433.68,345.73,425.82,326.05,444.23,336.53,433.68,345.73" style="stroke:#181818;stroke-width:1.0;"/></g><!--MD5=[dd51688f6b72dd2e70903842e048fff9]
reverse link chunk to rowChunk--><g id="link_chunk_rowChunk"><path codeLine="33" d="M324.08,592 C334.96,607.13 346.11,622.66 354.86,634.84 " fill="none" id="chunk-backto-rowChunk" style="stroke:#181818;stroke-width:1.0;"/><polygon fill="none" points="318.05,595.6,312.07,575.27,329.42,587.43,318.05,595.6" style="stroke:#181818;stroke-width:1.0;"/></g><!--MD5=[749331d305d799cad25aaa1717138ceb]
reverse link rowBlockMat to rowChunk--><g id="link_rowBlockMat_rowChunk"><path codeLine="34" d="M466.56,567.73 C444.43,588.74 416.06,615.68 396.09,634.65 " fill="none" id="rowBlockMat-backto-rowChunk" style="stroke:#181818;stroke-width:1.0;"/><polygon fill="none" points="476.24,558.54,469.134,559.7668,467.5334,566.7981,474.6394,565.5712,476.24,558.54" style="stroke:#181818;stroke-width:1.0;"/></g><!--MD5=[d60d0f91a3379f0c14c328e59d70219e]
reverse link compositedobj to olistDobj--><g id="link_compositedobj_olistDobj"><path codeLine="36" d="M236.64,338.51 C214.52,356 193.01,373.01 176.66,385.94 " fill="none" id="compositedobj-backto-olistDobj" style="stroke:#181818;stroke-width:1.0;"/><polygon fill="none" points="232.36,332.97,252.39,326.05,241.04,343.95,232.36,332.97" style="stroke:#181818;stroke-width:1.0;"/></g><!--MD5=[b7facb6e1313c6a345c5ceb6c6eb1028]
reverse link compositedobj to uolistDobj--><g id="link_compositedobj_uolistDobj"><path codeLine="37" d="M306.1,344.57 C299.78,359.89 293.74,374.51 289.02,385.94 " fill="none" id="compositedobj-backto-uolistDobj" style="stroke:#181818;stroke-width:1.0;"/><polygon fill="none" points="299.65,341.87,313.75,326.05,312.59,347.21,299.65,341.87" style="stroke:#181818;stroke-width:1.0;"/></g><!--MD5=[bbdabf11635f43f18b2c9e8358916658]
reverse link compositedobj to setDobj--><g id="link_compositedobj_setDobj"><path codeLine="38" d="M381.48,344.57 C387.9,359.89 394.04,374.51 398.83,385.94 " fill="none" id="compositedobj-backto-setDobj" style="stroke:#181818;stroke-width:1.0;"/><polygon fill="none" points="375,347.21,373.72,326.05,387.91,341.79,375,347.21" style="stroke:#181818;stroke-width:1.0;"/></g><!--MD5=[cbfa34bcbc50df540f1778c6ce058cfc]
reverse link olistDobj to chunk--><g id="link_olistDobj_chunk"><path codeLine="40" d="M182.81,442.81 C200.15,458.42 221.2,477.39 239.57,493.93 " fill="none" id="olistDobj-backto-chunk" style="stroke:#181818;stroke-width:1.0;"/><polygon fill="none" points="173.08,434.04,174.8548,441.0293,181.989,442.0792,180.2143,435.0899,173.08,434.04" style="stroke:#181818;stroke-width:1.0;"/></g><!--MD5=[c33cff319af3fe2ee1aca9c7d3e7d92d]
reverse link uolistDobj to chunk--><g id="link_uolistDobj_chunk"><path codeLine="41" d="M280.68,447.21 C281.16,461.82 281.71,478.73 282.2,493.69 " fill="none" id="uolistDobj-backto-chunk" style="stroke:#181818;stroke-width:1.0;"/><polygon fill="none" points="280.25,434.04,276.4434,440.1645,280.6326,446.0339,284.4393,439.9094,280.25,434.04" style="stroke:#181818;stroke-width:1.0;"/></g><!--MD5=[67bc4ffb3954bd8f1ad137cae5feaa99]
reverse link setDobj to chunk--><g id="link_setDobj_chunk"><path codeLine="42" d="M375.64,443.2 C359.86,458.67 340.8,477.34 324.12,493.69 " fill="none" id="setDobj-backto-chunk" style="stroke:#181818;stroke-width:1.0;"/><polygon fill="none" points="384.99,434.04,377.905,435.3827,376.4194,442.4391,383.5044,441.0964,384.99,434.04" style="stroke:#181818;stroke-width:1.0;"/></g><!--MD5=[ee6dc7a771c8252c302e290b5e5f3ace]
@startuml

class dobj {
    -data
    -doState
    {abstract} +data() : <data>
    {abstract} +do(function, ...chunk) : chunk
}

class compositedobj {
children : list
+data() : <data>
+do(function, ...chunk) : chunk
+getChildren()
+addChild()
+removeChild()
}

class chunk {
+data() : <data>
+do(function, ...chunk) : chunk
}


dobj o- - compositedobj
dobj <|- - compositedobj
dobj <|- - chunk

compositedobj <|- - colBlockMat
chunk <|- - colChunk
colBlockMat o- - colChunk

compositedobj <|- - rowBlockMat
chunk <|- - rowChunk
rowBlockMat o- - rowChunk

compositedobj <|- - olistDobj
compositedobj <|- - uolistDobj
compositedobj <|- - setDobj

olistDobj o- - chunk
uolistDobj o- - chunk
setDobj o- - chunk

@enduml

PlantUML version 1.2022.2(Sun Mar 06 05:30:19 NZDT 2022)
(GPL source distribution)
Java Runtime: OpenJDK Runtime Environment
JVM: OpenJDK 64-Bit Server VM
Default Encoding: UTF-8
Language: en
Country: NZ
--></g></svg>