<?xml version="1.0" encoding="UTF-8" standalone="no"?><svg xmlns="http://www.w3.org/2000/svg" xmlns:xlink="http://www.w3.org/1999/xlink" contentScriptType="application/ecmascript" contentStyleType="text/css" height="413px" preserveAspectRatio="none" style="width:696px;height:413px;background:#FFFFFF;" version="1.1" viewBox="0 0 696 413" width="696px" zoomAndPan="magnify"><defs><filter height="300%" id="f1rv0yo1nof0r1" width="300%" x="-1" y="-1"><feGaussianBlur result="blurOut" stdDeviation="2.0"/><feColorMatrix in="blurOut" result="blurOut2" type="matrix" values="0 0 0 0 0 0 0 0 0 0 0 0 0 0 0 0 0 0 .4 0"/><feOffset dx="4.0" dy="4.0" in="blurOut2" result="blurOut3"/><feBlend in="SourceGraphic" in2="blurOut3" mode="normal"/></filter></defs><g><!--MD5=[276382e3c498b6c1daa37bd79e75248e]
class chunk--><rect codeLine="2" fill="#FEFECE" filter="url(#f1rv0yo1nof0r1)" height="99.2188" id="chunk" style="stroke:#A80036;stroke-width:1.5;" width="191" x="204" y="7"/><ellipse cx="276.25" cy="23" fill="#ADD1B2" rx="11" ry="11" style="stroke:#A80036;stroke-width:1.0;"/><path d="M279.2188,28.6406 Q278.6406,28.9375 278,29.0781 Q277.3594,29.2344 276.6563,29.2344 Q274.1563,29.2344 272.8281,27.5938 Q271.5156,25.9375 271.5156,22.8125 Q271.5156,19.6875 272.8281,18.0313 Q274.1563,16.375 276.6563,16.375 Q277.3594,16.375 278,16.5313 Q278.6563,16.6875 279.2188,16.9844 L279.2188,19.7031 Q278.5938,19.125 278,18.8594 Q277.4063,18.5781 276.7813,18.5781 Q275.4375,18.5781 274.75,19.6563 Q274.0625,20.7188 274.0625,22.8125 Q274.0625,24.9063 274.75,25.9844 Q275.4375,27.0469 276.7813,27.0469 Q277.4063,27.0469 278,26.7813 Q278.5938,26.5 279.2188,25.9219 L279.2188,28.6406 Z " fill="#000000"/><text fill="#000000" font-family="sans-serif" font-size="12" lengthAdjust="spacing" textLength="38" x="296.75" y="27.1543">chunk</text><line style="stroke:#A80036;stroke-width:1.5;" x1="205" x2="394" y1="39" y2="39"/><rect fill="none" height="6" style="stroke:#C82930;stroke-width:1.0;" width="6" x="212" y="47"/><text fill="#000000" font-family="sans-serif" font-size="11" lengthAdjust="spacing" textLength="25" x="224" y="53.2104">data</text><rect fill="none" height="6" style="stroke:#C82930;stroke-width:1.0;" width="6" x="212" y="59.8047"/><text fill="#000000" font-family="sans-serif" font-size="11" lengthAdjust="spacing" textLength="44" x="224" y="66.0151">doState</text><line style="stroke:#A80036;stroke-width:1.5;" x1="205" x2="394" y1="72.6094" y2="72.6094"/><ellipse cx="215" cy="83.6094" fill="#84BE84" rx="3" ry="3" style="stroke:#038048;stroke-width:1.0;"/><text fill="#000000" font-family="sans-serif" font-size="11" font-style="italic" lengthAdjust="spacing" textLength="88" x="224" y="86.8198">data() : &lt;data&gt;</text><ellipse cx="215" cy="96.4141" fill="#84BE84" rx="3" ry="3" style="stroke:#038048;stroke-width:1.0;"/><text fill="#000000" font-family="sans-serif" font-size="11" font-style="italic" lengthAdjust="spacing" textLength="165" x="224" y="99.6245">do(function, ...chunk) : chunk</text><!--MD5=[06a764555b0357cc210e184b5fa5231e]
class data--><rect codeLine="9" fill="#FEFECE" filter="url(#f1rv0yo1nof0r1)" height="73.6094" id="data" style="stroke:#A80036;stroke-width:1.5;" width="61" x="198" y="166"/><ellipse cx="213" cy="182" fill="#A9DCDF" rx="11" ry="11" style="stroke:#A80036;stroke-width:1.0;"/><path d="M213.1094,177.3438 L211.9531,182.4219 L214.2813,182.4219 L213.1094,177.3438 Z M211.625,175.1094 L214.6094,175.1094 L217.9688,187.5 L215.5156,187.5 L214.75,184.4375 L211.4688,184.4375 L210.7188,187.5 L208.2813,187.5 L211.625,175.1094 Z " fill="#000000"/><text fill="#000000" font-family="sans-serif" font-size="12" font-style="italic" lengthAdjust="spacing" textLength="29" x="227" y="186.1543">data</text><line style="stroke:#A80036;stroke-width:1.5;" x1="199" x2="258" y1="198" y2="198"/><rect fill="none" height="6" style="stroke:#C82930;stroke-width:1.0;" width="6" x="206" y="206"/><text fill="#000000" font-family="sans-serif" font-size="11" lengthAdjust="spacing" textLength="10" x="218" y="212.2104">id</text><line style="stroke:#A80036;stroke-width:1.5;" x1="199" x2="258" y1="218.8047" y2="218.8047"/><ellipse cx="209" cy="229.8047" fill="#84BE84" rx="3" ry="3" style="stroke:#038048;stroke-width:1.0;"/><text fill="#000000" font-family="sans-serif" font-size="11" lengthAdjust="spacing" textLength="33" x="218" y="233.0151">data()</text><!--MD5=[525ee671f68681372eb379ab55a65fc4]
class dataRequested--><rect codeLine="14" fill="#FEFECE" filter="url(#f1rv0yo1nof0r1)" height="73.6094" id="dataRequested" style="stroke:#A80036;stroke-width:1.5;" width="129" x="7" y="312.5"/><ellipse cx="22" cy="328.5" fill="#ADD1B2" rx="11" ry="11" style="stroke:#A80036;stroke-width:1.0;"/><path d="M24.9688,334.1406 Q24.3906,334.4375 23.75,334.5781 Q23.1094,334.7344 22.4063,334.7344 Q19.9063,334.7344 18.5781,333.0938 Q17.2656,331.4375 17.2656,328.3125 Q17.2656,325.1875 18.5781,323.5313 Q19.9063,321.875 22.4063,321.875 Q23.1094,321.875 23.75,322.0313 Q24.4063,322.1875 24.9688,322.4844 L24.9688,325.2031 Q24.3438,324.625 23.75,324.3594 Q23.1563,324.0781 22.5313,324.0781 Q21.1875,324.0781 20.5,325.1563 Q19.8125,326.2188 19.8125,328.3125 Q19.8125,330.4063 20.5,331.4844 Q21.1875,332.5469 22.5313,332.5469 Q23.1563,332.5469 23.75,332.2813 Q24.3438,332 24.9688,331.4219 L24.9688,334.1406 Z " fill="#000000"/><text fill="#000000" font-family="sans-serif" font-size="12" lengthAdjust="spacing" textLength="97" x="36" y="332.6543">dataRequested</text><line style="stroke:#A80036;stroke-width:1.5;" x1="8" x2="135" y1="344.5" y2="344.5"/><rect fill="none" height="6" style="stroke:#C82930;stroke-width:1.0;" width="6" x="15" y="352.5"/><text fill="#000000" font-family="sans-serif" font-size="11" lengthAdjust="spacing" textLength="10" x="27" y="358.7104">id</text><line style="stroke:#A80036;stroke-width:1.5;" x1="8" x2="135" y1="365.3047" y2="365.3047"/><ellipse cx="18" cy="376.3047" fill="#84BE84" rx="3" ry="3" style="stroke:#038048;stroke-width:1.0;"/><text fill="#000000" font-family="sans-serif" font-size="11" lengthAdjust="spacing" textLength="88" x="27" y="379.5151">data() : &lt;data&gt;</text><!--MD5=[8e770c6fc9eb6612326f882bb158b796]
class dataFixed--><rect codeLine="19" fill="#FEFECE" filter="url(#f1rv0yo1nof0r1)" height="99.2188" id="dataFixed" style="stroke:#A80036;stroke-width:1.5;" width="114" x="171.5" y="300"/><ellipse cx="195.95" cy="316" fill="#ADD1B2" rx="11" ry="11" style="stroke:#A80036;stroke-width:1.0;"/><path d="M198.9188,321.6406 Q198.3406,321.9375 197.7,322.0781 Q197.0594,322.2344 196.3563,322.2344 Q193.8563,322.2344 192.5281,320.5938 Q191.2156,318.9375 191.2156,315.8125 Q191.2156,312.6875 192.5281,311.0313 Q193.8563,309.375 196.3563,309.375 Q197.0594,309.375 197.7,309.5313 Q198.3563,309.6875 198.9188,309.9844 L198.9188,312.7031 Q198.2938,312.125 197.7,311.8594 Q197.1063,311.5781 196.4813,311.5781 Q195.1375,311.5781 194.45,312.6563 Q193.7625,313.7188 193.7625,315.8125 Q193.7625,317.9063 194.45,318.9844 Q195.1375,320.0469 196.4813,320.0469 Q197.1063,320.0469 197.7,319.7813 Q198.2938,319.5 198.9188,318.9219 L198.9188,321.6406 Z " fill="#000000"/><text fill="#000000" font-family="sans-serif" font-size="12" lengthAdjust="spacing" textLength="61" x="212.05" y="320.1543">dataFixed</text><line style="stroke:#A80036;stroke-width:1.5;" x1="172.5" x2="284.5" y1="332" y2="332"/><rect fill="none" height="6" style="stroke:#C82930;stroke-width:1.0;" width="6" x="179.5" y="340"/><text fill="#000000" font-family="sans-serif" font-size="11" lengthAdjust="spacing" textLength="10" x="191.5" y="346.2104">id</text><rect fill="none" height="6" style="stroke:#C82930;stroke-width:1.0;" width="6" x="179.5" y="352.8047"/><text fill="#000000" font-family="sans-serif" font-size="11" lengthAdjust="spacing" textLength="51" x="191.5" y="359.0151">dataAddr</text><rect fill="none" height="6" style="stroke:#C82930;stroke-width:1.0;" width="6" x="179.5" y="365.6094"/><text fill="#000000" font-family="sans-serif" font-size="11" lengthAdjust="spacing" textLength="80" x="191.5" y="371.8198">data : &lt;data&gt;</text><line style="stroke:#A80036;stroke-width:1.5;" x1="172.5" x2="284.5" y1="378.4141" y2="378.4141"/><ellipse cx="182.5" cy="389.4141" fill="#84BE84" rx="3" ry="3" style="stroke:#038048;stroke-width:1.0;"/><text fill="#000000" font-family="sans-serif" font-size="11" lengthAdjust="spacing" textLength="88" x="191.5" y="392.6245">data() : &lt;data&gt;</text><!--MD5=[93b2bfbf4c4d7df58603d0bea0822550]
class doState--><rect codeLine="27" fill="#FEFECE" filter="url(#f1rv0yo1nof0r1)" height="73.6094" id="doState" style="stroke:#A80036;stroke-width:1.5;" width="90" x="393.5" y="166"/><ellipse cx="412.1" cy="182" fill="#A9DCDF" rx="11" ry="11" style="stroke:#A80036;stroke-width:1.0;"/><path d="M412.2094,177.3438 L411.0531,182.4219 L413.3813,182.4219 L412.2094,177.3438 Z M410.725,175.1094 L413.7094,175.1094 L417.0688,187.5 L414.6156,187.5 L413.85,184.4375 L410.5688,184.4375 L409.8188,187.5 L407.3813,187.5 L410.725,175.1094 Z " fill="#000000"/><text fill="#000000" font-family="sans-serif" font-size="12" font-style="italic" lengthAdjust="spacing" textLength="50" x="426.9" y="186.1543">doState</text><line style="stroke:#A80036;stroke-width:1.5;" x1="394.5" x2="482.5" y1="198" y2="198"/><rect fill="none" height="6" style="stroke:#C82930;stroke-width:1.0;" width="6" x="401.5" y="206"/><text fill="#000000" font-family="sans-serif" font-size="11" lengthAdjust="spacing" textLength="64" x="413.5" y="212.2104">requestList</text><line style="stroke:#A80036;stroke-width:1.5;" x1="394.5" x2="482.5" y1="218.8047" y2="218.8047"/><ellipse cx="404.5" cy="229.8047" fill="#84BE84" rx="3" ry="3" style="stroke:#038048;stroke-width:1.0;"/><text fill="#000000" font-family="sans-serif" font-size="11" lengthAdjust="spacing" textLength="22" x="413.5" y="233.0151">do()</text><!--MD5=[c444c6195befdc54cf77672ce3fc3d2f]
class reqBackup--><rect codeLine="32" fill="#FEFECE" filter="url(#f1rv0yo1nof0r1)" height="73.6094" id="reqBackup" style="stroke:#A80036;stroke-width:1.5;" width="99" x="321" y="312.5"/><ellipse cx="336" cy="328.5" fill="#ADD1B2" rx="11" ry="11" style="stroke:#A80036;stroke-width:1.0;"/><path d="M338.9688,334.1406 Q338.3906,334.4375 337.75,334.5781 Q337.1094,334.7344 336.4063,334.7344 Q333.9063,334.7344 332.5781,333.0938 Q331.2656,331.4375 331.2656,328.3125 Q331.2656,325.1875 332.5781,323.5313 Q333.9063,321.875 336.4063,321.875 Q337.1094,321.875 337.75,322.0313 Q338.4063,322.1875 338.9688,322.4844 L338.9688,325.2031 Q338.3438,324.625 337.75,324.3594 Q337.1563,324.0781 336.5313,324.0781 Q335.1875,324.0781 334.5,325.1563 Q333.8125,326.2188 333.8125,328.3125 Q333.8125,330.4063 334.5,331.4844 Q335.1875,332.5469 336.5313,332.5469 Q337.1563,332.5469 337.75,332.2813 Q338.3438,332 338.9688,331.4219 L338.9688,334.1406 Z " fill="#000000"/><text fill="#000000" font-family="sans-serif" font-size="12" lengthAdjust="spacing" textLength="67" x="350" y="332.6543">reqBackup</text><line style="stroke:#A80036;stroke-width:1.5;" x1="322" x2="419" y1="344.5" y2="344.5"/><rect fill="none" height="6" style="stroke:#C82930;stroke-width:1.0;" width="6" x="329" y="352.5"/><text fill="#000000" font-family="sans-serif" font-size="11" lengthAdjust="spacing" textLength="64" x="341" y="358.7104">requestList</text><line style="stroke:#A80036;stroke-width:1.5;" x1="322" x2="419" y1="365.3047" y2="365.3047"/><ellipse cx="332" cy="376.3047" fill="#84BE84" rx="3" ry="3" style="stroke:#038048;stroke-width:1.0;"/><text fill="#000000" font-family="sans-serif" font-size="11" lengthAdjust="spacing" textLength="22" x="341" y="379.5151">do()</text><!--MD5=[d0258ba37b287faea367104f753cee34]
class reqRestore--><rect codeLine="37" fill="#FEFECE" filter="url(#f1rv0yo1nof0r1)" height="73.6094" id="reqRestore" style="stroke:#A80036;stroke-width:1.5;" width="102" x="455.5" y="312.5"/><ellipse cx="470.5" cy="328.5" fill="#ADD1B2" rx="11" ry="11" style="stroke:#A80036;stroke-width:1.0;"/><path d="M473.4688,334.1406 Q472.8906,334.4375 472.25,334.5781 Q471.6094,334.7344 470.9063,334.7344 Q468.4063,334.7344 467.0781,333.0938 Q465.7656,331.4375 465.7656,328.3125 Q465.7656,325.1875 467.0781,323.5313 Q468.4063,321.875 470.9063,321.875 Q471.6094,321.875 472.25,322.0313 Q472.9063,322.1875 473.4688,322.4844 L473.4688,325.2031 Q472.8438,324.625 472.25,324.3594 Q471.6563,324.0781 471.0313,324.0781 Q469.6875,324.0781 469,325.1563 Q468.3125,326.2188 468.3125,328.3125 Q468.3125,330.4063 469,331.4844 Q469.6875,332.5469 471.0313,332.5469 Q471.6563,332.5469 472.25,332.2813 Q472.8438,332 473.4688,331.4219 L473.4688,334.1406 Z " fill="#000000"/><text fill="#000000" font-family="sans-serif" font-size="12" lengthAdjust="spacing" textLength="70" x="484.5" y="332.6543">reqRestore</text><line style="stroke:#A80036;stroke-width:1.5;" x1="456.5" x2="556.5" y1="344.5" y2="344.5"/><rect fill="none" height="6" style="stroke:#C82930;stroke-width:1.0;" width="6" x="463.5" y="352.5"/><text fill="#000000" font-family="sans-serif" font-size="11" lengthAdjust="spacing" textLength="64" x="475.5" y="358.7104">requestList</text><line style="stroke:#A80036;stroke-width:1.5;" x1="456.5" x2="556.5" y1="365.3047" y2="365.3047"/><ellipse cx="466.5" cy="376.3047" fill="#84BE84" rx="3" ry="3" style="stroke:#038048;stroke-width:1.0;"/><text fill="#000000" font-family="sans-serif" font-size="11" lengthAdjust="spacing" textLength="22" x="475.5" y="379.5151">do()</text><!--MD5=[c998ad99a21923af76246a34f24c4827]
class noReqs--><rect codeLine="42" fill="#FEFECE" filter="url(#f1rv0yo1nof0r1)" height="73.6094" id="noReqs" style="stroke:#A80036;stroke-width:1.5;" width="90" x="592.5" y="312.5"/><ellipse cx="612.45" cy="328.5" fill="#ADD1B2" rx="11" ry="11" style="stroke:#A80036;stroke-width:1.0;"/><path d="M615.4188,334.1406 Q614.8406,334.4375 614.2,334.5781 Q613.5594,334.7344 612.8563,334.7344 Q610.3563,334.7344 609.0281,333.0938 Q607.7156,331.4375 607.7156,328.3125 Q607.7156,325.1875 609.0281,323.5313 Q610.3563,321.875 612.8563,321.875 Q613.5594,321.875 614.2,322.0313 Q614.8563,322.1875 615.4188,322.4844 L615.4188,325.2031 Q614.7938,324.625 614.2,324.3594 Q613.6063,324.0781 612.9813,324.0781 Q611.6375,324.0781 610.95,325.1563 Q610.2625,326.2188 610.2625,328.3125 Q610.2625,330.4063 610.95,331.4844 Q611.6375,332.5469 612.9813,332.5469 Q613.6063,332.5469 614.2,332.2813 Q614.7938,332 615.4188,331.4219 L615.4188,334.1406 Z " fill="#000000"/><text fill="#000000" font-family="sans-serif" font-size="12" lengthAdjust="spacing" textLength="47" x="627.55" y="332.6543">noReqs</text><line style="stroke:#A80036;stroke-width:1.5;" x1="593.5" x2="681.5" y1="344.5" y2="344.5"/><rect fill="none" height="6" style="stroke:#C82930;stroke-width:1.0;" width="6" x="600.5" y="352.5"/><text fill="#000000" font-family="sans-serif" font-size="11" lengthAdjust="spacing" textLength="64" x="612.5" y="358.7104">requestList</text><line style="stroke:#A80036;stroke-width:1.5;" x1="593.5" x2="681.5" y1="365.3047" y2="365.3047"/><ellipse cx="603.5" cy="376.3047" fill="#84BE84" rx="3" ry="3" style="stroke:#038048;stroke-width:1.0;"/><text fill="#000000" font-family="sans-serif" font-size="11" lengthAdjust="spacing" textLength="22" x="612.5" y="379.5151">do()</text><!--MD5=[5960e559f7e2179bf6493a2ffdcd11f4]
reverse link chunk to data--><path codeLine="47" d="M269.92,117.7 C261.9,134.02 253.47,151.17 246.33,165.72 " fill="none" id="chunk-backto-data" style="stroke:#A80036;stroke-width:1.0;"/><polygon fill="#FFFFFF" points="275.66,106.02,269.4256,109.6438,270.3727,116.7924,276.6071,113.1686,275.66,106.02" style="stroke:#A80036;stroke-width:1.0;"/><!--MD5=[c13026ce5d1cf5d419838b29fe16cc43]
reverse link chunk to doState--><path codeLine="48" d="M355.58,115.8 C371.82,132.68 389.07,150.61 403.6,165.72 " fill="none" id="chunk-backto-doState" style="stroke:#A80036;stroke-width:1.0;"/><polygon fill="#FFFFFF" points="346.17,106.02,347.4466,113.1172,354.4889,114.6685,353.2123,107.5713,346.17,106.02" style="stroke:#A80036;stroke-width:1.0;"/><!--MD5=[b0409a687b1b0198ed063ef677a6eeb8]
reverse link doState to reqBackup--><path codeLine="49" d="M412.88,258.45 C404.4,276.47 395.17,296.07 387.5,312.37 " fill="none" id="doState-backto-reqBackup" style="stroke:#A80036;stroke-width:1.0;"/><polygon fill="none" points="406.67,255.21,421.52,240.09,419.33,261.17,406.67,255.21" style="stroke:#A80036;stroke-width:1.0;"/><!--MD5=[fe6621b47094369130d26b02203f7010]
reverse link doState to noReqs--><path codeLine="50" d="M500.23,246.23 C523.96,262.73 551.18,281.99 575.5,300 C580.99,304.07 586.7,308.4 592.34,312.73 " fill="none" id="doState-backto-noReqs" style="stroke:#A80036;stroke-width:1.0;"/><polygon fill="none" points="496.12,251.9,483.66,234.76,504.09,240.39,496.12,251.9" style="stroke:#A80036;stroke-width:1.0;"/><!--MD5=[f1f310373fcfeb3a4c0e9dec3080e4a3]
reverse link doState to reqRestore--><path codeLine="51" d="M464.12,258.45 C472.6,276.47 481.83,296.07 489.5,312.37 " fill="none" id="doState-backto-reqRestore" style="stroke:#A80036;stroke-width:1.0;"/><polygon fill="none" points="457.67,261.17,455.48,240.09,470.33,255.21,457.67,261.17" style="stroke:#A80036;stroke-width:1.0;"/><!--MD5=[577ceec20258ef33d24c49e7d611e53a]
reverse link data to dataFixed--><path codeLine="52" d="M228.5,260.35 C228.5,273.38 228.5,287.13 228.5,299.8 " fill="none" id="data-backto-dataFixed" style="stroke:#A80036;stroke-width:1.0;"/><polygon fill="none" points="221.5,260.09,228.5,240.09,235.5,260.09,221.5,260.09" style="stroke:#A80036;stroke-width:1.0;"/><!--MD5=[ce1b617225dd58581ad7bdf18b0f2221]
reverse link data to dataRequested--><path codeLine="53" d="M182.88,245.99 C160.02,267.03 132.62,292.25 110.72,312.4 " fill="none" id="data-backto-dataRequested" style="stroke:#A80036;stroke-width:1.0;"/><polygon fill="none" points="178.4,240.6,197.86,232.2,187.88,250.9,178.4,240.6" style="stroke:#A80036;stroke-width:1.0;"/><!--MD5=[e88135db59cadb60bc032ba6dd9c794e]
@startuml

class chunk {
    -data
    -doState
    {abstract} +data() : <data>
    {abstract} +do(function, ...chunk) : chunk
}

abstract class data {
	-id
        +data()
}

class dataRequested {
	-id
    +data() : <data>
}

class dataFixed {
    -id
    -dataAddr
    -data : <data>
    +data() : <data>
}


abstract class doState {
    -requestList
    +do()
}

class reqBackup {
    -requestList
    +do()
}

class reqRestore {
    -requestList
    +do()
}

class noReqs {
    -requestList
    +do()
}

chunk o- - data
chunk o- - doState
doState <|- - reqBackup
doState <|- - noReqs
doState <|- - reqRestore
data <|- - dataFixed
data <|- - dataRequested

@enduml

PlantUML version 1.2021.15(Wed Dec 01 05:45:34 NZDT 2021)
(GPL source distribution)
Java Runtime: OpenJDK Runtime Environment
JVM: OpenJDK 64-Bit Server VM
Default Encoding: UTF-8
Language: en
Country: NZ
--></g></svg>