<?xml version="1.0" encoding="UTF-8" standalone="no"?><svg xmlns="http://www.w3.org/2000/svg" xmlns:xlink="http://www.w3.org/1999/xlink" contentScriptType="application/ecmascript" contentStyleType="text/css" height="375px" preserveAspectRatio="none" style="width:295px;height:375px;background:#FFFFFF;" version="1.1" viewBox="0 0 295 375" width="295px" zoomAndPan="magnify"><defs><filter height="300%" id="f13cb6xmfqz1bj" width="300%" x="-1" y="-1"><feGaussianBlur result="blurOut" stdDeviation="2.0"/><feColorMatrix in="blurOut" result="blurOut2" type="matrix" values="0 0 0 0 0 0 0 0 0 0 0 0 0 0 0 0 0 0 .4 0"/><feOffset dx="4.0" dy="4.0" in="blurOut2" result="blurOut3"/><feBlend in="SourceGraphic" in2="blurOut3" mode="normal"/></filter></defs><g><!--MD5=[276382e3c498b6c1daa37bd79e75248e]
class chunk--><rect codeLine="2" fill="#FEFECE" filter="url(#f13cb6xmfqz1bj)" height="73.6094" id="chunk" style="stroke:#A80036;stroke-width:1.5;" width="191" x="51" y="7"/><ellipse cx="123.25" cy="23" fill="#ADD1B2" rx="11" ry="11" style="stroke:#A80036;stroke-width:1.0;"/><path d="M126.2188,28.6406 Q125.6406,28.9375 125,29.0781 Q124.3594,29.2344 123.6563,29.2344 Q121.1563,29.2344 119.8281,27.5938 Q118.5156,25.9375 118.5156,22.8125 Q118.5156,19.6875 119.8281,18.0313 Q121.1563,16.375 123.6563,16.375 Q124.3594,16.375 125,16.5313 Q125.6563,16.6875 126.2188,16.9844 L126.2188,19.7031 Q125.5938,19.125 125,18.8594 Q124.4063,18.5781 123.7813,18.5781 Q122.4375,18.5781 121.75,19.6563 Q121.0625,20.7188 121.0625,22.8125 Q121.0625,24.9063 121.75,25.9844 Q122.4375,27.0469 123.7813,27.0469 Q124.4063,27.0469 125,26.7813 Q125.5938,26.5 126.2188,25.9219 L126.2188,28.6406 Z " fill="#000000"/><text fill="#000000" font-family="sans-serif" font-size="12" lengthAdjust="spacing" textLength="38" x="143.75" y="27.1543">chunk</text><line style="stroke:#A80036;stroke-width:1.5;" x1="52" x2="241" y1="39" y2="39"/><line style="stroke:#A80036;stroke-width:1.5;" x1="52" x2="241" y1="47" y2="47"/><ellipse cx="62" cy="58" fill="#84BE84" rx="3" ry="3" style="stroke:#038048;stroke-width:1.0;"/><text fill="#000000" font-family="sans-serif" font-size="11" font-style="italic" lengthAdjust="spacing" textLength="88" x="71" y="61.2104">data() : &lt;data&gt;</text><ellipse cx="62" cy="70.8047" fill="#84BE84" rx="3" ry="3" style="stroke:#038048;stroke-width:1.0;"/><text fill="#000000" font-family="sans-serif" font-size="11" font-style="italic" lengthAdjust="spacing" textLength="165" x="71" y="74.0151">do(function, ...chunk) : chunk</text><!--MD5=[06a764555b0357cc210e184b5fa5231e]
class data--><rect codeLine="7" fill="#FEFECE" filter="url(#f13cb6xmfqz1bj)" height="73.6094" id="data" style="stroke:#A80036;stroke-width:1.5;" width="61" x="116" y="141"/><ellipse cx="131" cy="157" fill="#A9DCDF" rx="11" ry="11" style="stroke:#A80036;stroke-width:1.0;"/><path d="M131.1094,152.3438 L129.9531,157.4219 L132.2813,157.4219 L131.1094,152.3438 Z M129.625,150.1094 L132.6094,150.1094 L135.9688,162.5 L133.5156,162.5 L132.75,159.4375 L129.4688,159.4375 L128.7188,162.5 L126.2813,162.5 L129.625,150.1094 Z " fill="#000000"/><text fill="#000000" font-family="sans-serif" font-size="12" font-style="italic" lengthAdjust="spacing" textLength="29" x="145" y="161.1543">data</text><line style="stroke:#A80036;stroke-width:1.5;" x1="117" x2="176" y1="173" y2="173"/><rect fill="none" height="6" style="stroke:#C82930;stroke-width:1.0;" width="6" x="124" y="181"/><text fill="#000000" font-family="sans-serif" font-size="11" lengthAdjust="spacing" textLength="10" x="136" y="187.2104">id</text><line style="stroke:#A80036;stroke-width:1.5;" x1="117" x2="176" y1="193.8047" y2="193.8047"/><ellipse cx="127" cy="204.8047" fill="#84BE84" rx="3" ry="3" style="stroke:#038048;stroke-width:1.0;"/><text fill="#000000" font-family="sans-serif" font-size="11" lengthAdjust="spacing" textLength="33" x="136" y="208.0151">data()</text><!--MD5=[6d81b43edd7bba4c1d18618957bd9e9b]
class dataComputed--><rect codeLine="12" fill="#FEFECE" filter="url(#f13cb6xmfqz1bj)" height="86.4141" id="dataComputed" style="stroke:#A80036;stroke-width:1.5;" width="125" x="7" y="275"/><ellipse cx="22" cy="291" fill="#ADD1B2" rx="11" ry="11" style="stroke:#A80036;stroke-width:1.0;"/><path d="M24.9688,296.6406 Q24.3906,296.9375 23.75,297.0781 Q23.1094,297.2344 22.4063,297.2344 Q19.9063,297.2344 18.5781,295.5938 Q17.2656,293.9375 17.2656,290.8125 Q17.2656,287.6875 18.5781,286.0313 Q19.9063,284.375 22.4063,284.375 Q23.1094,284.375 23.75,284.5313 Q24.4063,284.6875 24.9688,284.9844 L24.9688,287.7031 Q24.3438,287.125 23.75,286.8594 Q23.1563,286.5781 22.5313,286.5781 Q21.1875,286.5781 20.5,287.6563 Q19.8125,288.7188 19.8125,290.8125 Q19.8125,292.9063 20.5,293.9844 Q21.1875,295.0469 22.5313,295.0469 Q23.1563,295.0469 23.75,294.7813 Q24.3438,294.5 24.9688,293.9219 L24.9688,296.6406 Z " fill="#000000"/><text fill="#000000" font-family="sans-serif" font-size="12" lengthAdjust="spacing" textLength="93" x="36" y="295.1543">dataComputed</text><line style="stroke:#A80036;stroke-width:1.5;" x1="8" x2="131" y1="307" y2="307"/><rect fill="none" height="6" style="stroke:#C82930;stroke-width:1.0;" width="6" x="15" y="315"/><text fill="#000000" font-family="sans-serif" font-size="11" lengthAdjust="spacing" textLength="10" x="27" y="321.2104">id</text><rect fill="none" height="6" style="stroke:#C82930;stroke-width:1.0;" width="6" x="15" y="327.8047"/><text fill="#000000" font-family="sans-serif" font-size="11" lengthAdjust="spacing" textLength="51" x="27" y="334.0151">dataAddr</text><line style="stroke:#A80036;stroke-width:1.5;" x1="8" x2="131" y1="340.6094" y2="340.6094"/><ellipse cx="18" cy="351.6094" fill="#84BE84" rx="3" ry="3" style="stroke:#038048;stroke-width:1.0;"/><text fill="#000000" font-family="sans-serif" font-size="11" lengthAdjust="spacing" textLength="88" x="27" y="354.8198">data() : &lt;data&gt;</text><!--MD5=[8e770c6fc9eb6612326f882bb158b796]
class dataFixed--><rect codeLine="18" fill="#FEFECE" filter="url(#f13cb6xmfqz1bj)" height="86.4141" id="dataFixed" style="stroke:#A80036;stroke-width:1.5;" width="114" x="167.5" y="275"/><ellipse cx="191.95" cy="291" fill="#ADD1B2" rx="11" ry="11" style="stroke:#A80036;stroke-width:1.0;"/><path d="M194.9188,296.6406 Q194.3406,296.9375 193.7,297.0781 Q193.0594,297.2344 192.3563,297.2344 Q189.8563,297.2344 188.5281,295.5938 Q187.2156,293.9375 187.2156,290.8125 Q187.2156,287.6875 188.5281,286.0313 Q189.8563,284.375 192.3563,284.375 Q193.0594,284.375 193.7,284.5313 Q194.3563,284.6875 194.9188,284.9844 L194.9188,287.7031 Q194.2938,287.125 193.7,286.8594 Q193.1063,286.5781 192.4813,286.5781 Q191.1375,286.5781 190.45,287.6563 Q189.7625,288.7188 189.7625,290.8125 Q189.7625,292.9063 190.45,293.9844 Q191.1375,295.0469 192.4813,295.0469 Q193.1063,295.0469 193.7,294.7813 Q194.2938,294.5 194.9188,293.9219 L194.9188,296.6406 Z " fill="#000000"/><text fill="#000000" font-family="sans-serif" font-size="12" lengthAdjust="spacing" textLength="61" x="208.05" y="295.1543">dataFixed</text><line style="stroke:#A80036;stroke-width:1.5;" x1="168.5" x2="280.5" y1="307" y2="307"/><rect fill="none" height="6" style="stroke:#C82930;stroke-width:1.0;" width="6" x="175.5" y="315"/><text fill="#000000" font-family="sans-serif" font-size="11" lengthAdjust="spacing" textLength="10" x="187.5" y="321.2104">id</text><rect fill="none" height="6" style="stroke:#C82930;stroke-width:1.0;" width="6" x="175.5" y="327.8047"/><text fill="#000000" font-family="sans-serif" font-size="11" lengthAdjust="spacing" textLength="80" x="187.5" y="334.0151">data : &lt;data&gt;</text><line style="stroke:#A80036;stroke-width:1.5;" x1="168.5" x2="280.5" y1="340.6094" y2="340.6094"/><ellipse cx="178.5" cy="351.6094" fill="#84BE84" rx="3" ry="3" style="stroke:#038048;stroke-width:1.0;"/><text fill="#000000" font-family="sans-serif" font-size="11" lengthAdjust="spacing" textLength="88" x="187.5" y="354.8198">data() : &lt;data&gt;</text><!--MD5=[5960e559f7e2179bf6493a2ffdcd11f4]
reverse link chunk to data--><path codeLine="24" d="M146.5,94.26 C146.5,109.76 146.5,126.57 146.5,140.97 " fill="none" id="chunk-backto-data" style="stroke:#A80036;stroke-width:1.0;"/><polygon fill="#FFFFFF" points="146.5,81.07,142.5,87.07,146.5,93.07,150.5,87.07,146.5,81.07" style="stroke:#A80036;stroke-width:1.0;"/><!--MD5=[577ceec20258ef33d24c49e7d611e53a]
reverse link data to dataFixed--><path codeLine="25" d="M176.91,232.8 C184.75,246.68 193.08,261.42 200.55,274.62 " fill="none" id="data-backto-dataFixed" style="stroke:#A80036;stroke-width:1.0;"/><polygon fill="none" points="170.74,236.11,166.99,215.26,182.93,229.22,170.74,236.11" style="stroke:#A80036;stroke-width:1.0;"/><!--MD5=[6742e6fcf49612d7bfb9c75a099de9b5]
reverse link data to dataComputed--><path codeLine="26" d="M116.48,232.8 C108.74,246.68 100.51,261.42 93.15,274.62 " fill="none" id="data-backto-dataComputed" style="stroke:#A80036;stroke-width:1.0;"/><polygon fill="none" points="110.41,229.31,126.27,215.26,122.64,236.13,110.41,229.31" style="stroke:#A80036;stroke-width:1.0;"/><!--MD5=[51dbe9de7225adc839a73f9c5414501b]
@startuml

class chunk {
        {abstract} +data() : <data>
        {abstract} +do(function, ...chunk) : chunk
}

abstract class data {
	-id
        +data()
}

class dataComputed {
	-id
	-dataAddr
        +data() : <data>
}

class dataFixed {
	-id
	-data : <data>
        +data() : <data>
}

chunk o- - data
data <|- - dataFixed
data <|- - dataComputed

@enduml

PlantUML version 1.2021.15(Wed Dec 01 05:45:34 NZDT 2021)
(GPL source distribution)
Java Runtime: OpenJDK Runtime Environment
JVM: OpenJDK 64-Bit Server VM
Default Encoding: UTF-8
Language: en
Country: NZ
--></g></svg>