<?xml version="1.0" encoding="UTF-8" standalone="no"?><svg xmlns="http://www.w3.org/2000/svg" xmlns:xlink="http://www.w3.org/1999/xlink" contentScriptType="application/ecmascript" contentStyleType="text/css" height="655px" preserveAspectRatio="none" style="width:531px;height:655px;background:#FFFFFF;" version="1.1" viewBox="0 0 531 655" width="531px" zoomAndPan="magnify"><defs><filter height="300%" id="fkvpat9bkphli" width="300%" x="-1" y="-1"><feGaussianBlur result="blurOut" stdDeviation="2.0"/><feColorMatrix in="blurOut" result="blurOut2" type="matrix" values="0 0 0 0 0 0 0 0 0 0 0 0 0 0 0 0 0 0 .4 0"/><feOffset dx="4.0" dy="4.0" in="blurOut2" result="blurOut3"/><feBlend in="SourceGraphic" in2="blurOut3" mode="normal"/></filter></defs><g><!--MD5=[1d128861812e435bc422c00dd5eed5e6]
class dobj--><rect codeLine="2" fill="#FEFECE" filter="url(#fkvpat9bkphli)" height="99.2188" id="dobj" style="stroke:#A80036;stroke-width:1.5;" width="191" x="220.5" y="7"/><ellipse cx="298.25" cy="23" fill="#ADD1B2" rx="11" ry="11" style="stroke:#A80036;stroke-width:1.0;"/><path d="M301.2188,28.6406 Q300.6406,28.9375 300,29.0781 Q299.3594,29.2344 298.6563,29.2344 Q296.1563,29.2344 294.8281,27.5938 Q293.5156,25.9375 293.5156,22.8125 Q293.5156,19.6875 294.8281,18.0313 Q296.1563,16.375 298.6563,16.375 Q299.3594,16.375 300,16.5313 Q300.6563,16.6875 301.2188,16.9844 L301.2188,19.7031 Q300.5938,19.125 300,18.8594 Q299.4063,18.5781 298.7813,18.5781 Q297.4375,18.5781 296.75,19.6563 Q296.0625,20.7188 296.0625,22.8125 Q296.0625,24.9063 296.75,25.9844 Q297.4375,27.0469 298.7813,27.0469 Q299.4063,27.0469 300,26.7813 Q300.5938,26.5 301.2188,25.9219 L301.2188,28.6406 Z " fill="#000000"/><text fill="#000000" font-family="sans-serif" font-size="12" lengthAdjust="spacing" textLength="27" x="318.75" y="27.1543">dobj</text><line style="stroke:#A80036;stroke-width:1.5;" x1="221.5" x2="410.5" y1="39" y2="39"/><rect fill="none" height="6" style="stroke:#C82930;stroke-width:1.0;" width="6" x="228.5" y="47"/><text fill="#000000" font-family="sans-serif" font-size="11" lengthAdjust="spacing" textLength="25" x="240.5" y="53.2104">data</text><rect fill="none" height="6" style="stroke:#C82930;stroke-width:1.0;" width="6" x="228.5" y="59.8047"/><text fill="#000000" font-family="sans-serif" font-size="11" lengthAdjust="spacing" textLength="44" x="240.5" y="66.0151">doState</text><line style="stroke:#A80036;stroke-width:1.5;" x1="221.5" x2="410.5" y1="72.6094" y2="72.6094"/><ellipse cx="231.5" cy="83.6094" fill="#84BE84" rx="3" ry="3" style="stroke:#038048;stroke-width:1.0;"/><text fill="#000000" font-family="sans-serif" font-size="11" font-style="italic" lengthAdjust="spacing" textLength="88" x="240.5" y="86.8198">data() : &lt;data&gt;</text><ellipse cx="231.5" cy="96.4141" fill="#84BE84" rx="3" ry="3" style="stroke:#038048;stroke-width:1.0;"/><text fill="#000000" font-family="sans-serif" font-size="11" font-style="italic" lengthAdjust="spacing" textLength="165" x="240.5" y="99.6245">do(function, ...chunk) : chunk</text><!--MD5=[b33bf8eb1a30ce50f6a73a2dda669439]
class compositedobj--><rect codeLine="9" fill="#FEFECE" filter="url(#fkvpat9bkphli)" height="124.8281" id="compositedobj" style="stroke:#A80036;stroke-width:1.5;" width="191" x="220.5" y="166"/><ellipse cx="265.75" cy="182" fill="#ADD1B2" rx="11" ry="11" style="stroke:#A80036;stroke-width:1.0;"/><path d="M268.7188,187.6406 Q268.1406,187.9375 267.5,188.0781 Q266.8594,188.2344 266.1563,188.2344 Q263.6563,188.2344 262.3281,186.5938 Q261.0156,184.9375 261.0156,181.8125 Q261.0156,178.6875 262.3281,177.0313 Q263.6563,175.375 266.1563,175.375 Q266.8594,175.375 267.5,175.5313 Q268.1563,175.6875 268.7188,175.9844 L268.7188,178.7031 Q268.0938,178.125 267.5,177.8594 Q266.9063,177.5781 266.2813,177.5781 Q264.9375,177.5781 264.25,178.6563 Q263.5625,179.7188 263.5625,181.8125 Q263.5625,183.9063 264.25,184.9844 Q264.9375,186.0469 266.2813,186.0469 Q266.9063,186.0469 267.5,185.7813 Q268.0938,185.5 268.7188,184.9219 L268.7188,187.6406 Z " fill="#000000"/><text fill="#000000" font-family="sans-serif" font-size="12" lengthAdjust="spacing" textLength="92" x="286.25" y="186.1543">compositedobj</text><line style="stroke:#A80036;stroke-width:1.5;" x1="221.5" x2="410.5" y1="198" y2="198"/><text fill="#000000" font-family="sans-serif" font-size="11" lengthAdjust="spacing" textLength="74" x="226.5" y="212.2104">children : list</text><line style="stroke:#A80036;stroke-width:1.5;" x1="221.5" x2="410.5" y1="218.8047" y2="218.8047"/><ellipse cx="231.5" cy="229.8047" fill="#84BE84" rx="3" ry="3" style="stroke:#038048;stroke-width:1.0;"/><text fill="#000000" font-family="sans-serif" font-size="11" lengthAdjust="spacing" textLength="88" x="240.5" y="233.0151">data() : &lt;data&gt;</text><ellipse cx="231.5" cy="242.6094" fill="#84BE84" rx="3" ry="3" style="stroke:#038048;stroke-width:1.0;"/><text fill="#000000" font-family="sans-serif" font-size="11" lengthAdjust="spacing" textLength="165" x="240.5" y="245.8198">do(function, ...chunk) : chunk</text><ellipse cx="231.5" cy="255.4141" fill="#84BE84" rx="3" ry="3" style="stroke:#038048;stroke-width:1.0;"/><text fill="#000000" font-family="sans-serif" font-size="11" lengthAdjust="spacing" textLength="73" x="240.5" y="258.6245">getChildren()</text><ellipse cx="231.5" cy="268.2188" fill="#84BE84" rx="3" ry="3" style="stroke:#038048;stroke-width:1.0;"/><text fill="#000000" font-family="sans-serif" font-size="11" lengthAdjust="spacing" textLength="57" x="240.5" y="271.4292">addChild()</text><ellipse cx="231.5" cy="281.0234" fill="#84BE84" rx="3" ry="3" style="stroke:#038048;stroke-width:1.0;"/><text fill="#000000" font-family="sans-serif" font-size="11" lengthAdjust="spacing" textLength="79" x="240.5" y="284.2339">removeChild()</text><!--MD5=[276382e3c498b6c1daa37bd79e75248e]
class chunk--><rect codeLine="18" fill="#FEFECE" filter="url(#fkvpat9bkphli)" height="73.6094" id="chunk" style="stroke:#A80036;stroke-width:1.5;" width="191" x="166.5" y="459"/><ellipse cx="238.75" cy="475" fill="#ADD1B2" rx="11" ry="11" style="stroke:#A80036;stroke-width:1.0;"/><path d="M241.7188,480.6406 Q241.1406,480.9375 240.5,481.0781 Q239.8594,481.2344 239.1563,481.2344 Q236.6563,481.2344 235.3281,479.5938 Q234.0156,477.9375 234.0156,474.8125 Q234.0156,471.6875 235.3281,470.0313 Q236.6563,468.375 239.1563,468.375 Q239.8594,468.375 240.5,468.5313 Q241.1563,468.6875 241.7188,468.9844 L241.7188,471.7031 Q241.0938,471.125 240.5,470.8594 Q239.9063,470.5781 239.2813,470.5781 Q237.9375,470.5781 237.25,471.6563 Q236.5625,472.7188 236.5625,474.8125 Q236.5625,476.9063 237.25,477.9844 Q237.9375,479.0469 239.2813,479.0469 Q239.9063,479.0469 240.5,478.7813 Q241.0938,478.5 241.7188,477.9219 L241.7188,480.6406 Z " fill="#000000"/><text fill="#000000" font-family="sans-serif" font-size="12" lengthAdjust="spacing" textLength="38" x="259.25" y="479.1543">chunk</text><line style="stroke:#A80036;stroke-width:1.5;" x1="167.5" x2="356.5" y1="491" y2="491"/><line style="stroke:#A80036;stroke-width:1.5;" x1="167.5" x2="356.5" y1="499" y2="499"/><ellipse cx="177.5" cy="510" fill="#84BE84" rx="3" ry="3" style="stroke:#038048;stroke-width:1.0;"/><text fill="#000000" font-family="sans-serif" font-size="11" lengthAdjust="spacing" textLength="88" x="186.5" y="513.2104">data() : &lt;data&gt;</text><ellipse cx="177.5" cy="522.8047" fill="#84BE84" rx="3" ry="3" style="stroke:#038048;stroke-width:1.0;"/><text fill="#000000" font-family="sans-serif" font-size="11" lengthAdjust="spacing" textLength="165" x="186.5" y="526.0151">do(function, ...chunk) : chunk</text><!--MD5=[7956194bdb6308525aaa53476ed36bda]
class colBlockMat--><rect fill="#FEFECE" filter="url(#fkvpat9bkphli)" height="48" id="colBlockMat" style="stroke:#A80036;stroke-width:1.5;" width="106" x="7" y="472"/><ellipse cx="22" cy="488" fill="#ADD1B2" rx="11" ry="11" style="stroke:#A80036;stroke-width:1.0;"/><path d="M24.9688,493.6406 Q24.3906,493.9375 23.75,494.0781 Q23.1094,494.2344 22.4063,494.2344 Q19.9063,494.2344 18.5781,492.5938 Q17.2656,490.9375 17.2656,487.8125 Q17.2656,484.6875 18.5781,483.0313 Q19.9063,481.375 22.4063,481.375 Q23.1094,481.375 23.75,481.5313 Q24.4063,481.6875 24.9688,481.9844 L24.9688,484.7031 Q24.3438,484.125 23.75,483.8594 Q23.1563,483.5781 22.5313,483.5781 Q21.1875,483.5781 20.5,484.6563 Q19.8125,485.7188 19.8125,487.8125 Q19.8125,489.9063 20.5,490.9844 Q21.1875,492.0469 22.5313,492.0469 Q23.1563,492.0469 23.75,491.7813 Q24.3438,491.5 24.9688,490.9219 L24.9688,493.6406 Z " fill="#000000"/><text fill="#000000" font-family="sans-serif" font-size="12" lengthAdjust="spacing" textLength="74" x="36" y="492.1543">colBlockMat</text><line style="stroke:#A80036;stroke-width:1.5;" x1="8" x2="112" y1="504" y2="504"/><line style="stroke:#A80036;stroke-width:1.5;" x1="8" x2="112" y1="512" y2="512"/><!--MD5=[211f34abff53f59b1f5cfd8cc85d44c6]
class colChunk--><rect fill="#FEFECE" filter="url(#fkvpat9bkphli)" height="48" id="colChunk" style="stroke:#A80036;stroke-width:1.5;" width="89" x="135.5" y="593"/><ellipse cx="150.5" cy="609" fill="#ADD1B2" rx="11" ry="11" style="stroke:#A80036;stroke-width:1.0;"/><path d="M153.4688,614.6406 Q152.8906,614.9375 152.25,615.0781 Q151.6094,615.2344 150.9063,615.2344 Q148.4063,615.2344 147.0781,613.5938 Q145.7656,611.9375 145.7656,608.8125 Q145.7656,605.6875 147.0781,604.0313 Q148.4063,602.375 150.9063,602.375 Q151.6094,602.375 152.25,602.5313 Q152.9063,602.6875 153.4688,602.9844 L153.4688,605.7031 Q152.8438,605.125 152.25,604.8594 Q151.6563,604.5781 151.0313,604.5781 Q149.6875,604.5781 149,605.6563 Q148.3125,606.7188 148.3125,608.8125 Q148.3125,610.9063 149,611.9844 Q149.6875,613.0469 151.0313,613.0469 Q151.6563,613.0469 152.25,612.7813 Q152.8438,612.5 153.4688,611.9219 L153.4688,614.6406 Z " fill="#000000"/><text fill="#000000" font-family="sans-serif" font-size="12" lengthAdjust="spacing" textLength="57" x="164.5" y="613.1543">colChunk</text><line style="stroke:#A80036;stroke-width:1.5;" x1="136.5" x2="223.5" y1="625" y2="625"/><line style="stroke:#A80036;stroke-width:1.5;" x1="136.5" x2="223.5" y1="633" y2="633"/><!--MD5=[8ef761028dae83a6f2ce3eb1fa468ac7]
class rowBlockMat--><rect fill="#FEFECE" filter="url(#fkvpat9bkphli)" height="48" id="rowBlockMat" style="stroke:#A80036;stroke-width:1.5;" width="110" x="407" y="472"/><ellipse cx="422" cy="488" fill="#ADD1B2" rx="11" ry="11" style="stroke:#A80036;stroke-width:1.0;"/><path d="M424.9688,493.6406 Q424.3906,493.9375 423.75,494.0781 Q423.1094,494.2344 422.4063,494.2344 Q419.9063,494.2344 418.5781,492.5938 Q417.2656,490.9375 417.2656,487.8125 Q417.2656,484.6875 418.5781,483.0313 Q419.9063,481.375 422.4063,481.375 Q423.1094,481.375 423.75,481.5313 Q424.4063,481.6875 424.9688,481.9844 L424.9688,484.7031 Q424.3438,484.125 423.75,483.8594 Q423.1563,483.5781 422.5313,483.5781 Q421.1875,483.5781 420.5,484.6563 Q419.8125,485.7188 419.8125,487.8125 Q419.8125,489.9063 420.5,490.9844 Q421.1875,492.0469 422.5313,492.0469 Q423.1563,492.0469 423.75,491.7813 Q424.3438,491.5 424.9688,490.9219 L424.9688,493.6406 Z " fill="#000000"/><text fill="#000000" font-family="sans-serif" font-size="12" lengthAdjust="spacing" textLength="78" x="436" y="492.1543">rowBlockMat</text><line style="stroke:#A80036;stroke-width:1.5;" x1="408" x2="516" y1="504" y2="504"/><line style="stroke:#A80036;stroke-width:1.5;" x1="408" x2="516" y1="512" y2="512"/><!--MD5=[d302f12d9d6dcc6ed72d3f8b4c1e68f2]
class rowChunk--><rect fill="#FEFECE" filter="url(#fkvpat9bkphli)" height="48" id="rowChunk" style="stroke:#A80036;stroke-width:1.5;" width="93" x="297.5" y="593"/><ellipse cx="312.5" cy="609" fill="#ADD1B2" rx="11" ry="11" style="stroke:#A80036;stroke-width:1.0;"/><path d="M315.4688,614.6406 Q314.8906,614.9375 314.25,615.0781 Q313.6094,615.2344 312.9063,615.2344 Q310.4063,615.2344 309.0781,613.5938 Q307.7656,611.9375 307.7656,608.8125 Q307.7656,605.6875 309.0781,604.0313 Q310.4063,602.375 312.9063,602.375 Q313.6094,602.375 314.25,602.5313 Q314.9063,602.6875 315.4688,602.9844 L315.4688,605.7031 Q314.8438,605.125 314.25,604.8594 Q313.6563,604.5781 313.0313,604.5781 Q311.6875,604.5781 311,605.6563 Q310.3125,606.7188 310.3125,608.8125 Q310.3125,610.9063 311,611.9844 Q311.6875,613.0469 313.0313,613.0469 Q313.6563,613.0469 314.25,612.7813 Q314.8438,612.5 315.4688,611.9219 L315.4688,614.6406 Z " fill="#000000"/><text fill="#000000" font-family="sans-serif" font-size="12" lengthAdjust="spacing" textLength="61" x="326.5" y="613.1543">rowChunk</text><line style="stroke:#A80036;stroke-width:1.5;" x1="298.5" x2="389.5" y1="625" y2="625"/><line style="stroke:#A80036;stroke-width:1.5;" x1="298.5" x2="389.5" y1="633" y2="633"/><!--MD5=[816d2048ceebc0da7029cbcb1915f10c]
class olistDobj--><rect fill="#FEFECE" filter="url(#fkvpat9bkphli)" height="48" id="olistDobj" style="stroke:#A80036;stroke-width:1.5;" width="86" x="87" y="351"/><ellipse cx="102" cy="367" fill="#ADD1B2" rx="11" ry="11" style="stroke:#A80036;stroke-width:1.0;"/><path d="M104.9688,372.6406 Q104.3906,372.9375 103.75,373.0781 Q103.1094,373.2344 102.4063,373.2344 Q99.9063,373.2344 98.5781,371.5938 Q97.2656,369.9375 97.2656,366.8125 Q97.2656,363.6875 98.5781,362.0313 Q99.9063,360.375 102.4063,360.375 Q103.1094,360.375 103.75,360.5313 Q104.4063,360.6875 104.9688,360.9844 L104.9688,363.7031 Q104.3438,363.125 103.75,362.8594 Q103.1563,362.5781 102.5313,362.5781 Q101.1875,362.5781 100.5,363.6563 Q99.8125,364.7188 99.8125,366.8125 Q99.8125,368.9063 100.5,369.9844 Q101.1875,371.0469 102.5313,371.0469 Q103.1563,371.0469 103.75,370.7813 Q104.3438,370.5 104.9688,369.9219 L104.9688,372.6406 Z " fill="#000000"/><text fill="#000000" font-family="sans-serif" font-size="12" lengthAdjust="spacing" textLength="54" x="116" y="371.1543">olistDobj</text><line style="stroke:#A80036;stroke-width:1.5;" x1="88" x2="172" y1="383" y2="383"/><line style="stroke:#A80036;stroke-width:1.5;" x1="88" x2="172" y1="391" y2="391"/><!--MD5=[7ebd8c988b08061e82ac4a98002c39e1]
class uolistDobj--><rect fill="#FEFECE" filter="url(#fkvpat9bkphli)" height="48" id="uolistDobj" style="stroke:#A80036;stroke-width:1.5;" width="94" x="208" y="351"/><ellipse cx="223" cy="367" fill="#ADD1B2" rx="11" ry="11" style="stroke:#A80036;stroke-width:1.0;"/><path d="M225.9688,372.6406 Q225.3906,372.9375 224.75,373.0781 Q224.1094,373.2344 223.4063,373.2344 Q220.9063,373.2344 219.5781,371.5938 Q218.2656,369.9375 218.2656,366.8125 Q218.2656,363.6875 219.5781,362.0313 Q220.9063,360.375 223.4063,360.375 Q224.1094,360.375 224.75,360.5313 Q225.4063,360.6875 225.9688,360.9844 L225.9688,363.7031 Q225.3438,363.125 224.75,362.8594 Q224.1563,362.5781 223.5313,362.5781 Q222.1875,362.5781 221.5,363.6563 Q220.8125,364.7188 220.8125,366.8125 Q220.8125,368.9063 221.5,369.9844 Q222.1875,371.0469 223.5313,371.0469 Q224.1563,371.0469 224.75,370.7813 Q225.3438,370.5 225.9688,369.9219 L225.9688,372.6406 Z " fill="#000000"/><text fill="#000000" font-family="sans-serif" font-size="12" lengthAdjust="spacing" textLength="62" x="237" y="371.1543">uolistDobj</text><line style="stroke:#A80036;stroke-width:1.5;" x1="209" x2="301" y1="383" y2="383"/><line style="stroke:#A80036;stroke-width:1.5;" x1="209" x2="301" y1="391" y2="391"/><!--MD5=[b6d03f3aabb8848f8ce1464e7111cda3]
class setDobj--><rect fill="#FEFECE" filter="url(#fkvpat9bkphli)" height="48" id="setDobj" style="stroke:#A80036;stroke-width:1.5;" width="80" x="337" y="351"/><ellipse cx="352" cy="367" fill="#ADD1B2" rx="11" ry="11" style="stroke:#A80036;stroke-width:1.0;"/><path d="M354.9688,372.6406 Q354.3906,372.9375 353.75,373.0781 Q353.1094,373.2344 352.4063,373.2344 Q349.9063,373.2344 348.5781,371.5938 Q347.2656,369.9375 347.2656,366.8125 Q347.2656,363.6875 348.5781,362.0313 Q349.9063,360.375 352.4063,360.375 Q353.1094,360.375 353.75,360.5313 Q354.4063,360.6875 354.9688,360.9844 L354.9688,363.7031 Q354.3438,363.125 353.75,362.8594 Q353.1563,362.5781 352.5313,362.5781 Q351.1875,362.5781 350.5,363.6563 Q349.8125,364.7188 349.8125,366.8125 Q349.8125,368.9063 350.5,369.9844 Q351.1875,371.0469 352.5313,371.0469 Q353.1563,371.0469 353.75,370.7813 Q354.3438,370.5 354.9688,369.9219 L354.9688,372.6406 Z " fill="#000000"/><text fill="#000000" font-family="sans-serif" font-size="12" lengthAdjust="spacing" textLength="48" x="366" y="371.1543">setDobj</text><line style="stroke:#A80036;stroke-width:1.5;" x1="338" x2="416" y1="383" y2="383"/><line style="stroke:#A80036;stroke-width:1.5;" x1="338" x2="416" y1="391" y2="391"/><!--MD5=[b09e0b353786a2d45bcaaa1498670b68]
reverse link dobj to compositedobj--><path codeLine="24" d="M303.69,119.2 C303.11,134.36 303.1,150.58 303.68,165.73 " fill="none" id="dobj-backto-compositedobj" style="stroke:#A80036;stroke-width:1.0;"/><polygon fill="#FFFFFF" points="304.34,106.22,300.0419,112.0102,303.7335,118.2047,308.0316,112.4145,304.34,106.22" style="stroke:#A80036;stroke-width:1.0;"/><!--MD5=[b09e0b353786a2d45bcaaa1498670b68]
reverse link dobj to compositedobj--><path codeLine="25" d="M329.29,126.62 C329.64,139.57 329.55,153.03 329.04,165.73 " fill="none" id="dobj-backto-compositedobj-1" style="stroke:#A80036;stroke-width:1.0;"/><polygon fill="none" points="322.28,126.52,328.34,106.22,336.26,125.87,322.28,126.52" style="stroke:#A80036;stroke-width:1.0;"/><!--MD5=[9043a9934cef8c8a21a3b006e2faeac5]
reverse link dobj to chunk--><path codeLine="26" d="M398,120.69 C410.49,134.23 421.64,149.48 429,166 C471.15,260.63 487.56,309.73 435,399 C417.75,428.3 387.97,449.3 357.93,464.03 " fill="none" id="dobj-backto-chunk" style="stroke:#A80036;stroke-width:1.0;"/><polygon fill="none" points="392.66,125.26,383.47,106.17,402.56,115.36,392.66,125.26" style="stroke:#A80036;stroke-width:1.0;"/><!--MD5=[5bc3d692c46e4374e849bf828c5cc05e]
reverse link compositedobj to colBlockMat--><path codeLine="28" d="M201.52,257.85 C152.44,276.1 99.49,305.27 69,351 C44.68,387.47 49.41,441.37 54.83,471.83 " fill="none" id="compositedobj-backto-colBlockMat" style="stroke:#A80036;stroke-width:1.0;"/><polygon fill="none" points="199.25,251.23,220.44,251.26,203.85,264.45,199.25,251.23" style="stroke:#A80036;stroke-width:1.0;"/><!--MD5=[85d10842934355e9f0b7d576d8239618]
reverse link chunk to colChunk--><path codeLine="29" d="M225.72,549.64 C215.3,564.77 204.46,580.5 195.95,592.85 " fill="none" id="chunk-backto-colChunk" style="stroke:#A80036;stroke-width:1.0;"/><polygon fill="none" points="220.06,545.52,237.17,533.03,231.59,553.47,220.06,545.52" style="stroke:#A80036;stroke-width:1.0;"/><!--MD5=[342c71a38f276667d5f88d2b660e6926]
reverse link colBlockMat to colChunk--><path codeLine="30" d="M92.87,529.6 C113.08,549.63 138.48,574.83 156.64,592.83 " fill="none" id="colBlockMat-backto-colChunk" style="stroke:#A80036;stroke-width:1.0;"/><polygon fill="#FFFFFF" points="83.42,520.23,84.8617,527.2955,91.9382,528.6823,90.4965,521.6167,83.42,520.23" style="stroke:#A80036;stroke-width:1.0;"/><!--MD5=[e651919c79dc695329b7f3cd90e394a3]
reverse link compositedobj to rowBlockMat--><path codeLine="32" d="M403.88,306.27 C415.82,320.11 426.78,335.21 435,351 C455.39,390.14 460.54,442.37 461.75,471.97 " fill="none" id="compositedobj-backto-rowBlockMat" style="stroke:#A80036;stroke-width:1.0;"/><polygon fill="none" points="398.42,310.67,390.07,291.19,408.74,301.21,398.42,310.67" style="stroke:#A80036;stroke-width:1.0;"/><!--MD5=[dd51688f6b72dd2e70903842e048fff9]
reverse link chunk to rowChunk--><path codeLine="33" d="M298.28,549.64 C308.7,564.77 319.54,580.5 328.05,592.85 " fill="none" id="chunk-backto-rowChunk" style="stroke:#A80036;stroke-width:1.0;"/><polygon fill="none" points="292.41,553.47,286.83,533.03,303.94,545.52,292.41,553.47" style="stroke:#A80036;stroke-width:1.0;"/><!--MD5=[749331d305d799cad25aaa1717138ceb]
reverse link rowBlockMat to rowChunk--><path codeLine="34" d="M429.68,529.6 C409.81,549.63 384.83,574.83 366.97,592.83 " fill="none" id="rowBlockMat-backto-rowChunk" style="stroke:#A80036;stroke-width:1.0;"/><polygon fill="#FFFFFF" points="438.97,520.23,431.9056,521.6771,430.5243,528.7547,437.5887,527.3076,438.97,520.23" style="stroke:#A80036;stroke-width:1.0;"/><!--MD5=[d60d0f91a3379f0c14c328e59d70219e]
reverse link compositedobj to olistDobj--><path codeLine="36" d="M220.5,303.69 C198.37,320.89 176.42,337.93 159.69,350.94 " fill="none" id="compositedobj-backto-olistDobj" style="stroke:#A80036;stroke-width:1.0;"/><polygon fill="none" points="216.49,297.94,236.58,291.2,225.08,309,216.49,297.94" style="stroke:#A80036;stroke-width:1.0;"/><!--MD5=[b7facb6e1313c6a345c5ceb6c6eb1028]
reverse link compositedobj to uolistDobj--><path codeLine="37" d="M282.15,309.69 C275.77,324.8 269.59,339.45 264.74,350.94 " fill="none" id="compositedobj-backto-uolistDobj" style="stroke:#A80036;stroke-width:1.0;"/><polygon fill="none" points="275.73,306.9,289.95,291.2,288.62,312.35,275.73,306.9" style="stroke:#A80036;stroke-width:1.0;"/><!--MD5=[bbdabf11635f43f18b2c9e8358916658]
reverse link compositedobj to setDobj--><path codeLine="38" d="M349.85,309.69 C356.23,324.8 362.41,339.45 367.26,350.94 " fill="none" id="compositedobj-backto-setDobj" style="stroke:#A80036;stroke-width:1.0;"/><polygon fill="none" points="343.38,312.35,342.05,291.2,356.27,306.9,343.38,312.35" style="stroke:#A80036;stroke-width:1.0;"/><!--MD5=[cbfa34bcbc50df540f1778c6ce058cfc]
reverse link olistDobj to chunk--><path codeLine="40" d="M165.55,408.05 C182.98,423.76 204.03,442.73 222.01,458.95 " fill="none" id="olistDobj-backto-chunk" style="stroke:#A80036;stroke-width:1.0;"/><polygon fill="#FFFFFF" points="155.76,399.23,157.5348,406.2193,164.669,407.2692,162.8943,400.2799,155.76,399.23" style="stroke:#A80036;stroke-width:1.0;"/><!--MD5=[c33cff319af3fe2ee1aca9c7d3e7d92d]
reverse link uolistDobj to chunk--><path codeLine="41" d="M257.15,412.48 C258.01,427.16 259,444.05 259.87,458.71 " fill="none" id="uolistDobj-backto-chunk" style="stroke:#A80036;stroke-width:1.0;"/><polygon fill="#FFFFFF" points="256.37,399.23,252.7264,405.4529,257.0693,411.2096,260.7128,404.9867,256.37,399.23" style="stroke:#A80036;stroke-width:1.0;"/><!--MD5=[67bc4ffb3954bd8f1ad137cae5feaa99]
reverse link setDobj to chunk--><path codeLine="42" d="M345.21,408.9 C330.27,424.36 312.4,442.84 297.07,458.71 " fill="none" id="setDobj-backto-chunk" style="stroke:#A80036;stroke-width:1.0;"/><polygon fill="#FFFFFF" points="354.55,399.23,347.5029,400.7594,346.2043,407.8526,353.2513,406.3232,354.55,399.23" style="stroke:#A80036;stroke-width:1.0;"/><!--MD5=[b2b71b488b2e57e5294da8b7d83a12ec]
@startuml

class dobj {
    -data
    -doState
    {abstract} +data() : <data>
    {abstract} +do(function, ...chunk) : chunk
}

class compositedobj {
children : list
+data() : <data>
+do(function, ...chunk) : chunk
+getChildren()
+addChild()
+removeChild()
}

class chunk {
+data() : <data>
+do(function, ...chunk) : chunk
}


dobj o- - compositedobj
dobj <|- - compositedobj
dobj <|- - chunk

compositedobj <|- - colBlockMat
chunk <|- - colChunk
colBlockMat o- - colChunk

compositedobj <|- - rowBlockMat
chunk <|- - rowChunk
rowBlockMat o- - rowChunk

compositedobj <|- - olistDobj
compositedobj <|- - uolistDobj
compositedobj <|- - setDobj

olistDobj o- - chunk
uolistDobj o- - chunk
setDobj o- - chunk

@enduml

PlantUML version 1.2021.15(Wed Dec 01 05:45:34 NZDT 2021)
(GPL source distribution)
Java Runtime: OpenJDK Runtime Environment
JVM: OpenJDK 64-Bit Server VM
Default Encoding: UTF-8
Language: en
Country: NZ
--></g></svg>