<?xml version="1.0" encoding="UTF-8" standalone="no"?><svg xmlns="http://www.w3.org/2000/svg" xmlns:xlink="http://www.w3.org/1999/xlink" contentScriptType="application/ecmascript" contentStyleType="text/css" height="1119px" preserveAspectRatio="none" style="width:845px;height:1119px;background:#FFFFFF;" version="1.1" viewBox="0 0 845 1119" width="845px" zoomAndPan="magnify"><defs/><g><text fill="#000000" font-family="sans-serif" font-size="18" lengthAdjust="spacing" textLength="132" x="358.5" y="28.708">Work Request,</text><text fill="#000000" font-family="sans-serif" font-size="18" lengthAdjust="spacing" textLength="393" x="228" y="49.6611">Prerequisite Pending Externally to the Store</text><rect fill="#FFFFFF" height="1044.6484" style="stroke:#383838;stroke-width:1.0;" width="92" x="1" y="61.9063"/><text fill="#000000" font-family="sans-serif" font-size="13" font-weight="bold" lengthAdjust="spacing" textLength="86" x="4" y="73.9731">Client Node</text><rect fill="#FFFFFF" height="1044.6484" style="stroke:#383838;stroke-width:1.0;" width="288" x="142" y="61.9063"/><text fill="#000000" font-family="sans-serif" font-size="13" font-weight="bold" lengthAdjust="spacing" textLength="116" x="228" y="73.9731">Response Node</text><rect fill="#FFFFFF" height="1044.6484" style="stroke:#383838;stroke-width:1.0;" width="288" x="432" y="61.9063"/><text fill="#000000" font-family="sans-serif" font-size="13" font-weight="bold" lengthAdjust="spacing" textLength="134" x="509" y="73.9731">Prerequisite Node</text><rect fill="#FFFFFF" height="50.2656" style="stroke:#383838;stroke-width:1.0;" width="10" x="42" y="133.2031"/><rect fill="#FFFFFF" height="101.2656" style="stroke:#383838;stroke-width:1.0;" width="10" x="42" y="212.6016"/><rect fill="#FFFFFF" height="389.3281" style="stroke:#383838;stroke-width:1.0;" width="10" x="166.5" y="212.6016"/><rect fill="#FFFFFF" height="28" style="stroke:#383838;stroke-width:1.0;" width="10" x="171.5" y="249.7344"/><rect fill="#FFFFFF" height="40.1328" style="stroke:#383838;stroke-width:1.0;" width="10" x="171.5" y="351"/><rect fill="#FFFFFF" height="28" style="stroke:#383838;stroke-width:1.0;" width="10" x="171.5" y="450.3984"/><rect fill="#FFFFFF" height="155.5313" style="stroke:#383838;stroke-width:1.0;" width="10" x="166.5" y="901.8594"/><rect fill="#FFFFFF" height="118.3984" style="stroke:#383838;stroke-width:1.0;" width="10" x="171.5" y="938.9922"/><rect fill="#FFFFFF" height="76.2656" style="stroke:#383838;stroke-width:1.0;" width="10" x="176.5" y="981.125"/><rect fill="#FFFFFF" height="34.1328" style="stroke:#383838;stroke-width:1.0;" width="10" x="181.5" y="1023.2578"/><rect fill="#FFFFFF" height="36.1641" style="stroke:#383838;stroke-width:1.0;" width="10" x="389.5" y="1067.3906"/><rect fill="#FFFFFF" height="109.3984" style="stroke:#383838;stroke-width:1.0;" width="10" x="456.5" y="572.7969"/><rect fill="#FFFFFF" height="28" style="stroke:#383838;stroke-width:1.0;" width="10" x="461.5" y="654.1953"/><rect fill="#FFFFFF" height="155.5313" style="stroke:#383838;stroke-width:1.0;" width="10" x="456.5" y="746.3281"/><rect fill="#FFFFFF" height="118.3984" style="stroke:#383838;stroke-width:1.0;" width="10" x="461.5" y="783.4609"/><rect fill="#FFFFFF" height="76.2656" style="stroke:#383838;stroke-width:1.0;" width="10" x="466.5" y="825.5938"/><rect fill="#FFFFFF" height="34.1328" style="stroke:#383838;stroke-width:1.0;" width="10" x="471.5" y="867.7266"/><rect fill="#FFFFFF" height="563.9922" style="stroke:#FFFFFF;stroke-width:1.0;" width="10" x="679.5" y="133.2031"/><line style="stroke:#383838;stroke-width:1.0;" x1="679.5" x2="679.5" y1="133.2031" y2="697.1953"/><line style="stroke:#383838;stroke-width:1.0;" x1="689.5" x2="689.5" y1="133.2031" y2="697.1953"/><line style="stroke:#383838;stroke-width:1.0;" x1="679.5" x2="689.5" y1="133.2031" y2="133.2031"/><rect fill="#FFFFFF" height="21.1328" style="stroke:#FFFFFF;stroke-width:1.0;" width="10" x="679.5" y="725.1953"/><line style="stroke:#383838;stroke-width:1.0;" x1="679.5" x2="679.5" y1="725.1953" y2="746.3281"/><line style="stroke:#383838;stroke-width:1.0;" x1="689.5" x2="689.5" y1="725.1953" y2="746.3281"/><line style="stroke:#383838;stroke-width:1.0;" x1="679.5" x2="689.5" y1="746.3281" y2="746.3281"/><rect fill="#FFFFFF" height="29.1328" style="stroke:#383838;stroke-width:1.0;" width="10" x="780" y="154.3359"/><rect fill="#FFFFFF" height="29.1328" style="stroke:#383838;stroke-width:1.0;" width="10" x="780" y="514.5313"/><line style="stroke:#383838;stroke-width:1.0;stroke-dasharray:5.0,5.0;" x1="46.5" x2="46.5" y1="123.2031" y2="697.1953"/><line style="stroke:#383838;stroke-width:1.0;stroke-dasharray:1.0,4.0;" x1="46.5" x2="46.5" y1="697.1953" y2="725.1953"/><line style="stroke:#383838;stroke-width:1.0;stroke-dasharray:5.0,5.0;" x1="46.5" x2="46.5" y1="725.1953" y2="1112.5547"/><line style="stroke:#383838;stroke-width:1.0;stroke-dasharray:5.0,5.0;" x1="171" x2="171" y1="123.2031" y2="697.1953"/><line style="stroke:#383838;stroke-width:1.0;stroke-dasharray:1.0,4.0;" x1="171" x2="171" y1="697.1953" y2="725.1953"/><line style="stroke:#383838;stroke-width:1.0;stroke-dasharray:5.0,5.0;" x1="171" x2="171" y1="725.1953" y2="1112.5547"/><line style="stroke:#383838;stroke-width:1.0;stroke-dasharray:5.0,5.0;" x1="394" x2="394" y1="1066.9063" y2="1112.5547"/><line style="stroke:#383838;stroke-width:1.0;stroke-dasharray:5.0,5.0;" x1="461" x2="461" y1="123.2031" y2="697.1953"/><line style="stroke:#383838;stroke-width:1.0;stroke-dasharray:1.0,4.0;" x1="461" x2="461" y1="697.1953" y2="725.1953"/><line style="stroke:#383838;stroke-width:1.0;stroke-dasharray:5.0,5.0;" x1="461" x2="461" y1="725.1953" y2="1112.5547"/><line style="stroke:#383838;stroke-width:1.0;stroke-dasharray:5.0,5.0;" x1="684" x2="684" y1="123.2031" y2="697.1953"/><line style="stroke:#383838;stroke-width:1.0;stroke-dasharray:1.0,4.0;" x1="684" x2="684" y1="697.1953" y2="725.1953"/><line style="stroke:#383838;stroke-width:1.0;stroke-dasharray:5.0,5.0;" x1="684" x2="684" y1="725.1953" y2="1112.5547"/><line style="stroke:#383838;stroke-width:1.0;stroke-dasharray:5.0,5.0;" x1="785" x2="785" y1="123.2031" y2="697.1953"/><line style="stroke:#383838;stroke-width:1.0;stroke-dasharray:1.0,4.0;" x1="785" x2="785" y1="697.1953" y2="725.1953"/><line style="stroke:#383838;stroke-width:1.0;stroke-dasharray:5.0,5.0;" x1="785" x2="785" y1="725.1953" y2="1112.5547"/><rect fill="#F8F8F8" height="30.2969" style="stroke:#383838;stroke-width:1.5;" width="53" x="20.5" y="91.9063"/><text fill="#000000" font-family="sans-serif" font-size="14" lengthAdjust="spacing" textLength="39" x="27.5" y="111.9014">Client</text><rect fill="#F8F8F8" height="30.2969" style="stroke:#383838;stroke-width:1.5;" width="51" x="146" y="91.9063"/><text fill="#000000" font-family="sans-serif" font-size="14" lengthAdjust="spacing" textLength="37" x="153" y="111.9014">Store</text><rect fill="#F8F8F8" height="30.2969" style="stroke:#383838;stroke-width:1.5;" width="51" x="436" y="91.9063"/><text fill="#000000" font-family="sans-serif" font-size="14" lengthAdjust="spacing" textLength="37" x="443" y="111.9014">Store</text><rect fill="#F8F8F8" height="30.2969" style="stroke:#383838;stroke-width:1.5;" width="63" x="653" y="91.9063"/><text fill="#000000" font-family="sans-serif" font-size="14" lengthAdjust="spacing" textLength="49" x="660" y="111.9014">Worker</text><text fill="#000000" font-family="sans-serif" font-size="14" lengthAdjust="spacing" textLength="112" x="726" y="119.9014">Location Service</text><path d="M767,70.9063 C767,60.9063 785,60.9063 785,60.9063 C785,60.9063 803,60.9063 803,70.9063 L803,96.9063 C803,106.9063 785,106.9063 785,106.9063 C785,106.9063 767,106.9063 767,96.9063 L767,70.9063 " fill="#F8F8F8" style="stroke:#000000;stroke-width:1.5;"/><path d="M767,70.9063 C767,80.9063 785,80.9063 785,80.9063 C785,80.9063 803,80.9063 803,70.9063 " fill="none" style="stroke:#000000;stroke-width:1.5;"/><rect fill="#FFFFFF" height="50.2656" style="stroke:#383838;stroke-width:1.0;" width="10" x="42" y="133.2031"/><rect fill="#FFFFFF" height="101.2656" style="stroke:#383838;stroke-width:1.0;" width="10" x="42" y="212.6016"/><rect fill="#FFFFFF" height="389.3281" style="stroke:#383838;stroke-width:1.0;" width="10" x="166.5" y="212.6016"/><rect fill="#FFFFFF" height="28" style="stroke:#383838;stroke-width:1.0;" width="10" x="171.5" y="249.7344"/><rect fill="#FFFFFF" height="40.1328" style="stroke:#383838;stroke-width:1.0;" width="10" x="171.5" y="351"/><rect fill="#FFFFFF" height="28" style="stroke:#383838;stroke-width:1.0;" width="10" x="171.5" y="450.3984"/><rect fill="#FFFFFF" height="155.5313" style="stroke:#383838;stroke-width:1.0;" width="10" x="166.5" y="901.8594"/><rect fill="#FFFFFF" height="118.3984" style="stroke:#383838;stroke-width:1.0;" width="10" x="171.5" y="938.9922"/><rect fill="#FFFFFF" height="76.2656" style="stroke:#383838;stroke-width:1.0;" width="10" x="176.5" y="981.125"/><rect fill="#FFFFFF" height="34.1328" style="stroke:#383838;stroke-width:1.0;" width="10" x="181.5" y="1023.2578"/><rect fill="#FFFFFF" height="36.1641" style="stroke:#383838;stroke-width:1.0;" width="10" x="389.5" y="1067.3906"/><rect fill="#FFFFFF" height="109.3984" style="stroke:#383838;stroke-width:1.0;" width="10" x="456.5" y="572.7969"/><rect fill="#FFFFFF" height="28" style="stroke:#383838;stroke-width:1.0;" width="10" x="461.5" y="654.1953"/><rect fill="#FFFFFF" height="155.5313" style="stroke:#383838;stroke-width:1.0;" width="10" x="456.5" y="746.3281"/><rect fill="#FFFFFF" height="118.3984" style="stroke:#383838;stroke-width:1.0;" width="10" x="461.5" y="783.4609"/><rect fill="#FFFFFF" height="76.2656" style="stroke:#383838;stroke-width:1.0;" width="10" x="466.5" y="825.5938"/><rect fill="#FFFFFF" height="34.1328" style="stroke:#383838;stroke-width:1.0;" width="10" x="471.5" y="867.7266"/><rect fill="#FFFFFF" height="563.9922" style="stroke:#FFFFFF;stroke-width:1.0;" width="10" x="679.5" y="133.2031"/><line style="stroke:#383838;stroke-width:1.0;" x1="679.5" x2="679.5" y1="133.2031" y2="697.1953"/><line style="stroke:#383838;stroke-width:1.0;" x1="689.5" x2="689.5" y1="133.2031" y2="697.1953"/><line style="stroke:#383838;stroke-width:1.0;" x1="679.5" x2="689.5" y1="133.2031" y2="133.2031"/><rect fill="#FFFFFF" height="21.1328" style="stroke:#FFFFFF;stroke-width:1.0;" width="10" x="679.5" y="725.1953"/><line style="stroke:#383838;stroke-width:1.0;" x1="679.5" x2="679.5" y1="725.1953" y2="746.3281"/><line style="stroke:#383838;stroke-width:1.0;" x1="689.5" x2="689.5" y1="725.1953" y2="746.3281"/><line style="stroke:#383838;stroke-width:1.0;" x1="679.5" x2="689.5" y1="746.3281" y2="746.3281"/><rect fill="#FFFFFF" height="29.1328" style="stroke:#383838;stroke-width:1.0;" width="10" x="780" y="154.3359"/><rect fill="#FFFFFF" height="29.1328" style="stroke:#383838;stroke-width:1.0;" width="10" x="780" y="514.5313"/><polygon fill="#383838" points="768,150.3359,778,154.3359,768,158.3359" style="stroke:#383838;stroke-width:1.0;"/><line style="stroke:#383838;stroke-width:1.0;" x1="52" x2="774" y1="154.3359" y2="154.3359"/><text fill="#000000" font-family="sans-serif" font-size="13" lengthAdjust="spacing" textLength="76" x="378" y="149.27">Locate work</text><polygon fill="#383838" points="58,179.4688,48,183.4688,58,187.4688" style="stroke:#383838;stroke-width:1.0;"/><line style="stroke:#383838;stroke-width:1.0;stroke-dasharray:2.0,2.0;" x1="52" x2="784" y1="183.4688" y2="183.4688"/><text fill="#000000" font-family="sans-serif" font-size="13" lengthAdjust="spacing" textLength="162" x="335" y="178.4028">Location: Response Node</text><polygon fill="#383838" points="154.5,208.6016,164.5,212.6016,154.5,216.6016" style="stroke:#383838;stroke-width:1.0;"/><line style="stroke:#383838;stroke-width:1.0;" x1="52" x2="160.5" y1="212.6016" y2="212.6016"/><text fill="#000000" font-family="sans-serif" font-size="13" lengthAdjust="spacing" textLength="85" x="66.75" y="207.5356">Request work</text><line style="stroke:#383838;stroke-width:1.0;" x1="181.5" x2="223.5" y1="241.7344" y2="241.7344"/><line style="stroke:#383838;stroke-width:1.0;" x1="223.5" x2="223.5" y1="241.7344" y2="254.7344"/><line style="stroke:#383838;stroke-width:1.0;" x1="182.5" x2="223.5" y1="254.7344" y2="254.7344"/><polygon fill="#383838" points="192.5,250.7344,182.5,254.7344,192.5,258.7344" style="stroke:#383838;stroke-width:1.0;"/><text fill="#000000" font-family="sans-serif" font-size="13" lengthAdjust="spacing" textLength="136" x="188.5" y="236.6685">Set work state: PEND</text><polygon fill="#383838" points="58,309.8672,48,313.8672,58,317.8672" style="stroke:#383838;stroke-width:1.0;"/><line style="stroke:#383838;stroke-width:1.0;stroke-dasharray:2.0,2.0;" x1="52" x2="165.5" y1="313.8672" y2="313.8672"/><text fill="#000000" font-family="sans-serif" font-size="13" lengthAdjust="spacing" textLength="26" x="93.75" y="308.8013">ACK</text><line style="stroke:#383838;stroke-width:1.0;" x1="176.5" x2="223.5" y1="338" y2="338"/><line style="stroke:#383838;stroke-width:1.0;" x1="223.5" x2="223.5" y1="338" y2="351"/><line style="stroke:#383838;stroke-width:1.0;" x1="182.5" x2="223.5" y1="351" y2="351"/><polygon fill="#383838" points="192.5,347,182.5,351,192.5,355" style="stroke:#383838;stroke-width:1.0;"/><text fill="#000000" font-family="sans-serif" font-size="13" lengthAdjust="spacing" textLength="106" x="188.5" y="332.9341">Get prereq state</text><line style="stroke:#383838;stroke-width:1.0;stroke-dasharray:2.0,2.0;" x1="181.5" x2="223.5" y1="390.1328" y2="390.1328"/><line style="stroke:#383838;stroke-width:1.0;stroke-dasharray:2.0,2.0;" x1="223.5" x2="223.5" y1="390.1328" y2="403.1328"/><line style="stroke:#383838;stroke-width:1.0;stroke-dasharray:2.0,2.0;" x1="176.5" x2="223.5" y1="403.1328" y2="403.1328"/><polygon fill="#383838" points="186.5,399.1328,176.5,403.1328,186.5,407.1328" style="stroke:#383838;stroke-width:1.0;"/><text fill="#000000" font-family="sans-serif" font-size="13" lengthAdjust="spacing" textLength="57" x="188.5" y="385.0669">UNAVAIL</text><line style="stroke:#383838;stroke-width:1.0;" x1="181.5" x2="223.5" y1="442.3984" y2="442.3984"/><line style="stroke:#383838;stroke-width:1.0;" x1="223.5" x2="223.5" y1="442.3984" y2="455.3984"/><line style="stroke:#383838;stroke-width:1.0;" x1="182.5" x2="223.5" y1="455.3984" y2="455.3984"/><polygon fill="#383838" points="192.5,451.3984,182.5,455.3984,192.5,459.3984" style="stroke:#383838;stroke-width:1.0;"/><text fill="#000000" font-family="sans-serif" font-size="13" lengthAdjust="spacing" textLength="185" x="188.5" y="422.1997">Set prereq state association:</text><text fill="#000000" font-family="sans-serif" font-size="13" lengthAdjust="spacing" textLength="140" x="188.5" y="437.3325">AVAIL -&gt; Launch work</text><polygon fill="#383838" points="768,510.5313,778,514.5313,768,518.5313" style="stroke:#383838;stroke-width:1.0;"/><line style="stroke:#383838;stroke-width:1.0;" x1="176.5" x2="774" y1="514.5313" y2="514.5313"/><text fill="#000000" font-family="sans-serif" font-size="13" lengthAdjust="spacing" textLength="123" x="416.75" y="509.4653">Locate prerequisite</text><polygon fill="#383838" points="187.5,539.6641,177.5,543.6641,187.5,547.6641" style="stroke:#383838;stroke-width:1.0;"/><line style="stroke:#383838;stroke-width:1.0;stroke-dasharray:2.0,2.0;" x1="181.5" x2="784" y1="543.6641" y2="543.6641"/><text fill="#000000" font-family="sans-serif" font-size="13" lengthAdjust="spacing" textLength="150" x="405.75" y="538.5981">Location of prerequisite</text><polygon fill="#383838" points="444.5,568.7969,454.5,572.7969,444.5,576.7969" style="stroke:#383838;stroke-width:1.0;"/><line style="stroke:#383838;stroke-width:1.0;" x1="176.5" x2="450.5" y1="572.7969" y2="572.7969"/><text fill="#000000" font-family="sans-serif" font-size="13" lengthAdjust="spacing" textLength="131" x="251" y="567.731">Request prereq data</text><polygon fill="#383838" points="182.5,597.9297,172.5,601.9297,182.5,605.9297" style="stroke:#383838;stroke-width:1.0;"/><line style="stroke:#383838;stroke-width:1.0;stroke-dasharray:2.0,2.0;" x1="176.5" x2="455.5" y1="601.9297" y2="601.9297"/><text fill="#000000" font-family="sans-serif" font-size="13" lengthAdjust="spacing" textLength="156" x="236" y="596.8638">Prereq data state: PEND</text><line style="stroke:#383838;stroke-width:1.0;" x1="471.5" x2="513.5" y1="646.1953" y2="646.1953"/><line style="stroke:#383838;stroke-width:1.0;" x1="513.5" x2="513.5" y1="646.1953" y2="659.1953"/><line style="stroke:#383838;stroke-width:1.0;" x1="472.5" x2="513.5" y1="659.1953" y2="659.1953"/><polygon fill="#383838" points="482.5,655.1953,472.5,659.1953,482.5,663.1953" style="stroke:#383838;stroke-width:1.0;"/><text fill="#000000" font-family="sans-serif" font-size="13" lengthAdjust="spacing" textLength="185" x="478.5" y="625.9966">Set prereq state association:</text><text fill="#000000" font-family="sans-serif" font-size="13" lengthAdjust="spacing" textLength="175" x="478.5" y="641.1294">AVAIL -&gt; send to requester</text><line style="stroke:#383838;stroke-width:1.0;" x1="466.5" x2="476.5" y1="746.3281" y2="742.3281"/><line style="stroke:#383838;stroke-width:1.0;" x1="466.5" x2="476.5" y1="746.3281" y2="750.3281"/><line style="stroke:#383838;stroke-width:1.0;" x1="466.5" x2="683.5" y1="746.3281" y2="746.3281"/><text fill="#000000" font-family="sans-serif" font-size="13" lengthAdjust="spacing" textLength="75" x="538" y="741.2622">Prereq data</text><line style="stroke:#383838;stroke-width:2.0;" x1="675.5" x2="693.5" y1="737.3281" y2="755.3281"/><line style="stroke:#383838;stroke-width:2.0;" x1="675.5" x2="693.5" y1="755.3281" y2="737.3281"/><line style="stroke:#383838;stroke-width:1.0;" x1="466.5" x2="513.5" y1="770.4609" y2="770.4609"/><line style="stroke:#383838;stroke-width:1.0;" x1="513.5" x2="513.5" y1="770.4609" y2="783.4609"/><line style="stroke:#383838;stroke-width:1.0;" x1="472.5" x2="513.5" y1="783.4609" y2="783.4609"/><polygon fill="#383838" points="482.5,779.4609,472.5,783.4609,482.5,787.4609" style="stroke:#383838;stroke-width:1.0;"/><text fill="#000000" font-family="sans-serif" font-size="13" lengthAdjust="spacing" textLength="68" x="478.5" y="765.395">Store data</text><line style="stroke:#383838;stroke-width:1.0;" x1="471.5" x2="518.5" y1="812.5938" y2="812.5938"/><line style="stroke:#383838;stroke-width:1.0;" x1="518.5" x2="518.5" y1="812.5938" y2="825.5938"/><line style="stroke:#383838;stroke-width:1.0;" x1="477.5" x2="518.5" y1="825.5938" y2="825.5938"/><polygon fill="#383838" points="487.5,821.5938,477.5,825.5938,487.5,829.5938" style="stroke:#383838;stroke-width:1.0;"/><text fill="#000000" font-family="sans-serif" font-size="13" lengthAdjust="spacing" textLength="183" x="483.5" y="807.5278">Set prereq data state: AVAIL</text><line style="stroke:#383838;stroke-width:1.0;" x1="476.5" x2="523.5" y1="854.7266" y2="854.7266"/><line style="stroke:#383838;stroke-width:1.0;" x1="523.5" x2="523.5" y1="854.7266" y2="867.7266"/><line style="stroke:#383838;stroke-width:1.0;" x1="482.5" x2="523.5" y1="867.7266" y2="867.7266"/><polygon fill="#383838" points="492.5,863.7266,482.5,867.7266,492.5,871.7266" style="stroke:#383838;stroke-width:1.0;"/><text fill="#000000" font-family="sans-serif" font-size="13" lengthAdjust="spacing" textLength="189" x="488.5" y="849.6606">Get prereq state associations</text><line style="stroke:#383838;stroke-width:1.0;" x1="176.5" x2="186.5" y1="901.8594" y2="897.8594"/><line style="stroke:#383838;stroke-width:1.0;" x1="176.5" x2="186.5" y1="901.8594" y2="905.8594"/><line style="stroke:#383838;stroke-width:1.0;stroke-dasharray:2.0,2.0;" x1="176.5" x2="460.5" y1="901.8594" y2="901.8594"/><text fill="#000000" font-family="sans-serif" font-size="13" lengthAdjust="spacing" textLength="75" x="281.5" y="896.7935">Prereq data</text><line style="stroke:#383838;stroke-width:1.0;" x1="176.5" x2="223.5" y1="925.9922" y2="925.9922"/><line style="stroke:#383838;stroke-width:1.0;" x1="223.5" x2="223.5" y1="925.9922" y2="938.9922"/><line style="stroke:#383838;stroke-width:1.0;" x1="182.5" x2="223.5" y1="938.9922" y2="938.9922"/><polygon fill="#383838" points="192.5,934.9922,182.5,938.9922,192.5,942.9922" style="stroke:#383838;stroke-width:1.0;"/><text fill="#000000" font-family="sans-serif" font-size="13" lengthAdjust="spacing" textLength="68" x="188.5" y="920.9263">Store data</text><line style="stroke:#383838;stroke-width:1.0;" x1="181.5" x2="228.5" y1="968.125" y2="968.125"/><line style="stroke:#383838;stroke-width:1.0;" x1="228.5" x2="228.5" y1="968.125" y2="981.125"/><line style="stroke:#383838;stroke-width:1.0;" x1="187.5" x2="228.5" y1="981.125" y2="981.125"/><polygon fill="#383838" points="197.5,977.125,187.5,981.125,197.5,985.125" style="stroke:#383838;stroke-width:1.0;"/><text fill="#000000" font-family="sans-serif" font-size="13" lengthAdjust="spacing" textLength="183" x="193.5" y="963.0591">Set prereq data state: AVAIL</text><line style="stroke:#383838;stroke-width:1.0;" x1="186.5" x2="233.5" y1="1010.2578" y2="1010.2578"/><line style="stroke:#383838;stroke-width:1.0;" x1="233.5" x2="233.5" y1="1010.2578" y2="1023.2578"/><line style="stroke:#383838;stroke-width:1.0;" x1="192.5" x2="233.5" y1="1023.2578" y2="1023.2578"/><polygon fill="#383838" points="202.5,1019.2578,192.5,1023.2578,202.5,1027.2578" style="stroke:#383838;stroke-width:1.0;"/><text fill="#000000" font-family="sans-serif" font-size="13" lengthAdjust="spacing" textLength="189" x="198.5" y="1005.1919">Get prereq state associations</text><line style="stroke:#383838;stroke-width:1.0;" x1="361" x2="351" y1="1057.3906" y2="1053.3906"/><line style="stroke:#383838;stroke-width:1.0;" x1="361" x2="351" y1="1057.3906" y2="1061.3906"/><line style="stroke:#383838;stroke-width:1.0;" x1="171.5" x2="362" y1="1057.3906" y2="1057.3906"/><text fill="#000000" font-family="sans-serif" font-size="13" lengthAdjust="spacing" textLength="79" x="227.75" y="1052.3247">Launch work</text><rect fill="#F8F8F8" height="30.2969" style="stroke:#383838;stroke-width:1.5;" width="63" x="363" y="1036.2578"/><text fill="#000000" font-family="sans-serif" font-size="14" lengthAdjust="spacing" textLength="49" x="370" y="1056.2529">Worker</text><!--MD5=[fc4b971f8e0da05e5062c0bfe45cec89]
@startuml
skinparam monochrome true
skinparam shadowing false
skinparam style strictuml
skinparam LifelineStrategy nosolid
skinparam sequenceMessageAlign center
title Work Request,\nPrerequisite Pending Externally to the Store

box "Client Node" #ffffff
participant Client as client
end box
box "Response Node" #ffffff
participant Store as store
participant Worker as worker
end box
box "Prerequisite Node" #ffffff
participant Store as pstore
participant Worker as pworker
end box
database "Location Service" as ls

activate pworker
activate client
client -> ls: Locate work
activate ls
return Location: Response Node
deactivate client
client -> store ++: Request work
activate client
store -> store ++- -: Set work state: PEND
store - -> client: ACK
deactivate client
store -> store ++: Get prereq state
return UNAVAIL
store -> store ++- -: Set prereq state association:\nAVAIL -> Launch work
store -> ls ++: Locate prerequisite
return Location of prerequisite
store -> pstore ++: Request prereq data
pstore - -> store: Prereq data state: PEND
deactivate store
pstore -> pstore ++- -: Set prereq state association:\nAVAIL -> send to requester
deactivate pstore
...
pworker ->> pstore: Prereq data
destroy pworker
activate pstore
pstore -> pstore ++: Store data
pstore -> pstore ++: Set prereq data state: AVAIL
pstore -> pstore ++: Get prereq state associations
pstore - ->> store - -: Prereq data
deactivate pstore
deactivate pstore
deactivate pstore
deactivate pstore
activate store
store -> store ++: Store data
store -> store ++: Set prereq data state: AVAIL
store -> store ++: Get prereq state associations
store ->> worker **: Launch work
deactivate store
deactivate store
deactivate store
deactivate store
activate worker
|||
@enduml

PlantUML version 1.2021.15(Wed Dec 01 05:45:34 NZDT 2021)
(GPL source distribution)
Java Runtime: OpenJDK Runtime Environment
JVM: OpenJDK 64-Bit Server VM
Default Encoding: UTF-8
Language: en
Country: NZ
--></g></svg>