<?xml version="1.0" encoding="UTF-8" standalone="no"?><svg xmlns="http://www.w3.org/2000/svg" xmlns:xlink="http://www.w3.org/1999/xlink" contentStyleType="text/css" height="1117px" preserveAspectRatio="none" style="width:845px;height:1117px;background:#FFFFFF;" version="1.1" viewBox="0 0 845 1117" width="845px" zoomAndPan="magnify"><defs/><g><rect height="42.5938" style="stroke:#00000000;stroke-width:1.0;fill:none;" width="358" x="245" y="10"/><text fill="#000000" font-family="sans-serif" font-size="14" font-weight="bold" lengthAdjust="spacing" textLength="116" x="366" y="27.9951">Work Request,</text><text fill="#000000" font-family="sans-serif" font-size="14" font-weight="bold" lengthAdjust="spacing" textLength="348" x="250" y="44.292">Prerequisite Pending Externally to the Store</text><rect fill="#FFFFFF" height="1044.6484" style="stroke:#181818;stroke-width:0.5;" width="92" x="1" y="59.5938"/><text fill="#000000" font-family="sans-serif" font-size="13" font-weight="bold" lengthAdjust="spacing" textLength="86" x="4" y="71.6606">Client Node</text><rect fill="#FFFFFF" height="1044.6484" style="stroke:#181818;stroke-width:0.5;" width="288" x="142" y="59.5938"/><text fill="#000000" font-family="sans-serif" font-size="13" font-weight="bold" lengthAdjust="spacing" textLength="116" x="228" y="71.6606">Response Node</text><rect fill="#FFFFFF" height="1044.6484" style="stroke:#181818;stroke-width:0.5;" width="288" x="432" y="59.5938"/><text fill="#000000" font-family="sans-serif" font-size="13" font-weight="bold" lengthAdjust="spacing" textLength="134" x="509" y="71.6606">Prerequisite Node</text><rect fill="#FFFFFF" height="50.2656" style="stroke:#181818;stroke-width:1.0;" width="10" x="42" y="130.8906"/><rect fill="#FFFFFF" height="101.2656" style="stroke:#181818;stroke-width:1.0;" width="10" x="42" y="210.2891"/><rect fill="#FFFFFF" height="389.3281" style="stroke:#181818;stroke-width:1.0;" width="10" x="166.5" y="210.2891"/><rect fill="#FFFFFF" height="28" style="stroke:#181818;stroke-width:1.0;" width="10" x="171.5" y="247.4219"/><rect fill="#FFFFFF" height="40.1328" style="stroke:#181818;stroke-width:1.0;" width="10" x="171.5" y="348.6875"/><rect fill="#FFFFFF" height="28" style="stroke:#181818;stroke-width:1.0;" width="10" x="171.5" y="448.0859"/><rect fill="#FFFFFF" height="155.5313" style="stroke:#181818;stroke-width:1.0;" width="10" x="166.5" y="899.5469"/><rect fill="#FFFFFF" height="118.3984" style="stroke:#181818;stroke-width:1.0;" width="10" x="171.5" y="936.6797"/><rect fill="#FFFFFF" height="76.2656" style="stroke:#181818;stroke-width:1.0;" width="10" x="176.5" y="978.8125"/><rect fill="#FFFFFF" height="34.1328" style="stroke:#181818;stroke-width:1.0;" width="10" x="181.5" y="1020.9453"/><rect fill="#FFFFFF" height="36.1641" style="stroke:#181818;stroke-width:1.0;" width="10" x="389.5" y="1065.0781"/><rect fill="#FFFFFF" height="109.3984" style="stroke:#181818;stroke-width:1.0;" width="10" x="456.5" y="570.4844"/><rect fill="#FFFFFF" height="28" style="stroke:#181818;stroke-width:1.0;" width="10" x="461.5" y="651.8828"/><rect fill="#FFFFFF" height="155.5313" style="stroke:#181818;stroke-width:1.0;" width="10" x="456.5" y="744.0156"/><rect fill="#FFFFFF" height="118.3984" style="stroke:#181818;stroke-width:1.0;" width="10" x="461.5" y="781.1484"/><rect fill="#FFFFFF" height="76.2656" style="stroke:#181818;stroke-width:1.0;" width="10" x="466.5" y="823.2813"/><rect fill="#FFFFFF" height="34.1328" style="stroke:#181818;stroke-width:1.0;" width="10" x="471.5" y="865.4141"/><rect fill="#FFFFFF" height="563.9922" style="stroke:#FFFFFF;stroke-width:1.0;" width="10" x="679.5" y="130.8906"/><line style="stroke:#181818;stroke-width:1.0;" x1="679.5" x2="679.5" y1="130.8906" y2="694.8828"/><line style="stroke:#181818;stroke-width:1.0;" x1="689.5" x2="689.5" y1="130.8906" y2="694.8828"/><line style="stroke:#181818;stroke-width:1.0;" x1="679.5" x2="689.5" y1="130.8906" y2="130.8906"/><rect fill="#FFFFFF" height="21.1328" style="stroke:#FFFFFF;stroke-width:1.0;" width="10" x="679.5" y="722.8828"/><line style="stroke:#181818;stroke-width:1.0;" x1="679.5" x2="679.5" y1="722.8828" y2="744.0156"/><line style="stroke:#181818;stroke-width:1.0;" x1="689.5" x2="689.5" y1="722.8828" y2="744.0156"/><line style="stroke:#181818;stroke-width:1.0;" x1="679.5" x2="689.5" y1="744.0156" y2="744.0156"/><rect fill="#FFFFFF" height="29.1328" style="stroke:#181818;stroke-width:1.0;" width="10" x="780" y="152.0234"/><rect fill="#FFFFFF" height="29.1328" style="stroke:#181818;stroke-width:1.0;" width="10" x="780" y="512.2188"/><line style="stroke:#181818;stroke-width:0.5;stroke-dasharray:5.0,5.0;" x1="46.5" x2="46.5" y1="120.8906" y2="694.8828"/><line style="stroke:#383838;stroke-width:1.0;stroke-dasharray:1.0,4.0;" x1="46.5" x2="46.5" y1="694.8828" y2="722.8828"/><line style="stroke:#181818;stroke-width:0.5;stroke-dasharray:5.0,5.0;" x1="46.5" x2="46.5" y1="722.8828" y2="1110.2422"/><line style="stroke:#181818;stroke-width:0.5;stroke-dasharray:5.0,5.0;" x1="171" x2="171" y1="120.8906" y2="694.8828"/><line style="stroke:#383838;stroke-width:1.0;stroke-dasharray:1.0,4.0;" x1="171" x2="171" y1="694.8828" y2="722.8828"/><line style="stroke:#181818;stroke-width:0.5;stroke-dasharray:5.0,5.0;" x1="171" x2="171" y1="722.8828" y2="1110.2422"/><line style="stroke:#181818;stroke-width:0.5;stroke-dasharray:5.0,5.0;" x1="394" x2="394" y1="1064.5938" y2="1110.2422"/><line style="stroke:#181818;stroke-width:0.5;stroke-dasharray:5.0,5.0;" x1="461" x2="461" y1="120.8906" y2="694.8828"/><line style="stroke:#383838;stroke-width:1.0;stroke-dasharray:1.0,4.0;" x1="461" x2="461" y1="694.8828" y2="722.8828"/><line style="stroke:#181818;stroke-width:0.5;stroke-dasharray:5.0,5.0;" x1="461" x2="461" y1="722.8828" y2="1110.2422"/><line style="stroke:#181818;stroke-width:0.5;stroke-dasharray:5.0,5.0;" x1="684" x2="684" y1="120.8906" y2="694.8828"/><line style="stroke:#383838;stroke-width:1.0;stroke-dasharray:1.0,4.0;" x1="684" x2="684" y1="694.8828" y2="722.8828"/><line style="stroke:#181818;stroke-width:0.5;stroke-dasharray:5.0,5.0;" x1="684" x2="684" y1="722.8828" y2="1110.2422"/><line style="stroke:#181818;stroke-width:0.5;stroke-dasharray:5.0,5.0;" x1="785" x2="785" y1="120.8906" y2="694.8828"/><line style="stroke:#383838;stroke-width:1.0;stroke-dasharray:1.0,4.0;" x1="785" x2="785" y1="694.8828" y2="722.8828"/><line style="stroke:#181818;stroke-width:0.5;stroke-dasharray:5.0,5.0;" x1="785" x2="785" y1="722.8828" y2="1110.2422"/><rect fill="#E3E3E3" height="30.2969" rx="2.5" ry="2.5" style="stroke:#181818;stroke-width:0.5;" width="53" x="20.5" y="89.5938"/><text fill="#000000" font-family="sans-serif" font-size="14" lengthAdjust="spacing" textLength="39" x="27.5" y="109.5889">Client</text><rect fill="#E3E3E3" height="30.2969" rx="2.5" ry="2.5" style="stroke:#181818;stroke-width:0.5;" width="51" x="146" y="89.5938"/><text fill="#000000" font-family="sans-serif" font-size="14" lengthAdjust="spacing" textLength="37" x="153" y="109.5889">Store</text><rect fill="#E3E3E3" height="30.2969" rx="2.5" ry="2.5" style="stroke:#181818;stroke-width:0.5;" width="51" x="436" y="89.5938"/><text fill="#000000" font-family="sans-serif" font-size="14" lengthAdjust="spacing" textLength="37" x="443" y="109.5889">Store</text><rect fill="#E3E3E3" height="30.2969" rx="2.5" ry="2.5" style="stroke:#181818;stroke-width:0.5;" width="63" x="653" y="89.5938"/><text fill="#000000" font-family="sans-serif" font-size="14" lengthAdjust="spacing" textLength="49" x="660" y="109.5889">Worker</text><text fill="#000000" font-family="sans-serif" font-size="14" lengthAdjust="spacing" textLength="112" x="726" y="117.5889">Location Service</text><path d="M767,68.5938 C767,58.5938 785,58.5938 785,58.5938 C785,58.5938 803,58.5938 803,68.5938 L803,94.5938 C803,104.5938 785,104.5938 785,104.5938 C785,104.5938 767,104.5938 767,94.5938 L767,68.5938 " fill="#E3E3E3" style="stroke:#181818;stroke-width:1.5;"/><path d="M767,68.5938 C767,78.5938 785,78.5938 785,78.5938 C785,78.5938 803,78.5938 803,68.5938 " fill="none" style="stroke:#181818;stroke-width:1.5;"/><rect fill="#FFFFFF" height="50.2656" style="stroke:#181818;stroke-width:1.0;" width="10" x="42" y="130.8906"/><rect fill="#FFFFFF" height="101.2656" style="stroke:#181818;stroke-width:1.0;" width="10" x="42" y="210.2891"/><rect fill="#FFFFFF" height="389.3281" style="stroke:#181818;stroke-width:1.0;" width="10" x="166.5" y="210.2891"/><rect fill="#FFFFFF" height="28" style="stroke:#181818;stroke-width:1.0;" width="10" x="171.5" y="247.4219"/><rect fill="#FFFFFF" height="40.1328" style="stroke:#181818;stroke-width:1.0;" width="10" x="171.5" y="348.6875"/><rect fill="#FFFFFF" height="28" style="stroke:#181818;stroke-width:1.0;" width="10" x="171.5" y="448.0859"/><rect fill="#FFFFFF" height="155.5313" style="stroke:#181818;stroke-width:1.0;" width="10" x="166.5" y="899.5469"/><rect fill="#FFFFFF" height="118.3984" style="stroke:#181818;stroke-width:1.0;" width="10" x="171.5" y="936.6797"/><rect fill="#FFFFFF" height="76.2656" style="stroke:#181818;stroke-width:1.0;" width="10" x="176.5" y="978.8125"/><rect fill="#FFFFFF" height="34.1328" style="stroke:#181818;stroke-width:1.0;" width="10" x="181.5" y="1020.9453"/><rect fill="#FFFFFF" height="36.1641" style="stroke:#181818;stroke-width:1.0;" width="10" x="389.5" y="1065.0781"/><rect fill="#FFFFFF" height="109.3984" style="stroke:#181818;stroke-width:1.0;" width="10" x="456.5" y="570.4844"/><rect fill="#FFFFFF" height="28" style="stroke:#181818;stroke-width:1.0;" width="10" x="461.5" y="651.8828"/><rect fill="#FFFFFF" height="155.5313" style="stroke:#181818;stroke-width:1.0;" width="10" x="456.5" y="744.0156"/><rect fill="#FFFFFF" height="118.3984" style="stroke:#181818;stroke-width:1.0;" width="10" x="461.5" y="781.1484"/><rect fill="#FFFFFF" height="76.2656" style="stroke:#181818;stroke-width:1.0;" width="10" x="466.5" y="823.2813"/><rect fill="#FFFFFF" height="34.1328" style="stroke:#181818;stroke-width:1.0;" width="10" x="471.5" y="865.4141"/><rect fill="#FFFFFF" height="563.9922" style="stroke:#FFFFFF;stroke-width:1.0;" width="10" x="679.5" y="130.8906"/><line style="stroke:#181818;stroke-width:1.0;" x1="679.5" x2="679.5" y1="130.8906" y2="694.8828"/><line style="stroke:#181818;stroke-width:1.0;" x1="689.5" x2="689.5" y1="130.8906" y2="694.8828"/><line style="stroke:#181818;stroke-width:1.0;" x1="679.5" x2="689.5" y1="130.8906" y2="130.8906"/><rect fill="#FFFFFF" height="21.1328" style="stroke:#FFFFFF;stroke-width:1.0;" width="10" x="679.5" y="722.8828"/><line style="stroke:#181818;stroke-width:1.0;" x1="679.5" x2="679.5" y1="722.8828" y2="744.0156"/><line style="stroke:#181818;stroke-width:1.0;" x1="689.5" x2="689.5" y1="722.8828" y2="744.0156"/><line style="stroke:#181818;stroke-width:1.0;" x1="679.5" x2="689.5" y1="744.0156" y2="744.0156"/><rect fill="#FFFFFF" height="29.1328" style="stroke:#181818;stroke-width:1.0;" width="10" x="780" y="152.0234"/><rect fill="#FFFFFF" height="29.1328" style="stroke:#181818;stroke-width:1.0;" width="10" x="780" y="512.2188"/><polygon fill="#181818" points="768,148.0234,778,152.0234,768,156.0234" style="stroke:#181818;stroke-width:1.0;"/><line style="stroke:#181818;stroke-width:1.0;" x1="52" x2="774" y1="152.0234" y2="152.0234"/><text fill="#000000" font-family="sans-serif" font-size="13" lengthAdjust="spacing" textLength="76" x="378" y="146.9575">Locate work</text><polygon fill="#181818" points="58,177.1563,48,181.1563,58,185.1563" style="stroke:#181818;stroke-width:1.0;"/><line style="stroke:#181818;stroke-width:1.0;stroke-dasharray:2.0,2.0;" x1="52" x2="784" y1="181.1563" y2="181.1563"/><text fill="#000000" font-family="sans-serif" font-size="13" lengthAdjust="spacing" textLength="162" x="335" y="176.0903">Location: Response Node</text><polygon fill="#181818" points="154.5,206.2891,164.5,210.2891,154.5,214.2891" style="stroke:#181818;stroke-width:1.0;"/><line style="stroke:#181818;stroke-width:1.0;" x1="52" x2="160.5" y1="210.2891" y2="210.2891"/><text fill="#000000" font-family="sans-serif" font-size="13" lengthAdjust="spacing" textLength="85" x="66.75" y="205.2231">Request work</text><line style="stroke:#181818;stroke-width:1.0;" x1="181.5" x2="223.5" y1="239.4219" y2="239.4219"/><line style="stroke:#181818;stroke-width:1.0;" x1="223.5" x2="223.5" y1="239.4219" y2="252.4219"/><line style="stroke:#181818;stroke-width:1.0;" x1="182.5" x2="223.5" y1="252.4219" y2="252.4219"/><polygon fill="#181818" points="192.5,248.4219,182.5,252.4219,192.5,256.4219" style="stroke:#181818;stroke-width:1.0;"/><text fill="#000000" font-family="sans-serif" font-size="13" lengthAdjust="spacing" textLength="136" x="188.5" y="234.356">Set work state: PEND</text><polygon fill="#181818" points="58,307.5547,48,311.5547,58,315.5547" style="stroke:#181818;stroke-width:1.0;"/><line style="stroke:#181818;stroke-width:1.0;stroke-dasharray:2.0,2.0;" x1="52" x2="165.5" y1="311.5547" y2="311.5547"/><text fill="#000000" font-family="sans-serif" font-size="13" lengthAdjust="spacing" textLength="26" x="93.75" y="306.4888">ACK</text><line style="stroke:#181818;stroke-width:1.0;" x1="176.5" x2="223.5" y1="335.6875" y2="335.6875"/><line style="stroke:#181818;stroke-width:1.0;" x1="223.5" x2="223.5" y1="335.6875" y2="348.6875"/><line style="stroke:#181818;stroke-width:1.0;" x1="182.5" x2="223.5" y1="348.6875" y2="348.6875"/><polygon fill="#181818" points="192.5,344.6875,182.5,348.6875,192.5,352.6875" style="stroke:#181818;stroke-width:1.0;"/><text fill="#000000" font-family="sans-serif" font-size="13" lengthAdjust="spacing" textLength="106" x="188.5" y="330.6216">Get prereq state</text><line style="stroke:#181818;stroke-width:1.0;stroke-dasharray:2.0,2.0;" x1="181.5" x2="223.5" y1="387.8203" y2="387.8203"/><line style="stroke:#181818;stroke-width:1.0;stroke-dasharray:2.0,2.0;" x1="223.5" x2="223.5" y1="387.8203" y2="400.8203"/><line style="stroke:#181818;stroke-width:1.0;stroke-dasharray:2.0,2.0;" x1="176.5" x2="223.5" y1="400.8203" y2="400.8203"/><polygon fill="#181818" points="186.5,396.8203,176.5,400.8203,186.5,404.8203" style="stroke:#181818;stroke-width:1.0;"/><text fill="#000000" font-family="sans-serif" font-size="13" lengthAdjust="spacing" textLength="57" x="188.5" y="382.7544">UNAVAIL</text><line style="stroke:#181818;stroke-width:1.0;" x1="181.5" x2="223.5" y1="440.0859" y2="440.0859"/><line style="stroke:#181818;stroke-width:1.0;" x1="223.5" x2="223.5" y1="440.0859" y2="453.0859"/><line style="stroke:#181818;stroke-width:1.0;" x1="182.5" x2="223.5" y1="453.0859" y2="453.0859"/><polygon fill="#181818" points="192.5,449.0859,182.5,453.0859,192.5,457.0859" style="stroke:#181818;stroke-width:1.0;"/><text fill="#000000" font-family="sans-serif" font-size="13" lengthAdjust="spacing" textLength="185" x="188.5" y="419.8872">Set prereq state association:</text><text fill="#000000" font-family="sans-serif" font-size="13" lengthAdjust="spacing" textLength="140" x="211" y="435.02">AVAIL -&gt; Launch work</text><polygon fill="#181818" points="768,508.2188,778,512.2188,768,516.2188" style="stroke:#181818;stroke-width:1.0;"/><line style="stroke:#181818;stroke-width:1.0;" x1="176.5" x2="774" y1="512.2188" y2="512.2188"/><text fill="#000000" font-family="sans-serif" font-size="13" lengthAdjust="spacing" textLength="123" x="416.75" y="507.1528">Locate prerequisite</text><polygon fill="#181818" points="187.5,537.3516,177.5,541.3516,187.5,545.3516" style="stroke:#181818;stroke-width:1.0;"/><line style="stroke:#181818;stroke-width:1.0;stroke-dasharray:2.0,2.0;" x1="181.5" x2="784" y1="541.3516" y2="541.3516"/><text fill="#000000" font-family="sans-serif" font-size="13" lengthAdjust="spacing" textLength="150" x="405.75" y="536.2856">Location of prerequisite</text><polygon fill="#181818" points="444.5,566.4844,454.5,570.4844,444.5,574.4844" style="stroke:#181818;stroke-width:1.0;"/><line style="stroke:#181818;stroke-width:1.0;" x1="176.5" x2="450.5" y1="570.4844" y2="570.4844"/><text fill="#000000" font-family="sans-serif" font-size="13" lengthAdjust="spacing" textLength="131" x="251" y="565.4185">Request prereq data</text><polygon fill="#181818" points="182.5,595.6172,172.5,599.6172,182.5,603.6172" style="stroke:#181818;stroke-width:1.0;"/><line style="stroke:#181818;stroke-width:1.0;stroke-dasharray:2.0,2.0;" x1="176.5" x2="455.5" y1="599.6172" y2="599.6172"/><text fill="#000000" font-family="sans-serif" font-size="13" lengthAdjust="spacing" textLength="156" x="236" y="594.5513">Prereq data state: PEND</text><line style="stroke:#181818;stroke-width:1.0;" x1="471.5" x2="513.5" y1="643.8828" y2="643.8828"/><line style="stroke:#181818;stroke-width:1.0;" x1="513.5" x2="513.5" y1="643.8828" y2="656.8828"/><line style="stroke:#181818;stroke-width:1.0;" x1="472.5" x2="513.5" y1="656.8828" y2="656.8828"/><polygon fill="#181818" points="482.5,652.8828,472.5,656.8828,482.5,660.8828" style="stroke:#181818;stroke-width:1.0;"/><text fill="#000000" font-family="sans-serif" font-size="13" lengthAdjust="spacing" textLength="185" x="478.5" y="623.6841">Set prereq state association:</text><text fill="#000000" font-family="sans-serif" font-size="13" lengthAdjust="spacing" textLength="175" x="483.5" y="638.8169">AVAIL -&gt; send to requester</text><line style="stroke:#181818;stroke-width:1.0;" x1="466.5" x2="476.5" y1="744.0156" y2="740.0156"/><line style="stroke:#181818;stroke-width:1.0;" x1="466.5" x2="476.5" y1="744.0156" y2="748.0156"/><line style="stroke:#181818;stroke-width:1.0;" x1="466.5" x2="683.5" y1="744.0156" y2="744.0156"/><text fill="#000000" font-family="sans-serif" font-size="13" lengthAdjust="spacing" textLength="75" x="538" y="738.9497">Prereq data</text><line style="stroke:#383838;stroke-width:2.0;" x1="675.5" x2="693.5" y1="735.0156" y2="753.0156"/><line style="stroke:#383838;stroke-width:2.0;" x1="675.5" x2="693.5" y1="753.0156" y2="735.0156"/><line style="stroke:#181818;stroke-width:1.0;" x1="466.5" x2="513.5" y1="768.1484" y2="768.1484"/><line style="stroke:#181818;stroke-width:1.0;" x1="513.5" x2="513.5" y1="768.1484" y2="781.1484"/><line style="stroke:#181818;stroke-width:1.0;" x1="472.5" x2="513.5" y1="781.1484" y2="781.1484"/><polygon fill="#181818" points="482.5,777.1484,472.5,781.1484,482.5,785.1484" style="stroke:#181818;stroke-width:1.0;"/><text fill="#000000" font-family="sans-serif" font-size="13" lengthAdjust="spacing" textLength="68" x="478.5" y="763.0825">Store data</text><line style="stroke:#181818;stroke-width:1.0;" x1="471.5" x2="518.5" y1="810.2813" y2="810.2813"/><line style="stroke:#181818;stroke-width:1.0;" x1="518.5" x2="518.5" y1="810.2813" y2="823.2813"/><line style="stroke:#181818;stroke-width:1.0;" x1="477.5" x2="518.5" y1="823.2813" y2="823.2813"/><polygon fill="#181818" points="487.5,819.2813,477.5,823.2813,487.5,827.2813" style="stroke:#181818;stroke-width:1.0;"/><text fill="#000000" font-family="sans-serif" font-size="13" lengthAdjust="spacing" textLength="183" x="483.5" y="805.2153">Set prereq data state: AVAIL</text><line style="stroke:#181818;stroke-width:1.0;" x1="476.5" x2="523.5" y1="852.4141" y2="852.4141"/><line style="stroke:#181818;stroke-width:1.0;" x1="523.5" x2="523.5" y1="852.4141" y2="865.4141"/><line style="stroke:#181818;stroke-width:1.0;" x1="482.5" x2="523.5" y1="865.4141" y2="865.4141"/><polygon fill="#181818" points="492.5,861.4141,482.5,865.4141,492.5,869.4141" style="stroke:#181818;stroke-width:1.0;"/><text fill="#000000" font-family="sans-serif" font-size="13" lengthAdjust="spacing" textLength="189" x="488.5" y="847.3481">Get prereq state associations</text><line style="stroke:#181818;stroke-width:1.0;" x1="176.5" x2="186.5" y1="899.5469" y2="895.5469"/><line style="stroke:#181818;stroke-width:1.0;" x1="176.5" x2="186.5" y1="899.5469" y2="903.5469"/><line style="stroke:#181818;stroke-width:1.0;stroke-dasharray:2.0,2.0;" x1="176.5" x2="460.5" y1="899.5469" y2="899.5469"/><text fill="#000000" font-family="sans-serif" font-size="13" lengthAdjust="spacing" textLength="75" x="281.5" y="894.481">Prereq data</text><line style="stroke:#181818;stroke-width:1.0;" x1="176.5" x2="223.5" y1="923.6797" y2="923.6797"/><line style="stroke:#181818;stroke-width:1.0;" x1="223.5" x2="223.5" y1="923.6797" y2="936.6797"/><line style="stroke:#181818;stroke-width:1.0;" x1="182.5" x2="223.5" y1="936.6797" y2="936.6797"/><polygon fill="#181818" points="192.5,932.6797,182.5,936.6797,192.5,940.6797" style="stroke:#181818;stroke-width:1.0;"/><text fill="#000000" font-family="sans-serif" font-size="13" lengthAdjust="spacing" textLength="68" x="188.5" y="918.6138">Store data</text><line style="stroke:#181818;stroke-width:1.0;" x1="181.5" x2="228.5" y1="965.8125" y2="965.8125"/><line style="stroke:#181818;stroke-width:1.0;" x1="228.5" x2="228.5" y1="965.8125" y2="978.8125"/><line style="stroke:#181818;stroke-width:1.0;" x1="187.5" x2="228.5" y1="978.8125" y2="978.8125"/><polygon fill="#181818" points="197.5,974.8125,187.5,978.8125,197.5,982.8125" style="stroke:#181818;stroke-width:1.0;"/><text fill="#000000" font-family="sans-serif" font-size="13" lengthAdjust="spacing" textLength="183" x="193.5" y="960.7466">Set prereq data state: AVAIL</text><line style="stroke:#181818;stroke-width:1.0;" x1="186.5" x2="233.5" y1="1007.9453" y2="1007.9453"/><line style="stroke:#181818;stroke-width:1.0;" x1="233.5" x2="233.5" y1="1007.9453" y2="1020.9453"/><line style="stroke:#181818;stroke-width:1.0;" x1="192.5" x2="233.5" y1="1020.9453" y2="1020.9453"/><polygon fill="#181818" points="202.5,1016.9453,192.5,1020.9453,202.5,1024.9453" style="stroke:#181818;stroke-width:1.0;"/><text fill="#000000" font-family="sans-serif" font-size="13" lengthAdjust="spacing" textLength="189" x="198.5" y="1002.8794">Get prereq state associations</text><line style="stroke:#181818;stroke-width:1.0;" x1="361" x2="351" y1="1055.0781" y2="1051.0781"/><line style="stroke:#181818;stroke-width:1.0;" x1="361" x2="351" y1="1055.0781" y2="1059.0781"/><line style="stroke:#181818;stroke-width:1.0;" x1="171.5" x2="362" y1="1055.0781" y2="1055.0781"/><text fill="#000000" font-family="sans-serif" font-size="13" lengthAdjust="spacing" textLength="79" x="227.75" y="1050.0122">Launch work</text><rect fill="#E3E3E3" height="30.2969" rx="2.5" ry="2.5" style="stroke:#181818;stroke-width:0.5;" width="63" x="363" y="1033.9453"/><text fill="#000000" font-family="sans-serif" font-size="14" lengthAdjust="spacing" textLength="49" x="370" y="1053.9404">Worker</text><!--MD5=[778e208ecd5a6e64b34fca1cd867dc2d]
@startuml
skinparam monochrome true
skinparam shadowing false
skinparam style strictuml
skinparam LifelineStrategy nosolid
skinparam sequenceMessageAlign center
title Work Request,\nPrerequisite Pending Externally to the Store

box "Client Node" #ffffff
participant Client as client
end box
box "Response Node" #ffffff
participant Store as store
participant Worker as worker
end box
box "Prerequisite Node" #ffffff
participant Store as pstore
participant Worker as pworker
end box
database "Location Service" as ls

activate pworker
activate client
client -> ls: Locate work
activate ls
return Location: Response Node
deactivate client
client -> store ++: Request work
activate client
store -> store ++- -: Set work state: PEND
store - -> client: ACK
deactivate client
store -> store ++: Get prereq state
return UNAVAIL
store -> store ++- -: Set prereq state association:\nAVAIL -> Launch work
store -> ls ++: Locate prerequisite
return Location of prerequisite
store -> pstore ++: Request prereq data
pstore - -> store: Prereq data state: PEND
deactivate store
pstore -> pstore ++- -: Set prereq state association:\nAVAIL -> send to requester
deactivate pstore
...
pworker ->> pstore: Prereq data
destroy pworker
activate pstore
pstore -> pstore ++: Store data
pstore -> pstore ++: Set prereq data state: AVAIL
pstore -> pstore ++: Get prereq state associations
pstore - ->> store - -: Prereq data
deactivate pstore
deactivate pstore
deactivate pstore
deactivate pstore
activate store
store -> store ++: Store data
store -> store ++: Set prereq data state: AVAIL
store -> store ++: Get prereq state associations
store ->> worker **: Launch work
deactivate store
deactivate store
deactivate store
deactivate store
activate worker
|||
@enduml

PlantUML version 1.2022.2(Sun Mar 06 05:30:19 NZDT 2022)
(GPL source distribution)
Java Runtime: OpenJDK Runtime Environment
JVM: OpenJDK 64-Bit Server VM
Default Encoding: UTF-8
Language: en
Country: NZ
--></g></svg>