<?xml version="1.0" encoding="UTF-8" standalone="no"?>
<!DOCTYPE svg PUBLIC "-//W3C//DTD SVG 1.1//EN"
 "http://www.w3.org/Graphics/SVG/1.1/DTD/svg11.dtd">
<!-- Generated by graphviz version 2.42.3 (20191010.1750)
 -->
<!-- Title: dreduce Pages: 1 -->
<svg width="341pt" height="332pt"
 viewBox="0.00 0.00 340.79 332.00" xmlns="http://www.w3.org/2000/svg" xmlns:xlink="http://www.w3.org/1999/xlink">
<g id="graph0" class="graph" transform="scale(1 1) rotate(0) translate(4 328)">
<title>dreduce</title>
<polygon fill="white" stroke="transparent" points="-4,4 -4,-328 336.79,-328 336.79,4 -4,4"/>
<!-- m -->
<g id="node1" class="node">
<title>m</title>
<ellipse fill="none" stroke="black" cx="166.4" cy="-306" rx="81.79" ry="18"/>
<text text-anchor="middle" x="166.4" y="-302.3" font-family="Times,serif" font-size="14.00">master process</text>
</g>
<!-- q1 -->
<g id="node2" class="node">
<title>q1</title>
<ellipse fill="none" stroke="black" cx="49.4" cy="-234" rx="49.29" ry="18"/>
<text text-anchor="middle" x="49.4" y="-230.3" font-family="Times,serif" font-size="14.00">Queue 1</text>
</g>
<!-- m&#45;&gt;q1 -->
<g id="edge1" class="edge">
<title>m&#45;&gt;q1</title>
<path fill="none" stroke="black" d="M139.55,-288.94C122.78,-278.9 101.03,-265.89 83.1,-255.16"/>
<polygon fill="black" stroke="black" points="84.5,-251.92 74.12,-249.79 80.9,-257.93 84.5,-251.92"/>
</g>
<!-- q2 -->
<g id="node3" class="node">
<title>q2</title>
<ellipse fill="none" stroke="black" cx="166.4" cy="-234" rx="49.29" ry="18"/>
<text text-anchor="middle" x="166.4" y="-230.3" font-family="Times,serif" font-size="14.00">Queue 2</text>
</g>
<!-- m&#45;&gt;q2 -->
<g id="edge2" class="edge">
<title>m&#45;&gt;q2</title>
<path fill="none" stroke="black" d="M166.4,-287.7C166.4,-279.98 166.4,-270.71 166.4,-262.11"/>
<polygon fill="black" stroke="black" points="169.9,-262.1 166.4,-252.1 162.9,-262.1 169.9,-262.1"/>
</g>
<!-- q3 -->
<g id="node4" class="node">
<title>q3</title>
<ellipse fill="none" stroke="black" cx="283.4" cy="-234" rx="49.29" ry="18"/>
<text text-anchor="middle" x="283.4" y="-230.3" font-family="Times,serif" font-size="14.00">Queue 3</text>
</g>
<!-- m&#45;&gt;q3 -->
<g id="edge3" class="edge">
<title>m&#45;&gt;q3</title>
<path fill="none" stroke="black" d="M193.24,-288.94C210.01,-278.9 231.76,-265.89 249.69,-255.16"/>
<polygon fill="black" stroke="black" points="251.89,-257.93 258.67,-249.79 248.3,-251.92 251.89,-257.93"/>
</g>
<!-- p1 -->
<g id="node5" class="node">
<title>p1</title>
<ellipse fill="none" stroke="black" cx="66.4" cy="-162" rx="55.79" ry="18"/>
<text text-anchor="middle" x="66.4" y="-158.3" font-family="Times,serif" font-size="14.00">Process 1</text>
</g>
<!-- q1&#45;&gt;p1 -->
<g id="edge4" class="edge">
<title>q1&#45;&gt;p1</title>
<path fill="none" stroke="black" d="M53.51,-216.05C55.4,-208.26 57.7,-198.82 59.82,-190.08"/>
<polygon fill="black" stroke="black" points="63.24,-190.82 62.2,-180.28 56.44,-189.17 63.24,-190.82"/>
</g>
<!-- p2 -->
<g id="node6" class="node">
<title>p2</title>
<ellipse fill="none" stroke="black" cx="166.4" cy="-90" rx="55.79" ry="18"/>
<text text-anchor="middle" x="166.4" y="-86.3" font-family="Times,serif" font-size="14.00">Process 2</text>
</g>
<!-- q2&#45;&gt;p2 -->
<g id="edge5" class="edge">
<title>q2&#45;&gt;p2</title>
<path fill="none" stroke="black" d="M166.4,-215.87C166.4,-191.67 166.4,-147.21 166.4,-118.39"/>
<polygon fill="black" stroke="black" points="169.9,-118.19 166.4,-108.19 162.9,-118.19 169.9,-118.19"/>
</g>
<!-- p3 -->
<g id="node7" class="node">
<title>p3</title>
<ellipse fill="none" stroke="black" cx="208.4" cy="-18" rx="55.79" ry="18"/>
<text text-anchor="middle" x="208.4" y="-14.3" font-family="Times,serif" font-size="14.00">Process 3</text>
</g>
<!-- q3&#45;&gt;p3 -->
<g id="edge6" class="edge">
<title>q3&#45;&gt;p3</title>
<path fill="none" stroke="black" d="M278.47,-215.89C269.8,-186.27 250.9,-123.66 231.4,-72 228.09,-63.23 224.13,-53.8 220.44,-45.37"/>
<polygon fill="black" stroke="black" points="223.54,-43.73 216.28,-36.01 217.14,-46.57 223.54,-43.73"/>
</g>
<!-- p1&#45;&gt;p2 -->
<g id="edge7" class="edge">
<title>p1&#45;&gt;p2</title>
<path fill="none" stroke="black" d="M88.59,-145.46C102.35,-135.84 120.22,-123.32 135.37,-112.72"/>
<polygon fill="black" stroke="black" points="137.73,-115.34 143.92,-106.73 133.72,-109.6 137.73,-115.34"/>
</g>
<!-- p2&#45;&gt;p3 -->
<g id="edge8" class="edge">
<title>p2&#45;&gt;p3</title>
<path fill="none" stroke="black" d="M176.56,-72.05C181.52,-63.8 187.57,-53.7 193.07,-44.54"/>
<polygon fill="black" stroke="black" points="196.18,-46.16 198.32,-35.79 190.18,-42.56 196.18,-46.16"/>
</g>
</g>
</svg>
