<?xml version="1.0" encoding="UTF-8" standalone="no"?>
<!DOCTYPE svg PUBLIC "-//W3C//DTD SVG 1.1//EN"
 "http://www.w3.org/Graphics/SVG/1.1/DTD/svg11.dtd">
<!-- Generated by graphviz version 2.42.3 (20191010.1750)
 -->
<!-- Title: G Pages: 1 -->
<svg width="400pt" height="365pt"
 viewBox="0.00 0.00 288.00 262.53" xmlns="http://www.w3.org/2000/svg" xmlns:xlink="http://www.w3.org/1999/xlink">
<g id="graph0" class="graph" transform="scale(0.56 0.56) rotate(0) translate(4 200)">
<title>G</title>
<polygon fill="white" stroke="transparent" points="-4,4 -4,-200 219.79,-200 219.79,4 -4,4"/>
<!-- m -->
<g id="node1" class="node">
<title>m</title>
<ellipse fill="none" stroke="black" cx="107.4" cy="-178" rx="44.39" ry="18"/>
<text text-anchor="middle" x="107.4" y="-174.3" font-family="Times,serif" font-size="14.00">Master</text>
</g>
<!-- q1 -->
<g id="node2" class="node">
<title>q1</title>
<ellipse fill="none" stroke="black" cx="49.4" cy="-105" rx="49.29" ry="18"/>
<text text-anchor="middle" x="49.4" y="-101.3" font-family="Times,serif" font-size="14.00">Queue 1</text>
</g>
<!-- m&#45;&gt;q1 -->
<g id="edge1" class="edge">
<title>m&#45;&gt;q1</title>
<path fill="none" stroke="black" d="M93.94,-160.53C86.62,-151.57 77.43,-140.31 69.29,-130.36"/>
<polygon fill="black" stroke="black" points="71.81,-127.91 62.77,-122.38 66.39,-132.34 71.81,-127.91"/>
</g>
<!-- q2 -->
<g id="node3" class="node">
<title>q2</title>
<ellipse fill="none" stroke="black" cx="166.4" cy="-105" rx="49.29" ry="18"/>
<text text-anchor="middle" x="166.4" y="-101.3" font-family="Times,serif" font-size="14.00">Queue 2</text>
</g>
<!-- m&#45;&gt;q2 -->
<g id="edge2" class="edge">
<title>m&#45;&gt;q2</title>
<path fill="none" stroke="black" d="M121.08,-160.53C128.53,-151.57 137.88,-140.31 146.16,-130.36"/>
<polygon fill="black" stroke="black" points="149.09,-132.31 152.79,-122.38 143.7,-127.83 149.09,-132.31"/>
</g>
<!-- w -->
<g id="node4" class="node">
<title>w</title>
<ellipse fill="none" stroke="black" cx="107.4" cy="-18" rx="44.39" ry="18"/>
<text text-anchor="middle" x="107.4" y="-14.3" font-family="Times,serif" font-size="14.00">Worker</text>
</g>
<!-- q1&#45;&gt;w -->
<g id="edge3" class="edge">
<title>q1&#45;&gt;w</title>
<path fill="none" stroke="black" d="M60.85,-87.21C69.25,-74.9 80.79,-58 90.27,-44.09"/>
<polygon fill="black" stroke="black" points="93.41,-45.7 96.16,-35.47 87.63,-41.76 93.41,-45.7"/>
<text text-anchor="middle" x="96.4" y="-57.8" font-family="Times,serif" font-size="14.00">2nd</text>
</g>
<!-- q2&#45;&gt;w -->
<g id="edge4" class="edge">
<title>q2&#45;&gt;w</title>
<path fill="none" stroke="black" d="M154.74,-87.21C146.12,-74.79 134.24,-57.67 124.54,-43.7"/>
<polygon fill="black" stroke="black" points="127.4,-41.69 118.83,-35.47 121.65,-45.68 127.4,-41.69"/>
<text text-anchor="middle" x="152.9" y="-57.8" font-family="Times,serif" font-size="14.00">1st</text>
</g>
</g>
</svg>
