<?xml version="1.0" encoding="UTF-8" standalone="no"?><svg xmlns="http://www.w3.org/2000/svg" xmlns:xlink="http://www.w3.org/1999/xlink" contentStyleType="text/css" height="143px" preserveAspectRatio="none" style="width:439px;height:143px;background:#FFFFFF;" version="1.1" viewBox="0 0 439 143" width="439px" zoomAndPan="magnify"><defs/><g><!--MD5=[6e0c224d26e528c5d694b92ff8301dce]
class Chunk--><g id="elem_Chunk"><rect codeLine="2" fill="#F1F1F1" height="113.1875" id="Chunk" rx="2.5" ry="2.5" style="stroke:#181818;stroke-width:0.5;" width="206" x="7" y="15"/><ellipse cx="83.25" cy="31" fill="#ADD1B2" rx="11" ry="11" style="stroke:#181818;stroke-width:1.0;"/><path d="M86.2188,36.6406 Q85.6406,36.9375 85,37.0781 Q84.3594,37.2344 83.6563,37.2344 Q81.1563,37.2344 79.8281,35.5938 Q78.5156,33.9375 78.5156,30.8125 Q78.5156,27.6875 79.8281,26.0313 Q81.1563,24.375 83.6563,24.375 Q84.3594,24.375 85,24.5313 Q85.6563,24.6875 86.2188,24.9844 L86.2188,27.7031 Q85.5938,27.125 85,26.8594 Q84.4063,26.5781 83.7813,26.5781 Q82.4375,26.5781 81.75,27.6563 Q81.0625,28.7188 81.0625,30.8125 Q81.0625,32.9063 81.75,33.9844 Q82.4375,35.0469 83.7813,35.0469 Q84.4063,35.0469 85,34.7813 Q85.5938,34.5 86.2188,33.9219 L86.2188,36.6406 Z " fill="#000000"/><text fill="#000000" font-family="sans-serif" font-size="14" lengthAdjust="spacing" textLength="45" x="103.75" y="35.8467">Chunk</text><line style="stroke:#181818;stroke-width:0.5;" x1="8" x2="212" y1="47" y2="47"/><rect fill="none" height="6" style="stroke:#C82930;stroke-width:1.0;" width="6" x="15" y="55"/><text fill="#000000" font-family="sans-serif" font-size="14" lengthAdjust="spacing" textLength="105" x="27" y="63.9951">href : character</text><rect fill="none" height="6" style="stroke:#C82930;stroke-width:1.0;" width="6" x="15" y="71.2969"/><text fill="#000000" font-family="sans-serif" font-size="14" lengthAdjust="spacing" textLength="180" x="27" y="80.292">generator_href : character</text><line style="stroke:#181818;stroke-width:0.5;" x1="8" x2="212" y1="87.5938" y2="87.5938"/><ellipse cx="18" cy="98.5938" fill="#84BE84" rx="3" ry="3" style="stroke:#038048;stroke-width:1.0;"/><text fill="#000000" font-family="sans-serif" font-size="14" lengthAdjust="spacing" textLength="147" x="27" y="104.5889">remote_call() : Chunk</text><ellipse cx="18" cy="114.8906" fill="#84BE84" rx="3" ry="3" style="stroke:#038048;stroke-width:1.0;"/><text fill="#000000" font-family="sans-serif" font-size="14" lengthAdjust="spacing" textLength="96" x="27" y="120.8857">pull() : &lt;Any&gt;</text></g><!--MD5=[2682d2f3cc19b21379d0275abf1955af]
class Computation--><g id="elem_Computation"><rect codeLine="9" fill="#F1F1F1" height="129.4844" id="Computation" rx="2.5" ry="2.5" style="stroke:#181818;stroke-width:0.5;" width="184" x="248" y="7"/><ellipse cx="291.35" cy="23" fill="#ADD1B2" rx="11" ry="11" style="stroke:#181818;stroke-width:1.0;"/><path d="M294.3188,28.6406 Q293.7406,28.9375 293.1,29.0781 Q292.4594,29.2344 291.7563,29.2344 Q289.2563,29.2344 287.9281,27.5938 Q286.6156,25.9375 286.6156,22.8125 Q286.6156,19.6875 287.9281,18.0313 Q289.2563,16.375 291.7563,16.375 Q292.4594,16.375 293.1,16.5313 Q293.7563,16.6875 294.3188,16.9844 L294.3188,19.7031 Q293.6938,19.125 293.1,18.8594 Q292.5063,18.5781 291.8813,18.5781 Q290.5375,18.5781 289.85,19.6563 Q289.1625,20.7188 289.1625,22.8125 Q289.1625,24.9063 289.85,25.9844 Q290.5375,27.0469 291.8813,27.0469 Q292.5063,27.0469 293.1,26.7813 Q293.6938,26.5 294.3188,25.9219 L294.3188,28.6406 Z " fill="#000000"/><text fill="#000000" font-family="sans-serif" font-size="14" lengthAdjust="spacing" textLength="89" x="311.65" y="27.8467">Computation</text><line style="stroke:#181818;stroke-width:0.5;" x1="249" x2="431" y1="39" y2="39"/><rect fill="none" height="6" style="stroke:#C82930;stroke-width:1.0;" width="6" x="256" y="47"/><text fill="#000000" font-family="sans-serif" font-size="14" lengthAdjust="spacing" textLength="141" x="268" y="55.9951">procedure : function</text><rect fill="none" height="6" style="stroke:#C82930;stroke-width:1.0;" width="6" x="256" y="63.2969"/><text fill="#000000" font-family="sans-serif" font-size="14" lengthAdjust="spacing" textLength="143" x="268" y="72.292">arguments : Chunk[]</text><rect fill="none" height="6" style="stroke:#C82930;stroke-width:1.0;" width="6" x="256" y="79.5938"/><text fill="#000000" font-family="sans-serif" font-size="14" lengthAdjust="spacing" textLength="123" x="268" y="88.5889">alignments : NULL</text><rect fill="none" height="6" style="stroke:#C82930;stroke-width:1.0;" width="6" x="256" y="95.8906"/><text fill="#000000" font-family="sans-serif" font-size="14" lengthAdjust="spacing" textLength="105" x="268" y="104.8857">href : character</text><rect fill="none" height="6" style="stroke:#C82930;stroke-width:1.0;" width="6" x="256" y="112.1875"/><text fill="#000000" font-family="sans-serif" font-size="14" lengthAdjust="spacing" textLength="158" x="268" y="121.1826">output_href : character</text><line style="stroke:#181818;stroke-width:0.5;" x1="249" x2="431" y1="128.4844" y2="128.4844"/></g><!--MD5=[7a64995a6832cb000417a11ad0b9f214]
@startuml

class Chunk {
	-href : character
	-generator_href : character
	+remote_call() : Chunk
	+pull() : <Any>
}

class Computation {
	-procedure : function
	-arguments : Chunk[]
	-alignments : NULL
	-href : character
	-output_href : character
}

@enduml

PlantUML version 1.2022.2(Sun Mar 06 05:30:19 NZDT 2022)
(GPL source distribution)
Java Runtime: OpenJDK Runtime Environment
JVM: OpenJDK 64-Bit Server VM
Default Encoding: UTF-8
Language: en
Country: NZ
--></g></svg>