<?xml version="1.0" encoding="UTF-8" standalone="no"?><svg xmlns="http://www.w3.org/2000/svg" xmlns:xlink="http://www.w3.org/1999/xlink" contentScriptType="application/ecmascript" contentStyleType="text/css" height="554px" preserveAspectRatio="none" style="width:1706px;height:554px;background:#FFFFFF;" version="1.1" viewBox="0 0 1706 554" width="1706px" zoomAndPan="magnify"><defs/><g><text fill="#000000" font-family="sans-serif" font-size="18" lengthAdjust="spacing" textLength="626" x="533.5" y="16.708">Structure and Relationships of the Main Classes within the Source Files</text><!--MD5=[d0a839331e3d2189ad4f3c46c7eb860d]
cluster identification.R--><polygon fill="#FFFFFF" points="754,456.9531,877,456.9531,884,479.25,887,479.25,887,547.9531,754,547.9531,754,456.9531" style="stroke:#000000;stroke-width:1.5;"/><line style="stroke:#000000;stroke-width:1.5;" x1="754" x2="884" y1="479.25" y2="479.25"/><text fill="#000000" font-family="sans-serif" font-size="14" font-weight="bold" lengthAdjust="spacing" textLength="117" x="758" y="471.9482">identification.R</text><!--MD5=[466a15f89b1446596363a57859ec1e9a]
cluster communication.R--><polygon fill="#FFFFFF" points="1231,26.9531,1371,26.9531,1378,49.25,1689,49.25,1689,332.9531,1231,332.9531,1231,26.9531" style="stroke:#000000;stroke-width:1.5;"/><line style="stroke:#000000;stroke-width:1.5;" x1="1231" x2="1378" y1="49.25" y2="49.25"/><text fill="#000000" font-family="sans-serif" font-size="14" font-weight="bold" lengthAdjust="spacing" textLength="134" x="1235" y="41.9482">communication.R</text><!--MD5=[925ee40baeafca327fb2c1ceeedef5e8]
cluster interpellation.R--><polygon fill="#FFFFFF" points="16,26.9531,141,26.9531,148,49.25,390,49.25,390,432.9531,16,432.9531,16,26.9531" style="stroke:#000000;stroke-width:1.5;"/><line style="stroke:#000000;stroke-width:1.5;" x1="16" x2="148" y1="49.25" y2="49.25"/><text fill="#000000" font-family="sans-serif" font-size="14" font-weight="bold" lengthAdjust="spacing" textLength="119" x="20" y="41.9482">interpellation.R</text><!--MD5=[bf2b4d46509596eb1f82ba2bfb4fec14]
cluster location.R--><polygon fill="#FFFFFF" points="920,141.9531,1003,141.9531,1010,164.25,1207,164.25,1207,547.9531,920,547.9531,920,141.9531" style="stroke:#000000;stroke-width:1.5;"/><line style="stroke:#000000;stroke-width:1.5;" x1="920" x2="1010" y1="164.25" y2="164.25"/><text fill="#000000" font-family="sans-serif" font-size="14" font-weight="bold" lengthAdjust="spacing" textLength="77" x="924" y="156.9482">location.R</text><!--MD5=[171df03c8aef04567d9e95b2dbc6f19e]
cluster information.R--><polygon fill="#FFFFFF" points="450,141.9531,561,141.9531,568,164.25,688,164.25,688,432.9531,450,432.9531,450,141.9531" style="stroke:#000000;stroke-width:1.5;"/><line style="stroke:#000000;stroke-width:1.5;" x1="450" x2="568" y1="164.25" y2="164.25"/><text fill="#000000" font-family="sans-serif" font-size="14" font-weight="bold" lengthAdjust="spacing" textLength="105" x="454" y="156.9482">information.R</text><!--MD5=[00f4f43afe10475d78235346986fa230]
cluster tabulation.R--><polygon fill="#FFFFFF" points="647,26.9531,746,26.9531,753,49.25,894,49.25,894,117.9531,647,117.9531,647,26.9531" style="stroke:#000000;stroke-width:1.5;"/><line style="stroke:#000000;stroke-width:1.5;" x1="647" x2="753" y1="49.25" y2="49.25"/><text fill="#000000" font-family="sans-serif" font-size="14" font-weight="bold" lengthAdjust="spacing" textLength="93" x="651" y="41.9482">tabulation.R</text><!--MD5=[75430099834887034d36f3efdb02bb45]
class Identifier--><rect codeLine="8" fill="#F8F8F8" height="39.9688" id="Identifier" style="stroke:#383838;stroke-width:1.5;" width="61" x="791.5" y="491.9531"/><text fill="#000000" font-family="sans-serif" font-size="12" lengthAdjust="spacing" textLength="55" x="794.5" y="508.0918">Identifier</text><line style="stroke:#383838;stroke-width:1.5;" x1="792.5" x2="851.5" y1="515.9219" y2="515.9219"/><line style="stroke:#383838;stroke-width:1.5;" x1="792.5" x2="851.5" y1="523.9219" y2="523.9219"/><!--MD5=[6754354365917abf8f1a56af1b7e344c]
class Context--><rect codeLine="13" fill="#F8F8F8" height="39.9688" id="Context" style="stroke:#383838;stroke-width:1.5;" width="54" x="1512" y="176.9531"/><text fill="#000000" font-family="sans-serif" font-size="12" lengthAdjust="spacing" textLength="48" x="1515" y="193.0918">Context</text><line style="stroke:#383838;stroke-width:1.5;" x1="1513" x2="1565" y1="200.9219" y2="200.9219"/><line style="stroke:#383838;stroke-width:1.5;" x1="1513" x2="1565" y1="208.9219" y2="208.9219"/><!--MD5=[4fd3bb6c1d79f4919f90c95b62a35422]
class Endpoint--><rect codeLine="14" fill="#F8F8F8" height="39.9688" id="Endpoint" style="stroke:#383838;stroke-width:1.5;" width="62" x="1508" y="61.9531"/><text fill="#000000" font-family="sans-serif" font-size="12" lengthAdjust="spacing" textLength="56" x="1511" y="78.0918">Endpoint</text><line style="stroke:#383838;stroke-width:1.5;" x1="1509" x2="1569" y1="85.9219" y2="85.9219"/><line style="stroke:#383838;stroke-width:1.5;" x1="1509" x2="1569" y1="93.9219" y2="93.9219"/><!--MD5=[2e807730047ae2e9fc9e944cb69597f3]
class Connector--><rect codeLine="15" fill="#F8F8F8" height="39.9688" id="Connector" style="stroke:#383838;stroke-width:1.5;" width="71" x="1601.5" y="176.9531"/><text fill="#000000" font-family="sans-serif" font-size="12" lengthAdjust="spacing" textLength="65" x="1604.5" y="193.0918">Connector</text><line style="stroke:#383838;stroke-width:1.5;" x1="1602.5" x2="1671.5" y1="200.9219" y2="200.9219"/><line style="stroke:#383838;stroke-width:1.5;" x1="1602.5" x2="1671.5" y1="208.9219" y2="208.9219"/><!--MD5=[0f894add1a0cf8e31892010e62137c69]
class Binder--><rect codeLine="16" fill="#F8F8F8" height="39.9688" id="Binder" style="stroke:#383838;stroke-width:1.5;" width="46" x="1338" y="176.9531"/><text fill="#000000" font-family="sans-serif" font-size="12" lengthAdjust="spacing" textLength="40" x="1341" y="193.0918">Binder</text><line style="stroke:#383838;stroke-width:1.5;" x1="1339" x2="1383" y1="200.9219" y2="200.9219"/><line style="stroke:#383838;stroke-width:1.5;" x1="1339" x2="1383" y1="208.9219" y2="208.9219"/><!--MD5=[969b7521d1b4d72425ea4ce6175216aa]
class Requester--><rect codeLine="17" fill="#F8F8F8" height="39.9688" id="Requester" style="stroke:#383838;stroke-width:1.5;" width="71" x="1570.5" y="276.9531"/><text fill="#000000" font-family="sans-serif" font-size="12" lengthAdjust="spacing" textLength="65" x="1573.5" y="293.0918">Requester</text><line style="stroke:#383838;stroke-width:1.5;" x1="1571.5" x2="1640.5" y1="300.9219" y2="300.9219"/><line style="stroke:#383838;stroke-width:1.5;" x1="1571.5" x2="1640.5" y1="308.9219" y2="308.9219"/><!--MD5=[4a7956b31a8e98f2c19ee52c969c2c46]
class Subscriber--><rect codeLine="18" fill="#F8F8F8" height="39.9688" id="Subscriber" style="stroke:#383838;stroke-width:1.5;" width="73" x="1332.5" y="276.9531"/><text fill="#000000" font-family="sans-serif" font-size="12" lengthAdjust="spacing" textLength="67" x="1335.5" y="293.0918">Subscriber</text><line style="stroke:#383838;stroke-width:1.5;" x1="1333.5" x2="1404.5" y1="300.9219" y2="300.9219"/><line style="stroke:#383838;stroke-width:1.5;" x1="1333.5" x2="1404.5" y1="308.9219" y2="308.9219"/><!--MD5=[d89a6c684fdd5abaa575d2ea00c1a276]
class Replier--><rect codeLine="19" fill="#F8F8F8" height="39.9688" id="Replier" style="stroke:#383838;stroke-width:1.5;" width="49" x="1248.5" y="276.9531"/><text fill="#000000" font-family="sans-serif" font-size="12" lengthAdjust="spacing" textLength="43" x="1251.5" y="293.0918">Replier</text><line style="stroke:#383838;stroke-width:1.5;" x1="1249.5" x2="1296.5" y1="300.9219" y2="300.9219"/><line style="stroke:#383838;stroke-width:1.5;" x1="1249.5" x2="1296.5" y1="308.9219" y2="308.9219"/><!--MD5=[13fb849c6dfc9273db4c5b2c7ac96a10]
class Publisher--><rect codeLine="20" fill="#F8F8F8" height="39.9688" id="Publisher" style="stroke:#383838;stroke-width:1.5;" width="64" x="1441" y="276.9531"/><text fill="#000000" font-family="sans-serif" font-size="12" lengthAdjust="spacing" textLength="58" x="1444" y="293.0918">Publisher</text><line style="stroke:#383838;stroke-width:1.5;" x1="1442" x2="1504" y1="300.9219" y2="300.9219"/><line style="stroke:#383838;stroke-width:1.5;" x1="1442" x2="1504" y1="308.9219" y2="308.9219"/><!--MD5=[085076096658226fe7d3ac7a26d9b629]
class Listener--><rect codeLine="21" fill="#F8F8F8" height="39.9688" id="Listener" style="stroke:#383838;stroke-width:1.5;" width="56" x="1247" y="176.9531"/><text fill="#000000" font-family="sans-serif" font-size="12" lengthAdjust="spacing" textLength="50" x="1250" y="193.0918">Listener</text><line style="stroke:#383838;stroke-width:1.5;" x1="1248" x2="1302" y1="200.9219" y2="200.9219"/><line style="stroke:#383838;stroke-width:1.5;" x1="1248" x2="1302" y1="208.9219" y2="208.9219"/><!--MD5=[4e5d5c34e639841454a5ab6892ce1d20]
class Speaker--><rect codeLine="22" fill="#F8F8F8" height="39.9688" id="Speaker" style="stroke:#383838;stroke-width:1.5;" width="58" x="1419" y="176.9531"/><text fill="#000000" font-family="sans-serif" font-size="12" lengthAdjust="spacing" textLength="52" x="1422" y="193.0918">Speaker</text><line style="stroke:#383838;stroke-width:1.5;" x1="1420" x2="1476" y1="200.9219" y2="200.9219"/><line style="stroke:#383838;stroke-width:1.5;" x1="1420" x2="1476" y1="208.9219" y2="208.9219"/><!--MD5=[504e2d2577838535ab74e9cfcf4a3e02]
class Communicator--><rect codeLine="23" fill="#F8F8F8" height="39.9688" id="Communicator" style="stroke:#383838;stroke-width:1.5;" width="96" x="1312" y="61.9531"/><text fill="#000000" font-family="sans-serif" font-size="12" lengthAdjust="spacing" textLength="90" x="1315" y="78.0918">Communicator</text><line style="stroke:#383838;stroke-width:1.5;" x1="1313" x2="1407" y1="85.9219" y2="85.9219"/><line style="stroke:#383838;stroke-width:1.5;" x1="1313" x2="1407" y1="93.9219" y2="93.9219"/><!--MD5=[8091df425c121e9542bfe22ce29d2d4c]
class Payload--><rect codeLine="41" fill="#F8F8F8" height="39.9688" id="Payload" style="stroke:#383838;stroke-width:1.5;" width="55" x="244.5" y="276.9531"/><text fill="#000000" font-family="sans-serif" font-size="12" lengthAdjust="spacing" textLength="49" x="247.5" y="293.0918">Payload</text><line style="stroke:#383838;stroke-width:1.5;" x1="245.5" x2="298.5" y1="300.9219" y2="300.9219"/><line style="stroke:#383838;stroke-width:1.5;" x1="245.5" x2="298.5" y1="308.9219" y2="308.9219"/><!--MD5=[b4d0de8c776726fd606c4da32d14498e]
class GET_Payload--><rect codeLine="42" fill="#F8F8F8" height="39.9688" id="GET_Payload" style="stroke:#383838;stroke-width:1.5;" width="85" x="123.5" y="376.9531"/><text fill="#000000" font-family="sans-serif" font-size="12" lengthAdjust="spacing" textLength="79" x="126.5" y="393.0918">GET_Payload</text><line style="stroke:#383838;stroke-width:1.5;" x1="124.5" x2="207.5" y1="400.9219" y2="400.9219"/><line style="stroke:#383838;stroke-width:1.5;" x1="124.5" x2="207.5" y1="408.9219" y2="408.9219"/><!--MD5=[d10018d7374cb536a2ec2f77e731452b]
class Header--><rect codeLine="43" fill="#F8F8F8" height="39.9688" id="Header" style="stroke:#383838;stroke-width:1.5;" width="52" x="157" y="276.9531"/><text fill="#000000" font-family="sans-serif" font-size="12" lengthAdjust="spacing" textLength="46" x="160" y="293.0918">Header</text><line style="stroke:#383838;stroke-width:1.5;" x1="158" x2="208" y1="300.9219" y2="300.9219"/><line style="stroke:#383838;stroke-width:1.5;" x1="158" x2="208" y1="308.9219" y2="308.9219"/><!--MD5=[0851f84a889f989e7bb0bebc385d0f09]
class Request--><rect codeLine="44" fill="#F8F8F8" height="39.9688" id="Request" style="stroke:#383838;stroke-width:1.5;" width="58" x="170" y="176.9531"/><text fill="#000000" font-family="sans-serif" font-size="12" lengthAdjust="spacing" textLength="52" x="173" y="193.0918">Request</text><line style="stroke:#383838;stroke-width:1.5;" x1="171" x2="227" y1="200.9219" y2="200.9219"/><line style="stroke:#383838;stroke-width:1.5;" x1="171" x2="227" y1="208.9219" y2="208.9219"/><!--MD5=[cfb71ba480ad3bf1784d05564b5970df]
class GET_Request--><rect codeLine="45" fill="#F8F8F8" height="39.9688" id="GET_Request" style="stroke:#383838;stroke-width:1.5;" width="88" x="32" y="61.9531"/><text fill="#000000" font-family="sans-serif" font-size="12" lengthAdjust="spacing" textLength="82" x="35" y="78.0918">GET_Request</text><line style="stroke:#383838;stroke-width:1.5;" x1="33" x2="119" y1="85.9219" y2="85.9219"/><line style="stroke:#383838;stroke-width:1.5;" x1="33" x2="119" y1="93.9219" y2="93.9219"/><!--MD5=[8a9930c12876e73d20b0b3011b90ba4f]
class POST_Request--><rect codeLine="46" fill="#F8F8F8" height="39.9688" id="POST_Request" style="stroke:#383838;stroke-width:1.5;" width="96" x="278" y="61.9531"/><text fill="#000000" font-family="sans-serif" font-size="12" lengthAdjust="spacing" textLength="90" x="281" y="78.0918">POST_Request</text><line style="stroke:#383838;stroke-width:1.5;" x1="279" x2="373" y1="85.9219" y2="85.9219"/><line style="stroke:#383838;stroke-width:1.5;" x1="279" x2="373" y1="93.9219" y2="93.9219"/><!--MD5=[67c7b310e12394139ace3015a1dec297]
class PUT_Request--><rect codeLine="47" fill="#F8F8F8" height="39.9688" id="PUT_Request" style="stroke:#383838;stroke-width:1.5;" width="88" x="155" y="61.9531"/><text fill="#000000" font-family="sans-serif" font-size="12" lengthAdjust="spacing" textLength="82" x="158" y="78.0918">PUT_Request</text><line style="stroke:#383838;stroke-width:1.5;" x1="156" x2="242" y1="85.9219" y2="85.9219"/><line style="stroke:#383838;stroke-width:1.5;" x1="156" x2="242" y1="93.9219" y2="93.9219"/><!--MD5=[4f1f3706c1a355a8488e154afcaed5df]
class Location--><rect codeLine="60" fill="#F8F8F8" height="39.9688" id="Location" style="stroke:#383838;stroke-width:1.5;" width="59" x="1008.5" y="376.9531"/><text fill="#000000" font-family="sans-serif" font-size="12" lengthAdjust="spacing" textLength="53" x="1011.5" y="393.0918">Location</text><line style="stroke:#383838;stroke-width:1.5;" x1="1009.5" x2="1066.5" y1="400.9219" y2="400.9219"/><line style="stroke:#383838;stroke-width:1.5;" x1="1009.5" x2="1066.5" y1="408.9219" y2="408.9219"/><!--MD5=[01c369644feed86f79d6043c85e64307]
class IdentifiedLocations--><rect codeLine="61" fill="#F8F8F8" height="39.9688" id="IdentifiedLocations" style="stroke:#383838;stroke-width:1.5;" width="124" x="937" y="276.9531"/><text fill="#000000" font-family="sans-serif" font-size="12" lengthAdjust="spacing" textLength="118" x="940" y="293.0918">IdentifiedLocations</text><line style="stroke:#383838;stroke-width:1.5;" x1="938" x2="1060" y1="300.9219" y2="300.9219"/><line style="stroke:#383838;stroke-width:1.5;" x1="938" x2="1060" y1="308.9219" y2="308.9219"/><!--MD5=[753a431098c603e46389449193c2edf8]
class ReplierLocation--><rect codeLine="62" fill="#F8F8F8" height="39.9688" id="ReplierLocation" style="stroke:#383838;stroke-width:1.5;" width="102" x="1089" y="491.9531"/><text fill="#000000" font-family="sans-serif" font-size="12" lengthAdjust="spacing" textLength="96" x="1092" y="508.0918">ReplierLocation</text><line style="stroke:#383838;stroke-width:1.5;" x1="1090" x2="1190" y1="515.9219" y2="515.9219"/><line style="stroke:#383838;stroke-width:1.5;" x1="1090" x2="1190" y1="523.9219" y2="523.9219"/><!--MD5=[77ca469d9b09a31d49a8b933ef6d0b91]
class PublisherLocation--><rect codeLine="63" fill="#F8F8F8" height="39.9688" id="PublisherLocation" style="stroke:#383838;stroke-width:1.5;" width="117" x="936.5" y="491.9531"/><text fill="#000000" font-family="sans-serif" font-size="12" lengthAdjust="spacing" textLength="111" x="939.5" y="508.0918">PublisherLocation</text><line style="stroke:#383838;stroke-width:1.5;" x1="937.5" x2="1052.5" y1="515.9219" y2="515.9219"/><line style="stroke:#383838;stroke-width:1.5;" x1="937.5" x2="1052.5" y1="523.9219" y2="523.9219"/><!--MD5=[3fee75583bb7a64f68d843a3c9534ab3]
class Node--><rect codeLine="64" fill="#F8F8F8" height="39.9688" id="Node" style="stroke:#383838;stroke-width:1.5;" width="39" x="1102.5" y="376.9531"/><text fill="#000000" font-family="sans-serif" font-size="12" lengthAdjust="spacing" textLength="33" x="1105.5" y="393.0918">Node</text><line style="stroke:#383838;stroke-width:1.5;" x1="1103.5" x2="1140.5" y1="400.9219" y2="400.9219"/><line style="stroke:#383838;stroke-width:1.5;" x1="1103.5" x2="1140.5" y1="408.9219" y2="408.9219"/><!--MD5=[85c68d1f87505dce9bc362d94e3e592c]
class Nodes--><rect codeLine="65" fill="#F8F8F8" height="39.9688" id="Nodes" style="stroke:#383838;stroke-width:1.5;" width="46" x="1098" y="276.9531"/><text fill="#000000" font-family="sans-serif" font-size="12" lengthAdjust="spacing" textLength="40" x="1101" y="293.0918">Nodes</text><line style="stroke:#383838;stroke-width:1.5;" x1="1099" x2="1143" y1="300.9219" y2="300.9219"/><line style="stroke:#383838;stroke-width:1.5;" x1="1099" x2="1143" y1="308.9219" y2="308.9219"/><!--MD5=[15b9a87b033c6044cf0e9bbdacb18726]
class Index--><rect codeLine="66" fill="#F8F8F8" height="39.9688" id="Index" style="stroke:#383838;stroke-width:1.5;" width="39" x="979.5" y="176.9531"/><text fill="#000000" font-family="sans-serif" font-size="12" lengthAdjust="spacing" textLength="33" x="982.5" y="193.0918">Index</text><line style="stroke:#383838;stroke-width:1.5;" x1="980.5" x2="1017.5" y1="200.9219" y2="200.9219"/><line style="stroke:#383838;stroke-width:1.5;" x1="980.5" x2="1017.5" y1="208.9219" y2="208.9219"/><!--MD5=[6e0c224d26e528c5d694b92ff8301dce]
class Chunk--><rect codeLine="80" fill="#F8F8F8" height="39.9688" id="Chunk" style="stroke:#383838;stroke-width:1.5;" width="45" x="466.5" y="176.9531"/><text fill="#000000" font-family="sans-serif" font-size="12" lengthAdjust="spacing" textLength="39" x="469.5" y="193.0918">Chunk</text><line style="stroke:#383838;stroke-width:1.5;" x1="467.5" x2="510.5" y1="200.9219" y2="200.9219"/><line style="stroke:#383838;stroke-width:1.5;" x1="467.5" x2="510.5" y1="208.9219" y2="208.9219"/><!--MD5=[5d7af1feacd4c0ff3341111f617a3e31]
class Chunks--><rect codeLine="81" fill="#F8F8F8" height="39.9688" id="Chunks" style="stroke:#383838;stroke-width:1.5;" width="52" x="466" y="276.9531"/><text fill="#000000" font-family="sans-serif" font-size="12" lengthAdjust="spacing" textLength="46" x="469" y="293.0918">Chunks</text><line style="stroke:#383838;stroke-width:1.5;" x1="467" x2="517" y1="300.9219" y2="300.9219"/><line style="stroke:#383838;stroke-width:1.5;" x1="467" x2="517" y1="308.9219" y2="308.9219"/><!--MD5=[60c9ed31c535bee25c55ce21b5b01399]
class Data--><rect codeLine="82" fill="#F8F8F8" height="39.9688" id="Data" style="stroke:#383838;stroke-width:1.5;" width="36" x="582" y="276.9531"/><text fill="#000000" font-family="sans-serif" font-size="12" lengthAdjust="spacing" textLength="30" x="585" y="293.0918">Data</text><line style="stroke:#383838;stroke-width:1.5;" x1="583" x2="617" y1="300.9219" y2="300.9219"/><line style="stroke:#383838;stroke-width:1.5;" x1="583" x2="617" y1="308.9219" y2="308.9219"/><!--MD5=[2682d2f3cc19b21379d0275abf1955af]
class Computation--><rect codeLine="83" fill="#F8F8F8" height="39.9688" id="Computation" style="stroke:#383838;stroke-width:1.5;" width="86" x="586" y="376.9531"/><text fill="#000000" font-family="sans-serif" font-size="12" lengthAdjust="spacing" textLength="80" x="589" y="393.0918">Computation</text><line style="stroke:#383838;stroke-width:1.5;" x1="587" x2="671" y1="400.9219" y2="400.9219"/><line style="stroke:#383838;stroke-width:1.5;" x1="587" x2="671" y1="408.9219" y2="408.9219"/><!--MD5=[d9078ef9506dd0b6f6621acbb6f5b950]
class IdentifiedEventuals--><rect codeLine="84" fill="#F8F8F8" height="39.9688" id="IdentifiedEventuals" style="stroke:#383838;stroke-width:1.5;" width="125" x="546.5" y="176.9531"/><text fill="#000000" font-family="sans-serif" font-size="12" lengthAdjust="spacing" textLength="119" x="549.5" y="193.0918">IdentifiedEventuals</text><line style="stroke:#383838;stroke-width:1.5;" x1="547.5" x2="670.5" y1="200.9219" y2="200.9219"/><line style="stroke:#383838;stroke-width:1.5;" x1="547.5" x2="670.5" y1="208.9219" y2="208.9219"/><!--MD5=[c05f8d4c5007184b0fb1ea93cdb8d9fe]
class Repository--><rect codeLine="101" fill="#F8F8F8" height="39.9688" id="Repository" style="stroke:#383838;stroke-width:1.5;" width="72" x="806" y="61.9531"/><text fill="#000000" font-family="sans-serif" font-size="12" lengthAdjust="spacing" textLength="66" x="809" y="78.0918">Repository</text><line style="stroke:#383838;stroke-width:1.5;" x1="807" x2="877" y1="85.9219" y2="85.9219"/><line style="stroke:#383838;stroke-width:1.5;" x1="807" x2="877" y1="93.9219" y2="93.9219"/><!--MD5=[e35f09f4307a52b6839ba0899d76b326]
class AssociativeArray--><rect codeLine="102" fill="#F8F8F8" height="39.9688" id="AssociativeArray" style="stroke:#383838;stroke-width:1.5;" width="108" x="663" y="61.9531"/><text fill="#000000" font-family="sans-serif" font-size="12" lengthAdjust="spacing" textLength="102" x="666" y="78.0918">AssociativeArray</text><line style="stroke:#383838;stroke-width:1.5;" x1="664" x2="770" y1="85.9219" y2="85.9219"/><line style="stroke:#383838;stroke-width:1.5;" x1="664" x2="770" y1="93.9219" y2="93.9219"/><!--MD5=[b0d3ac0748af964bdb4c7a76580dd151]
class any--><rect fill="#F8F8F8" height="39.9688" id="any" style="stroke:#383838;stroke-width:1.5;" width="28" x="406" y="376.9531"/><text fill="#000000" font-family="sans-serif" font-size="12" lengthAdjust="spacing" textLength="22" x="409" y="393.0918">any</text><line style="stroke:#383838;stroke-width:1.5;" x1="407" x2="433" y1="400.9219" y2="400.9219"/><line style="stroke:#383838;stroke-width:1.5;" x1="407" x2="433" y1="408.9219" y2="408.9219"/><!--MD5=[df13a024b2cff7471dbe6b522aa51c17]
class function--><rect fill="#F8F8F8" height="39.9688" id="function" style="stroke:#383838;stroke-width:1.5;" width="57" x="600.5" y="491.9531"/><text fill="#000000" font-family="sans-serif" font-size="12" lengthAdjust="spacing" textLength="51" x="603.5" y="508.0918">function</text><line style="stroke:#383838;stroke-width:1.5;" x1="601.5" x2="656.5" y1="515.9219" y2="515.9219"/><line style="stroke:#383838;stroke-width:1.5;" x1="601.5" x2="656.5" y1="523.9219" y2="523.9219"/><!--MD5=[b59cb0292cbab4b73c77d0ad579c4efd]
class Promise--><rect fill="#F8F8F8" height="39.9688" id="Promise" style="stroke:#383838;stroke-width:1.5;" width="56" x="704" y="276.9531"/><text fill="#000000" font-family="sans-serif" font-size="12" lengthAdjust="spacing" textLength="50" x="707" y="293.0918">Promise</text><line style="stroke:#383838;stroke-width:1.5;" x1="705" x2="759" y1="300.9219" y2="300.9219"/><line style="stroke:#383838;stroke-width:1.5;" x1="705" x2="759" y1="308.9219" y2="308.9219"/><!--MD5=[c944c7355575679658c3f95713416c2a]
reverse link Endpoint to Context--><path codeLine="26" d="M1539,115.2231 C1539,135.0831 1539,159.8631 1539,176.6931 " fill="none" id="Endpoint-backto-Context" style="stroke:#383838;stroke-width:1.0;"/><polygon fill="#383838" points="1539,102.1231,1535,108.1231,1539,114.1231,1543,108.1231,1539,102.1231" style="stroke:#383838;stroke-width:1.0;"/><!--MD5=[c74eadff68661f5a9cdebbc2e207146d]
reverse link Endpoint to Connector--><path codeLine="27" d="M1569.59,117.4731 C1574.43,122.9731 1579.36,128.6131 1584,133.9531 C1596.44,148.2831 1610.38,164.5931 1620.84,176.8931 " fill="none" id="Endpoint-backto-Connector" style="stroke:#383838;stroke-width:1.0;"/><polygon fill="none" points="1564.15,121.8931,1556.17,102.2631,1574.65,112.6231,1564.15,121.8931" style="stroke:#383838;stroke-width:1.0;"/><!--MD5=[e7629295ffa8f4ef7dcde4817fdcbcb0]
reverse link Endpoint to Binder--><path codeLine="28" d="M1489.21,102.4131 C1469.58,109.9531 1446.8,118.5331 1426,125.9531 C1415.41,129.7331 1410.92,127.1131 1402,133.9531 C1387.36,145.1831 1376.28,163.2131 1369.35,176.9431 " fill="none" id="Endpoint-backto-Binder" style="stroke:#383838;stroke-width:1.0;"/><polygon fill="none" points="1486.77,95.8531,1507.95,95.1731,1491.82,108.9131,1486.77,95.8531" style="stroke:#383838;stroke-width:1.0;"/><!--MD5=[d4be9f166e880a4b2c339fad29392577]
reverse link Connector to Requester--><path codeLine="29" d="M1624.75,236.6731 C1620.41,250.3931 1615.72,265.2331 1612.11,276.6331 " fill="none" id="Connector-backto-Requester" style="stroke:#383838;stroke-width:1.0;"/><polygon fill="none" points="1618.17,234.2731,1630.88,217.3131,1631.52,238.4931,1618.17,234.2731" style="stroke:#383838;stroke-width:1.0;"/><!--MD5=[c1ff45d8eeb329ad5e132589166fe222]
reverse link Connector to Subscriber--><path codeLine="30" d="M1582.58,217.8531 C1529.83,237.1431 1451.28,265.8631 1405.6,282.5731 " fill="none" id="Connector-backto-Subscriber" style="stroke:#383838;stroke-width:1.0;"/><polygon fill="none" points="1580.22,211.2631,1601.41,210.9631,1585.03,224.4131,1580.22,211.2631" style="stroke:#383838;stroke-width:1.0;"/><!--MD5=[ad1f6fc02ce4f2ef16a85ccd0c10e612]
reverse link Binder to Replier--><path codeLine="31" d="M1330.1,232.3631 C1316.77,247.2131 1301.67,264.0231 1290.35,276.6331 " fill="none" id="Binder-backto-Replier" style="stroke:#383838;stroke-width:1.0;"/><polygon fill="none" points="1325.04,227.5231,1343.61,217.3131,1335.46,236.8731,1325.04,227.5231" style="stroke:#383838;stroke-width:1.0;"/><!--MD5=[7ff83e82e71578dbbe7fdba5eea4e556]
reverse link Binder to Publisher--><path codeLine="32" d="M1398.01,230.3331 C1415.63,245.7531 1436.1,263.6631 1451.19,276.8731 " fill="none" id="Binder-backto-Publisher" style="stroke:#383838;stroke-width:1.0;"/><polygon fill="none" points="1393.3,235.5231,1382.86,217.0831,1402.52,224.9831,1393.3,235.5231" style="stroke:#383838;stroke-width:1.0;"/><!--MD5=[34676e4c8f1b1ee18f52b95f8678210f]
reverse link Listener to Replier--><path codeLine="33" d="M1274.34,230.4731 C1274.02,245.7731 1273.66,263.4831 1273.39,276.6331 " fill="none" id="Listener-backto-Replier" style="stroke:#383838;stroke-width:1.0;"/><polygon fill="#383838" points="1274.6,217.3131,1270.4821,223.2328,1274.3627,229.3108,1278.4806,223.3911,1274.6,217.3131" style="stroke:#383838;stroke-width:1.0;"/><!--MD5=[124fe72fa78e76405e5c7055cafa634a]
reverse link Listener to Subscriber--><path codeLine="34" d="M1302.65,226.7831 C1318.06,242.8431 1336.83,262.4131 1350.47,276.6331 " fill="none" id="Listener-backto-Subscriber" style="stroke:#383838;stroke-width:1.0;"/><polygon fill="#383838" points="1293.57,217.3131,1294.841,224.4113,1301.882,225.9682,1300.611,218.87,1293.57,217.3131" style="stroke:#383838;stroke-width:1.0;"/><!--MD5=[c4f43ac51efd32f528e322a1b3bd8c4b]
reverse link Speaker to Requester--><path codeLine="35" d="M1488.75,223.2231 C1515.72,239.9531 1550.52,261.5431 1575.19,276.8431 " fill="none" id="Speaker-backto-Requester" style="stroke:#383838;stroke-width:1.0;"/><polygon fill="#383838" points="1477.35,216.1531,1480.3433,222.7136,1487.5504,222.4739,1484.5571,215.9134,1477.35,216.1531" style="stroke:#383838;stroke-width:1.0;"/><!--MD5=[b57fd8534270425ed61d5b33c1730855]
reverse link Speaker to Publisher--><path codeLine="36" d="M1456.18,230.0131 C1460.11,245.4131 1464.68,263.3531 1468.07,276.6331 " fill="none" id="Speaker-backto-Publisher" style="stroke:#383838;stroke-width:1.0;"/><polygon fill="#383838" points="1452.94,217.3131,1450.5472,224.1157,1455.9062,228.9407,1458.299,222.1382,1452.94,217.3131" style="stroke:#383838;stroke-width:1.0;"/><!--MD5=[6bfc33569ace854c46d821f85a1e5d14]
reverse link Communicator to Listener--><path codeLine="37" d="M1337.13,112.7131 C1331.81,119.6731 1326.19,127.0631 1321,133.9531 C1310.19,148.3031 1298.1,164.6131 1289.02,176.9031 " fill="none" id="Communicator-backto-Listener" style="stroke:#383838;stroke-width:1.0;"/><polygon fill="#383838" points="1345.12,102.2731,1338.2976,104.6088,1337.8296,111.8047,1344.652,109.469,1345.12,102.2731" style="stroke:#383838;stroke-width:1.0;"/><!--MD5=[bb2358c541d331ea1ba32bd2a80afbb2]
reverse link Communicator to Speaker--><path codeLine="38" d="M1384.81,112.5631 C1390.52,119.5231 1396.53,126.9531 1402,133.9531 C1413.06,148.1031 1425.15,164.4231 1434.15,176.7731 " fill="none" id="Communicator-backto-Speaker" style="stroke:#383838;stroke-width:1.0;"/><polygon fill="#383838" points="1376.19,102.1431,1376.933,109.3158,1383.8397,111.3888,1383.0967,104.216,1376.19,102.1431" style="stroke:#383838;stroke-width:1.0;"/><!--MD5=[7a45ccdcee09172264b28a7b7db3090f]
reverse link Payload to any--><path codeLine="50" d="M310.78,323.6331 C341.96,344.2831 384.03,372.1331 405.73,386.5031 " fill="none" id="Payload-backto-any" style="stroke:#383838;stroke-width:1.0;"/><polygon fill="#383838" points="299.84,316.3831,302.6277,323.0336,309.8388,323.0182,307.0511,316.3677,299.84,316.3831" style="stroke:#383838;stroke-width:1.0;"/><!--MD5=[fe9699f1e294ddf104efda17e9802e6f]
reverse link Payload to GET_Payload--><path codeLine="51" d="M237.27,331.3331 C233.81,334.5931 230.35,337.8431 227,340.9531 C214.04,352.9831 199.32,366.2631 187.59,376.7631 " fill="none" id="Payload-backto-GET_Payload" style="stroke:#383838;stroke-width:1.0;"/><polygon fill="none" points="232.65,326.0631,251.96,317.3431,242.3,336.2031,232.65,326.0631" style="stroke:#383838;stroke-width:1.0;"/><!--MD5=[cd05aa8c5e067a968f535bb4541021a0]
reverse link Request to Header--><path codeLine="52" d="M193.69,230.4731 C191.19,245.7731 188.3,263.4831 186.15,276.6331 " fill="none" id="Request-backto-Header" style="stroke:#383838;stroke-width:1.0;"/><polygon fill="#383838" points="195.84,217.3131,190.929,222.5935,193.9143,229.1576,198.8253,223.8773,195.84,217.3131" style="stroke:#383838;stroke-width:1.0;"/><!--MD5=[3cebd726d03e1b2002b8f7f6400d1fd1]
reverse link Request to Payload--><path codeLine="53" d="M221.5,228.1531 C233.26,243.9531 247.32,262.8131 257.61,276.6331 " fill="none" id="Request-backto-Payload" style="stroke:#383838;stroke-width:1.0;"/><polygon fill="#383838" points="213.42,217.3131,213.7979,224.5143,220.5904,226.9352,220.2126,219.734,213.42,217.3131" style="stroke:#383838;stroke-width:1.0;"/><!--MD5=[7d0a02b475bde5c2caceb025eed1e627]
reverse link GET_Request to Request--><path codeLine="54" d="M111.75,115.8031 C133.26,135.5531 159.89,160.0231 178.03,176.6931 " fill="none" id="GET_Request-backto-Request" style="stroke:#383838;stroke-width:1.0;"/><polygon fill="none" points="106.86,120.8031,96.87,102.1231,116.33,110.4931,106.86,120.8031" style="stroke:#383838;stroke-width:1.0;"/><!--MD5=[a12104202e037ba8f47a6970a6d2152c]
reverse link GET_Request to GET_Payload--><path codeLine="55" d="M81.82,114.9831 C91.26,164.3631 111.74,261.6531 140,340.9531 C144.36,353.1931 150.53,366.3631 155.77,376.7531 " fill="none" id="GET_Request-backto-GET_Payload" style="stroke:#383838;stroke-width:1.0;"/><polygon fill="#383838" points="79.4,102.1131,76.5769,108.7487,81.6162,113.9067,84.4393,107.2712,79.4,102.1131" style="stroke:#383838;stroke-width:1.0;"/><!--MD5=[aa8425c2d1bdf368f443d9c8841ac1db]
reverse link POST_Request to Request--><path codeLine="56" d="M289.41,115.5131 C267.15,135.3131 239.48,159.9431 220.65,176.6931 " fill="none" id="POST_Request-backto-Request" style="stroke:#383838;stroke-width:1.0;"/><polygon fill="none" points="284.86,110.1831,304.46,102.1231,294.17,120.6431,284.86,110.1831" style="stroke:#383838;stroke-width:1.0;"/><!--MD5=[22b640980aaaefc6c25383d19223790a]
reverse link PUT_Request to Request--><path codeLine="57" d="M199,122.3031 C199,140.7131 199,161.8131 199,176.6931 " fill="none" id="PUT_Request-backto-Request" style="stroke:#383838;stroke-width:1.0;"/><polygon fill="none" points="192,122.1231,199,102.1231,206,122.1231,192,122.1231" style="stroke:#383838;stroke-width:1.0;"/><!--MD5=[3b81747711c998b081472914e0291c0a]
reverse link IdentifiedLocations to Identifier--><path codeLine="69" d="M983.7,328.9831 C967.8,359.4331 940.94,406.2231 910,440.9531 C892.6,460.4831 869.3,478.7531 851.05,491.7231 " fill="none" id="IdentifiedLocations-backto-Identifier" style="stroke:#383838;stroke-width:1.0;"/><polygon fill="#383838" points="989.62,317.4031,983.3242,320.9191,984.1482,328.083,990.4441,324.567,989.62,317.4031" style="stroke:#383838;stroke-width:1.0;"/><!--MD5=[bc959123ed75abb4d5995e05920944e2]
reverse link IdentifiedLocations to Location--><path codeLine="70" d="M1011.57,329.5431 C1017.74,345.0431 1024.97,363.2231 1030.31,376.6331 " fill="none" id="IdentifiedLocations-backto-Location" style="stroke:#383838;stroke-width:1.0;"/><polygon fill="#383838" points="1006.71,317.3131,1005.2072,324.3659,1011.1394,328.4657,1012.6422,321.413,1006.71,317.3131" style="stroke:#383838;stroke-width:1.0;"/><!--MD5=[1ffbaf575c53f0d19c4c0825ae4c2bef]
reverse link Location to ReplierLocation--><path codeLine="71" d="M1068.96,432.2531 C1086.56,451.7431 1107.93,475.4231 1122.61,491.6931 " fill="none" id="Location-backto-ReplierLocation" style="stroke:#383838;stroke-width:1.0;"/><polygon fill="none" points="1063.51,436.6631,1055.3,417.1231,1073.9,427.2731,1063.51,436.6631" style="stroke:#383838;stroke-width:1.0;"/><!--MD5=[07b493fba93b51c65457c0d7b0f9cb5a]
reverse link Location to PublisherLocation--><path codeLine="72" d="M1023.48,436.1031 C1016.37,454.7931 1008.12,476.4831 1002.33,491.6931 " fill="none" id="Location-backto-PublisherLocation" style="stroke:#383838;stroke-width:1.0;"/><polygon fill="none" points="1017.05,433.3231,1030.71,417.1231,1030.13,438.3031,1017.05,433.3231" style="stroke:#383838;stroke-width:1.0;"/><!--MD5=[807d41af6bf11d584a72a78c31854187]
reverse link Node to ReplierLocation--><path codeLine="73" d="M1127.14,430.2231 C1130.3,450.0831 1134.25,474.8631 1136.93,491.6931 " fill="none" id="Node-backto-ReplierLocation" style="stroke:#383838;stroke-width:1.0;"/><polygon fill="#383838" points="1125.05,417.1231,1122.0433,423.6775,1126.9371,428.9738,1129.9438,422.4194,1125.05,417.1231" style="stroke:#383838;stroke-width:1.0;"/><!--MD5=[c4b70668b4abc25c3d0ee3d3eb88ab91]
reverse link Node to PublisherLocation--><path codeLine="74" d="M1099.14,427.0431 C1094.7,431.9331 1089.89,436.7831 1085,440.9531 C1079.84,445.3531 1077.54,445.0431 1072,448.9531 C1052.93,462.4131 1032.39,479.0731 1017.33,491.7331 " fill="none" id="Node-backto-PublisherLocation" style="stroke:#383838;stroke-width:1.0;"/><polygon fill="#383838" points="1107.67,417.1031,1100.7271,419.0514,1099.8551,426.2096,1106.798,424.2613,1107.67,417.1031" style="stroke:#383838;stroke-width:1.0;"/><!--MD5=[97d1471a22c158d0fb3c5c28a75ec978]
reverse link Nodes to Node--><path codeLine="75" d="M1121.33,330.4731 C1121.49,345.7731 1121.67,363.4831 1121.8,376.6331 " fill="none" id="Nodes-backto-Node" style="stroke:#383838;stroke-width:1.0;"/><polygon fill="#383838" points="1121.2,317.3131,1117.2662,323.3567,1121.3319,329.3124,1125.2657,323.2688,1121.2,317.3131" style="stroke:#383838;stroke-width:1.0;"/><!--MD5=[9b0972383eee59698ba76a438d3eb8f5]
reverse link Index to Nodes--><path codeLine="76" d="M1028.98,222.0331 C1050.17,239.0631 1078.17,261.5531 1097.69,277.2331 " fill="none" id="Index-backto-Nodes" style="stroke:#383838;stroke-width:1.0;"/><polygon fill="#383838" points="1018.6,213.7031,1020.7699,220.58,1027.9524,221.222,1025.7825,214.3451,1018.6,213.7031" style="stroke:#383838;stroke-width:1.0;"/><!--MD5=[ed0da03d285636e94e2bfbd04921f6dc]
reverse link Index to IdentifiedLocations--><path codeLine="77" d="M999,230.4731 C999,245.7731 999,263.4831 999,276.6331 " fill="none" id="Index-backto-IdentifiedLocations" style="stroke:#383838;stroke-width:1.0;"/><polygon fill="#383838" points="999,217.3131,995,223.3131,999,229.3131,1003,223.3131,999,217.3131" style="stroke:#383838;stroke-width:1.0;"/><!--MD5=[0a977954ffcc5d04492ecba4b11f58c3]
reverse link Chunk to Identifier--><path codeLine="87" d="M523.5,214.8831 C525.35,215.6131 527.19,216.3131 529,216.9531 C636.32,254.9131 699.57,194.4531 778,276.9531 C835.39,337.3231 829.7,447.6331 824.67,491.8631 " fill="none" id="Chunk-backto-Identifier" style="stroke:#383838;stroke-width:1.0;"/><polygon fill="#383838" points="511.5,209.6431,515.3929,215.7132,522.4933,214.4543,518.6004,208.3843,511.5,209.6431" style="stroke:#383838;stroke-width:1.0;"/><!--MD5=[fd3a6f8866aa4714500caeab42fa824a]
reverse link Chunk to Chunks--><path codeLine="88" d="M477.91,230.4731 C477.1,245.7731 478.21,263.4831 481.02,276.6331 " fill="none" id="Chunk-backto-Chunks" style="stroke:#383838;stroke-width:1.0;"/><polygon fill="#383838" points="479.2,217.3131,474.6387,222.8983,478.0399,229.2569,482.6012,223.6717,479.2,217.3131" style="stroke:#383838;stroke-width:1.0;"/><!--MD5=[d473538eae03df56030eed4cc4bffc02]
reverse link Chunks to Chunk--><path codeLine="89" d="M503.8,263.4731 C504.69,248.1831 503.55,230.4731 500.6,217.3131 " fill="none" id="Chunks-backto-Chunk" style="stroke:#383838;stroke-width:1.0;"/><polygon fill="#383838" points="502.41,276.6331,507.0206,271.0885,503.6758,264.7001,499.0652,270.2447,502.41,276.6331" style="stroke:#383838;stroke-width:1.0;"/><!--MD5=[57e3c164a6f12738db40ba5db71f7ba6]
reverse link Chunk to Data--><path codeLine="90" d="M525.76,230.4131 C544.53,246.9831 566.54,266.4131 581.7,279.7931 " fill="none" id="Chunk-backto-Data" style="stroke:#383838;stroke-width:1.0;"/><polygon fill="none" points="521.03,235.5631,510.67,217.0831,530.29,225.0731,521.03,235.5631" style="stroke:#383838;stroke-width:1.0;"/><!--MD5=[91c72a853c2b34172bbf82bb10d87545]
reverse link Data to any--><path codeLine="91" d="M570.99,319.1931 C560.28,326.5631 547.86,334.5631 536,340.9531 C499.52,360.6031 486.74,357.8031 450,376.9531 C444.64,379.7431 438.99,383.1831 434.05,386.3631 " fill="none" id="Data-backto-any" style="stroke:#383838;stroke-width:1.0;"/><polygon fill="#383838" points="581.84,311.5531,574.6313,311.7377,572.0291,318.463,579.2378,318.2784,581.84,311.5531" style="stroke:#383838;stroke-width:1.0;"/><!--MD5=[dd07d17bf9e658542c6cd1b92b3f3422]
reverse link Data to Computation--><path codeLine="92" d="M611.46,336.6731 C615.52,350.3931 619.91,365.2331 623.28,376.6331 " fill="none" id="Data-backto-Computation" style="stroke:#383838;stroke-width:1.0;"/><polygon fill="none" points="604.69,338.4831,605.73,317.3131,618.12,334.5031,604.69,338.4831" style="stroke:#383838;stroke-width:1.0;"/><!--MD5=[6b3f5d029321b27a77a4173d6d1ecbeb]
reverse link Computation to Identifier--><path codeLine="93" d="M673.41,423.9531 C709.52,445.1031 759.54,474.3831 791.33,493.0031 " fill="none" id="Computation-backto-Identifier" style="stroke:#383838;stroke-width:1.0;"/><polygon fill="#383838" points="661.74,417.1231,664.8944,423.6077,672.0934,423.1901,668.939,416.7055,661.74,417.1231" style="stroke:#383838;stroke-width:1.0;"/><!--MD5=[4b9535732a531a072f33c44d741da7a5]
reverse link Computation to function--><path codeLine="94" d="M629,430.2231 C629,450.0831 629,474.8631 629,491.6931 " fill="none" id="Computation-backto-function" style="stroke:#383838;stroke-width:1.0;"/><polygon fill="#383838" points="629,417.1231,625,423.1231,629,429.1231,633,423.1231,629,417.1231" style="stroke:#383838;stroke-width:1.0;"/><!--MD5=[c6d63e14706f23e1ed7e1a33348a879b]
reverse link IdentifiedEventuals to Identifier--><path codeLine="95" d="M684.78,202.0131 C737.46,209.2631 804.23,228.2431 839,276.9531 C886.33,343.2531 849.33,448.7831 830.88,491.7831 " fill="none" id="IdentifiedEventuals-backto-Identifier" style="stroke:#383838;stroke-width:1.0;"/><polygon fill="#383838" points="671.72,200.4131,677.1923,205.1093,683.6319,201.8642,678.1597,197.168,671.72,200.4131" style="stroke:#383838;stroke-width:1.0;"/><!--MD5=[4a17a66cfc1f3075320783ab03e735c1]
reverse link IdentifiedEventuals to Promise--><path codeLine="96" d="M643.26,225.2431 C663.88,241.6731 689.61,262.1831 708.05,276.8731 " fill="none" id="IdentifiedEventuals-backto-Promise" style="stroke:#383838;stroke-width:1.0;"/><polygon fill="#383838" points="633.01,217.0831,635.2118,223.9499,642.3971,224.5585,640.1954,217.6918,633.01,217.0831" style="stroke:#383838;stroke-width:1.0;"/><!--MD5=[68e0a65239559461a235d1038964e7ab]
reverse link Promise to Data--><path codeLine="97" d="M690.87,296.9531 C666.59,296.9531 642.32,296.9531 618.05,296.9531 " fill="none" id="Promise-backto-Data" style="stroke:#383838;stroke-width:1.0;"/><polygon fill="#383838" points="703.96,296.9531,697.96,292.9531,691.96,296.9531,697.96,300.9531,703.96,296.9531" style="stroke:#383838;stroke-width:1.0;"/><!--MD5=[2415276badd8d72778fbfbda5860bf25]
reverse link Promise to Computation--><path codeLine="98" d="M703.07,326.4131 C698.07,331.2831 692.9,336.2831 688,340.9531 C675.44,352.9431 661.2,366.2231 649.86,376.7231 " fill="none" id="Promise-backto-Computation" style="stroke:#383838;stroke-width:1.0;"/><polygon fill="#383838" points="712.38,317.3131,705.2929,318.6448,703.7964,325.6989,710.8835,324.3672,712.38,317.3131" style="stroke:#383838;stroke-width:1.0;"/><!--MD5=[af0a72874d117036fa4d77f2b41168a6]
reverse link Repository to Index--><path codeLine="105" d="M879.57,109.9931 C910.89,132.5331 954.27,163.7631 979.21,181.7131 " fill="none" id="Repository-backto-Index" style="stroke:#383838;stroke-width:1.0;"/><polygon fill="#383838" points="868.63,102.1231,871.1685,108.8726,878.3752,109.1254,875.8367,102.3759,868.63,102.1231" style="stroke:#383838;stroke-width:1.0;"/><!--MD5=[5454adb5d7533420b1eb60906459eb62]
reverse link Repository to IdentifiedEventuals--><path codeLine="106" d="M811.08,110.6831 C804.11,116.1731 796.53,121.5831 789,125.9531 C752.03,147.4231 707.24,164.8731 671.59,176.9831 " fill="none" id="Repository-backto-IdentifiedEventuals" style="stroke:#383838;stroke-width:1.0;"/><polygon fill="#383838" points="821.45,102.1331,814.2761,102.865,812.1925,109.7685,819.3664,109.0367,821.45,102.1331" style="stroke:#383838;stroke-width:1.0;"/><!--MD5=[f7e4c0e757756687131f68216f669537]
reverse link AssociativeArray to IdentifiedLocations--><path codeLine="107" d="M758.6,114.3731 C817.94,159.1931 925.08,240.1231 973.74,276.8731 " fill="none" id="AssociativeArray-backto-IdentifiedLocations" style="stroke:#383838;stroke-width:1.0;"/><polygon fill="none" points="754.26,119.8731,742.52,102.2331,762.7,108.7031,754.26,119.8731" style="stroke:#383838;stroke-width:1.0;"/><!--MD5=[5b11dd94630b62fafdecd9bf4e1aec26]
reverse link AssociativeArray to IdentifiedEventuals--><path codeLine="108" d="M684.77,116.6731 C666.04,136.2731 643.11,160.2631 627.41,176.6931 " fill="none" id="AssociativeArray-backto-IdentifiedEventuals" style="stroke:#383838;stroke-width:1.0;"/><polygon fill="none" points="679.8,111.7431,698.68,102.1231,689.92,121.4131,679.8,111.7431" style="stroke:#383838;stroke-width:1.0;"/><!--MD5=[134aaf0773d144b2d8b30578db6384ae]
@startuml
skinparam monochrome true
skinparam shadowing false
skinparam style strictuml

title Structure and Relationships of the Main Classes within the Source Files

package identification.R {
class Identifier {
}
}

package communication.R {
class Context
class Endpoint
class Connector
class Binder
class Requester
class Subscriber
class Replier
class Publisher
class Listener
class Speaker
class Communicator
}

Endpoint *- - Context
Endpoint <|- - Connector
Endpoint <|- - Binder
Connector <|- - Requester
Connector <|- - Subscriber
Binder <|- - Replier
Binder <|- - Publisher
Listener *- - Replier
Listener *- - Subscriber
Speaker *- - Requester
Speaker *- - Publisher
Communicator *- - Listener
Communicator *- - Speaker

package interpellation.R {
class Payload
class GET_Payload
class Header
class Request
class GET_Request
class POST_Request
class PUT_Request
}

Payload *- - any
Payload <|- - GET_Payload
Request *- - Header
Request *- - Payload
GET_Request <|- - Request
GET_Request *- - GET_Payload
POST_Request <|- - Request
PUT_Request <|- - Request

package location.R {
class Location
class IdentifiedLocations
class ReplierLocation
class PublisherLocation
class Node
class Nodes
class Index
}

IdentifiedLocations *- - Identifier
IdentifiedLocations *- - Location
Location <|- - ReplierLocation
Location <|- - PublisherLocation
Node *- - ReplierLocation
Node *- - PublisherLocation
Nodes *- - Node
Index *- - Nodes
Index *- - IdentifiedLocations

package information.R {
class Chunk
class Chunks
class Data
class Computation
Class IdentifiedEventuals
}

Chunk *- - Identifier
Chunk *- - Chunks
Chunks *- - Chunk
Chunk <|- - Data
Data *- - any
Data <|- - Computation
Computation *- - Identifier
Computation *- - function
IdentifiedEventuals *- - Identifier
IdentifiedEventuals *- - Promise
Promise *- - Data
Promise *- - Computation

package tabulation.R {
class Repository
class AssociativeArray
}

Repository *- - Index
Repository *- - IdentifiedEventuals
AssociativeArray <|- - IdentifiedLocations
AssociativeArray <|- - IdentifiedEventuals
@enduml

PlantUML version 1.2021.15(Wed Dec 01 05:45:34 NZDT 2021)
(GPL source distribution)
Java Runtime: OpenJDK Runtime Environment
JVM: OpenJDK 64-Bit Server VM
Default Encoding: UTF-8
Language: en
Country: NZ
--></g></svg>