<?xml version="1.0" encoding="UTF-8" standalone="no"?><svg xmlns="http://www.w3.org/2000/svg" xmlns:xlink="http://www.w3.org/1999/xlink" contentStyleType="text/css" height="581px" preserveAspectRatio="none" style="width:1800px;height:581px;background:#FFFFFF;" version="1.1" viewBox="0 0 1800 581" width="1800px" zoomAndPan="magnify"><defs/><g><rect height="26.2969" style="stroke:#00000000;stroke-width:1.0;fill:none;" width="574" x="606" y="5"/><text fill="#000000" font-family="sans-serif" font-size="14" font-weight="bold" lengthAdjust="spacing" textLength="564" x="611" y="22.9951">Structure and Relationships of the Main Classes within the Source Files</text><!--MD5=[d0a839331e3d2189ad4f3c46c7eb860d]
cluster identification.R--><g id="cluster_identification.R"><path d="M811.5,481.2969 L929.5,481.2969 A3.75,3.75 0 0 1 932,483.7969 L939,503.5938 L939.5,503.5938 A2.5,2.5 0 0 1 942,506.0938 L942,571.7969 A2.5,2.5 0 0 1 939.5,574.2969 L811.5,574.2969 A2.5,2.5 0 0 1 809,571.7969 L809,483.7969 A2.5,2.5 0 0 1 811.5,481.2969 " style="stroke:#000000;stroke-width:1.5;fill:none;"/><line style="stroke:#000000;stroke-width:1.5;fill:none;" x1="809" x2="939" y1="503.5938" y2="503.5938"/><text fill="#000000" font-family="sans-serif" font-size="14" font-weight="bold" lengthAdjust="spacing" textLength="117" x="813" y="496.292">identification.R</text></g><!--MD5=[466a15f89b1446596363a57859ec1e9a]
cluster communication.R--><g id="cluster_communication.R"><path d="M1308.5,43.2969 L1443.5,43.2969 A3.75,3.75 0 0 1 1446,45.7969 L1453,65.5938 L1790.5,65.5938 A2.5,2.5 0 0 1 1793,68.0938 L1793,352.7969 A2.5,2.5 0 0 1 1790.5,355.2969 L1308.5,355.2969 A2.5,2.5 0 0 1 1306,352.7969 L1306,45.7969 A2.5,2.5 0 0 1 1308.5,43.2969 " style="stroke:#000000;stroke-width:1.5;fill:none;"/><line style="stroke:#000000;stroke-width:1.5;fill:none;" x1="1306" x2="1453" y1="65.5938" y2="65.5938"/><text fill="#000000" font-family="sans-serif" font-size="14" font-weight="bold" lengthAdjust="spacing" textLength="134" x="1310" y="58.292">communication.R</text></g><!--MD5=[925ee40baeafca327fb2c1ceeedef5e8]
cluster interpellation.R--><g id="cluster_interpellation.R"><path d="M8.5,43.2969 L128.5,43.2969 A3.75,3.75 0 0 1 131,45.7969 L138,65.5938 L417.5,65.5938 A2.5,2.5 0 0 1 420,68.0938 L420,454.7969 A2.5,2.5 0 0 1 417.5,457.2969 L8.5,457.2969 A2.5,2.5 0 0 1 6,454.7969 L6,45.7969 A2.5,2.5 0 0 1 8.5,43.2969 " style="stroke:#000000;stroke-width:1.5;fill:none;"/><line style="stroke:#000000;stroke-width:1.5;fill:none;" x1="6" x2="138" y1="65.5938" y2="65.5938"/><text fill="#000000" font-family="sans-serif" font-size="14" font-weight="bold" lengthAdjust="spacing" textLength="119" x="10" y="58.292">interpellation.R</text></g><!--MD5=[bf2b4d46509596eb1f82ba2bfb4fec14]
cluster location.R--><g id="cluster_location.R"><path d="M977.5,160.2969 L1055.5,160.2969 A3.75,3.75 0 0 1 1058,162.7969 L1065,182.5938 L1279.5,182.5938 A2.5,2.5 0 0 1 1282,185.0938 L1282,571.7969 A2.5,2.5 0 0 1 1279.5,574.2969 L977.5,574.2969 A2.5,2.5 0 0 1 975,571.7969 L975,162.7969 A2.5,2.5 0 0 1 977.5,160.2969 " style="stroke:#000000;stroke-width:1.5;fill:none;"/><line style="stroke:#000000;stroke-width:1.5;fill:none;" x1="975" x2="1065" y1="182.5938" y2="182.5938"/><text fill="#000000" font-family="sans-serif" font-size="14" font-weight="bold" lengthAdjust="spacing" textLength="77" x="979" y="175.292">location.R</text></g><!--MD5=[171df03c8aef04567d9e95b2dbc6f19e]
cluster information.R--><g id="cluster_information.R"><path d="M484.5,160.2969 L590.5,160.2969 A3.75,3.75 0 0 1 593,162.7969 L600,182.5938 L734.5,182.5938 A2.5,2.5 0 0 1 737,185.0938 L737,454.7969 A2.5,2.5 0 0 1 734.5,457.2969 L484.5,457.2969 A2.5,2.5 0 0 1 482,454.7969 L482,162.7969 A2.5,2.5 0 0 1 484.5,160.2969 " style="stroke:#000000;stroke-width:1.5;fill:none;"/><line style="stroke:#000000;stroke-width:1.5;fill:none;" x1="482" x2="600" y1="182.5938" y2="182.5938"/><text fill="#000000" font-family="sans-serif" font-size="14" font-weight="bold" lengthAdjust="spacing" textLength="105" x="486" y="175.292">information.R</text></g><!--MD5=[00f4f43afe10475d78235346986fa230]
cluster tabulation.R--><g id="cluster_tabulation.R"><path d="M693.5,43.2969 L787.5,43.2969 A3.75,3.75 0 0 1 790,45.7969 L797,65.5938 L953.5,65.5938 A2.5,2.5 0 0 1 956,68.0938 L956,133.7969 A2.5,2.5 0 0 1 953.5,136.2969 L693.5,136.2969 A2.5,2.5 0 0 1 691,133.7969 L691,45.7969 A2.5,2.5 0 0 1 693.5,43.2969 " style="stroke:#000000;stroke-width:1.5;fill:none;"/><line style="stroke:#000000;stroke-width:1.5;fill:none;" x1="691" x2="797" y1="65.5938" y2="65.5938"/><text fill="#000000" font-family="sans-serif" font-size="14" font-weight="bold" lengthAdjust="spacing" textLength="93" x="695" y="58.292">tabulation.R</text></g><!--MD5=[75430099834887034d36f3efdb02bb45]
class Identifier--><g id="elem_Identifier"><rect codeLine="8" fill="#F1F1F1" height="42.2969" id="Identifier" rx="2.5" ry="2.5" style="stroke:#181818;stroke-width:0.5;" width="65" x="843.5" y="516.2969"/><text fill="#000000" font-family="sans-serif" font-size="14" lengthAdjust="spacing" textLength="59" x="846.5" y="534.292">Identifier</text><line style="stroke:#181818;stroke-width:0.5;" x1="844.5" x2="907.5" y1="542.5938" y2="542.5938"/><line style="stroke:#181818;stroke-width:0.5;" x1="844.5" x2="907.5" y1="550.5938" y2="550.5938"/></g><!--MD5=[6754354365917abf8f1a56af1b7e344c]
class Context--><g id="elem_Context"><rect codeLine="13" fill="#F1F1F1" height="42.2969" id="Context" rx="2.5" ry="2.5" style="stroke:#181818;stroke-width:0.5;" width="60" x="1603" y="195.2969"/><text fill="#000000" font-family="sans-serif" font-size="14" lengthAdjust="spacing" textLength="54" x="1606" y="213.292">Context</text><line style="stroke:#181818;stroke-width:0.5;" x1="1604" x2="1662" y1="221.5938" y2="221.5938"/><line style="stroke:#181818;stroke-width:0.5;" x1="1604" x2="1662" y1="229.5938" y2="229.5938"/></g><!--MD5=[4fd3bb6c1d79f4919f90c95b62a35422]
class Endpoint--><g id="elem_Endpoint"><rect codeLine="14" fill="#F1F1F1" height="42.2969" id="Endpoint" rx="2.5" ry="2.5" style="stroke:#181818;stroke-width:0.5;" width="68" x="1599" y="78.2969"/><text fill="#000000" font-family="sans-serif" font-size="14" lengthAdjust="spacing" textLength="62" x="1602" y="96.292">Endpoint</text><line style="stroke:#181818;stroke-width:0.5;" x1="1600" x2="1666" y1="104.5938" y2="104.5938"/><line style="stroke:#181818;stroke-width:0.5;" x1="1600" x2="1666" y1="112.5938" y2="112.5938"/></g><!--MD5=[2e807730047ae2e9fc9e944cb69597f3]
class Connector--><g id="elem_Connector"><rect codeLine="15" fill="#F1F1F1" height="42.2969" id="Connector" rx="2.5" ry="2.5" style="stroke:#181818;stroke-width:0.5;" width="79" x="1698.5" y="195.2969"/><text fill="#000000" font-family="sans-serif" font-size="14" lengthAdjust="spacing" textLength="73" x="1701.5" y="213.292">Connector</text><line style="stroke:#181818;stroke-width:0.5;" x1="1699.5" x2="1776.5" y1="221.5938" y2="221.5938"/><line style="stroke:#181818;stroke-width:0.5;" x1="1699.5" x2="1776.5" y1="229.5938" y2="229.5938"/></g><!--MD5=[0f894add1a0cf8e31892010e62137c69]
class Binder--><g id="elem_Binder"><rect codeLine="16" fill="#F1F1F1" height="42.2969" id="Binder" rx="2.5" ry="2.5" style="stroke:#181818;stroke-width:0.5;" width="51" x="1418.5" y="195.2969"/><text fill="#000000" font-family="sans-serif" font-size="14" lengthAdjust="spacing" textLength="45" x="1421.5" y="213.292">Binder</text><line style="stroke:#181818;stroke-width:0.5;" x1="1419.5" x2="1468.5" y1="221.5938" y2="221.5938"/><line style="stroke:#181818;stroke-width:0.5;" x1="1419.5" x2="1468.5" y1="229.5938" y2="229.5938"/></g><!--MD5=[969b7521d1b4d72425ea4ce6175216aa]
class Requester--><g id="elem_Requester"><rect codeLine="17" fill="#F1F1F1" height="42.2969" id="Requester" rx="2.5" ry="2.5" style="stroke:#181818;stroke-width:0.5;" width="79" x="1665.5" y="297.2969"/><text fill="#000000" font-family="sans-serif" font-size="14" lengthAdjust="spacing" textLength="73" x="1668.5" y="315.292">Requester</text><line style="stroke:#181818;stroke-width:0.5;" x1="1666.5" x2="1743.5" y1="323.5938" y2="323.5938"/><line style="stroke:#181818;stroke-width:0.5;" x1="1666.5" x2="1743.5" y1="331.5938" y2="331.5938"/></g><!--MD5=[4a7956b31a8e98f2c19ee52c969c2c46]
class Subscriber--><g id="elem_Subscriber"><rect codeLine="18" fill="#F1F1F1" height="42.2969" id="Subscriber" rx="2.5" ry="2.5" style="stroke:#181818;stroke-width:0.5;" width="80" x="1413" y="297.2969"/><text fill="#000000" font-family="sans-serif" font-size="14" lengthAdjust="spacing" textLength="74" x="1416" y="315.292">Subscriber</text><line style="stroke:#181818;stroke-width:0.5;" x1="1414" x2="1492" y1="323.5938" y2="323.5938"/><line style="stroke:#181818;stroke-width:0.5;" x1="1414" x2="1492" y1="331.5938" y2="331.5938"/></g><!--MD5=[d89a6c684fdd5abaa575d2ea00c1a276]
class Replier--><g id="elem_Replier"><rect codeLine="19" fill="#F1F1F1" height="42.2969" id="Replier" rx="2.5" ry="2.5" style="stroke:#181818;stroke-width:0.5;" width="54" x="1324" y="297.2969"/><text fill="#000000" font-family="sans-serif" font-size="14" lengthAdjust="spacing" textLength="48" x="1327" y="315.292">Replier</text><line style="stroke:#181818;stroke-width:0.5;" x1="1325" x2="1377" y1="323.5938" y2="323.5938"/><line style="stroke:#181818;stroke-width:0.5;" x1="1325" x2="1377" y1="331.5938" y2="331.5938"/></g><!--MD5=[13fb849c6dfc9273db4c5b2c7ac96a10]
class Publisher--><g id="elem_Publisher"><rect codeLine="20" fill="#F1F1F1" height="42.2969" id="Publisher" rx="2.5" ry="2.5" style="stroke:#181818;stroke-width:0.5;" width="70" x="1528" y="297.2969"/><text fill="#000000" font-family="sans-serif" font-size="14" lengthAdjust="spacing" textLength="64" x="1531" y="315.292">Publisher</text><line style="stroke:#181818;stroke-width:0.5;" x1="1529" x2="1597" y1="323.5938" y2="323.5938"/><line style="stroke:#181818;stroke-width:0.5;" x1="1529" x2="1597" y1="331.5938" y2="331.5938"/></g><!--MD5=[085076096658226fe7d3ac7a26d9b629]
class Listener--><g id="elem_Listener"><rect codeLine="21" fill="#F1F1F1" height="42.2969" id="Listener" rx="2.5" ry="2.5" style="stroke:#181818;stroke-width:0.5;" width="61" x="1322.5" y="195.2969"/><text fill="#000000" font-family="sans-serif" font-size="14" lengthAdjust="spacing" textLength="55" x="1325.5" y="213.292">Listener</text><line style="stroke:#181818;stroke-width:0.5;" x1="1323.5" x2="1382.5" y1="221.5938" y2="221.5938"/><line style="stroke:#181818;stroke-width:0.5;" x1="1323.5" x2="1382.5" y1="229.5938" y2="229.5938"/></g><!--MD5=[4e5d5c34e639841454a5ab6892ce1d20]
class Speaker--><g id="elem_Speaker"><rect codeLine="22" fill="#F1F1F1" height="42.2969" id="Speaker" rx="2.5" ry="2.5" style="stroke:#181818;stroke-width:0.5;" width="63" x="1504.5" y="195.2969"/><text fill="#000000" font-family="sans-serif" font-size="14" lengthAdjust="spacing" textLength="57" x="1507.5" y="213.292">Speaker</text><line style="stroke:#181818;stroke-width:0.5;" x1="1505.5" x2="1566.5" y1="221.5938" y2="221.5938"/><line style="stroke:#181818;stroke-width:0.5;" x1="1505.5" x2="1566.5" y1="229.5938" y2="229.5938"/></g><!--MD5=[504e2d2577838535ab74e9cfcf4a3e02]
class Communicator--><g id="elem_Communicator"><rect codeLine="23" fill="#F1F1F1" height="42.2969" id="Communicator" rx="2.5" ry="2.5" style="stroke:#181818;stroke-width:0.5;" width="107" x="1389.5" y="78.2969"/><text fill="#000000" font-family="sans-serif" font-size="14" lengthAdjust="spacing" textLength="101" x="1392.5" y="96.292">Communicator</text><line style="stroke:#181818;stroke-width:0.5;" x1="1390.5" x2="1495.5" y1="104.5938" y2="104.5938"/><line style="stroke:#181818;stroke-width:0.5;" x1="1390.5" x2="1495.5" y1="112.5938" y2="112.5938"/></g><!--MD5=[8091df425c121e9542bfe22ce29d2d4c]
class Payload--><g id="elem_Payload"><rect codeLine="41" fill="#F1F1F1" height="42.2969" id="Payload" rx="2.5" ry="2.5" style="stroke:#181818;stroke-width:0.5;" width="59" x="254.5" y="297.2969"/><text fill="#000000" font-family="sans-serif" font-size="14" lengthAdjust="spacing" textLength="53" x="257.5" y="315.292">Payload</text><line style="stroke:#181818;stroke-width:0.5;" x1="255.5" x2="312.5" y1="323.5938" y2="323.5938"/><line style="stroke:#181818;stroke-width:0.5;" x1="255.5" x2="312.5" y1="331.5938" y2="331.5938"/></g><!--MD5=[b4d0de8c776726fd606c4da32d14498e]
class GET_Payload--><g id="elem_GET_Payload"><rect codeLine="42" fill="#F1F1F1" height="42.2969" id="GET_Payload" rx="2.5" ry="2.5" style="stroke:#181818;stroke-width:0.5;" width="95" x="121.5" y="399.2969"/><text fill="#000000" font-family="sans-serif" font-size="14" lengthAdjust="spacing" textLength="89" x="124.5" y="417.292">GET_Payload</text><line style="stroke:#181818;stroke-width:0.5;" x1="122.5" x2="215.5" y1="425.5938" y2="425.5938"/><line style="stroke:#181818;stroke-width:0.5;" x1="122.5" x2="215.5" y1="433.5938" y2="433.5938"/></g><!--MD5=[d10018d7374cb536a2ec2f77e731452b]
class Header--><g id="elem_Header"><rect codeLine="43" fill="#F1F1F1" height="42.2969" id="Header" rx="2.5" ry="2.5" style="stroke:#181818;stroke-width:0.5;" width="56" x="163" y="297.2969"/><text fill="#000000" font-family="sans-serif" font-size="14" lengthAdjust="spacing" textLength="50" x="166" y="315.292">Header</text><line style="stroke:#181818;stroke-width:0.5;" x1="164" x2="218" y1="323.5938" y2="323.5938"/><line style="stroke:#181818;stroke-width:0.5;" x1="164" x2="218" y1="331.5938" y2="331.5938"/></g><!--MD5=[0851f84a889f989e7bb0bebc385d0f09]
class Request--><g id="elem_Request"><rect codeLine="44" fill="#F1F1F1" height="42.2969" id="Request" rx="2.5" ry="2.5" style="stroke:#181818;stroke-width:0.5;" width="65" x="176.5" y="195.2969"/><text fill="#000000" font-family="sans-serif" font-size="14" lengthAdjust="spacing" textLength="59" x="179.5" y="213.292">Request</text><line style="stroke:#181818;stroke-width:0.5;" x1="177.5" x2="240.5" y1="221.5938" y2="221.5938"/><line style="stroke:#181818;stroke-width:0.5;" x1="177.5" x2="240.5" y1="229.5938" y2="229.5938"/></g><!--MD5=[cfb71ba480ad3bf1784d05564b5970df]
class GET_Request--><g id="elem_GET_Request"><rect codeLine="45" fill="#F1F1F1" height="42.2969" id="GET_Request" rx="2.5" ry="2.5" style="stroke:#181818;stroke-width:0.5;" width="101" x="22.5" y="78.2969"/><text fill="#000000" font-family="sans-serif" font-size="14" lengthAdjust="spacing" textLength="95" x="25.5" y="96.292">GET_Request</text><line style="stroke:#181818;stroke-width:0.5;" x1="23.5" x2="122.5" y1="104.5938" y2="104.5938"/><line style="stroke:#181818;stroke-width:0.5;" x1="23.5" x2="122.5" y1="112.5938" y2="112.5938"/></g><!--MD5=[8a9930c12876e73d20b0b3011b90ba4f]
class POST_Request--><g id="elem_POST_Request"><rect codeLine="46" fill="#F1F1F1" height="42.2969" id="POST_Request" rx="2.5" ry="2.5" style="stroke:#181818;stroke-width:0.5;" width="110" x="294" y="78.2969"/><text fill="#000000" font-family="sans-serif" font-size="14" lengthAdjust="spacing" textLength="104" x="297" y="96.292">POST_Request</text><line style="stroke:#181818;stroke-width:0.5;" x1="295" x2="403" y1="104.5938" y2="104.5938"/><line style="stroke:#181818;stroke-width:0.5;" x1="295" x2="403" y1="112.5938" y2="112.5938"/></g><!--MD5=[67c7b310e12394139ace3015a1dec297]
class PUT_Request--><g id="elem_PUT_Request"><rect codeLine="47" fill="#F1F1F1" height="42.2969" id="PUT_Request" rx="2.5" ry="2.5" style="stroke:#181818;stroke-width:0.5;" width="100" x="159" y="78.2969"/><text fill="#000000" font-family="sans-serif" font-size="14" lengthAdjust="spacing" textLength="94" x="162" y="96.292">PUT_Request</text><line style="stroke:#181818;stroke-width:0.5;" x1="160" x2="258" y1="104.5938" y2="104.5938"/><line style="stroke:#181818;stroke-width:0.5;" x1="160" x2="258" y1="112.5938" y2="112.5938"/></g><!--MD5=[4f1f3706c1a355a8488e154afcaed5df]
class Location--><g id="elem_Location"><rect codeLine="60" fill="#F1F1F1" height="42.2969" id="Location" rx="2.5" ry="2.5" style="stroke:#181818;stroke-width:0.5;" width="64" x="1063" y="399.2969"/><text fill="#000000" font-family="sans-serif" font-size="14" lengthAdjust="spacing" textLength="58" x="1066" y="417.292">Location</text><line style="stroke:#181818;stroke-width:0.5;" x1="1064" x2="1126" y1="425.5938" y2="425.5938"/><line style="stroke:#181818;stroke-width:0.5;" x1="1064" x2="1126" y1="433.5938" y2="433.5938"/></g><!--MD5=[01c369644feed86f79d6043c85e64307]
class IdentifiedLocations--><g id="elem_IdentifiedLocations"><rect codeLine="61" fill="#F1F1F1" height="42.2969" id="IdentifiedLocations" rx="2.5" ry="2.5" style="stroke:#181818;stroke-width:0.5;" width="135" x="992.5" y="297.2969"/><text fill="#000000" font-family="sans-serif" font-size="14" lengthAdjust="spacing" textLength="129" x="995.5" y="315.292">IdentifiedLocations</text><line style="stroke:#181818;stroke-width:0.5;" x1="993.5" x2="1126.5" y1="323.5938" y2="323.5938"/><line style="stroke:#181818;stroke-width:0.5;" x1="993.5" x2="1126.5" y1="331.5938" y2="331.5938"/></g><!--MD5=[753a431098c603e46389449193c2edf8]
class ReplierLocation--><g id="elem_ReplierLocation"><rect codeLine="62" fill="#F1F1F1" height="42.2969" id="ReplierLocation" rx="2.5" ry="2.5" style="stroke:#181818;stroke-width:0.5;" width="112" x="1154" y="516.2969"/><text fill="#000000" font-family="sans-serif" font-size="14" lengthAdjust="spacing" textLength="106" x="1157" y="534.292">ReplierLocation</text><line style="stroke:#181818;stroke-width:0.5;" x1="1155" x2="1265" y1="542.5938" y2="542.5938"/><line style="stroke:#181818;stroke-width:0.5;" x1="1155" x2="1265" y1="550.5938" y2="550.5938"/></g><!--MD5=[77ca469d9b09a31d49a8b933ef6d0b91]
class PublisherLocation--><g id="elem_PublisherLocation"><rect codeLine="63" fill="#F1F1F1" height="42.2969" id="PublisherLocation" rx="2.5" ry="2.5" style="stroke:#181818;stroke-width:0.5;" width="128" x="991" y="516.2969"/><text fill="#000000" font-family="sans-serif" font-size="14" lengthAdjust="spacing" textLength="122" x="994" y="534.292">PublisherLocation</text><line style="stroke:#181818;stroke-width:0.5;" x1="992" x2="1118" y1="542.5938" y2="542.5938"/><line style="stroke:#181818;stroke-width:0.5;" x1="992" x2="1118" y1="550.5938" y2="550.5938"/></g><!--MD5=[3fee75583bb7a64f68d843a3c9534ab3]
class Node--><g id="elem_Node"><rect codeLine="64" fill="#F1F1F1" height="42.2969" id="Node" rx="2.5" ry="2.5" style="stroke:#181818;stroke-width:0.5;" width="43" x="1166.5" y="399.2969"/><text fill="#000000" font-family="sans-serif" font-size="14" lengthAdjust="spacing" textLength="37" x="1169.5" y="417.292">Node</text><line style="stroke:#181818;stroke-width:0.5;" x1="1167.5" x2="1208.5" y1="425.5938" y2="425.5938"/><line style="stroke:#181818;stroke-width:0.5;" x1="1167.5" x2="1208.5" y1="433.5938" y2="433.5938"/></g><!--MD5=[85c68d1f87505dce9bc362d94e3e592c]
class Nodes--><g id="elem_Nodes"><rect codeLine="65" fill="#F1F1F1" height="42.2969" id="Nodes" rx="2.5" ry="2.5" style="stroke:#181818;stroke-width:0.5;" width="51" x="1162.5" y="297.2969"/><text fill="#000000" font-family="sans-serif" font-size="14" lengthAdjust="spacing" textLength="45" x="1165.5" y="315.292">Nodes</text><line style="stroke:#181818;stroke-width:0.5;" x1="1163.5" x2="1212.5" y1="323.5938" y2="323.5938"/><line style="stroke:#181818;stroke-width:0.5;" x1="1163.5" x2="1212.5" y1="331.5938" y2="331.5938"/></g><!--MD5=[15b9a87b033c6044cf0e9bbdacb18726]
class Index--><g id="elem_Index"><rect codeLine="66" fill="#F1F1F1" height="42.2969" id="Index" rx="2.5" ry="2.5" style="stroke:#181818;stroke-width:0.5;" width="43" x="1038.5" y="195.2969"/><text fill="#000000" font-family="sans-serif" font-size="14" lengthAdjust="spacing" textLength="37" x="1041.5" y="213.292">Index</text><line style="stroke:#181818;stroke-width:0.5;" x1="1039.5" x2="1080.5" y1="221.5938" y2="221.5938"/><line style="stroke:#181818;stroke-width:0.5;" x1="1039.5" x2="1080.5" y1="229.5938" y2="229.5938"/></g><!--MD5=[6e0c224d26e528c5d694b92ff8301dce]
class Chunk--><g id="elem_Chunk"><rect codeLine="80" fill="#F1F1F1" height="42.2969" id="Chunk" rx="2.5" ry="2.5" style="stroke:#181818;stroke-width:0.5;" width="51" x="498.5" y="195.2969"/><text fill="#000000" font-family="sans-serif" font-size="14" lengthAdjust="spacing" textLength="45" x="501.5" y="213.292">Chunk</text><line style="stroke:#181818;stroke-width:0.5;" x1="499.5" x2="548.5" y1="221.5938" y2="221.5938"/><line style="stroke:#181818;stroke-width:0.5;" x1="499.5" x2="548.5" y1="229.5938" y2="229.5938"/></g><!--MD5=[5d7af1feacd4c0ff3341111f617a3e31]
class Chunks--><g id="elem_Chunks"><rect codeLine="81" fill="#F1F1F1" height="42.2969" id="Chunks" rx="2.5" ry="2.5" style="stroke:#181818;stroke-width:0.5;" width="59" x="498.5" y="297.2969"/><text fill="#000000" font-family="sans-serif" font-size="14" lengthAdjust="spacing" textLength="53" x="501.5" y="315.292">Chunks</text><line style="stroke:#181818;stroke-width:0.5;" x1="499.5" x2="556.5" y1="323.5938" y2="323.5938"/><line style="stroke:#181818;stroke-width:0.5;" x1="499.5" x2="556.5" y1="331.5938" y2="331.5938"/></g><!--MD5=[60c9ed31c535bee25c55ce21b5b01399]
class Data--><g id="elem_Data"><rect codeLine="82" fill="#F1F1F1" height="42.2969" id="Data" rx="2.5" ry="2.5" style="stroke:#181818;stroke-width:0.5;" width="38" x="624" y="297.2969"/><text fill="#000000" font-family="sans-serif" font-size="14" lengthAdjust="spacing" textLength="32" x="627" y="315.292">Data</text><line style="stroke:#181818;stroke-width:0.5;" x1="625" x2="661" y1="323.5938" y2="323.5938"/><line style="stroke:#181818;stroke-width:0.5;" x1="625" x2="661" y1="331.5938" y2="331.5938"/></g><!--MD5=[2682d2f3cc19b21379d0275abf1955af]
class Computation--><g id="elem_Computation"><rect codeLine="83" fill="#F1F1F1" height="42.2969" id="Computation" rx="2.5" ry="2.5" style="stroke:#181818;stroke-width:0.5;" width="95" x="625.5" y="399.2969"/><text fill="#000000" font-family="sans-serif" font-size="14" lengthAdjust="spacing" textLength="89" x="628.5" y="417.292">Computation</text><line style="stroke:#181818;stroke-width:0.5;" x1="626.5" x2="719.5" y1="425.5938" y2="425.5938"/><line style="stroke:#181818;stroke-width:0.5;" x1="626.5" x2="719.5" y1="433.5938" y2="433.5938"/></g><!--MD5=[d9078ef9506dd0b6f6621acbb6f5b950]
class IdentifiedEventuals--><g id="elem_IdentifiedEventuals"><rect codeLine="84" fill="#F1F1F1" height="42.2969" id="IdentifiedEventuals" rx="2.5" ry="2.5" style="stroke:#181818;stroke-width:0.5;" width="136" x="585" y="195.2969"/><text fill="#000000" font-family="sans-serif" font-size="14" lengthAdjust="spacing" textLength="130" x="588" y="213.292">IdentifiedEventuals</text><line style="stroke:#181818;stroke-width:0.5;" x1="586" x2="720" y1="221.5938" y2="221.5938"/><line style="stroke:#181818;stroke-width:0.5;" x1="586" x2="720" y1="229.5938" y2="229.5938"/></g><!--MD5=[c05f8d4c5007184b0fb1ea93cdb8d9fe]
class Repository--><g id="elem_Repository"><rect codeLine="101" fill="#F1F1F1" height="42.2969" id="Repository" rx="2.5" ry="2.5" style="stroke:#181818;stroke-width:0.5;" width="80" x="860" y="78.2969"/><text fill="#000000" font-family="sans-serif" font-size="14" lengthAdjust="spacing" textLength="74" x="863" y="96.292">Repository</text><line style="stroke:#181818;stroke-width:0.5;" x1="861" x2="939" y1="104.5938" y2="104.5938"/><line style="stroke:#181818;stroke-width:0.5;" x1="861" x2="939" y1="112.5938" y2="112.5938"/></g><!--MD5=[e35f09f4307a52b6839ba0899d76b326]
class AssociativeArray--><g id="elem_AssociativeArray"><rect codeLine="102" fill="#F1F1F1" height="42.2969" id="AssociativeArray" rx="2.5" ry="2.5" style="stroke:#181818;stroke-width:0.5;" width="117" x="707.5" y="78.2969"/><text fill="#000000" font-family="sans-serif" font-size="14" lengthAdjust="spacing" textLength="111" x="710.5" y="96.292">AssociativeArray</text><line style="stroke:#181818;stroke-width:0.5;" x1="708.5" x2="823.5" y1="104.5938" y2="104.5938"/><line style="stroke:#181818;stroke-width:0.5;" x1="708.5" x2="823.5" y1="112.5938" y2="112.5938"/></g><!--MD5=[b0d3ac0748af964bdb4c7a76580dd151]
class any--><g id="elem_any"><rect fill="#F1F1F1" height="42.2969" id="any" rx="2.5" ry="2.5" style="stroke:#181818;stroke-width:0.5;" width="30" x="436" y="399.2969"/><text fill="#000000" font-family="sans-serif" font-size="14" lengthAdjust="spacing" textLength="24" x="439" y="417.292">any</text><line style="stroke:#181818;stroke-width:0.5;" x1="437" x2="465" y1="425.5938" y2="425.5938"/><line style="stroke:#181818;stroke-width:0.5;" x1="437" x2="465" y1="433.5938" y2="433.5938"/></g><!--MD5=[df13a024b2cff7471dbe6b522aa51c17]
class function--><g id="elem_function"><rect fill="#F1F1F1" height="42.2969" id="function" rx="2.5" ry="2.5" style="stroke:#181818;stroke-width:0.5;" width="62" x="642" y="516.2969"/><text fill="#000000" font-family="sans-serif" font-size="14" lengthAdjust="spacing" textLength="56" x="645" y="534.292">function</text><line style="stroke:#181818;stroke-width:0.5;" x1="643" x2="703" y1="542.5938" y2="542.5938"/><line style="stroke:#181818;stroke-width:0.5;" x1="643" x2="703" y1="550.5938" y2="550.5938"/></g><!--MD5=[b59cb0292cbab4b73c77d0ad579c4efd]
class Promise--><g id="elem_Promise"><rect fill="#F1F1F1" height="42.2969" id="Promise" rx="2.5" ry="2.5" style="stroke:#181818;stroke-width:0.5;" width="62" x="753" y="297.2969"/><text fill="#000000" font-family="sans-serif" font-size="14" lengthAdjust="spacing" textLength="56" x="756" y="315.292">Promise</text><line style="stroke:#181818;stroke-width:0.5;" x1="754" x2="814" y1="323.5938" y2="323.5938"/><line style="stroke:#181818;stroke-width:0.5;" x1="754" x2="814" y1="331.5938" y2="331.5938"/></g><!--MD5=[c944c7355575679658c3f95713416c2a]
reverse link Endpoint to Context--><g id="link_Endpoint_Context"><path codeLine="26" d="M1633,133.5069 C1633,153.4169 1633,178.0969 1633,195.1069 " fill="none" id="Endpoint-backto-Context" style="stroke:#181818;stroke-width:1.0;"/><polygon fill="#181818" points="1633,120.3269,1629,126.3269,1633,132.3269,1637,126.3269,1633,120.3269" style="stroke:#181818;stroke-width:1.0;"/></g><!--MD5=[c74eadff68661f5a9cdebbc2e207146d]
reverse link Endpoint to Connector--><g id="link_Endpoint_Connector"><path codeLine="27" d="M1665.4,135.2969 C1670.62,140.9669 1675.97,146.7869 1681,152.2969 C1694.03,166.5569 1708.66,182.7269 1719.83,195.1069 " fill="none" id="Endpoint-backto-Connector" style="stroke:#181818;stroke-width:1.0;"/><polygon fill="none" points="1660.16,139.9469,1651.74,120.5069,1670.45,130.4469,1660.16,139.9469" style="stroke:#181818;stroke-width:1.0;"/></g><!--MD5=[e7629295ffa8f4ef7dcde4817fdcbcb0]
reverse link Endpoint to Binder--><g id="link_Endpoint_Binder"><path codeLine="28" d="M1579.97,120.7569 C1559.47,128.4469 1535.75,137.0669 1514,144.2969 C1502.12,148.2469 1497.11,144.9269 1487,152.2969 C1471.91,163.2969 1460.4,181.2869 1453.1,195.2369 " fill="none" id="Endpoint-backto-Binder" style="stroke:#181818;stroke-width:1.0;"/><polygon fill="none" points="1577.66,114.1469,1598.84,113.6069,1582.62,127.2369,1577.66,114.1469" style="stroke:#181818;stroke-width:1.0;"/></g><!--MD5=[d4be9f166e880a4b2c339fad29392577]
reverse link Connector to Requester--><g id="link_Connector_Requester"><path codeLine="29" d="M1724.9,256.9969 C1720.36,270.7369 1715.47,285.5769 1711.67,297.0869 " fill="none" id="Connector-backto-Requester" style="stroke:#181818;stroke-width:1.0;"/><polygon fill="none" points="1718.41,254.3369,1731.32,237.5369,1731.7,258.7169,1718.41,254.3369" style="stroke:#181818;stroke-width:1.0;"/></g><!--MD5=[c1ff45d8eeb329ad5e132589166fe222]
reverse link Connector to Subscriber--><g id="link_Connector_Subscriber"><path codeLine="30" d="M1679.19,237.9269 C1623.61,257.4369 1541.7,286.1769 1493.21,303.1869 " fill="none" id="Connector-backto-Subscriber" style="stroke:#181818;stroke-width:1.0;"/><polygon fill="none" points="1677.18,231.2169,1698.37,231.1969,1681.82,244.4269,1677.18,231.2169" style="stroke:#181818;stroke-width:1.0;"/></g><!--MD5=[ad1f6fc02ce4f2ef16a85ccd0c10e612]
reverse link Binder to Replier--><g id="link_Binder_Replier"><path codeLine="31" d="M1411.55,252.1969 C1397.59,267.2069 1381.76,284.2169 1369.79,297.0869 " fill="none" id="Binder-backto-Replier" style="stroke:#181818;stroke-width:1.0;"/><polygon fill="none" points="1406.43,247.4069,1425.18,237.5369,1416.69,256.9469,1406.43,247.4069" style="stroke:#181818;stroke-width:1.0;"/></g><!--MD5=[7ff83e82e71578dbbe7fdba5eea4e556]
reverse link Binder to Publisher--><g id="link_Binder_Publisher"><path codeLine="32" d="M1483.56,250.5469 C1501.89,265.9469 1523.07,283.7469 1538.95,297.0869 " fill="none" id="Binder-backto-Publisher" style="stroke:#181818;stroke-width:1.0;"/><polygon fill="none" points="1478.89,255.7569,1468.08,237.5369,1487.9,245.0369,1478.89,255.7569" style="stroke:#181818;stroke-width:1.0;"/></g><!--MD5=[34676e4c8f1b1ee18f52b95f8678210f]
reverse link Listener to Replier--><g id="link_Listener_Replier"><path codeLine="33" d="M1352.33,250.7769 C1352.02,266.1269 1351.67,283.8169 1351.4,297.0869 " fill="none" id="Listener-backto-Replier" style="stroke:#181818;stroke-width:1.0;"/><polygon fill="#181818" points="1352.6,237.5369,1348.482,243.4565,1352.3624,249.5345,1356.4804,243.6149,1352.6,237.5369" style="stroke:#181818;stroke-width:1.0;"/></g><!--MD5=[124fe72fa78e76405e5c7055cafa634a]
reverse link Listener to Subscriber--><g id="link_Listener_Subscriber"><path codeLine="34" d="M1382.77,247.0669 C1398.91,263.2069 1418.43,282.7269 1432.79,297.0869 " fill="none" id="Listener-backto-Subscriber" style="stroke:#181818;stroke-width:1.0;"/><polygon fill="#181818" points="1373.24,237.5369,1374.6542,244.6079,1381.7253,246.0222,1380.3111,238.9511,1373.24,237.5369" style="stroke:#181818;stroke-width:1.0;"/></g><!--MD5=[c4f43ac51efd32f528e322a1b3bd8c4b]
reverse link Speaker to Requester--><g id="link_Speaker_Requester"><path codeLine="35" d="M1579.06,242.7769 C1607.62,259.6769 1644.56,281.5369 1671.04,297.1969 " fill="none" id="Speaker-backto-Requester" style="stroke:#181818;stroke-width:1.0;"/><polygon fill="#181818" points="1567.79,236.1069,1570.9223,242.6021,1578.1227,242.209,1574.9904,235.7137,1567.79,236.1069" style="stroke:#181818;stroke-width:1.0;"/></g><!--MD5=[b57fd8534270425ed61d5b33c1730855]
reverse link Speaker to Publisher--><g id="link_Speaker_Publisher"><path codeLine="36" d="M1544.91,250.3069 C1549.09,265.7669 1553.92,283.6769 1557.54,297.0869 " fill="none" id="Speaker-backto-Publisher" style="stroke:#181818;stroke-width:1.0;"/><polygon fill="#181818" points="1541.46,237.5369,1539.1599,244.3713,1544.5839,249.1231,1546.884,242.2887,1541.46,237.5369" style="stroke:#181818;stroke-width:1.0;"/></g><!--MD5=[6bfc33569ace854c46d821f85a1e5d14]
reverse link Communicator to Listener--><g id="link_Communicator_Listener"><path codeLine="37" d="M1418.01,130.9469 C1412.38,137.9269 1406.45,145.3469 1401,152.2969 C1389.88,166.4669 1377.57,182.6369 1368.2,195.0369 " fill="none" id="Communicator-backto-Listener" style="stroke:#181818;stroke-width:1.0;"/><polygon fill="#181818" points="1426.51,120.4369,1419.6279,122.5903,1418.9687,129.7712,1425.8508,127.6178,1426.51,120.4369" style="stroke:#181818;stroke-width:1.0;"/></g><!--MD5=[bb2358c541d331ea1ba32bd2a80afbb2]
reverse link Communicator to Speaker--><g id="link_Communicator_Speaker"><path codeLine="38" d="M1468.82,130.3869 C1474.84,137.5169 1481.19,145.1369 1487,152.2969 C1498.52,166.4969 1511.19,182.8069 1520.76,195.2669 " fill="none" id="Communicator-backto-Speaker" style="stroke:#181818;stroke-width:1.0;"/><polygon fill="#181818" points="1460.33,120.3869,1461.1678,127.5491,1468.1014,129.5305,1467.2636,122.3682,1460.33,120.3869" style="stroke:#181818;stroke-width:1.0;"/></g><!--MD5=[7a45ccdcee09172264b28a7b7db3090f]
reverse link Payload to any--><g id="link_Payload_any"><path codeLine="50" d="M325.05,342.8569 C352.18,358.5669 388.41,379.8269 420,399.2969 C425.23,402.5269 430.9,406.1469 435.94,409.4069 " fill="none" id="Payload-backto-any" style="stroke:#181818;stroke-width:1.0;"/><polygon fill="#181818" points="313.66,336.2669,316.8559,342.7311,324.052,342.2673,320.8562,335.8031,313.66,336.2669" style="stroke:#181818;stroke-width:1.0;"/></g><!--MD5=[fe9699f1e294ddf104efda17e9802e6f]
reverse link Payload to GET_Payload--><g id="link_Payload_GET_Payload"><path codeLine="51" d="M248.26,353.1969 C244.49,356.6369 240.68,360.0569 237,363.2969 C223.1,375.5069 207.14,388.6869 194.19,399.1869 " fill="none" id="Payload-backto-GET_Payload" style="stroke:#181818;stroke-width:1.0;"/><polygon fill="none" points="243.79,347.7869,263.21,339.2969,253.32,358.0469,243.79,347.7869" style="stroke:#181818;stroke-width:1.0;"/></g><!--MD5=[cd05aa8c5e067a968f535bb4541021a0]
reverse link Request to Header--><g id="link_Request_Header"><path codeLine="52" d="M202.97,250.7769 C200.21,266.1269 197.03,283.8169 194.64,297.0869 " fill="none" id="Request-backto-Header" style="stroke:#181818;stroke-width:1.0;"/><polygon fill="#181818" points="205.36,237.5369,200.3553,242.7285,203.2227,249.345,208.2274,244.1534,205.36,237.5369" style="stroke:#181818;stroke-width:1.0;"/></g><!--MD5=[3cebd726d03e1b2002b8f7f6400d1fd1]
reverse link Request to Payload--><g id="link_Request_Payload"><path codeLine="53" d="M232.02,247.9869 C243.98,263.9469 258.28,282.9969 268.85,297.0869 " fill="none" id="Request-backto-Payload" style="stroke:#181818;stroke-width:1.0;"/><polygon fill="#181818" points="224.18,237.5369,224.58,244.7369,231.38,247.1369,230.98,239.9369,224.18,237.5369" style="stroke:#181818;stroke-width:1.0;"/></g><!--MD5=[7d0a02b475bde5c2caceb025eed1e627]
reverse link GET_Request to Request--><g id="link_GET_Request_Request"><path codeLine="54" d="M112.27,133.5069 C135.82,153.4169 165.01,178.0969 185.13,195.1069 " fill="none" id="GET_Request-backto-Request" style="stroke:#181818;stroke-width:1.0;"/><polygon fill="none" points="107.44,138.5869,96.69,120.3269,116.48,127.8969,107.44,138.5869" style="stroke:#181818;stroke-width:1.0;"/></g><!--MD5=[a12104202e037ba8f47a6970a6d2152c]
reverse link GET_Request to GET_Payload--><g id="link_GET_Request_GET_Payload"><path codeLine="55" d="M80.78,133.1569 C92.96,183.3169 118.05,281.7569 146,363.2969 C150.12,375.3269 155.49,388.4969 160,399.0369 " fill="none" id="GET_Request-backto-GET_Payload" style="stroke:#181818;stroke-width:1.0;"/><polygon fill="#181818" points="77.7,120.3369,75.2168,127.1069,80.511,132.003,82.9942,125.233,77.7,120.3369" style="stroke:#181818;stroke-width:1.0;"/></g><!--MD5=[aa8425c2d1bdf368f443d9c8841ac1db]
reverse link POST_Request to Request--><g id="link_POST_Request_Request"><path codeLine="56" d="M308.92,133.2169 C284.62,153.1769 254.38,178.0169 233.58,195.1069 " fill="none" id="POST_Request-backto-Request" style="stroke:#181818;stroke-width:1.0;"/><polygon fill="none" points="304.72,127.6169,324.61,120.3269,313.6,138.4369,304.72,127.6169" style="stroke:#181818;stroke-width:1.0;"/></g><!--MD5=[22b640980aaaefc6c25383d19223790a]
reverse link PUT_Request to Request--><g id="link_PUT_Request_Request"><path codeLine="57" d="M209,140.6069 C209,159.0369 209,180.0669 209,195.1069 " fill="none" id="PUT_Request-backto-Request" style="stroke:#181818;stroke-width:1.0;"/><polygon fill="none" points="202,140.3269,209,120.3269,216,140.3269,202,140.3269" style="stroke:#181818;stroke-width:1.0;"/></g><!--MD5=[3b81747711c998b081472914e0291c0a]
reverse link IdentifiedLocations to Identifier--><g id="link_IdentifiedLocations_Identifier"><path codeLine="69" d="M1043.08,351.4269 C1025.85,382.4769 997.16,429.8769 965,465.2969 C947.46,484.6169 924.35,502.8869 906.07,516.0569 " fill="none" id="IdentifiedLocations-backto-Identifier" style="stroke:#181818;stroke-width:1.0;"/><polygon fill="#181818" points="1049.53,339.6069,1043.1447,342.9577,1043.7819,350.1406,1050.1672,346.7898,1049.53,339.6069" style="stroke:#181818;stroke-width:1.0;"/></g><!--MD5=[bc959123ed75abb4d5995e05920944e2]
reverse link IdentifiedLocations to Location--><g id="link_IdentifiedLocations_Location"><path codeLine="70" d="M1071.39,351.8369 C1076.84,367.4069 1083.19,385.5469 1087.93,399.0869 " fill="none" id="IdentifiedLocations-backto-Location" style="stroke:#181818;stroke-width:1.0;"/><polygon fill="#181818" points="1067.08,339.5369,1065.2892,346.5221,1071.0483,350.8617,1072.8391,343.8765,1067.08,339.5369" style="stroke:#181818;stroke-width:1.0;"/></g><!--MD5=[1ffbaf575c53f0d19c4c0825ae4c2bef]
reverse link Location to ReplierLocation--><g id="link_Location_ReplierLocation"><path codeLine="71" d="M1129.37,455.6669 C1149.07,475.3669 1173.13,499.4269 1189.81,516.1069 " fill="none" id="Location-backto-ReplierLocation" style="stroke:#181818;stroke-width:1.0;"/><polygon fill="none" points="1124.22,460.4169,1115.03,441.3269,1134.12,450.5169,1124.22,460.4169" style="stroke:#181818;stroke-width:1.0;"/></g><!--MD5=[07b493fba93b51c65457c0d7b0f9cb5a]
reverse link Location to PublisherLocation--><g id="link_Location_PublisherLocation"><path codeLine="72" d="M1081.4,460.3969 C1074.89,479.1169 1067.37,500.7469 1062.02,516.1069 " fill="none" id="Location-backto-PublisherLocation" style="stroke:#181818;stroke-width:1.0;"/><polygon fill="none" points="1074.85,457.9169,1088.03,441.3269,1088.07,462.5169,1074.85,457.9169" style="stroke:#181818;stroke-width:1.0;"/></g><!--MD5=[807d41af6bf11d584a72a78c31854187]
reverse link Node to ReplierLocation--><g id="link_Node_ReplierLocation"><path codeLine="73" d="M1194.3,454.2169 C1198.12,474.1769 1202.87,499.0169 1206.14,516.1069 " fill="none" id="Node-backto-ReplierLocation" style="stroke:#181818;stroke-width:1.0;"/><polygon fill="#181818" points="1191.83,441.3269,1189.0298,447.9721,1194.0869,453.1127,1196.8871,446.4675,1191.83,441.3269" style="stroke:#181818;stroke-width:1.0;"/></g><!--MD5=[c4b70668b4abc25c3d0ee3d3eb88ab91]
reverse link Node to PublisherLocation--><g id="link_Node_PublisherLocation"><path codeLine="74" d="M1160.15,450.8569 C1155.21,455.7869 1150.03,460.7669 1145,465.2969 C1124.87,483.3969 1100.73,502.3069 1082.52,516.0469 " fill="none" id="Node-backto-PublisherLocation" style="stroke:#181818;stroke-width:1.0;"/><polygon fill="#181818" points="1169.26,441.5569,1162.2036,443.0424,1160.8609,450.1274,1167.9173,448.6419,1169.26,441.5569" style="stroke:#181818;stroke-width:1.0;"/></g><!--MD5=[97d1471a22c158d0fb3c5c28a75ec978]
reverse link Nodes to Node--><g id="link_Nodes_Node"><path codeLine="75" d="M1188,352.7769 C1188,368.1269 1188,385.8169 1188,399.0869 " fill="none" id="Nodes-backto-Node" style="stroke:#181818;stroke-width:1.0;"/><polygon fill="#181818" points="1188,339.5369,1184,345.5369,1188,351.5369,1192,345.5369,1188,339.5369" style="stroke:#181818;stroke-width:1.0;"/></g><!--MD5=[9b0972383eee59698ba76a438d3eb8f5]
reverse link Index to Nodes--><g id="link_Index_Nodes"><path codeLine="76" d="M1092.07,242.3469 C1113.74,259.2769 1141.98,281.3469 1162.2,297.1469 " fill="none" id="Index-backto-Nodes" style="stroke:#181818;stroke-width:1.0;"/><polygon fill="#181818" points="1081.71,234.2569,1083.9765,241.1025,1091.1673,241.6433,1088.9008,234.7977,1081.71,234.2569" style="stroke:#181818;stroke-width:1.0;"/></g><!--MD5=[ed0da03d285636e94e2bfbd04921f6dc]
reverse link Index to IdentifiedLocations--><g id="link_Index_IdentifiedLocations"><path codeLine="77" d="M1060,250.7769 C1060,266.1269 1060,283.8169 1060,297.0869 " fill="none" id="Index-backto-IdentifiedLocations" style="stroke:#181818;stroke-width:1.0;"/><polygon fill="#181818" points="1060,237.5369,1056,243.5369,1060,249.5369,1064,243.5369,1060,237.5369" style="stroke:#181818;stroke-width:1.0;"/></g><!--MD5=[0a977954ffcc5d04492ecba4b11f58c3]
reverse link Chunk to Identifier--><g id="link_Chunk_Identifier"><path codeLine="87" d="M561.98,235.1369 C564,235.9069 566.02,236.6269 568,237.2969 C682.45,275.8169 749.54,210.0269 833,297.2969 C891.42,358.3869 884.71,470.3869 879.05,516.0769 " fill="none" id="Chunk-backto-Identifier" style="stroke:#181818;stroke-width:1.0;"/><polygon fill="#181818" points="549.7,230.0369,553.7086,236.0311,560.7835,234.6363,556.7749,228.6421,549.7,230.0369" style="stroke:#181818;stroke-width:1.0;"/></g><!--MD5=[fd3a6f8866aa4714500caeab42fa824a]
reverse link Chunk to Chunks--><g id="link_Chunk_Chunks"><path codeLine="88" d="M513.23,250.7769 C512.61,266.1269 513.86,283.8169 516.72,297.0869 " fill="none" id="Chunk-backto-Chunks" style="stroke:#181818;stroke-width:1.0;"/><polygon fill="#181818" points="514.33,237.5369,509.8492,243.1868,513.3411,249.4961,517.8219,243.8461,514.33,237.5369" style="stroke:#181818;stroke-width:1.0;"/></g><!--MD5=[d473538eae03df56030eed4cc4bffc02]
reverse link Chunks to Chunk--><g id="link_Chunks_Chunk"><path codeLine="89" d="M539.48,283.8469 C540.17,268.5069 538.89,250.8169 535.91,237.5369 " fill="none" id="Chunks-backto-Chunk" style="stroke:#181818;stroke-width:1.0;"/><polygon fill="#181818" points="538.28,297.0869,542.804,291.4714,539.3605,285.1356,534.8365,290.7511,538.28,297.0869" style="stroke:#181818;stroke-width:1.0;"/></g><!--MD5=[57e3c164a6f12738db40ba5db71f7ba6]
reverse link Chunk to Data--><g id="link_Chunk_Data"><path codeLine="90" d="M563.66,250.6269 C583.85,267.5869 607.48,287.4469 623.67,301.0469 " fill="none" id="Chunk-backto-Data" style="stroke:#181818;stroke-width:1.0;"/><polygon fill="none" points="558.89,255.7569,548.08,237.5369,567.9,245.0369,558.89,255.7569" style="stroke:#181818;stroke-width:1.0;"/></g><!--MD5=[91c72a853c2b34172bbf82bb10d87545]
reverse link Data to any--><g id="link_Data_any"><path codeLine="91" d="M613.16,340.4969 C601.56,348.2269 587.96,356.6869 575,363.2969 C535.52,383.4369 521.49,379.1769 482,399.2969 C476.64,402.0269 471.03,405.4569 466.09,408.6869 " fill="none" id="Data-backto-any" style="stroke:#181818;stroke-width:1.0;"/><polygon fill="#181818" points="623.99,333.1069,616.7793,333.1838,614.0769,339.8694,621.2876,339.7925,623.99,333.1069" style="stroke:#181818;stroke-width:1.0;"/></g><!--MD5=[dd07d17bf9e658542c6cd1b92b3f3422]
reverse link Data to Computation--><g id="link_Data_Computation"><path codeLine="92" d="M654.91,358.9969 C659.03,372.7369 663.48,387.5769 666.94,399.0869 " fill="none" id="Data-backto-Computation" style="stroke:#181818;stroke-width:1.0;"/><polygon fill="none" points="648.11,360.6969,649.07,339.5369,661.52,356.6769,648.11,360.6969" style="stroke:#181818;stroke-width:1.0;"/></g><!--MD5=[6b3f5d029321b27a77a4173d6d1ecbeb]
reverse link Computation to Identifier--><g id="link_Computation_Identifier"><path codeLine="93" d="M720.1,447.9769 C757.92,469.4069 810.05,498.9369 843.39,517.8269 " fill="none" id="Computation-backto-Identifier" style="stroke:#181818;stroke-width:1.0;"/><polygon fill="#181818" points="708.36,441.3269,711.613,447.7626,718.8048,447.235,715.5518,440.7994,708.36,441.3269" style="stroke:#181818;stroke-width:1.0;"/></g><!--MD5=[4b9535732a531a072f33c44d741da7a5]
reverse link Computation to function--><g id="link_Computation_function"><path codeLine="94" d="M673,454.5069 C673,474.4169 673,499.0969 673,516.1069 " fill="none" id="Computation-backto-function" style="stroke:#181818;stroke-width:1.0;"/><polygon fill="#181818" points="673,441.3269,669,447.3269,673,453.3269,677,447.3269,673,441.3269" style="stroke:#181818;stroke-width:1.0;"/></g><!--MD5=[c6d63e14706f23e1ed7e1a33348a879b]
reverse link IdentifiedEventuals to Identifier--><g id="link_IdentifiedEventuals_Identifier"><path codeLine="95" d="M734.4,220.8669 C789.23,228.0269 857.89,247.2669 894,297.2969 C942.46,364.4369 904.7,471.6169 885.49,516.0169 " fill="none" id="IdentifiedEventuals-backto-Identifier" style="stroke:#181818;stroke-width:1.0;"/><polygon fill="#181818" points="721.15,219.3369,726.6484,224.0024,733.0699,220.7214,727.5714,216.0558,721.15,219.3369" style="stroke:#181818;stroke-width:1.0;"/></g><!--MD5=[4a17a66cfc1f3075320783ab03e735c1]
reverse link IdentifiedEventuals to Promise--><g id="link_IdentifiedEventuals_Promise"><path codeLine="96" d="M689.92,245.4769 C711.45,261.9169 738.1,282.2569 757.53,297.0869 " fill="none" id="IdentifiedEventuals-backto-Promise" style="stroke:#181818;stroke-width:1.0;"/><polygon fill="#181818" points="679.51,237.5369,681.8516,244.3572,689.0479,244.8189,686.7063,237.9986,679.51,237.5369" style="stroke:#181818;stroke-width:1.0;"/></g><!--MD5=[68e0a65239559461a235d1038964e7ab]
reverse link Promise to Data--><g id="link_Promise_Data"><path codeLine="97" d="M739.46,318.2969 C713.64,318.2969 687.82,318.2969 662,318.2969 " fill="none" id="Promise-backto-Data" style="stroke:#181818;stroke-width:1.0;"/><polygon fill="#181818" points="752.55,318.2969,746.55,314.2969,740.55,318.2969,746.55,322.2969,752.55,318.2969" style="stroke:#181818;stroke-width:1.0;"/></g><!--MD5=[2415276badd8d72778fbfbda5860bf25]
reverse link Promise to Computation--><g id="link_Promise_Computation"><path codeLine="98" d="M752.83,348.7569 C747.57,353.6469 742.15,358.6369 737,363.2969 C723.65,375.3869 708.48,388.6669 696.27,399.2669 " fill="none" id="Promise-backto-Computation" style="stroke:#181818;stroke-width:1.0;"/><polygon fill="#181818" points="762.61,339.6069,755.4957,340.7842,753.8461,347.8041,760.9605,346.6268,762.61,339.6069" style="stroke:#181818;stroke-width:1.0;"/></g><!--MD5=[af0a72874d117036fa4d77f2b41168a6]
reverse link Repository to Index--><g id="link_Repository_Index"><path codeLine="105" d="M938.78,128.1669 C969.94,150.5669 1012.58,181.2169 1038.1,199.5569 " fill="none" id="Repository-backto-Index" style="stroke:#181818;stroke-width:1.0;"/><polygon fill="#181818" points="927.87,120.3269,930.4085,127.0764,937.6152,127.3291,935.0767,120.5796,927.87,120.3269" style="stroke:#181818;stroke-width:1.0;"/></g><!--MD5=[5454adb5d7533420b1eb60906459eb62]
reverse link Repository to IdentifiedEventuals--><g id="link_Repository_IdentifiedEventuals"><path codeLine="106" d="M866.39,128.3669 C858.66,134.0769 850.27,139.7369 842,144.2969 C803.64,165.4669 757.68,182.8869 720.69,195.1769 " fill="none" id="Repository-backto-IdentifiedEventuals" style="stroke:#181818;stroke-width:1.0;"/><polygon fill="#181818" points="876.8,120.3569,869.606,120.8533,867.2973,127.6849,874.4913,127.1884,876.8,120.3569" style="stroke:#181818;stroke-width:1.0;"/></g><!--MD5=[f7e4c0e757756687131f68216f669537]
reverse link AssociativeArray to IdentifiedLocations--><g id="link_AssociativeArray_IdentifiedLocations"><path codeLine="107" d="M809.42,132.3469 C870.83,177.6769 981.27,259.1869 1032.51,297.0069 " fill="none" id="AssociativeArray-backto-IdentifiedLocations" style="stroke:#181818;stroke-width:1.0;"/><polygon fill="none" points="805.07,137.8269,793.13,120.3269,813.38,126.5669,805.07,137.8269" style="stroke:#181818;stroke-width:1.0;"/></g><!--MD5=[5b11dd94630b62fafdecd9bf4e1aec26]
reverse link AssociativeArray to IdentifiedEventuals--><g id="link_AssociativeArray_IdentifiedEventuals"><path codeLine="108" d="M732.23,134.6669 C712.87,154.3669 689.23,178.4269 672.84,195.1069 " fill="none" id="AssociativeArray-backto-IdentifiedEventuals" style="stroke:#181818;stroke-width:1.0;"/><polygon fill="none" points="727.31,129.6869,746.32,120.3269,737.29,139.4969,727.31,129.6869" style="stroke:#181818;stroke-width:1.0;"/></g><!--MD5=[6b2d0af8763393e95ab16a8aa4eade21]
@startuml
skinparam monochrome true
skinparam shadowing false
skinparam style strictuml

title Structure and Relationships of the Main Classes within the Source Files

package identification.R {
class Identifier {
}
}

package communication.R {
class Context
class Endpoint
class Connector
class Binder
class Requester
class Subscriber
class Replier
class Publisher
class Listener
class Speaker
class Communicator
}

Endpoint *- - Context
Endpoint <|- - Connector
Endpoint <|- - Binder
Connector <|- - Requester
Connector <|- - Subscriber
Binder <|- - Replier
Binder <|- - Publisher
Listener *- - Replier
Listener *- - Subscriber
Speaker *- - Requester
Speaker *- - Publisher
Communicator *- - Listener
Communicator *- - Speaker

package interpellation.R {
class Payload
class GET_Payload
class Header
class Request
class GET_Request
class POST_Request
class PUT_Request
}

Payload *- - any
Payload <|- - GET_Payload
Request *- - Header
Request *- - Payload
GET_Request <|- - Request
GET_Request *- - GET_Payload
POST_Request <|- - Request
PUT_Request <|- - Request

package location.R {
class Location
class IdentifiedLocations
class ReplierLocation
class PublisherLocation
class Node
class Nodes
class Index
}

IdentifiedLocations *- - Identifier
IdentifiedLocations *- - Location
Location <|- - ReplierLocation
Location <|- - PublisherLocation
Node *- - ReplierLocation
Node *- - PublisherLocation
Nodes *- - Node
Index *- - Nodes
Index *- - IdentifiedLocations

package information.R {
class Chunk
class Chunks
class Data
class Computation
Class IdentifiedEventuals
}

Chunk *- - Identifier
Chunk *- - Chunks
Chunks *- - Chunk
Chunk <|- - Data
Data *- - any
Data <|- - Computation
Computation *- - Identifier
Computation *- - function
IdentifiedEventuals *- - Identifier
IdentifiedEventuals *- - Promise
Promise *- - Data
Promise *- - Computation

package tabulation.R {
class Repository
class AssociativeArray
}

Repository *- - Index
Repository *- - IdentifiedEventuals
AssociativeArray <|- - IdentifiedLocations
AssociativeArray <|- - IdentifiedEventuals
@enduml

PlantUML version 1.2022.2(Sun Mar 06 05:30:19 NZDT 2022)
(GPL source distribution)
Java Runtime: OpenJDK Runtime Environment
JVM: OpenJDK 64-Bit Server VM
Default Encoding: UTF-8
Language: en
Country: NZ
--></g></svg>