<?xml version="1.0" encoding="UTF-8" standalone="no"?><svg xmlns="http://www.w3.org/2000/svg" xmlns:xlink="http://www.w3.org/1999/xlink" contentStyleType="text/css" height="251px" preserveAspectRatio="none" style="width:110px;height:251px;background:#FFFFFF;" version="1.1" viewBox="0 0 110 251" width="110px" zoomAndPan="magnify"><defs/><g><!--MD5=[3fee75583bb7a64f68d843a3c9534ab3]
class Node--><g id="elem_Node"><rect codeLine="2" fill="#F1F1F1" height="113.1875" id="Node" rx="2.5" ry="2.5" style="stroke:#181818;stroke-width:0.5;" width="96" x="7" y="7"/><ellipse cx="34.15" cy="23" fill="#ADD1B2" rx="11" ry="11" style="stroke:#181818;stroke-width:1.0;"/><path d="M38.2594,29 L30.5406,29 L30.5406,16.6094 L38.2594,16.6094 L38.2594,18.7656 L32.9938,18.7656 L32.9938,21.4375 L37.7594,21.4375 L37.7594,23.5938 L32.9938,23.5938 L32.9938,26.8438 L38.2594,26.8438 L38.2594,29 Z " fill="#000000"/><text fill="#000000" font-family="sans-serif" font-size="14" lengthAdjust="spacing" textLength="37" x="50.85" y="27.8467">Node</text><line style="stroke:#181818;stroke-width:0.5;" x1="8" x2="102" y1="39" y2="39"/><ellipse cx="18" cy="50" fill="#000000" rx="3" ry="3" style="stroke:#000000;stroke-width:1.0;"/><text fill="#000000" font-family="sans-serif" font-size="14" lengthAdjust="spacing" textLength="70" x="27" y="55.9951">node_href</text><line style="stroke:#181818;stroke-width:1.0;" x1="8" x2="102" y1="63.2969" y2="63.2969"/><ellipse cx="18" cy="74.2969" fill="#000000" rx="3" ry="3" style="stroke:#000000;stroke-width:1.0;"/><text fill="#000000" font-family="sans-serif" font-size="14" lengthAdjust="spacing" textLength="56" x="27" y="80.292">address</text><ellipse cx="18" cy="90.5938" fill="#000000" rx="3" ry="3" style="stroke:#000000;stroke-width:1.0;"/><text fill="#000000" font-family="sans-serif" font-size="14" lengthAdjust="spacing" textLength="28" x="27" y="96.5889">port</text><text fill="#000000" font-family="sans-serif" font-size="14" lengthAdjust="spacing" textLength="50" x="27" y="112.8857">loading</text></g><!--MD5=[60c9ed31c535bee25c55ce21b5b01399]
class Data--><g id="elem_Data"><rect codeLine="10" fill="#F1F1F1" height="64.2969" id="Data" rx="2.5" ry="2.5" style="stroke:#181818;stroke-width:0.5;" width="90" x="10" y="180"/><ellipse cx="36.7" cy="196" fill="#ADD1B2" rx="11" ry="11" style="stroke:#181818;stroke-width:1.0;"/><path d="M40.8094,202 L33.0906,202 L33.0906,189.6094 L40.8094,189.6094 L40.8094,191.7656 L35.5438,191.7656 L35.5438,194.4375 L40.3094,194.4375 L40.3094,196.5938 L35.5438,196.5938 L35.5438,199.8438 L40.8094,199.8438 L40.8094,202 Z " fill="#000000"/><text fill="#000000" font-family="sans-serif" font-size="14" lengthAdjust="spacing" textLength="32" x="53.3" y="200.8467">Data</text><line style="stroke:#181818;stroke-width:0.5;" x1="11" x2="99" y1="212" y2="212"/><ellipse cx="21" cy="223" fill="#000000" rx="3" ry="3" style="stroke:#000000;stroke-width:1.0;"/><text fill="#000000" font-family="sans-serif" font-size="14" lengthAdjust="spacing" textLength="64" x="30" y="228.9951">data_href</text><line style="stroke:#181818;stroke-width:0.5;" x1="11" x2="99" y1="236.2969" y2="236.2969"/></g><!--MD5=[411b281138edea6ddeca4062ecf276ab]
link Node to Data--><g id="link_Node_Data"><path codeLine="14" d="M55,128.44 C55,143.23 55,158.54 55,171.9 " fill="none" id="Node-Data" style="stroke:#181818;stroke-width:1.0;"/><line style="stroke:#181818;stroke-width:1.0;" x1="55" x2="61" y1="171.94" y2="179.94"/><line style="stroke:#181818;stroke-width:1.0;" x1="55" x2="49" y1="171.94" y2="179.94"/><line style="stroke:#181818;stroke-width:1.0;" x1="55" x2="55" y1="171.94" y2="179.94"/><ellipse cx="55" cy="165.94" fill="none" rx="4" ry="4" style="stroke:#181818;stroke-width:1.0;"/><line style="stroke:#181818;stroke-width:1.0;" x1="55" x2="49" y1="128.3" y2="120.3"/><line style="stroke:#181818;stroke-width:1.0;" x1="55" x2="61" y1="128.3" y2="120.3"/><line style="stroke:#181818;stroke-width:1.0;" x1="55" x2="55" y1="128.3" y2="120.3"/><line style="stroke:#181818;stroke-width:1.0;" x1="51" x2="59" y1="130.3" y2="130.3"/></g><!--MD5=[2616ab6b03af6bb732e2d2d04fbfb37f]
@startuml

entity Node {
	* node_href
	- -
	* address
	* port
	loading
}

entity Data {
	* data_href
}

Node }|- -o{ Data

@enduml

PlantUML version 1.2022.2(Sun Mar 06 05:30:19 NZDT 2022)
(GPL source distribution)
Java Runtime: OpenJDK Runtime Environment
JVM: OpenJDK 64-Bit Server VM
Default Encoding: UTF-8
Language: en
Country: NZ
--></g></svg>