<?xml version="1.0" encoding="UTF-8" standalone="no"?><svg xmlns="http://www.w3.org/2000/svg" xmlns:xlink="http://www.w3.org/1999/xlink" contentScriptType="application/ecmascript" contentStyleType="text/css" height="240px" preserveAspectRatio="none" style="width:104px;height:240px;background:#FFFFFF;" version="1.1" viewBox="0 0 104 240" width="104px" zoomAndPan="magnify"><defs><filter height="300%" id="fqnze2ey8sxgr" width="300%" x="-1" y="-1"><feGaussianBlur result="blurOut" stdDeviation="2.0"/><feColorMatrix in="blurOut" result="blurOut2" type="matrix" values="0 0 0 0 0 0 0 0 0 0 0 0 0 0 0 0 0 0 .4 0"/><feOffset dx="4.0" dy="4.0" in="blurOut2" result="blurOut3"/><feBlend in="SourceGraphic" in2="blurOut3" mode="normal"/></filter></defs><g><!--MD5=[3fee75583bb7a64f68d843a3c9534ab3]
class Node--><rect codeLine="2" fill="#FEFECE" filter="url(#fqnze2ey8sxgr)" height="99.2188" id="Node" style="stroke:#A80036;stroke-width:1.5;" width="83" x="7" y="7"/><ellipse cx="30.1" cy="23" fill="#ADD1B2" rx="11" ry="11" style="stroke:#A80036;stroke-width:1.0;"/><path d="M34.2094,29 L26.4906,29 L26.4906,16.6094 L34.2094,16.6094 L34.2094,18.7656 L28.9438,18.7656 L28.9438,21.4375 L33.7094,21.4375 L33.7094,23.5938 L28.9438,23.5938 L28.9438,26.8438 L34.2094,26.8438 L34.2094,29 Z " fill="#000000"/><text fill="#000000" font-family="sans-serif" font-size="12" lengthAdjust="spacing" textLength="33" x="45.9" y="27.1543">Node</text><line style="stroke:#A80036;stroke-width:1.5;" x1="8" x2="89" y1="39" y2="39"/><ellipse cx="18" cy="50" fill="#000000" rx="3" ry="3" style="stroke:#000000;stroke-width:1.0;"/><text fill="#000000" font-family="sans-serif" font-size="11" lengthAdjust="spacing" textLength="57" x="27" y="53.2104">node_href</text><line style="stroke:#A80036;stroke-width:1.0;" x1="8" x2="89" y1="59.8047" y2="59.8047"/><ellipse cx="18" cy="70.8047" fill="#000000" rx="3" ry="3" style="stroke:#000000;stroke-width:1.0;"/><text fill="#000000" font-family="sans-serif" font-size="11" lengthAdjust="spacing" textLength="47" x="27" y="74.0151">address</text><ellipse cx="18" cy="83.6094" fill="#000000" rx="3" ry="3" style="stroke:#000000;stroke-width:1.0;"/><text fill="#000000" font-family="sans-serif" font-size="11" lengthAdjust="spacing" textLength="23" x="27" y="86.8198">port</text><text fill="#000000" font-family="sans-serif" font-size="11" lengthAdjust="spacing" textLength="41" x="27" y="99.6245">loading</text><!--MD5=[60c9ed31c535bee25c55ce21b5b01399]
class Data--><rect codeLine="10" fill="#FEFECE" filter="url(#fqnze2ey8sxgr)" height="60.8047" id="Data" style="stroke:#A80036;stroke-width:1.5;" width="80" x="8.5" y="166"/><ellipse cx="31.6" cy="182" fill="#ADD1B2" rx="11" ry="11" style="stroke:#A80036;stroke-width:1.0;"/><path d="M35.7094,188 L27.9906,188 L27.9906,175.6094 L35.7094,175.6094 L35.7094,177.7656 L30.4438,177.7656 L30.4438,180.4375 L35.2094,180.4375 L35.2094,182.5938 L30.4438,182.5938 L30.4438,185.8438 L35.7094,185.8438 L35.7094,188 Z " fill="#000000"/><text fill="#000000" font-family="sans-serif" font-size="12" lengthAdjust="spacing" textLength="30" x="47.4" y="186.1543">Data</text><line style="stroke:#A80036;stroke-width:1.5;" x1="9.5" x2="87.5" y1="198" y2="198"/><ellipse cx="19.5" cy="209" fill="#000000" rx="3" ry="3" style="stroke:#000000;stroke-width:1.0;"/><text fill="#000000" font-family="sans-serif" font-size="11" lengthAdjust="spacing" textLength="54" x="28.5" y="212.2104">data_href</text><line style="stroke:#A80036;stroke-width:1.5;" x1="9.5" x2="87.5" y1="218.8047" y2="218.8047"/><!--MD5=[411b281138edea6ddeca4062ecf276ab]
link Node to Data--><path codeLine="14" d="M48.5,114.18 C48.5,128.83 48.5,144.23 48.5,157.65 " fill="none" id="Node-Data" style="stroke:#A80036;stroke-width:1.0;"/><line style="stroke:#A80036;stroke-width:1.0;" x1="48.5" x2="54.5" y1="157.73" y2="165.73"/><line style="stroke:#A80036;stroke-width:1.0;" x1="48.5" x2="42.5" y1="157.73" y2="165.73"/><line style="stroke:#A80036;stroke-width:1.0;" x1="48.5" x2="48.5" y1="157.73" y2="165.73"/><ellipse cx="48.5" cy="151.73" rx="4" ry="4" style="stroke:#A80036;stroke-width:1.0;fill:none;"/><line style="stroke:#A80036;stroke-width:1.0;fill:none;" x1="48.5" x2="42.5" y1="114.15" y2="106.15"/><line style="stroke:#A80036;stroke-width:1.0;fill:none;" x1="48.5" x2="54.5" y1="114.15" y2="106.15"/><line style="stroke:#A80036;stroke-width:1.0;fill:none;" x1="48.5" x2="48.5" y1="114.15" y2="106.15"/><line style="stroke:#A80036;stroke-width:1.0;fill:none;" x1="44.5" x2="52.5" y1="116.15" y2="116.15"/><!--MD5=[11476d82bf7bfcc9f167b11972acaed2]
@startuml

entity Node {
	* node_href
	- -
	* address
	* port
	loading
}

entity Data {
	* data_href
}

Node }|- -o{ Data

@enduml

PlantUML version 1.2021.15(Wed Dec 01 05:45:34 NZDT 2021)
(GPL source distribution)
Java Runtime: OpenJDK Runtime Environment
JVM: OpenJDK 64-Bit Server VM
Default Encoding: UTF-8
Language: en
Country: NZ
--></g></svg>