<?xml version="1.0" encoding="UTF-8" standalone="no"?>
<!DOCTYPE svg PUBLIC "-//W3C//DTD SVG 1.1//EN"
 "http://www.w3.org/Graphics/SVG/1.1/DTD/svg11.dtd">
<!-- Generated by graphviz version 2.42.3 (20191010.1750)
 -->
<!-- Title: G Pages: 1 -->
<svg width="418pt" height="620pt"
 viewBox="0.00 0.00 417.57 620.00" xmlns="http://www.w3.org/2000/svg" xmlns:xlink="http://www.w3.org/1999/xlink">
<g id="graph0" class="graph" transform="scale(1 1) rotate(0) translate(4 616)">
<title>G</title>
<polygon fill="white" stroke="transparent" points="-4,4 -4,-616 413.57,-616 413.57,4 -4,4"/>
<!-- Data_Identifier_546740 -->
<g id="node1" class="node">
<title>Data_Identifier_546740</title>
<ellipse fill="none" stroke="black" cx="157.29" cy="-594" rx="119.68" ry="18"/>
<text text-anchor="middle" x="157.29" y="-590.3" font-family="Times,serif" font-size="14.00">Data_Identifier_546740</text>
</g>
<!-- Computation_Identifier_686206 -->
<g id="node2" class="node">
<title>Computation_Identifier_686206</title>
<ellipse fill="none" stroke="black" cx="157.29" cy="-522" rx="157.07" ry="18"/>
<text text-anchor="middle" x="157.29" y="-518.3" font-family="Times,serif" font-size="14.00">Computation_Identifier_686206</text>
</g>
<!-- Data_Identifier_546740&#45;&gt;Computation_Identifier_686206 -->
<g id="edge1" class="edge">
<title>Data_Identifier_546740&#45;&gt;Computation_Identifier_686206</title>
<path fill="none" stroke="black" d="M157.29,-575.7C157.29,-567.98 157.29,-558.71 157.29,-550.11"/>
<polygon fill="black" stroke="black" points="160.79,-550.1 157.29,-540.1 153.79,-550.1 160.79,-550.1"/>
</g>
<!-- Data_Identifier_187927 -->
<g id="node3" class="node">
<title>Data_Identifier_187927</title>
<ellipse fill="none" stroke="black" cx="157.29" cy="-450" rx="119.68" ry="18"/>
<text text-anchor="middle" x="157.29" y="-446.3" font-family="Times,serif" font-size="14.00">Data_Identifier_187927</text>
</g>
<!-- Computation_Identifier_686206&#45;&gt;Data_Identifier_187927 -->
<g id="edge2" class="edge">
<title>Computation_Identifier_686206&#45;&gt;Data_Identifier_187927</title>
<path fill="none" stroke="black" d="M157.29,-503.7C157.29,-495.98 157.29,-486.71 157.29,-478.11"/>
<polygon fill="black" stroke="black" points="160.79,-478.1 157.29,-468.1 153.79,-478.1 160.79,-478.1"/>
</g>
<!-- Computation_Identifier_891278 -->
<g id="node4" class="node">
<title>Computation_Identifier_891278</title>
<ellipse fill="none" stroke="black" cx="157.29" cy="-378" rx="157.07" ry="18"/>
<text text-anchor="middle" x="157.29" y="-374.3" font-family="Times,serif" font-size="14.00">Computation_Identifier_891278</text>
</g>
<!-- Data_Identifier_187927&#45;&gt;Computation_Identifier_891278 -->
<g id="edge3" class="edge">
<title>Data_Identifier_187927&#45;&gt;Computation_Identifier_891278</title>
<path fill="none" stroke="black" d="M157.29,-431.7C157.29,-423.98 157.29,-414.71 157.29,-406.11"/>
<polygon fill="black" stroke="black" points="160.79,-406.1 157.29,-396.1 153.79,-406.1 160.79,-406.1"/>
</g>
<!-- Data_Identifier_452060 -->
<g id="node5" class="node">
<title>Data_Identifier_452060</title>
<ellipse fill="none" stroke="black" cx="157.29" cy="-306" rx="119.68" ry="18"/>
<text text-anchor="middle" x="157.29" y="-302.3" font-family="Times,serif" font-size="14.00">Data_Identifier_452060</text>
</g>
<!-- Computation_Identifier_891278&#45;&gt;Data_Identifier_452060 -->
<g id="edge4" class="edge">
<title>Computation_Identifier_891278&#45;&gt;Data_Identifier_452060</title>
<path fill="none" stroke="black" d="M157.29,-359.7C157.29,-351.98 157.29,-342.71 157.29,-334.11"/>
<polygon fill="black" stroke="black" points="160.79,-334.1 157.29,-324.1 153.79,-334.1 160.79,-334.1"/>
</g>
<!-- Computation_Identifier_740676 -->
<g id="node6" class="node">
<title>Computation_Identifier_740676</title>
<ellipse fill="none" stroke="black" cx="157.29" cy="-234" rx="157.07" ry="18"/>
<text text-anchor="middle" x="157.29" y="-230.3" font-family="Times,serif" font-size="14.00">Computation_Identifier_740676</text>
</g>
<!-- Data_Identifier_452060&#45;&gt;Computation_Identifier_740676 -->
<g id="edge5" class="edge">
<title>Data_Identifier_452060&#45;&gt;Computation_Identifier_740676</title>
<path fill="none" stroke="black" d="M157.29,-287.7C157.29,-279.98 157.29,-270.71 157.29,-262.11"/>
<polygon fill="black" stroke="black" points="160.79,-262.1 157.29,-252.1 153.79,-262.1 160.79,-262.1"/>
</g>
<!--  formula  -->
<g id="node7" class="node">
<title> formula </title>
<ellipse fill="none" stroke="black" cx="62.29" cy="-162" rx="52.79" ry="18"/>
<text text-anchor="middle" x="62.29" y="-158.3" font-family="Times,serif" font-size="14.00"> formula </text>
</g>
<!-- Computation_Identifier_740676&#45;&gt; formula  -->
<g id="edge6" class="edge">
<title>Computation_Identifier_740676&#45;&gt; formula </title>
<path fill="none" stroke="black" d="M134.29,-216.05C121.47,-206.61 105.36,-194.74 91.63,-184.63"/>
<polygon fill="black" stroke="black" points="93.57,-181.71 83.45,-178.59 89.42,-187.34 93.57,-181.71"/>
</g>
<!-- Data_Identifier_543373 -->
<g id="node8" class="node">
<title>Data_Identifier_543373</title>
<ellipse fill="none" stroke="black" cx="252.29" cy="-162" rx="119.68" ry="18"/>
<text text-anchor="middle" x="252.29" y="-158.3" font-family="Times,serif" font-size="14.00">Data_Identifier_543373</text>
</g>
<!-- Computation_Identifier_740676&#45;&gt;Data_Identifier_543373 -->
<g id="edge7" class="edge">
<title>Computation_Identifier_740676&#45;&gt;Data_Identifier_543373</title>
<path fill="none" stroke="black" d="M180.28,-216.05C192.54,-207.03 207.78,-195.79 221.09,-185.99"/>
<polygon fill="black" stroke="black" points="223.53,-188.54 229.5,-179.79 219.37,-182.9 223.53,-188.54"/>
</g>
<!-- Computation_Identifier_218822 -->
<g id="node9" class="node">
<title>Computation_Identifier_218822</title>
<ellipse fill="none" stroke="black" cx="252.29" cy="-90" rx="157.07" ry="18"/>
<text text-anchor="middle" x="252.29" y="-86.3" font-family="Times,serif" font-size="14.00">Computation_Identifier_218822</text>
</g>
<!-- Data_Identifier_543373&#45;&gt;Computation_Identifier_218822 -->
<g id="edge8" class="edge">
<title>Data_Identifier_543373&#45;&gt;Computation_Identifier_218822</title>
<path fill="none" stroke="black" d="M252.29,-143.7C252.29,-135.98 252.29,-126.71 252.29,-118.11"/>
<polygon fill="black" stroke="black" points="255.79,-118.1 252.29,-108.1 248.79,-118.1 255.79,-118.1"/>
</g>
<!--  character  -->
<g id="node10" class="node">
<title> character </title>
<ellipse fill="none" stroke="black" cx="252.29" cy="-18" rx="61.19" ry="18"/>
<text text-anchor="middle" x="252.29" y="-14.3" font-family="Times,serif" font-size="14.00"> character </text>
</g>
<!-- Computation_Identifier_218822&#45;&gt; character  -->
<g id="edge9" class="edge">
<title>Computation_Identifier_218822&#45;&gt; character </title>
<path fill="none" stroke="black" d="M252.29,-71.7C252.29,-63.98 252.29,-54.71 252.29,-46.11"/>
<polygon fill="black" stroke="black" points="255.79,-46.1 252.29,-36.1 248.79,-46.1 255.79,-46.1"/>
</g>
</g>
</svg>
