<?xml version="1.0" encoding="UTF-8" standalone="no"?>
<!DOCTYPE svg PUBLIC "-//W3C//DTD SVG 1.1//EN"
 "http://www.w3.org/Graphics/SVG/1.1/DTD/svg11.dtd">
<!-- Generated by graphviz version 2.42.3 (20191010.1750)
 -->
<!-- Title: modref Pages: 1 -->
<svg width="494pt" height="414pt"
 viewBox="0.00 0.00 494.00 414.22" xmlns="http://www.w3.org/2000/svg" xmlns:xlink="http://www.w3.org/1999/xlink">
<g id="graph0" class="graph" transform="scale(1 1) rotate(0) translate(4 410.22)">
<title>modref</title>
<polygon fill="white" stroke="#000000" points="-4,4 -4,-410.22 490,-410.22 490,4 -4,4"/>
<g id="clust1" class="cluster">
<title>cluster_dobjref</title>
<polygon fill="#c2a5cf" stroke="black" points="8,-110.74 8,-398.22 234,-398.22 234,-110.74 8,-110.74"/>
<text text-anchor="middle" x="121" y="-383.02" font-family="Times,serif" font-size="14.00">Distributed Object Reference</text>
<text text-anchor="middle" x="121" y="-368.02" font-family="Times,serif" font-size="14.00">(mutable)</text>
</g>
<g id="clust2" class="cluster">
<title>cluster_chunkref</title>
<polygon fill="#e7d4e8" stroke="black" points="16,-118.74 16,-352.22 226,-352.22 226,-118.74 16,-118.74"/>
<text text-anchor="middle" x="121" y="-337.02" font-family="Times,serif" font-size="14.00">Chunk Reference</text>
<text text-anchor="middle" x="121" y="-322.02" font-family="Times,serif" font-size="14.00">(mutable)</text>
</g>
<g id="clust3" class="cluster">
<title>cluster_worker</title>
<polygon fill="#f7f7f7" stroke="black" points="242,-8 242,-211.48 478,-211.48 478,-8 242,-8"/>
<text text-anchor="middle" x="360" y="-196.28" font-family="Times,serif" font-size="14.00">worker</text>
</g>
<!-- x -->
<g id="node1" class="node">
<title>x</title>
<ellipse fill="#d9f0d3" stroke="black" cx="121" cy="-279.35" rx="96.75" ry="26.74"/>
<text text-anchor="middle" x="121" y="-283.15" font-family="Times,serif" font-size="14.00">chunk descriptor</text>
<text text-anchor="middle" x="121" y="-268.15" font-family="Times,serif" font-size="14.00">(immutable, int)</text>
</g>
<!-- xd -->
<g id="node2" class="node">
<title>xd</title>
<ellipse fill="#d9f0d3" stroke="black" cx="121" cy="-153.61" rx="96.75" ry="26.74"/>
<text text-anchor="middle" x="121" y="-157.41" font-family="Times,serif" font-size="14.00">chunk descriptor</text>
<text text-anchor="middle" x="121" y="-142.41" font-family="Times,serif" font-size="14.00">(immutable, int)</text>
</g>
<!-- x&#45;&gt;xd -->
<g id="edge3" class="edge">
<title>x&#45;&gt;xd</title>
<path fill="none" stroke="black" d="M121,-252.41C121,-234.51 121,-210.47 121,-190.7"/>
<polygon fill="black" stroke="black" points="124.5,-190.52 121,-180.52 117.5,-190.52 124.5,-190.52"/>
<text text-anchor="middle" x="170" y="-223.28" font-family="Times,serif" font-size="14.00">replaced with</text>
</g>
<!-- xc -->
<g id="node3" class="node">
<title>xc</title>
<ellipse fill="#d9f0d3" stroke="black" cx="360" cy="-153.61" rx="109.7" ry="26.74"/>
<text text-anchor="middle" x="360" y="-157.41" font-family="Times,serif" font-size="14.00">original chunk data</text>
<text text-anchor="middle" x="360" y="-142.41" font-family="Times,serif" font-size="14.00">(immutable)</text>
</g>
<!-- x&#45;&gt;xc -->
<g id="edge1" class="edge">
<title>x&#45;&gt;xc</title>
<path fill="none" stroke="black" d="M174.24,-256.9C190.11,-250.12 207.42,-242.33 223,-234.48 253.59,-219.06 286.81,-199.76 312.88,-183.99"/>
<polygon fill="black" stroke="black" points="314.7,-186.98 321.43,-178.79 311.07,-181 314.7,-186.98"/>
<text text-anchor="middle" x="280" y="-223.28" font-family="Times,serif" font-size="14.00">refers to</text>
</g>
<!-- xdc -->
<g id="node4" class="node">
<title>xdc</title>
<ellipse fill="#d9f0d3" stroke="black" cx="346" cy="-42.87" rx="82.05" ry="26.74"/>
<text text-anchor="middle" x="346" y="-46.67" font-family="Times,serif" font-size="14.00">modified copy</text>
<text text-anchor="middle" x="346" y="-31.67" font-family="Times,serif" font-size="14.00">(immutable)</text>
</g>
<!-- xd&#45;&gt;xdc -->
<g id="edge2" class="edge">
<title>xd&#45;&gt;xdc</title>
<path fill="none" stroke="black" d="M167.89,-129.95C203.99,-112.5 253.93,-88.37 291.75,-70.09"/>
<polygon fill="black" stroke="black" points="293.6,-73.08 301.08,-65.58 290.56,-66.78 293.6,-73.08"/>
<text text-anchor="middle" x="284" y="-91.54" font-family="Times,serif" font-size="14.00">refers to</text>
</g>
<!-- xc&#45;&gt;xdc -->
<g id="edge4" class="edge">
<title>xc&#45;&gt;xdc</title>
<path fill="none" stroke="black" d="M356.65,-126.56C354.86,-112.68 352.63,-95.37 350.68,-80.19"/>
<polygon fill="black" stroke="black" points="354.12,-79.55 349.37,-70.08 347.18,-80.45 354.12,-79.55"/>
<text text-anchor="middle" x="386" y="-91.54" font-family="Times,serif" font-size="14.00">copied to</text>
</g>
</g>
</svg>
