<?xml version="1.0" encoding="UTF-8" standalone="no"?><svg xmlns="http://www.w3.org/2000/svg" xmlns:xlink="http://www.w3.org/1999/xlink" contentScriptType="application/ecmascript" contentStyleType="text/css" height="257px" preserveAspectRatio="none" style="width:588px;height:257px;background:#FFFFFF;" version="1.1" viewBox="0 0 588 257" width="588px" zoomAndPan="magnify"><defs/><g><text fill="#000000" font-family="sans-serif" font-size="18" lengthAdjust="spacing" textLength="287" x="152.5" y="28.708">Initialisation of Node by Another</text><rect fill="#FFFFFF" height="89.5625" style="stroke:#383838;stroke-width:1.0;" width="10" x="368" y="143.3828"/><rect fill="#FFFFFF" height="29.1328" style="stroke:#383838;stroke-width:1.0;" width="10" x="523" y="174.6797"/><line style="stroke:#383838;stroke-width:1.0;stroke-dasharray:5.0,5.0;" x1="37" x2="37" y1="102.25" y2="250.9453"/><line style="stroke:#383838;stroke-width:1.0;stroke-dasharray:5.0,5.0;" x1="373" x2="373" y1="142.8984" y2="250.9453"/><line style="stroke:#383838;stroke-width:1.0;stroke-dasharray:5.0,5.0;" x1="528" x2="528" y1="102.25" y2="250.9453"/><rect fill="#F8F8F8" height="30.2969" style="stroke:#383838;stroke-width:1.5;" width="64" x="5" y="70.9531"/><text fill="#000000" font-family="sans-serif" font-size="14" lengthAdjust="spacing" textLength="50" x="12" y="90.9482">Initiator</text><text fill="#000000" font-family="sans-serif" font-size="14" lengthAdjust="spacing" textLength="112" x="469" y="98.9482">Location Service</text><path d="M510,49.9531 C510,39.9531 528,39.9531 528,39.9531 C528,39.9531 546,39.9531 546,49.9531 L546,75.9531 C546,85.9531 528,85.9531 528,85.9531 C528,85.9531 510,85.9531 510,75.9531 L510,49.9531 " fill="#F8F8F8" style="stroke:#000000;stroke-width:1.5;"/><path d="M510,49.9531 C510,59.9531 528,59.9531 528,59.9531 C528,59.9531 546,59.9531 546,49.9531 " fill="none" style="stroke:#000000;stroke-width:1.5;"/><rect fill="#FFFFFF" height="89.5625" style="stroke:#383838;stroke-width:1.0;" width="10" x="368" y="143.3828"/><rect fill="#FFFFFF" height="29.1328" style="stroke:#383838;stroke-width:1.0;" width="10" x="523" y="174.6797"/><polygon fill="#383838" points="327,129.3828,337,133.3828,327,137.3828" style="stroke:#383838;stroke-width:1.0;"/><line style="stroke:#383838;stroke-width:1.0;" x1="37" x2="333" y1="133.3828" y2="133.3828"/><text fill="#000000" font-family="sans-serif" font-size="13" lengthAdjust="spacing" textLength="278" x="49" y="128.3169">Initialisation and Address of location service</text><rect fill="#F8F8F8" height="30.2969" style="stroke:#383838;stroke-width:1.5;" width="68" x="339" y="112.25"/><text fill="#000000" font-family="sans-serif" font-size="14" lengthAdjust="spacing" textLength="54" x="346" y="132.2451">Initiatee</text><polygon fill="#383838" points="511,170.6797,521,174.6797,511,178.6797" style="stroke:#383838;stroke-width:1.0;"/><line style="stroke:#383838;stroke-width:1.0;" x1="378" x2="517" y1="174.6797" y2="174.6797"/><text fill="#000000" font-family="sans-serif" font-size="13" lengthAdjust="spacing" textLength="126" x="387.5" y="169.6138">Announce node join</text><polygon fill="#383838" points="389,199.8125,379,203.8125,389,207.8125" style="stroke:#383838;stroke-width:1.0;"/><line style="stroke:#383838;stroke-width:1.0;stroke-dasharray:2.0,2.0;" x1="383" x2="527" y1="203.8125" y2="203.8125"/><text fill="#000000" font-family="sans-serif" font-size="13" lengthAdjust="spacing" textLength="26" x="440" y="198.7466">ACK</text><polygon fill="#383838" points="48,228.9453,38,232.9453,48,236.9453" style="stroke:#383838;stroke-width:1.0;"/><line style="stroke:#383838;stroke-width:1.0;stroke-dasharray:2.0,2.0;" x1="42" x2="372" y1="232.9453" y2="232.9453"/><text fill="#000000" font-family="sans-serif" font-size="13" lengthAdjust="spacing" textLength="26" x="192" y="227.8794">ACK</text><!--MD5=[4e3f6f6b9e3f8e0a2c22445145d0df30]
@startuml
skinparam monochrome true
skinparam shadowing false
skinparam style strictuml
skinparam LifelineStrategy nosolid
skinparam sequenceMessageAlign center
title Initialisation of Node by Another


participant Initiator as parent
participant Initiatee as child
database "Location Service" as ls

autoactivate on
parent -> child **: Initialisation and Address of location service
activate child
child -> ls: Announce node join
return ACK
return ACK
@enduml

PlantUML version 1.2021.15(Wed Dec 01 05:45:34 NZDT 2021)
(GPL source distribution)
Java Runtime: OpenJDK Runtime Environment
JVM: OpenJDK 64-Bit Server VM
Default Encoding: UTF-8
Language: en
Country: NZ
--></g></svg>