<?xml version="1.0" encoding="UTF-8" standalone="no"?><svg xmlns="http://www.w3.org/2000/svg" xmlns:xlink="http://www.w3.org/1999/xlink" contentStyleType="text/css" height="260px" preserveAspectRatio="none" style="width:588px;height:260px;background:#FFFFFF;" version="1.1" viewBox="0 0 588 260" width="588px" zoomAndPan="magnify"><defs/><g><rect height="26.2969" style="stroke:#00000000;stroke-width:1.0;fill:none;" width="263" x="164" y="10"/><text fill="#000000" font-family="sans-serif" font-size="14" font-weight="bold" lengthAdjust="spacing" textLength="253" x="169" y="27.9951">Initialisation of Node by Another</text><rect fill="#FFFFFF" height="89.5625" style="stroke:#181818;stroke-width:1.0;" width="10" x="368" y="145.7266"/><rect fill="#FFFFFF" height="29.1328" style="stroke:#181818;stroke-width:1.0;" width="10" x="523" y="177.0234"/><line style="stroke:#181818;stroke-width:0.5;stroke-dasharray:5.0,5.0;" x1="37" x2="37" y1="104.5938" y2="253.2891"/><line style="stroke:#181818;stroke-width:0.5;stroke-dasharray:5.0,5.0;" x1="373" x2="373" y1="145.2422" y2="253.2891"/><line style="stroke:#181818;stroke-width:0.5;stroke-dasharray:5.0,5.0;" x1="528" x2="528" y1="104.5938" y2="253.2891"/><rect fill="#E3E3E3" height="30.2969" rx="2.5" ry="2.5" style="stroke:#181818;stroke-width:0.5;" width="64" x="5" y="73.2969"/><text fill="#000000" font-family="sans-serif" font-size="14" lengthAdjust="spacing" textLength="50" x="12" y="93.292">Initiator</text><text fill="#000000" font-family="sans-serif" font-size="14" lengthAdjust="spacing" textLength="112" x="469" y="101.292">Location Service</text><path d="M510,52.2969 C510,42.2969 528,42.2969 528,42.2969 C528,42.2969 546,42.2969 546,52.2969 L546,78.2969 C546,88.2969 528,88.2969 528,88.2969 C528,88.2969 510,88.2969 510,78.2969 L510,52.2969 " fill="#E3E3E3" style="stroke:#181818;stroke-width:1.5;"/><path d="M510,52.2969 C510,62.2969 528,62.2969 528,62.2969 C528,62.2969 546,62.2969 546,52.2969 " fill="none" style="stroke:#181818;stroke-width:1.5;"/><rect fill="#FFFFFF" height="89.5625" style="stroke:#181818;stroke-width:1.0;" width="10" x="368" y="145.7266"/><rect fill="#FFFFFF" height="29.1328" style="stroke:#181818;stroke-width:1.0;" width="10" x="523" y="177.0234"/><polygon fill="#181818" points="327,131.7266,337,135.7266,327,139.7266" style="stroke:#181818;stroke-width:1.0;"/><line style="stroke:#181818;stroke-width:1.0;" x1="37" x2="333" y1="135.7266" y2="135.7266"/><text fill="#000000" font-family="sans-serif" font-size="13" lengthAdjust="spacing" textLength="278" x="49" y="130.6606">Initialisation and Address of location service</text><rect fill="#E3E3E3" height="30.2969" rx="2.5" ry="2.5" style="stroke:#181818;stroke-width:0.5;" width="68" x="339" y="114.5938"/><text fill="#000000" font-family="sans-serif" font-size="14" lengthAdjust="spacing" textLength="54" x="346" y="134.5889">Initiatee</text><polygon fill="#181818" points="511,173.0234,521,177.0234,511,181.0234" style="stroke:#181818;stroke-width:1.0;"/><line style="stroke:#181818;stroke-width:1.0;" x1="378" x2="517" y1="177.0234" y2="177.0234"/><text fill="#000000" font-family="sans-serif" font-size="13" lengthAdjust="spacing" textLength="126" x="387.5" y="171.9575">Announce node join</text><polygon fill="#181818" points="389,202.1563,379,206.1563,389,210.1563" style="stroke:#181818;stroke-width:1.0;"/><line style="stroke:#181818;stroke-width:1.0;stroke-dasharray:2.0,2.0;" x1="383" x2="527" y1="206.1563" y2="206.1563"/><text fill="#000000" font-family="sans-serif" font-size="13" lengthAdjust="spacing" textLength="26" x="440" y="201.0903">ACK</text><polygon fill="#181818" points="48,231.2891,38,235.2891,48,239.2891" style="stroke:#181818;stroke-width:1.0;"/><line style="stroke:#181818;stroke-width:1.0;stroke-dasharray:2.0,2.0;" x1="42" x2="372" y1="235.2891" y2="235.2891"/><text fill="#000000" font-family="sans-serif" font-size="13" lengthAdjust="spacing" textLength="26" x="192" y="230.2231">ACK</text><!--MD5=[b1f30d787adee5f916373e3b7deb94ae]
@startuml
skinparam monochrome true
skinparam shadowing false
skinparam style strictuml
skinparam LifelineStrategy nosolid
skinparam sequenceMessageAlign center
title Initialisation of Node by Another


participant Initiator as parent
participant Initiatee as child
database "Location Service" as ls

autoactivate on
parent -> child **: Initialisation and Address of location service
activate child
child -> ls: Announce node join
return ACK
return ACK
@enduml

PlantUML version 1.2022.2(Sun Mar 06 05:30:19 NZDT 2022)
(GPL source distribution)
Java Runtime: OpenJDK Runtime Environment
JVM: OpenJDK 64-Bit Server VM
Default Encoding: UTF-8
Language: en
Country: NZ
--></g></svg>