<?xml version="1.0" encoding="UTF-8" standalone="no"?><svg xmlns="http://www.w3.org/2000/svg" xmlns:xlink="http://www.w3.org/1999/xlink" contentStyleType="text/css" height="637px" preserveAspectRatio="none" style="width:486px;height:637px;background:#FFFFFF;" version="1.1" viewBox="0 0 486 637" width="486px" zoomAndPan="magnify"><defs/><g><rect height="26.2969" style="stroke:#00000000;stroke-width:1.0;fill:none;" width="251" x="116.5" y="10"/><text fill="#000000" font-family="sans-serif" font-size="14" font-weight="bold" lengthAdjust="spacing" textLength="241" x="121.5" y="27.9951">Concurrent Requests in SNOW</text><rect fill="#66C2A5" height="39.1328" style="stroke:#66C2A5;stroke-width:1.0;" width="10" x="351" y="178.0234"/><line style="stroke:#181818;stroke-width:1.0;" x1="351" x2="351" y1="178.0234" y2="217.1563"/><line style="stroke:#181818;stroke-width:1.0;" x1="361" x2="361" y1="178.0234" y2="217.1563"/><line style="stroke:#181818;stroke-width:1.0;" x1="351" x2="361" y1="178.0234" y2="178.0234"/><rect fill="#66C2A5" height="21.1328" style="stroke:#66C2A5;stroke-width:1.0;" width="10" x="351" y="245.1563"/><line style="stroke:#181818;stroke-width:1.0;" x1="351" x2="351" y1="245.1563" y2="266.2891"/><line style="stroke:#181818;stroke-width:1.0;" x1="361" x2="361" y1="245.1563" y2="266.2891"/><line style="stroke:#181818;stroke-width:1.0;" x1="351" x2="361" y1="266.2891" y2="266.2891"/><rect fill="#FC8D62" height="61.832" style="stroke:#FC8D62;stroke-width:1.0;" width="10" x="351" y="349.2539"/><line style="stroke:#181818;stroke-width:1.0;" x1="351" x2="351" y1="349.2539" y2="411.0859"/><line style="stroke:#181818;stroke-width:1.0;" x1="361" x2="361" y1="349.2539" y2="411.0859"/><line style="stroke:#181818;stroke-width:1.0;" x1="351" x2="361" y1="349.2539" y2="349.2539"/><rect fill="#FC8D62" height="21.1328" style="stroke:#FC8D62;stroke-width:1.0;" width="10" x="351" y="439.0859"/><line style="stroke:#181818;stroke-width:1.0;" x1="351" x2="351" y1="439.0859" y2="460.2188"/><line style="stroke:#181818;stroke-width:1.0;" x1="361" x2="361" y1="439.0859" y2="460.2188"/><line style="stroke:#181818;stroke-width:1.0;" x1="351" x2="361" y1="460.2188" y2="460.2188"/><rect fill="#8DA0CB" height="10" style="stroke:#8DA0CB;stroke-width:1.0;" width="10" x="351" y="520.4844"/><line style="stroke:#181818;stroke-width:1.0;" x1="351" x2="351" y1="520.4844" y2="530.4844"/><line style="stroke:#181818;stroke-width:1.0;" x1="361" x2="361" y1="520.4844" y2="530.4844"/><line style="stroke:#181818;stroke-width:1.0;" x1="351" x2="361" y1="520.4844" y2="520.4844"/><rect fill="#8DA0CB" height="21.1328" style="stroke:#8DA0CB;stroke-width:1.0;" width="10" x="351" y="558.4844"/><line style="stroke:#181818;stroke-width:1.0;" x1="351" x2="351" y1="558.4844" y2="579.6172"/><line style="stroke:#181818;stroke-width:1.0;" x1="361" x2="361" y1="558.4844" y2="579.6172"/><line style="stroke:#181818;stroke-width:1.0;" x1="351" x2="361" y1="579.6172" y2="579.6172"/><rect fill="#66C2A5" height="8" style="stroke:#66C2A5;stroke-width:1.0;" width="10" x="437" y="209.1563"/><line style="stroke:#181818;stroke-width:1.0;" x1="437" x2="437" y1="209.1563" y2="217.1563"/><line style="stroke:#181818;stroke-width:1.0;" x1="447" x2="447" y1="209.1563" y2="217.1563"/><line style="stroke:#181818;stroke-width:1.0;" x1="437" x2="447" y1="209.1563" y2="209.1563"/><rect fill="#66C2A5" height="50.2656" style="stroke:#66C2A5;stroke-width:1.0;" width="10" x="437" y="245.1563"/><line style="stroke:#181818;stroke-width:1.0;" x1="437" x2="437" y1="245.1563" y2="295.4219"/><line style="stroke:#181818;stroke-width:1.0;" x1="447" x2="447" y1="245.1563" y2="295.4219"/><line style="stroke:#181818;stroke-width:1.0;" x1="437" x2="447" y1="295.4219" y2="295.4219"/><rect fill="#FC8D62" height="8" style="stroke:#FC8D62;stroke-width:1.0;" width="10" x="437" y="403.0859"/><line style="stroke:#181818;stroke-width:1.0;" x1="437" x2="437" y1="403.0859" y2="411.0859"/><line style="stroke:#181818;stroke-width:1.0;" x1="447" x2="447" y1="403.0859" y2="411.0859"/><line style="stroke:#181818;stroke-width:1.0;" x1="437" x2="447" y1="403.0859" y2="403.0859"/><rect fill="#FC8D62" height="50.2656" style="stroke:#FC8D62;stroke-width:1.0;" width="10" x="437" y="439.0859"/><line style="stroke:#181818;stroke-width:1.0;" x1="437" x2="437" y1="439.0859" y2="489.3516"/><line style="stroke:#181818;stroke-width:1.0;" x1="447" x2="447" y1="439.0859" y2="489.3516"/><line style="stroke:#181818;stroke-width:1.0;" x1="437" x2="447" y1="489.3516" y2="489.3516"/><line style="stroke:#181818;stroke-width:0.5;stroke-dasharray:5.0,5.0;" x1="233" x2="233" y1="144.8906" y2="217.1563"/><line style="stroke:#A80036;stroke-width:1.0;stroke-dasharray:1.0,4.0;" x1="233" x2="233" y1="217.1563" y2="245.1563"/><line style="stroke:#181818;stroke-width:0.5;stroke-dasharray:5.0,5.0;" x1="233" x2="233" y1="245.1563" y2="411.0859"/><line style="stroke:#A80036;stroke-width:1.0;stroke-dasharray:1.0,4.0;" x1="233" x2="233" y1="411.0859" y2="439.0859"/><line style="stroke:#181818;stroke-width:0.5;stroke-dasharray:5.0,5.0;" x1="233" x2="233" y1="439.0859" y2="530.4844"/><line style="stroke:#A80036;stroke-width:1.0;stroke-dasharray:1.0,4.0;" x1="233" x2="233" y1="530.4844" y2="558.4844"/><line style="stroke:#181818;stroke-width:0.5;stroke-dasharray:5.0,5.0;" x1="233" x2="233" y1="558.4844" y2="630.75"/><line style="stroke:#181818;stroke-width:0.5;stroke-dasharray:5.0,5.0;" x1="356" x2="356" y1="144.8906" y2="217.1563"/><line style="stroke:#A80036;stroke-width:1.0;stroke-dasharray:1.0,4.0;" x1="356" x2="356" y1="217.1563" y2="245.1563"/><line style="stroke:#181818;stroke-width:0.5;stroke-dasharray:5.0,5.0;" x1="356" x2="356" y1="245.1563" y2="411.0859"/><line style="stroke:#A80036;stroke-width:1.0;stroke-dasharray:1.0,4.0;" x1="356" x2="356" y1="411.0859" y2="439.0859"/><line style="stroke:#181818;stroke-width:0.5;stroke-dasharray:5.0,5.0;" x1="356" x2="356" y1="439.0859" y2="530.4844"/><line style="stroke:#A80036;stroke-width:1.0;stroke-dasharray:1.0,4.0;" x1="356" x2="356" y1="530.4844" y2="558.4844"/><line style="stroke:#181818;stroke-width:0.5;stroke-dasharray:5.0,5.0;" x1="356" x2="356" y1="558.4844" y2="630.75"/><line style="stroke:#181818;stroke-width:0.5;stroke-dasharray:5.0,5.0;" x1="442" x2="442" y1="144.8906" y2="217.1563"/><line style="stroke:#A80036;stroke-width:1.0;stroke-dasharray:1.0,4.0;" x1="442" x2="442" y1="217.1563" y2="245.1563"/><line style="stroke:#181818;stroke-width:0.5;stroke-dasharray:5.0,5.0;" x1="442" x2="442" y1="245.1563" y2="411.0859"/><line style="stroke:#A80036;stroke-width:1.0;stroke-dasharray:1.0,4.0;" x1="442" x2="442" y1="411.0859" y2="439.0859"/><line style="stroke:#181818;stroke-width:0.5;stroke-dasharray:5.0,5.0;" x1="442" x2="442" y1="439.0859" y2="530.4844"/><line style="stroke:#A80036;stroke-width:1.0;stroke-dasharray:1.0,4.0;" x1="442" x2="442" y1="530.4844" y2="558.4844"/><line style="stroke:#181818;stroke-width:0.5;stroke-dasharray:5.0,5.0;" x1="442" x2="442" y1="558.4844" y2="630.75"/><text fill="#000000" font-family="sans-serif" font-size="14" lengthAdjust="spacing" textLength="47" x="207" y="115.292">Master</text><line style="stroke:none;stroke-width:1.0;" x1="156" x2="305" y1="123.5938" y2="123.5938"/><text fill="#000000" font-family="sans-serif" font-size="14" lengthAdjust="spacing" textLength="143" x="159" y="141.5889">Initialised with d0, d1</text><ellipse cx="233.5" cy="50.7969" fill="#FFFFFF" rx="8" ry="8" style="stroke:#181818;stroke-width:0.5;"/><path d="M233.5,58.7969 L233.5,85.7969 M220.5,66.7969 L246.5,66.7969 M233.5,85.7969 L220.5,100.7969 M233.5,85.7969 L246.5,100.7969 " fill="none" style="stroke:#181818;stroke-width:0.5;"/><rect fill="#FFFFFF" height="30.2969" rx="2.5" ry="2.5" style="stroke:#181818;stroke-width:0.5;" width="76" x="318" y="113.5938"/><text fill="#000000" font-family="sans-serif" font-size="14" lengthAdjust="spacing" textLength="62" x="325" y="133.5889">Worker 1</text><rect fill="#FFFFFF" height="30.2969" rx="2.5" ry="2.5" style="stroke:#181818;stroke-width:0.5;" width="76" x="404" y="113.5938"/><text fill="#000000" font-family="sans-serif" font-size="14" lengthAdjust="spacing" textLength="62" x="411" y="133.5889">Worker 2</text><rect fill="#66C2A5" height="39.1328" style="stroke:#66C2A5;stroke-width:1.0;" width="10" x="351" y="178.0234"/><line style="stroke:#181818;stroke-width:1.0;" x1="351" x2="351" y1="178.0234" y2="217.1563"/><line style="stroke:#181818;stroke-width:1.0;" x1="361" x2="361" y1="178.0234" y2="217.1563"/><line style="stroke:#181818;stroke-width:1.0;" x1="351" x2="361" y1="178.0234" y2="178.0234"/><rect fill="#66C2A5" height="21.1328" style="stroke:#66C2A5;stroke-width:1.0;" width="10" x="351" y="245.1563"/><line style="stroke:#181818;stroke-width:1.0;" x1="351" x2="351" y1="245.1563" y2="266.2891"/><line style="stroke:#181818;stroke-width:1.0;" x1="361" x2="361" y1="245.1563" y2="266.2891"/><line style="stroke:#181818;stroke-width:1.0;" x1="351" x2="361" y1="266.2891" y2="266.2891"/><rect fill="#FC8D62" height="61.832" style="stroke:#FC8D62;stroke-width:1.0;" width="10" x="351" y="349.2539"/><line style="stroke:#181818;stroke-width:1.0;" x1="351" x2="351" y1="349.2539" y2="411.0859"/><line style="stroke:#181818;stroke-width:1.0;" x1="361" x2="361" y1="349.2539" y2="411.0859"/><line style="stroke:#181818;stroke-width:1.0;" x1="351" x2="361" y1="349.2539" y2="349.2539"/><rect fill="#FC8D62" height="21.1328" style="stroke:#FC8D62;stroke-width:1.0;" width="10" x="351" y="439.0859"/><line style="stroke:#181818;stroke-width:1.0;" x1="351" x2="351" y1="439.0859" y2="460.2188"/><line style="stroke:#181818;stroke-width:1.0;" x1="361" x2="361" y1="439.0859" y2="460.2188"/><line style="stroke:#181818;stroke-width:1.0;" x1="351" x2="361" y1="460.2188" y2="460.2188"/><rect fill="#8DA0CB" height="10" style="stroke:#8DA0CB;stroke-width:1.0;" width="10" x="351" y="520.4844"/><line style="stroke:#181818;stroke-width:1.0;" x1="351" x2="351" y1="520.4844" y2="530.4844"/><line style="stroke:#181818;stroke-width:1.0;" x1="361" x2="361" y1="520.4844" y2="530.4844"/><line style="stroke:#181818;stroke-width:1.0;" x1="351" x2="361" y1="520.4844" y2="520.4844"/><rect fill="#8DA0CB" height="21.1328" style="stroke:#8DA0CB;stroke-width:1.0;" width="10" x="351" y="558.4844"/><line style="stroke:#181818;stroke-width:1.0;" x1="351" x2="351" y1="558.4844" y2="579.6172"/><line style="stroke:#181818;stroke-width:1.0;" x1="361" x2="361" y1="558.4844" y2="579.6172"/><line style="stroke:#181818;stroke-width:1.0;" x1="351" x2="361" y1="579.6172" y2="579.6172"/><rect fill="#66C2A5" height="8" style="stroke:#66C2A5;stroke-width:1.0;" width="10" x="437" y="209.1563"/><line style="stroke:#181818;stroke-width:1.0;" x1="437" x2="437" y1="209.1563" y2="217.1563"/><line style="stroke:#181818;stroke-width:1.0;" x1="447" x2="447" y1="209.1563" y2="217.1563"/><line style="stroke:#181818;stroke-width:1.0;" x1="437" x2="447" y1="209.1563" y2="209.1563"/><rect fill="#66C2A5" height="50.2656" style="stroke:#66C2A5;stroke-width:1.0;" width="10" x="437" y="245.1563"/><line style="stroke:#181818;stroke-width:1.0;" x1="437" x2="437" y1="245.1563" y2="295.4219"/><line style="stroke:#181818;stroke-width:1.0;" x1="447" x2="447" y1="245.1563" y2="295.4219"/><line style="stroke:#181818;stroke-width:1.0;" x1="437" x2="447" y1="295.4219" y2="295.4219"/><rect fill="#FC8D62" height="8" style="stroke:#FC8D62;stroke-width:1.0;" width="10" x="437" y="403.0859"/><line style="stroke:#181818;stroke-width:1.0;" x1="437" x2="437" y1="403.0859" y2="411.0859"/><line style="stroke:#181818;stroke-width:1.0;" x1="447" x2="447" y1="403.0859" y2="411.0859"/><line style="stroke:#181818;stroke-width:1.0;" x1="437" x2="447" y1="403.0859" y2="403.0859"/><rect fill="#FC8D62" height="50.2656" style="stroke:#FC8D62;stroke-width:1.0;" width="10" x="437" y="439.0859"/><line style="stroke:#181818;stroke-width:1.0;" x1="437" x2="437" y1="439.0859" y2="489.3516"/><line style="stroke:#181818;stroke-width:1.0;" x1="447" x2="447" y1="439.0859" y2="489.3516"/><line style="stroke:#181818;stroke-width:1.0;" x1="437" x2="447" y1="489.3516" y2="489.3516"/><polygon fill="#66C2A5" points="339,174.0234,349,178.0234,339,182.0234" style="stroke:#66C2A5;stroke-width:1.0;"/><line style="stroke:#66C2A5;stroke-width:1.0;" x1="233.5" x2="345" y1="178.0234" y2="178.0234"/><text fill="#000000" font-family="sans-serif" font-size="13" lengthAdjust="spacing" textLength="92" x="240.5" y="172.9575">fun, d1[split 1]</text><rect fill="#66C2A5" height="23" style="stroke:#181818;stroke-width:0.5;" width="182" x="46" y="159.8906"/><text fill="#000000" font-family="sans-serif" font-size="13" lengthAdjust="spacing" textLength="174" x="50" y="175.9575">d2 &lt;- parLapply(cl, d1, fun)</text><polygon fill="#66C2A5" points="425,205.1563,435,209.1563,425,213.1563" style="stroke:#66C2A5;stroke-width:1.0;"/><line style="stroke:#66C2A5;stroke-width:1.0;" x1="233.5" x2="431" y1="209.1563" y2="209.1563"/><text fill="#000000" font-family="sans-serif" font-size="13" lengthAdjust="spacing" textLength="92" x="240.5" y="204.0903">fun, d1[split 2]</text><polygon fill="#66C2A5" points="244.5,262.2891,234.5,266.2891,244.5,270.2891" style="stroke:#66C2A5;stroke-width:1.0;"/><line style="stroke:#66C2A5;stroke-width:1.0;" x1="238.5" x2="355" y1="266.2891" y2="266.2891"/><text fill="#000000" font-family="sans-serif" font-size="13" lengthAdjust="spacing" textLength="64" x="285" y="261.2231">d2[split 1]</text><polygon fill="#66C2A5" points="244.5,291.4219,234.5,295.4219,244.5,299.4219" style="stroke:#66C2A5;stroke-width:1.0;"/><line style="stroke:#66C2A5;stroke-width:1.0;" x1="238.5" x2="441" y1="295.4219" y2="295.4219"/><text fill="#000000" font-family="sans-serif" font-size="13" lengthAdjust="spacing" textLength="64" x="371" y="290.356">d2[split 2]</text><polygon fill="#FC8D62" points="339,345.2539,349,349.2539,339,353.2539" style="stroke:#FC8D62;stroke-width:1.0;"/><line style="stroke:#FC8D62;stroke-width:1.0;" x1="233.5" x2="345" y1="349.2539" y2="349.2539"/><text fill="#000000" font-family="sans-serif" font-size="13" lengthAdjust="spacing" textLength="92" x="240.5" y="344.188">fun, d2[split 1]</text><rect fill="#FC8D62" height="68" style="stroke:#181818;stroke-width:0.5;" width="224" x="5" y="308.4219"/><text fill="#000000" font-family="sans-serif" font-size="13" lengthAdjust="spacing" textLength="160" x="9" y="324.4888">d3 &lt;- do.call(clusterMap,</text><text fill="#000000" font-family="sans-serif" font-size="13" lengthAdjust="spacing" textLength="82" x="105" y="339.6216">c(list(cl, fun),</text><text fill="#000000" font-family="sans-serif" font-size="13" lengthAdjust="spacing" textLength="119" x="105" y="354.7544">clusterSplit(cl, d0),</text><text fill="#000000" font-family="sans-serif" font-size="13" lengthAdjust="spacing" textLength="120" x="105" y="369.8872">clusterSplit(cl, d2))</text><polygon fill="#FC8D62" points="425,399.0859,435,403.0859,425,407.0859" style="stroke:#FC8D62;stroke-width:1.0;"/><line style="stroke:#FC8D62;stroke-width:1.0;" x1="233.5" x2="431" y1="403.0859" y2="403.0859"/><text fill="#000000" font-family="sans-serif" font-size="13" lengthAdjust="spacing" textLength="92" x="240.5" y="398.02">fun, d2[split 2]</text><polygon fill="#FC8D62" points="244.5,456.2188,234.5,460.2188,244.5,464.2188" style="stroke:#FC8D62;stroke-width:1.0;"/><line style="stroke:#FC8D62;stroke-width:1.0;" x1="238.5" x2="355" y1="460.2188" y2="460.2188"/><text fill="#000000" font-family="sans-serif" font-size="13" lengthAdjust="spacing" textLength="64" x="285" y="455.1528">d3[split 1]</text><polygon fill="#FC8D62" points="244.5,485.3516,234.5,489.3516,244.5,493.3516" style="stroke:#FC8D62;stroke-width:1.0;"/><line style="stroke:#FC8D62;stroke-width:1.0;" x1="238.5" x2="441" y1="489.3516" y2="489.3516"/><text fill="#000000" font-family="sans-serif" font-size="13" lengthAdjust="spacing" textLength="64" x="371" y="484.2856">d3[split 2]</text><polygon fill="#8DA0CB" points="339,516.4844,349,520.4844,339,524.4844" style="stroke:#8DA0CB;stroke-width:1.0;"/><line style="stroke:#8DA0CB;stroke-width:1.0;" x1="233.5" x2="345" y1="520.4844" y2="520.4844"/><text fill="#000000" font-family="sans-serif" font-size="13" lengthAdjust="spacing" textLength="20" x="240.5" y="515.4185">fun</text><rect fill="#8DA0CB" height="23" style="stroke:#181818;stroke-width:0.5;" width="180" x="48" y="502.3516"/><text fill="#000000" font-family="sans-serif" font-size="13" lengthAdjust="spacing" textLength="172" x="52" y="518.4185">d3 &lt;- clusterCall(cl[1], fun)</text><polygon fill="#8DA0CB" points="244.5,575.6172,234.5,579.6172,244.5,583.6172" style="stroke:#8DA0CB;stroke-width:1.0;"/><line style="stroke:#8DA0CB;stroke-width:1.0;" x1="238.5" x2="355" y1="579.6172" y2="579.6172"/><text fill="#000000" font-family="sans-serif" font-size="13" lengthAdjust="spacing" textLength="16" x="333" y="574.5513">d4</text><line style="stroke:#E78AC3;stroke-width:1.0;stroke-dasharray:2.0,2.0;" x1="233.5" x2="275.5" y1="596.6836" y2="596.6836"/><line style="stroke:#E78AC3;stroke-width:1.0;stroke-dasharray:2.0,2.0;" x1="275.5" x2="275.5" y1="596.6836" y2="609.6836"/><line style="stroke:#E78AC3;stroke-width:1.0;stroke-dasharray:2.0,2.0;" x1="234.5" x2="275.5" y1="609.6836" y2="609.6836"/><polygon fill="#E78AC3" points="244.5,605.6836,234.5,609.6836,244.5,613.6836" style="stroke:#E78AC3;stroke-width:1.0;"/><rect fill="#E78AC3" height="23" style="stroke:#181818;stroke-width:0.5;" width="63" x="165" y="592.6172"/><text fill="#000000" font-family="sans-serif" font-size="13" lengthAdjust="spacing" textLength="55" x="169" y="608.6841">print(d3)</text><!--MD5=[de5b0adace98154dec688a9930888e1a]
@startuml
skinparam style strictuml
skinparam sequenceMessageAlign direction

title Concurrent Requests in SNOW

actor "Master\n- - - -\nInitialised with d0, d1" as m #white
participant "Worker 1" as w1 #white
participant "Worker 2" as w2 #white

m -[#66c2a5]> w1: fun, d1[split 1]
rnote left #66c2a5: d2 <- parLapply(cl, d1, fun)
activate w1 #66c2a5
m -[#66c2a5]> w2: fun, d1[split 2]
activate w2 #66c2a5
...
w1 -[#66c2a5]> m: d2[split 1]
deactivate w1
w2 -[#66c2a5]> m: d2[split 2]
deactivate w2

m -[#fc8d62]> w1: fun, d2[split 1]
rnote left #fc8d62: d3 <- do.call(clusterMap,\n\t\t\tc(list(cl, fun),\n\t\t\tclusterSplit(cl, d0),\n\t\t\tclusterSplit(cl, d2))
activate w1 #fc8d62 
m -[#fc8d62]> w2: fun, d2[split 2]
activate w2 #fc8d62
...
w1 -[#fc8d62]> m: d3[split 1]
deactivate w1
w2 -[#fc8d62]> m: d3[split 2]
deactivate w2

m -[#8da0cb]> w1: fun
rnote left #8da0cb: d3 <- clusterCall(cl[1], fun)
activate w1 #8da0cb 
...
w1 -[#8da0cb]> m: d4
deactivate w1

m - -[#e78ac3]> m
rnote left #e78ac3: print(d3)

@enduml

PlantUML version 1.2022.2(Sun Mar 06 05:30:19 NZDT 2022)
(GPL source distribution)
Java Runtime: OpenJDK Runtime Environment
JVM: OpenJDK 64-Bit Server VM
Default Encoding: UTF-8
Language: en
Country: NZ
--></g></svg>