<?xml version="1.0" encoding="UTF-8" standalone="no"?><svg xmlns="http://www.w3.org/2000/svg" xmlns:xlink="http://www.w3.org/1999/xlink" contentStyleType="text/css" height="553px" preserveAspectRatio="none" style="width:491px;height:553px;background:#FFFFFF;" version="1.1" viewBox="0 0 491 553" width="491px" zoomAndPan="magnify"><defs/><g><rect height="26.2969" style="stroke:#00000000;stroke-width:1.0;fill:none;" width="251" x="119" y="10"/><text fill="#000000" font-family="sans-serif" font-size="14" font-weight="bold" lengthAdjust="spacing" textLength="241" x="124" y="27.9951">Concurrent Requests in SNOW</text><rect fill="#66C2A5" height="60.2656" style="stroke:#181818;stroke-width:1.0;" width="10" x="356" y="178.0234"/><rect fill="#FC8D62" height="82.9648" style="stroke:#181818;stroke-width:1.0;" width="10" x="356" y="321.2539"/><rect fill="#8DA0CB" height="31.1328" style="stroke:#181818;stroke-width:1.0;" width="10" x="356" y="464.4844"/><rect fill="#66C2A5" height="58.2656" style="stroke:#181818;stroke-width:1.0;" width="10" x="442" y="209.1563"/><rect fill="#FC8D62" height="58.2656" style="stroke:#181818;stroke-width:1.0;" width="10" x="442" y="375.0859"/><line style="stroke:#181818;stroke-width:0.5;stroke-dasharray:5.0,5.0;" x1="238" x2="238" y1="144.8906" y2="546.75"/><line style="stroke:#181818;stroke-width:0.5;stroke-dasharray:5.0,5.0;" x1="361" x2="361" y1="144.8906" y2="546.75"/><line style="stroke:#181818;stroke-width:0.5;stroke-dasharray:5.0,5.0;" x1="447" x2="447" y1="144.8906" y2="546.75"/><text fill="#000000" font-family="sans-serif" font-size="14" lengthAdjust="spacing" textLength="47" x="212" y="115.292">Master</text><line style="stroke:none;stroke-width:1.0;" x1="161" x2="310" y1="123.5938" y2="123.5938"/><text fill="#000000" font-family="sans-serif" font-size="14" lengthAdjust="spacing" textLength="143" x="164" y="141.5889">Initialised with d0, d1</text><ellipse cx="238.5" cy="50.7969" fill="#FFFFFF" rx="8" ry="8" style="stroke:#181818;stroke-width:0.5;"/><path d="M238.5,58.7969 L238.5,85.7969 M225.5,66.7969 L251.5,66.7969 M238.5,85.7969 L225.5,100.7969 M238.5,85.7969 L251.5,100.7969 " fill="none" style="stroke:#181818;stroke-width:0.5;"/><rect fill="#FFFFFF" height="30.2969" rx="2.5" ry="2.5" style="stroke:#181818;stroke-width:0.5;" width="76" x="323" y="113.5938"/><text fill="#000000" font-family="sans-serif" font-size="14" lengthAdjust="spacing" textLength="62" x="330" y="133.5889">Worker 1</text><rect fill="#FFFFFF" height="30.2969" rx="2.5" ry="2.5" style="stroke:#181818;stroke-width:0.5;" width="76" x="409" y="113.5938"/><text fill="#000000" font-family="sans-serif" font-size="14" lengthAdjust="spacing" textLength="62" x="416" y="133.5889">Worker 2</text><rect fill="#66C2A5" height="60.2656" style="stroke:#181818;stroke-width:1.0;" width="10" x="356" y="178.0234"/><rect fill="#FC8D62" height="82.9648" style="stroke:#181818;stroke-width:1.0;" width="10" x="356" y="321.2539"/><rect fill="#8DA0CB" height="31.1328" style="stroke:#181818;stroke-width:1.0;" width="10" x="356" y="464.4844"/><rect fill="#66C2A5" height="58.2656" style="stroke:#181818;stroke-width:1.0;" width="10" x="442" y="209.1563"/><rect fill="#FC8D62" height="58.2656" style="stroke:#181818;stroke-width:1.0;" width="10" x="442" y="375.0859"/><polygon fill="#66C2A5" points="344,174.0234,354,178.0234,344,182.0234" style="stroke:#66C2A5;stroke-width:1.0;"/><line style="stroke:#66C2A5;stroke-width:1.0;" x1="238.5" x2="350" y1="178.0234" y2="178.0234"/><text fill="#000000" font-family="sans-serif" font-size="13" lengthAdjust="spacing" textLength="92" x="245.5" y="172.9575">fun, d1[split 1]</text><rect fill="#66C2A5" height="23" style="stroke:#181818;stroke-width:0.5;" width="182" x="51" y="159.8906"/><text fill="#000000" font-family="sans-serif" font-size="13" lengthAdjust="spacing" textLength="174" x="55" y="175.9575">d2 &lt;- parLapply(cl, d1, fun)</text><polygon fill="#66C2A5" points="430,205.1563,440,209.1563,430,213.1563" style="stroke:#66C2A5;stroke-width:1.0;"/><line style="stroke:#66C2A5;stroke-width:1.0;" x1="238.5" x2="436" y1="209.1563" y2="209.1563"/><text fill="#000000" font-family="sans-serif" font-size="13" lengthAdjust="spacing" textLength="92" x="245.5" y="204.0903">fun, d1[split 2]</text><polygon fill="#66C2A5" points="249.5,234.2891,239.5,238.2891,249.5,242.2891" style="stroke:#66C2A5;stroke-width:1.0;"/><line style="stroke:#66C2A5;stroke-width:1.0;" x1="243.5" x2="360" y1="238.2891" y2="238.2891"/><text fill="#000000" font-family="sans-serif" font-size="13" lengthAdjust="spacing" textLength="64" x="290" y="233.2231">d2[split 1]</text><polygon fill="#66C2A5" points="249.5,263.4219,239.5,267.4219,249.5,271.4219" style="stroke:#66C2A5;stroke-width:1.0;"/><line style="stroke:#66C2A5;stroke-width:1.0;" x1="243.5" x2="446" y1="267.4219" y2="267.4219"/><text fill="#000000" font-family="sans-serif" font-size="13" lengthAdjust="spacing" textLength="64" x="376" y="262.356">d2[split 2]</text><polygon fill="#FC8D62" points="344,317.2539,354,321.2539,344,325.2539" style="stroke:#FC8D62;stroke-width:1.0;"/><line style="stroke:#FC8D62;stroke-width:1.0;" x1="238.5" x2="350" y1="321.2539" y2="321.2539"/><text fill="#000000" font-family="sans-serif" font-size="13" lengthAdjust="spacing" textLength="92" x="245.5" y="316.188">fun, d2[split 1]</text><rect fill="#FC8D62" height="68" style="stroke:#181818;stroke-width:0.5;" width="229" x="5" y="280.4219"/><text fill="#000000" font-family="sans-serif" font-size="13" lengthAdjust="spacing" textLength="165" x="9" y="296.4888">"d3 &lt;- do.call(clusterMap,</text><text fill="#000000" font-family="sans-serif" font-size="13" lengthAdjust="spacing" textLength="82" x="105" y="311.6216">c(list(cl, fun),</text><text fill="#000000" font-family="sans-serif" font-size="13" lengthAdjust="spacing" textLength="119" x="105" y="326.7544">clusterSplit(cl, d2),</text><text fill="#000000" font-family="sans-serif" font-size="13" lengthAdjust="spacing" textLength="125" x="105" y="341.8872">clusterSplit(cl, d0))"</text><polygon fill="#FC8D62" points="430,371.0859,440,375.0859,430,379.0859" style="stroke:#FC8D62;stroke-width:1.0;"/><line style="stroke:#FC8D62;stroke-width:1.0;" x1="238.5" x2="436" y1="375.0859" y2="375.0859"/><text fill="#000000" font-family="sans-serif" font-size="13" lengthAdjust="spacing" textLength="92" x="245.5" y="370.02">fun, d2[split 2]</text><polygon fill="#FC8D62" points="249.5,400.2188,239.5,404.2188,249.5,408.2188" style="stroke:#FC8D62;stroke-width:1.0;"/><line style="stroke:#FC8D62;stroke-width:1.0;" x1="243.5" x2="360" y1="404.2188" y2="404.2188"/><text fill="#000000" font-family="sans-serif" font-size="13" lengthAdjust="spacing" textLength="64" x="290" y="399.1528">d3[split 1]</text><polygon fill="#FC8D62" points="249.5,429.3516,239.5,433.3516,249.5,437.3516" style="stroke:#FC8D62;stroke-width:1.0;"/><line style="stroke:#FC8D62;stroke-width:1.0;" x1="243.5" x2="446" y1="433.3516" y2="433.3516"/><text fill="#000000" font-family="sans-serif" font-size="13" lengthAdjust="spacing" textLength="64" x="376" y="428.2856">d3[split 2]</text><polygon fill="#8DA0CB" points="344,460.4844,354,464.4844,344,468.4844" style="stroke:#8DA0CB;stroke-width:1.0;"/><line style="stroke:#8DA0CB;stroke-width:1.0;" x1="238.5" x2="350" y1="464.4844" y2="464.4844"/><text fill="#000000" font-family="sans-serif" font-size="13" lengthAdjust="spacing" textLength="20" x="245.5" y="459.4185">fun</text><rect fill="#8DA0CB" height="23" style="stroke:#181818;stroke-width:0.5;" width="180" x="53" y="446.3516"/><text fill="#000000" font-family="sans-serif" font-size="13" lengthAdjust="spacing" textLength="172" x="57" y="462.4185">d3 &lt;- clusterCall(cl[1], fun)</text><polygon fill="#8DA0CB" points="249.5,491.6172,239.5,495.6172,249.5,499.6172" style="stroke:#8DA0CB;stroke-width:1.0;"/><line style="stroke:#8DA0CB;stroke-width:1.0;" x1="243.5" x2="360" y1="495.6172" y2="495.6172"/><text fill="#000000" font-family="sans-serif" font-size="13" lengthAdjust="spacing" textLength="16" x="338" y="490.5513">d4</text><line style="stroke:#E78AC3;stroke-width:1.0;stroke-dasharray:2.0,2.0;" x1="238.5" x2="280.5" y1="512.6836" y2="512.6836"/><line style="stroke:#E78AC3;stroke-width:1.0;stroke-dasharray:2.0,2.0;" x1="280.5" x2="280.5" y1="512.6836" y2="525.6836"/><line style="stroke:#E78AC3;stroke-width:1.0;stroke-dasharray:2.0,2.0;" x1="239.5" x2="280.5" y1="525.6836" y2="525.6836"/><polygon fill="#E78AC3" points="249.5,521.6836,239.5,525.6836,249.5,529.6836" style="stroke:#E78AC3;stroke-width:1.0;"/><rect fill="#E78AC3" height="23" style="stroke:#181818;stroke-width:0.5;" width="63" x="170" y="508.6172"/><text fill="#000000" font-family="sans-serif" font-size="13" lengthAdjust="spacing" textLength="55" x="174" y="524.6841">print(d3)</text><!--MD5=[dbf445cd1287cbdad85c841036a06edf]
@startuml
skinparam style strictuml
skinparam sequenceMessageAlign direction

title Concurrent Requests in SNOW

actor "Master\n- - - -\nInitialised with d0, d1" as m #white
participant "Worker 1" as w1 #white
participant "Worker 2" as w2 #white

m -[#66c2a5]> w1: fun, d1[split 1]
rnote left #66c2a5: d2 <- parLapply(cl, d1, fun)
activate w1 #66c2a5
m -[#66c2a5]> w2: fun, d1[split 2]
activate w2 #66c2a5
w1 -[#66c2a5]> m: d2[split 1]
deactivate w1
w2 -[#66c2a5]> m: d2[split 2]
deactivate w2

m -[#fc8d62]> w1: fun, d2[split 1]
rnote left #fc8d62: "d3 <- do.call(clusterMap,\n\t\t\tc(list(cl, fun),\n\t\t\tclusterSplit(cl, d2),\n\t\t\tclusterSplit(cl, d0))"
activate w1 #fc8d62 
m -[#fc8d62]> w2: fun, d2[split 2]
activate w2 #fc8d62
w1 -[#fc8d62]> m: d3[split 1]
deactivate w1
w2 -[#fc8d62]> m: d3[split 2]
deactivate w2

m -[#8da0cb]> w1: fun
rnote left #8da0cb: d3 <- clusterCall(cl[1], fun)
activate w1 #8da0cb 
w1 -[#8da0cb]> m: d4
deactivate w1

m - -[#e78ac3]> m
rnote left #e78ac3: print(d3)

@enduml

PlantUML version 1.2022.2(Sun Mar 06 05:30:19 NZDT 2022)
(GPL source distribution)
Java Runtime: OpenJDK Runtime Environment
JVM: OpenJDK 64-Bit Server VM
Default Encoding: UTF-8
Language: en
Country: NZ
--></g></svg>