<?xml version="1.0" encoding="UTF-8" standalone="no"?><svg xmlns="http://www.w3.org/2000/svg" xmlns:xlink="http://www.w3.org/1999/xlink" contentScriptType="application/ecmascript" contentStyleType="text/css" height="1146px" preserveAspectRatio="none" style="width:798px;height:1146px;background:#FFFFFF;" version="1.1" viewBox="0 0 798 1146" width="798px" zoomAndPan="magnify"><defs/><g><text fill="#000000" font-family="sans-serif" font-size="18" lengthAdjust="spacing" textLength="326" x="238.25" y="28.708">Concurrent Requests in New System</text><rect fill="#FFFFFF" height="92.2656" style="stroke:#FFFFFF;stroke-width:1.0;" width="10" x="26.5" y="938.4375"/><line style="stroke:#383838;stroke-width:1.0;" x1="26.5" x2="26.5" y1="938.4375" y2="1030.7031"/><line style="stroke:#383838;stroke-width:1.0;" x1="36.5" x2="36.5" y1="938.4375" y2="1030.7031"/><line style="stroke:#383838;stroke-width:1.0;" x1="26.5" x2="36.5" y1="938.4375" y2="938.4375"/><rect fill="#FFFFFF" height="63.2656" style="stroke:#FFFFFF;stroke-width:1.0;" width="10" x="26.5" y="1058.7031"/><line style="stroke:#383838;stroke-width:1.0;" x1="26.5" x2="26.5" y1="1058.7031" y2="1121.9688"/><line style="stroke:#383838;stroke-width:1.0;" x1="36.5" x2="36.5" y1="1058.7031" y2="1121.9688"/><line style="stroke:#383838;stroke-width:1.0;" x1="26.5" x2="36.5" y1="1121.9688" y2="1121.9688"/><rect fill="#FFFFFF" height="84.2656" style="stroke:#FFFFFF;stroke-width:1.0;" width="10" x="357.5" y="746.7734"/><line style="stroke:#383838;stroke-width:1.0;" x1="357.5" x2="357.5" y1="746.7734" y2="831.0391"/><line style="stroke:#383838;stroke-width:1.0;" x1="367.5" x2="367.5" y1="746.7734" y2="831.0391"/><line style="stroke:#383838;stroke-width:1.0;" x1="357.5" x2="367.5" y1="746.7734" y2="746.7734"/><rect fill="#FFFFFF" height="114.5313" style="stroke:#FFFFFF;stroke-width:1.0;" width="10" x="357.5" y="859.0391"/><line style="stroke:#383838;stroke-width:1.0;" x1="357.5" x2="357.5" y1="859.0391" y2="973.5703"/><line style="stroke:#383838;stroke-width:1.0;" x1="367.5" x2="367.5" y1="859.0391" y2="973.5703"/><line style="stroke:#383838;stroke-width:1.0;" x1="357.5" x2="367.5" y1="973.5703" y2="973.5703"/><rect fill="#FFFFFF" height="13" style="stroke:#FFFFFF;stroke-width:1.0;" width="10" x="357.5" y="1017.7031"/><line style="stroke:#383838;stroke-width:1.0;" x1="357.5" x2="357.5" y1="1017.7031" y2="1030.7031"/><line style="stroke:#383838;stroke-width:1.0;" x1="367.5" x2="367.5" y1="1017.7031" y2="1030.7031"/><line style="stroke:#383838;stroke-width:1.0;" x1="357.5" x2="367.5" y1="1017.7031" y2="1017.7031"/><rect fill="#FFFFFF" height="27.1328" style="stroke:#FFFFFF;stroke-width:1.0;" width="10" x="357.5" y="1058.7031"/><line style="stroke:#383838;stroke-width:1.0;" x1="357.5" x2="357.5" y1="1058.7031" y2="1085.8359"/><line style="stroke:#383838;stroke-width:1.0;" x1="367.5" x2="367.5" y1="1058.7031" y2="1085.8359"/><line style="stroke:#383838;stroke-width:1.0;" x1="357.5" x2="367.5" y1="1085.8359" y2="1085.8359"/><rect fill="#FFFFFF" height="13" style="stroke:#FFFFFF;stroke-width:1.0;" width="10" x="545.5" y="328.1797"/><line style="stroke:#383838;stroke-width:1.0;" x1="545.5" x2="545.5" y1="328.1797" y2="341.1797"/><line style="stroke:#383838;stroke-width:1.0;" x1="555.5" x2="555.5" y1="328.1797" y2="341.1797"/><line style="stroke:#383838;stroke-width:1.0;" x1="545.5" x2="555.5" y1="328.1797" y2="328.1797"/><rect fill="#FFFFFF" height="203.9297" style="stroke:#FFFFFF;stroke-width:1.0;" width="10" x="545.5" y="369.1797"/><line style="stroke:#383838;stroke-width:1.0;" x1="545.5" x2="545.5" y1="369.1797" y2="573.1094"/><line style="stroke:#383838;stroke-width:1.0;" x1="555.5" x2="555.5" y1="369.1797" y2="573.1094"/><rect fill="#FFFFFF" height="185.7969" style="stroke:#FFFFFF;stroke-width:1.0;" width="10" x="545.5" y="601.1094"/><line style="stroke:#383838;stroke-width:1.0;" x1="545.5" x2="545.5" y1="601.1094" y2="786.9063"/><line style="stroke:#383838;stroke-width:1.0;" x1="555.5" x2="555.5" y1="601.1094" y2="786.9063"/><line style="stroke:#383838;stroke-width:1.0;" x1="545.5" x2="555.5" y1="786.9063" y2="786.9063"/><line style="stroke:#383838;stroke-width:1.0;stroke-dasharray:5.0,5.0;" x1="31" x2="31" y1="102.25" y2="341.1797"/><line style="stroke:#383838;stroke-width:1.0;stroke-dasharray:1.0,4.0;" x1="31" x2="31" y1="341.1797" y2="369.1797"/><line style="stroke:#383838;stroke-width:1.0;stroke-dasharray:5.0,5.0;" x1="31" x2="31" y1="369.1797" y2="573.1094"/><line style="stroke:#383838;stroke-width:1.0;stroke-dasharray:1.0,4.0;" x1="31" x2="31" y1="573.1094" y2="601.1094"/><line style="stroke:#383838;stroke-width:1.0;stroke-dasharray:5.0,5.0;" x1="31" x2="31" y1="601.1094" y2="831.0391"/><line style="stroke:#383838;stroke-width:1.0;stroke-dasharray:1.0,4.0;" x1="31" x2="31" y1="831.0391" y2="859.0391"/><line style="stroke:#383838;stroke-width:1.0;stroke-dasharray:5.0,5.0;" x1="31" x2="31" y1="859.0391" y2="1030.7031"/><line style="stroke:#383838;stroke-width:1.0;stroke-dasharray:1.0,4.0;" x1="31" x2="31" y1="1030.7031" y2="1058.7031"/><line style="stroke:#383838;stroke-width:1.0;stroke-dasharray:5.0,5.0;" x1="31" x2="31" y1="1058.7031" y2="1139.9688"/><line style="stroke:#383838;stroke-width:1.0;stroke-dasharray:5.0,5.0;" x1="362.5" x2="362.5" y1="102.25" y2="341.1797"/><line style="stroke:#383838;stroke-width:1.0;stroke-dasharray:1.0,4.0;" x1="362.5" x2="362.5" y1="341.1797" y2="369.1797"/><line style="stroke:#383838;stroke-width:1.0;stroke-dasharray:5.0,5.0;" x1="362.5" x2="362.5" y1="369.1797" y2="573.1094"/><line style="stroke:#383838;stroke-width:1.0;stroke-dasharray:1.0,4.0;" x1="362.5" x2="362.5" y1="573.1094" y2="601.1094"/><line style="stroke:#383838;stroke-width:1.0;stroke-dasharray:5.0,5.0;" x1="362.5" x2="362.5" y1="601.1094" y2="831.0391"/><line style="stroke:#383838;stroke-width:1.0;stroke-dasharray:1.0,4.0;" x1="362.5" x2="362.5" y1="831.0391" y2="859.0391"/><line style="stroke:#383838;stroke-width:1.0;stroke-dasharray:5.0,5.0;" x1="362.5" x2="362.5" y1="859.0391" y2="1030.7031"/><line style="stroke:#383838;stroke-width:1.0;stroke-dasharray:1.0,4.0;" x1="362.5" x2="362.5" y1="1030.7031" y2="1058.7031"/><line style="stroke:#383838;stroke-width:1.0;stroke-dasharray:5.0,5.0;" x1="362.5" x2="362.5" y1="1058.7031" y2="1139.9688"/><line style="stroke:#383838;stroke-width:1.0;stroke-dasharray:5.0,5.0;" x1="550.5" x2="550.5" y1="102.25" y2="341.1797"/><line style="stroke:#383838;stroke-width:1.0;stroke-dasharray:1.0,4.0;" x1="550.5" x2="550.5" y1="341.1797" y2="369.1797"/><line style="stroke:#383838;stroke-width:1.0;stroke-dasharray:5.0,5.0;" x1="550.5" x2="550.5" y1="369.1797" y2="573.1094"/><line style="stroke:#383838;stroke-width:1.0;stroke-dasharray:1.0,4.0;" x1="550.5" x2="550.5" y1="573.1094" y2="601.1094"/><line style="stroke:#383838;stroke-width:1.0;stroke-dasharray:5.0,5.0;" x1="550.5" x2="550.5" y1="601.1094" y2="831.0391"/><line style="stroke:#383838;stroke-width:1.0;stroke-dasharray:1.0,4.0;" x1="550.5" x2="550.5" y1="831.0391" y2="859.0391"/><line style="stroke:#383838;stroke-width:1.0;stroke-dasharray:5.0,5.0;" x1="550.5" x2="550.5" y1="859.0391" y2="1030.7031"/><line style="stroke:#383838;stroke-width:1.0;stroke-dasharray:1.0,4.0;" x1="550.5" x2="550.5" y1="1030.7031" y2="1058.7031"/><line style="stroke:#383838;stroke-width:1.0;stroke-dasharray:5.0,5.0;" x1="550.5" x2="550.5" y1="1058.7031" y2="1139.9688"/><line style="stroke:#383838;stroke-width:1.0;stroke-dasharray:5.0,5.0;" x1="738.5" x2="738.5" y1="102.25" y2="341.1797"/><line style="stroke:#383838;stroke-width:1.0;stroke-dasharray:1.0,4.0;" x1="738.5" x2="738.5" y1="341.1797" y2="369.1797"/><line style="stroke:#383838;stroke-width:1.0;stroke-dasharray:5.0,5.0;" x1="738.5" x2="738.5" y1="369.1797" y2="573.1094"/><line style="stroke:#383838;stroke-width:1.0;stroke-dasharray:1.0,4.0;" x1="738.5" x2="738.5" y1="573.1094" y2="601.1094"/><line style="stroke:#383838;stroke-width:1.0;stroke-dasharray:5.0,5.0;" x1="738.5" x2="738.5" y1="601.1094" y2="831.0391"/><line style="stroke:#383838;stroke-width:1.0;stroke-dasharray:1.0,4.0;" x1="738.5" x2="738.5" y1="831.0391" y2="859.0391"/><line style="stroke:#383838;stroke-width:1.0;stroke-dasharray:5.0,5.0;" x1="738.5" x2="738.5" y1="859.0391" y2="1030.7031"/><line style="stroke:#383838;stroke-width:1.0;stroke-dasharray:1.0,4.0;" x1="738.5" x2="738.5" y1="1030.7031" y2="1058.7031"/><line style="stroke:#383838;stroke-width:1.0;stroke-dasharray:5.0,5.0;" x1="738.5" x2="738.5" y1="1058.7031" y2="1139.9688"/><rect fill="#F8F8F8" height="30.2969" style="stroke:#383838;stroke-width:1.5;" width="53" x="5" y="70.9531"/><text fill="#000000" font-family="sans-serif" font-size="14" lengthAdjust="spacing" textLength="39" x="12" y="90.9482">Client</text><rect fill="#F8F8F8" height="30.2969" style="stroke:#383838;stroke-width:1.5;" width="76" x="324.5" y="70.9531"/><text fill="#000000" font-family="sans-serif" font-size="14" lengthAdjust="spacing" textLength="62" x="331.5" y="90.9482">Worker 1</text><rect fill="#F8F8F8" height="30.2969" style="stroke:#383838;stroke-width:1.5;" width="76" x="512.5" y="70.9531"/><text fill="#000000" font-family="sans-serif" font-size="14" lengthAdjust="spacing" textLength="62" x="519.5" y="90.9482">Worker 2</text><text fill="#000000" font-family="sans-serif" font-size="14" lengthAdjust="spacing" textLength="112" x="679.5" y="98.9482">Location Service</text><path d="M720.5,49.9531 C720.5,39.9531 738.5,39.9531 738.5,39.9531 C738.5,39.9531 756.5,39.9531 756.5,49.9531 L756.5,75.9531 C756.5,85.9531 738.5,85.9531 738.5,85.9531 C738.5,85.9531 720.5,85.9531 720.5,75.9531 L720.5,49.9531 " fill="#F8F8F8" style="stroke:#000000;stroke-width:1.5;"/><path d="M720.5,49.9531 C720.5,59.9531 738.5,59.9531 738.5,59.9531 C738.5,59.9531 756.5,59.9531 756.5,49.9531 " fill="none" style="stroke:#000000;stroke-width:1.5;"/><rect fill="#FFFFFF" height="92.2656" style="stroke:#FFFFFF;stroke-width:1.0;" width="10" x="26.5" y="938.4375"/><line style="stroke:#383838;stroke-width:1.0;" x1="26.5" x2="26.5" y1="938.4375" y2="1030.7031"/><line style="stroke:#383838;stroke-width:1.0;" x1="36.5" x2="36.5" y1="938.4375" y2="1030.7031"/><line style="stroke:#383838;stroke-width:1.0;" x1="26.5" x2="36.5" y1="938.4375" y2="938.4375"/><rect fill="#FFFFFF" height="63.2656" style="stroke:#FFFFFF;stroke-width:1.0;" width="10" x="26.5" y="1058.7031"/><line style="stroke:#383838;stroke-width:1.0;" x1="26.5" x2="26.5" y1="1058.7031" y2="1121.9688"/><line style="stroke:#383838;stroke-width:1.0;" x1="36.5" x2="36.5" y1="1058.7031" y2="1121.9688"/><line style="stroke:#383838;stroke-width:1.0;" x1="26.5" x2="36.5" y1="1121.9688" y2="1121.9688"/><rect fill="#FFFFFF" height="84.2656" style="stroke:#FFFFFF;stroke-width:1.0;" width="10" x="357.5" y="746.7734"/><line style="stroke:#383838;stroke-width:1.0;" x1="357.5" x2="357.5" y1="746.7734" y2="831.0391"/><line style="stroke:#383838;stroke-width:1.0;" x1="367.5" x2="367.5" y1="746.7734" y2="831.0391"/><line style="stroke:#383838;stroke-width:1.0;" x1="357.5" x2="367.5" y1="746.7734" y2="746.7734"/><rect fill="#FFFFFF" height="114.5313" style="stroke:#FFFFFF;stroke-width:1.0;" width="10" x="357.5" y="859.0391"/><line style="stroke:#383838;stroke-width:1.0;" x1="357.5" x2="357.5" y1="859.0391" y2="973.5703"/><line style="stroke:#383838;stroke-width:1.0;" x1="367.5" x2="367.5" y1="859.0391" y2="973.5703"/><line style="stroke:#383838;stroke-width:1.0;" x1="357.5" x2="367.5" y1="973.5703" y2="973.5703"/><rect fill="#FFFFFF" height="13" style="stroke:#FFFFFF;stroke-width:1.0;" width="10" x="357.5" y="1017.7031"/><line style="stroke:#383838;stroke-width:1.0;" x1="357.5" x2="357.5" y1="1017.7031" y2="1030.7031"/><line style="stroke:#383838;stroke-width:1.0;" x1="367.5" x2="367.5" y1="1017.7031" y2="1030.7031"/><line style="stroke:#383838;stroke-width:1.0;" x1="357.5" x2="367.5" y1="1017.7031" y2="1017.7031"/><rect fill="#FFFFFF" height="27.1328" style="stroke:#FFFFFF;stroke-width:1.0;" width="10" x="357.5" y="1058.7031"/><line style="stroke:#383838;stroke-width:1.0;" x1="357.5" x2="357.5" y1="1058.7031" y2="1085.8359"/><line style="stroke:#383838;stroke-width:1.0;" x1="367.5" x2="367.5" y1="1058.7031" y2="1085.8359"/><line style="stroke:#383838;stroke-width:1.0;" x1="357.5" x2="367.5" y1="1085.8359" y2="1085.8359"/><rect fill="#FFFFFF" height="13" style="stroke:#FFFFFF;stroke-width:1.0;" width="10" x="545.5" y="328.1797"/><line style="stroke:#383838;stroke-width:1.0;" x1="545.5" x2="545.5" y1="328.1797" y2="341.1797"/><line style="stroke:#383838;stroke-width:1.0;" x1="555.5" x2="555.5" y1="328.1797" y2="341.1797"/><line style="stroke:#383838;stroke-width:1.0;" x1="545.5" x2="555.5" y1="328.1797" y2="328.1797"/><rect fill="#FFFFFF" height="203.9297" style="stroke:#FFFFFF;stroke-width:1.0;" width="10" x="545.5" y="369.1797"/><line style="stroke:#383838;stroke-width:1.0;" x1="545.5" x2="545.5" y1="369.1797" y2="573.1094"/><line style="stroke:#383838;stroke-width:1.0;" x1="555.5" x2="555.5" y1="369.1797" y2="573.1094"/><rect fill="#FFFFFF" height="185.7969" style="stroke:#FFFFFF;stroke-width:1.0;" width="10" x="545.5" y="601.1094"/><line style="stroke:#383838;stroke-width:1.0;" x1="545.5" x2="545.5" y1="601.1094" y2="786.9063"/><line style="stroke:#383838;stroke-width:1.0;" x1="555.5" x2="555.5" y1="601.1094" y2="786.9063"/><line style="stroke:#383838;stroke-width:1.0;" x1="545.5" x2="555.5" y1="786.9063" y2="786.9063"/><path d="M286,117.25 L286,142.25 L438,142.25 L438,127.25 L428,117.25 L286,117.25 " fill="#EBEBEB" style="stroke:#383838;stroke-width:1.0;"/><path d="M428,117.25 L428,127.25 L438,127.25 L428,117.25 " fill="#EBEBEB" style="stroke:#383838;stroke-width:1.0;"/><text fill="#000000" font-family="sans-serif" font-size="13" lengthAdjust="spacing" textLength="131" x="292" y="134.3169">starting with data d0</text><path d="M474,152.3828 L474,177.3828 L626,177.3828 L626,162.3828 L616,152.3828 L474,152.3828 " fill="#EBEBEB" style="stroke:#383838;stroke-width:1.0;"/><path d="M616,152.3828 L616,162.3828 L626,162.3828 L616,152.3828 " fill="#EBEBEB" style="stroke:#383838;stroke-width:1.0;"/><text fill="#000000" font-family="sans-serif" font-size="13" lengthAdjust="spacing" textLength="131" x="480" y="169.4497">starting with data d1</text><polygon fill="#383838" points="726.5,199.6484,736.5,203.6484,726.5,207.6484" style="stroke:#383838;stroke-width:1.0;"/><line style="stroke:#383838;stroke-width:1.0;" x1="31.5" x2="732.5" y1="203.6484" y2="203.6484"/><text fill="#000000" font-family="sans-serif" font-size="13" lengthAdjust="spacing" textLength="82" x="344" y="198.5825">GET /data/d1</text><polygon fill="#383838" points="42.5,228.7813,32.5,232.7813,42.5,236.7813" style="stroke:#383838;stroke-width:1.0;"/><line style="stroke:#383838;stroke-width:1.0;" x1="36.5" x2="737.5" y1="232.7813" y2="232.7813"/><text fill="#000000" font-family="sans-serif" font-size="13" lengthAdjust="spacing" textLength="54" x="358" y="227.7153">d1 @ w2</text><polygon fill="#383838" points="538.5,257.9141,548.5,261.9141,538.5,265.9141" style="stroke:#383838;stroke-width:1.0;"/><line style="stroke:#383838;stroke-width:1.0;" x1="31.5" x2="544.5" y1="261.9141" y2="261.9141"/><text fill="#000000" font-family="sans-serif" font-size="13" lengthAdjust="spacing" textLength="280" x="151" y="256.8481">PUT /computation/c1 (result=d2; prereq d1)</text><polygon fill="#383838" points="726.5,287.0469,736.5,291.0469,726.5,295.0469" style="stroke:#383838;stroke-width:1.0;"/><line style="stroke:#383838;stroke-width:1.0;" x1="31.5" x2="732.5" y1="291.0469" y2="291.0469"/><text fill="#000000" font-family="sans-serif" font-size="13" lengthAdjust="spacing" textLength="141" x="314.5" y="285.981">POST /data/c1,d2 (w2)</text><line style="stroke:#383838;stroke-width:1.0;" x1="550.5" x2="597.5" y1="315.1797" y2="315.1797"/><line style="stroke:#383838;stroke-width:1.0;" x1="597.5" x2="597.5" y1="315.1797" y2="328.1797"/><line style="stroke:#383838;stroke-width:1.0;" x1="556.5" x2="597.5" y1="328.1797" y2="328.1797"/><polygon fill="#383838" points="566.5,324.1797,556.5,328.1797,566.5,332.1797" style="stroke:#383838;stroke-width:1.0;"/><text fill="#000000" font-family="sans-serif" font-size="13" lengthAdjust="spacing" textLength="174" x="562.5" y="310.1138">PUT /computation-ready/c1</text><polygon fill="#383838" points="726.5,386.3125,736.5,390.3125,726.5,394.3125" style="stroke:#383838;stroke-width:1.0;"/><line style="stroke:#383838;stroke-width:1.0;" x1="31.5" x2="732.5" y1="390.3125" y2="390.3125"/><text fill="#000000" font-family="sans-serif" font-size="13" lengthAdjust="spacing" textLength="82" x="344" y="385.2466">GET /data/d0</text><polygon fill="#383838" points="42.5,415.4453,32.5,419.4453,42.5,423.4453" style="stroke:#383838;stroke-width:1.0;"/><line style="stroke:#383838;stroke-width:1.0;" x1="36.5" x2="737.5" y1="419.4453" y2="419.4453"/><text fill="#000000" font-family="sans-serif" font-size="13" lengthAdjust="spacing" textLength="54" x="358" y="414.3794">d1 @ w2</text><polygon fill="#383838" points="350.5,444.5781,360.5,448.5781,350.5,452.5781" style="stroke:#383838;stroke-width:1.0;"/><line style="stroke:#383838;stroke-width:1.0;" x1="31.5" x2="356.5" y1="448.5781" y2="448.5781"/><text fill="#000000" font-family="sans-serif" font-size="13" lengthAdjust="spacing" textLength="307" x="43.5" y="443.5122">PUT /computation/c2 (result=d3; prereq=d0,d2)</text><polygon fill="#383838" points="726.5,473.7109,736.5,477.7109,726.5,481.7109" style="stroke:#383838;stroke-width:1.0;"/><line style="stroke:#383838;stroke-width:1.0;" x1="31.5" x2="732.5" y1="477.7109" y2="477.7109"/><text fill="#000000" font-family="sans-serif" font-size="13" lengthAdjust="spacing" textLength="141" x="314.5" y="472.645">POST /data/c2,d3 (w1)</text><polygon fill="#383838" points="726.5,502.8438,736.5,506.8438,726.5,510.8438" style="stroke:#383838;stroke-width:1.0;"/><line style="stroke:#383838;stroke-width:1.0;" x1="362.5" x2="732.5" y1="506.8438" y2="506.8438"/><text fill="#000000" font-family="sans-serif" font-size="13" lengthAdjust="spacing" textLength="82" x="509.5" y="501.7778">GET /data/d2</text><polygon fill="#383838" points="373.5,531.9766,363.5,535.9766,373.5,539.9766" style="stroke:#383838;stroke-width:1.0;"/><line style="stroke:#383838;stroke-width:1.0;" x1="367.5" x2="737.5" y1="535.9766" y2="535.9766"/><text fill="#000000" font-family="sans-serif" font-size="13" lengthAdjust="spacing" textLength="54" x="523.5" y="530.9106">d2 @ w2</text><polygon fill="#383838" points="533.5,561.1094,543.5,565.1094,533.5,569.1094" style="stroke:#383838;stroke-width:1.0;"/><line style="stroke:#383838;stroke-width:1.0;" x1="362.5" x2="539.5" y1="565.1094" y2="565.1094"/><text fill="#000000" font-family="sans-serif" font-size="13" lengthAdjust="spacing" textLength="82" x="413" y="560.0435">GET /data/d2</text><polygon fill="#383838" points="726.5,618.2422,736.5,622.2422,726.5,626.2422" style="stroke:#383838;stroke-width:1.0;"/><line style="stroke:#383838;stroke-width:1.0;" x1="31.5" x2="732.5" y1="622.2422" y2="622.2422"/><text fill="#000000" font-family="sans-serif" font-size="13" lengthAdjust="spacing" textLength="72" x="349" y="617.1763">GET /nodes</text><polygon fill="#383838" points="42.5,647.375,32.5,651.375,42.5,655.375" style="stroke:#383838;stroke-width:1.0;"/><line style="stroke:#383838;stroke-width:1.0;" x1="36.5" x2="737.5" y1="651.375" y2="651.375"/><text fill="#000000" font-family="sans-serif" font-size="13" lengthAdjust="spacing" textLength="39" x="365.5" y="646.3091">nodes</text><polygon fill="#383838" points="350.5,676.5078,360.5,680.5078,350.5,684.5078" style="stroke:#383838;stroke-width:1.0;"/><line style="stroke:#383838;stroke-width:1.0;" x1="31.5" x2="356.5" y1="680.5078" y2="680.5078"/><text fill="#000000" font-family="sans-serif" font-size="13" lengthAdjust="spacing" textLength="305" x="44.5" y="675.4419">PUT /computation/c3 (result=d4; prereq=NULL)</text><polygon fill="#383838" points="726.5,705.6406,736.5,709.6406,726.5,713.6406" style="stroke:#383838;stroke-width:1.0;"/><line style="stroke:#383838;stroke-width:1.0;" x1="31.5" x2="732.5" y1="709.6406" y2="709.6406"/><text fill="#000000" font-family="sans-serif" font-size="13" lengthAdjust="spacing" textLength="141" x="314.5" y="704.5747">POST /data/c3,d4 (w1)</text><line style="stroke:#383838;stroke-width:1.0;" x1="362.5" x2="409.5" y1="733.7734" y2="733.7734"/><line style="stroke:#383838;stroke-width:1.0;" x1="409.5" x2="409.5" y1="733.7734" y2="746.7734"/><line style="stroke:#383838;stroke-width:1.0;" x1="368.5" x2="409.5" y1="746.7734" y2="746.7734"/><polygon fill="#383838" points="378.5,742.7734,368.5,746.7734,378.5,750.7734" style="stroke:#383838;stroke-width:1.0;"/><text fill="#000000" font-family="sans-serif" font-size="13" lengthAdjust="spacing" textLength="174" x="374.5" y="728.7075">PUT /computation-ready/c3</text><line style="stroke:#383838;stroke-width:1.0;" x1="555.5" x2="597.5" y1="785.9063" y2="785.9063"/><line style="stroke:#383838;stroke-width:1.0;" x1="597.5" x2="597.5" y1="785.9063" y2="798.9063"/><line style="stroke:#383838;stroke-width:1.0;" x1="550.5" x2="597.5" y1="798.9063" y2="798.9063"/><polygon fill="#383838" points="560.5,794.9063,550.5,798.9063,560.5,802.9063" style="stroke:#383838;stroke-width:1.0;"/><text fill="#000000" font-family="sans-serif" font-size="13" lengthAdjust="spacing" textLength="91" x="562.5" y="780.8403">POST /data/d2</text><polygon fill="#383838" points="378.5,819.0391,368.5,823.0391,378.5,827.0391" style="stroke:#383838;stroke-width:1.0;"/><line style="stroke:#383838;stroke-width:1.0;" x1="372.5" x2="549.5" y1="823.0391" y2="823.0391"/><text fill="#000000" font-family="sans-serif" font-size="13" lengthAdjust="spacing" textLength="91" x="413.5" y="817.9731">POST /data/d2</text><polygon fill="#383838" points="726.5,876.1719,736.5,880.1719,726.5,884.1719" style="stroke:#383838;stroke-width:1.0;"/><line style="stroke:#383838;stroke-width:1.0;" x1="31.5" x2="732.5" y1="880.1719" y2="880.1719"/><text fill="#000000" font-family="sans-serif" font-size="13" lengthAdjust="spacing" textLength="82" x="344" y="875.106">GET /data/d3</text><polygon fill="#383838" points="42.5,905.3047,32.5,909.3047,42.5,913.3047" style="stroke:#383838;stroke-width:1.0;"/><line style="stroke:#383838;stroke-width:1.0;" x1="36.5" x2="737.5" y1="909.3047" y2="909.3047"/><text fill="#000000" font-family="sans-serif" font-size="13" lengthAdjust="spacing" textLength="54" x="358" y="904.2388">d3 @ w1</text><polygon fill="#383838" points="345.5,934.4375,355.5,938.4375,345.5,942.4375" style="stroke:#383838;stroke-width:1.0;"/><line style="stroke:#383838;stroke-width:1.0;" x1="36.5" x2="351.5" y1="938.4375" y2="938.4375"/><text fill="#000000" font-family="sans-serif" font-size="13" lengthAdjust="spacing" textLength="82" x="156" y="933.3716">GET /data/d3</text><line style="stroke:#383838;stroke-width:1.0;" x1="367.5" x2="409.5" y1="972.5703" y2="972.5703"/><line style="stroke:#383838;stroke-width:1.0;" x1="409.5" x2="409.5" y1="972.5703" y2="985.5703"/><line style="stroke:#383838;stroke-width:1.0;" x1="362.5" x2="409.5" y1="985.5703" y2="985.5703"/><polygon fill="#383838" points="372.5,981.5703,362.5,985.5703,372.5,989.5703" style="stroke:#383838;stroke-width:1.0;"/><text fill="#000000" font-family="sans-serif" font-size="13" lengthAdjust="spacing" textLength="91" x="374.5" y="967.5044">POST /data/d4</text><line style="stroke:#383838;stroke-width:1.0;" x1="362.5" x2="409.5" y1="1004.7031" y2="1004.7031"/><line style="stroke:#383838;stroke-width:1.0;" x1="409.5" x2="409.5" y1="1004.7031" y2="1017.7031"/><line style="stroke:#383838;stroke-width:1.0;" x1="368.5" x2="409.5" y1="1017.7031" y2="1017.7031"/><polygon fill="#383838" points="378.5,1013.7031,368.5,1017.7031,378.5,1021.7031" style="stroke:#383838;stroke-width:1.0;"/><text fill="#000000" font-family="sans-serif" font-size="13" lengthAdjust="spacing" textLength="174" x="374.5" y="999.6372">PUT /computation-ready/c2</text><line style="stroke:#383838;stroke-width:1.0;" x1="367.5" x2="409.5" y1="1084.8359" y2="1084.8359"/><line style="stroke:#383838;stroke-width:1.0;" x1="409.5" x2="409.5" y1="1084.8359" y2="1097.8359"/><line style="stroke:#383838;stroke-width:1.0;" x1="362.5" x2="409.5" y1="1097.8359" y2="1097.8359"/><polygon fill="#383838" points="372.5,1093.8359,362.5,1097.8359,372.5,1101.8359" style="stroke:#383838;stroke-width:1.0;"/><text fill="#000000" font-family="sans-serif" font-size="13" lengthAdjust="spacing" textLength="91" x="374.5" y="1079.77">POST /data/d3</text><polygon fill="#383838" points="42.5,1117.9688,32.5,1121.9688,42.5,1125.9688" style="stroke:#383838;stroke-width:1.0;"/><line style="stroke:#383838;stroke-width:1.0;" x1="36.5" x2="361.5" y1="1121.9688" y2="1121.9688"/><text fill="#000000" font-family="sans-serif" font-size="13" lengthAdjust="spacing" textLength="91" x="151.5" y="1116.9028">POST /data/d3</text><!--MD5=[7850fc84604bae1ba878a25aa0227c47]
@startuml
skinparam monochrome true
skinparam shadowing false
skinparam style strictuml
skinparam LifelineStrategy nosolid
skinparam sequenceMessageAlign center
title Concurrent Requests in New System

participant Client as c
participant "Worker 1" as w1  
participant "Worker 2" as w2
database "Location Service" as ls

note over w1: starting with data d0
note over w2: starting with data d1

c -> ls: GET /data/d1
ls -> c: d1 @ w2
c -> w2: PUT /computation/c1 (result=d2; prereq d1)
c -> ls: POST /data/c1,d2 (w2)
w2 -> w2: PUT /computation-ready/c1
activate w2
...
c -> ls: GET /data/d0
ls -> c: d1 @ w2
c -> w1: PUT /computation/c2 (result=d3; prereq=d0,d2)
c -> ls: POST /data/c2,d3 (w1)
w1 -> ls: GET /data/d2
ls -> w1: d2 @ w2
w1 -> w2: GET /data/d2
...
c -> ls: GET /nodes
ls -> c: nodes
c -> w1: PUT /computation/c3 (result=d4; prereq=NULL)
c -> ls: POST /data/c3,d4 (w1)
w1 -> w1: PUT /computation-ready/c3
activate w1
w2 -> w2: POST /data/d2
deactivate w2
w2 -> w1: POST /data/d2
...
c -> ls: GET /data/d3
ls -> c: d3 @ w1
c -> w1: GET /data/d3
activate c
w1 -> w1: POST /data/d4
deactivate w1
w1 -> w1: PUT /computation-ready/c2
activate w1
...
w1 -> w1: POST /data/d3
deactivate w1
w1 -> c: POST /data/d3
deactivate c

@enduml

PlantUML version 1.2021.15(Wed Dec 01 05:45:34 NZDT 2021)
(GPL source distribution)
Java Runtime: OpenJDK Runtime Environment
JVM: OpenJDK 64-Bit Server VM
Default Encoding: UTF-8
Language: en
Country: NZ
--></g></svg>