<?xml version="1.0" encoding="UTF-8" standalone="no"?><svg xmlns="http://www.w3.org/2000/svg" xmlns:xlink="http://www.w3.org/1999/xlink" contentStyleType="text/css" height="1053px" preserveAspectRatio="none" style="width:1044px;height:1053px;background:#FFFFFF;" version="1.1" viewBox="0 0 1044 1053" width="1044px" zoomAndPan="magnify"><defs/><g><rect height="26.2969" style="stroke:#00000000;stroke-width:1.0;fill:none;" width="403" x="322.25" y="10"/><text fill="#000000" font-family="sans-serif" font-size="14" font-weight="bold" lengthAdjust="spacing" textLength="393" x="327.25" y="27.9951">Concurrent Requests in New LargeScaleR System</text><rect fill="#8DA0CB" height="13" style="stroke:#8DA0CB;stroke-width:1.0;" width="10" x="603.5" y="648.8516"/><line style="stroke:#181818;stroke-width:1.0;" x1="603.5" x2="603.5" y1="648.8516" y2="661.8516"/><line style="stroke:#181818;stroke-width:1.0;" x1="613.5" x2="613.5" y1="648.8516" y2="661.8516"/><line style="stroke:#181818;stroke-width:1.0;" x1="603.5" x2="613.5" y1="648.8516" y2="648.8516"/><rect fill="#8DA0CB" height="189.7969" style="stroke:#8DA0CB;stroke-width:1.0;" width="10" x="603.5" y="689.8516"/><line style="stroke:#181818;stroke-width:1.0;" x1="603.5" x2="603.5" y1="689.8516" y2="879.6484"/><line style="stroke:#181818;stroke-width:1.0;" x1="613.5" x2="613.5" y1="689.8516" y2="879.6484"/><line style="stroke:#181818;stroke-width:1.0;" x1="603.5" x2="613.5" y1="879.6484" y2="879.6484"/><rect fill="#FC8D62" height="13" style="stroke:#FC8D62;stroke-width:1.0;" width="10" x="603.5" y="923.7813"/><line style="stroke:#181818;stroke-width:1.0;" x1="603.5" x2="603.5" y1="923.7813" y2="936.7813"/><line style="stroke:#181818;stroke-width:1.0;" x1="613.5" x2="613.5" y1="923.7813" y2="936.7813"/><line style="stroke:#181818;stroke-width:1.0;" x1="603.5" x2="613.5" y1="923.7813" y2="923.7813"/><rect fill="#FC8D62" height="27.1328" style="stroke:#FC8D62;stroke-width:1.0;" width="10" x="603.5" y="964.7813"/><line style="stroke:#181818;stroke-width:1.0;" x1="603.5" x2="603.5" y1="964.7813" y2="991.9141"/><line style="stroke:#181818;stroke-width:1.0;" x1="613.5" x2="613.5" y1="964.7813" y2="991.9141"/><line style="stroke:#181818;stroke-width:1.0;" x1="603.5" x2="613.5" y1="991.9141" y2="991.9141"/><rect fill="#66C2A5" height="383.5938" style="stroke:#66C2A5;stroke-width:1.0;" width="10" x="791.5" y="278.2578"/><line style="stroke:#181818;stroke-width:1.0;" x1="791.5" x2="791.5" y1="278.2578" y2="661.8516"/><line style="stroke:#181818;stroke-width:1.0;" x1="801.5" x2="801.5" y1="278.2578" y2="661.8516"/><line style="stroke:#181818;stroke-width:1.0;" x1="791.5" x2="801.5" y1="278.2578" y2="278.2578"/><rect fill="#66C2A5" height="27.1328" style="stroke:#66C2A5;stroke-width:1.0;" width="10" x="791.5" y="689.8516"/><line style="stroke:#181818;stroke-width:1.0;" x1="791.5" x2="791.5" y1="689.8516" y2="716.9844"/><line style="stroke:#181818;stroke-width:1.0;" x1="801.5" x2="801.5" y1="689.8516" y2="716.9844"/><line style="stroke:#181818;stroke-width:1.0;" x1="791.5" x2="801.5" y1="716.9844" y2="716.9844"/><line style="stroke:#181818;stroke-width:0.5;stroke-dasharray:5.0,5.0;" x1="277" x2="277" y1="118.5938" y2="661.8516"/><line style="stroke:#A80036;stroke-width:1.0;stroke-dasharray:1.0,4.0;" x1="277" x2="277" y1="661.8516" y2="689.8516"/><line style="stroke:#181818;stroke-width:0.5;stroke-dasharray:5.0,5.0;" x1="277" x2="277" y1="689.8516" y2="936.7813"/><line style="stroke:#A80036;stroke-width:1.0;stroke-dasharray:1.0,4.0;" x1="277" x2="277" y1="936.7813" y2="964.7813"/><line style="stroke:#181818;stroke-width:0.5;stroke-dasharray:5.0,5.0;" x1="277" x2="277" y1="964.7813" y2="1046.0469"/><line style="stroke:#181818;stroke-width:0.5;stroke-dasharray:5.0,5.0;" x1="608" x2="608" y1="118.5938" y2="661.8516"/><line style="stroke:#A80036;stroke-width:1.0;stroke-dasharray:1.0,4.0;" x1="608" x2="608" y1="661.8516" y2="689.8516"/><line style="stroke:#181818;stroke-width:0.5;stroke-dasharray:5.0,5.0;" x1="608" x2="608" y1="689.8516" y2="936.7813"/><line style="stroke:#A80036;stroke-width:1.0;stroke-dasharray:1.0,4.0;" x1="608" x2="608" y1="936.7813" y2="964.7813"/><line style="stroke:#181818;stroke-width:0.5;stroke-dasharray:5.0,5.0;" x1="608" x2="608" y1="964.7813" y2="1046.0469"/><line style="stroke:#181818;stroke-width:0.5;stroke-dasharray:5.0,5.0;" x1="796" x2="796" y1="118.5938" y2="661.8516"/><line style="stroke:#A80036;stroke-width:1.0;stroke-dasharray:1.0,4.0;" x1="796" x2="796" y1="661.8516" y2="689.8516"/><line style="stroke:#181818;stroke-width:0.5;stroke-dasharray:5.0,5.0;" x1="796" x2="796" y1="689.8516" y2="936.7813"/><line style="stroke:#A80036;stroke-width:1.0;stroke-dasharray:1.0,4.0;" x1="796" x2="796" y1="936.7813" y2="964.7813"/><line style="stroke:#181818;stroke-width:0.5;stroke-dasharray:5.0,5.0;" x1="796" x2="796" y1="964.7813" y2="1046.0469"/><line style="stroke:#181818;stroke-width:0.5;stroke-dasharray:5.0,5.0;" x1="984.5" x2="984.5" y1="118.5938" y2="661.8516"/><line style="stroke:#A80036;stroke-width:1.0;stroke-dasharray:1.0,4.0;" x1="984.5" x2="984.5" y1="661.8516" y2="689.8516"/><line style="stroke:#181818;stroke-width:0.5;stroke-dasharray:5.0,5.0;" x1="984.5" x2="984.5" y1="689.8516" y2="936.7813"/><line style="stroke:#A80036;stroke-width:1.0;stroke-dasharray:1.0,4.0;" x1="984.5" x2="984.5" y1="936.7813" y2="964.7813"/><line style="stroke:#181818;stroke-width:0.5;stroke-dasharray:5.0,5.0;" x1="984.5" x2="984.5" y1="964.7813" y2="1046.0469"/><text fill="#000000" font-family="sans-serif" font-size="14" lengthAdjust="spacing" textLength="39" x="255" y="115.292">Client</text><ellipse cx="277.5" cy="50.7969" fill="#FFFFFF" rx="8" ry="8" style="stroke:#181818;stroke-width:0.5;"/><path d="M277.5,58.7969 L277.5,85.7969 M264.5,66.7969 L290.5,66.7969 M277.5,85.7969 L264.5,100.7969 M277.5,85.7969 L290.5,100.7969 " fill="none" style="stroke:#181818;stroke-width:0.5;"/><rect fill="#FFFFFF" height="56.5938" rx="2.5" ry="2.5" style="stroke:#181818;stroke-width:0.5;" width="131" x="543" y="61"/><text fill="#000000" font-family="sans-serif" font-size="14" lengthAdjust="spacing" textLength="62" x="577.5" y="80.9951">Worker 1</text><line style="stroke:#181818;stroke-width:1.0;" x1="543" x2="674" y1="89.2969" y2="89.2969"/><text fill="#000000" font-family="sans-serif" font-size="14" lengthAdjust="spacing" textLength="117" x="550" y="107.292">Initialised with d0</text><rect fill="#FFFFFF" height="56.5938" rx="2.5" ry="2.5" style="stroke:#181818;stroke-width:0.5;" width="131" x="731" y="61"/><text fill="#000000" font-family="sans-serif" font-size="14" lengthAdjust="spacing" textLength="62" x="765.5" y="80.9951">Worker 2</text><line style="stroke:#181818;stroke-width:1.0;" x1="731" x2="862" y1="89.2969" y2="89.2969"/><text fill="#000000" font-family="sans-serif" font-size="14" lengthAdjust="spacing" textLength="117" x="738" y="107.292">Initialised with d1</text><text fill="#000000" font-family="sans-serif" font-size="14" lengthAdjust="spacing" textLength="112" x="925.5" y="115.292">Location Service</text><path d="M966.5,66.2969 C966.5,56.2969 984.5,56.2969 984.5,56.2969 C984.5,56.2969 1002.5,56.2969 1002.5,66.2969 L1002.5,92.2969 C1002.5,102.2969 984.5,102.2969 984.5,102.2969 C984.5,102.2969 966.5,102.2969 966.5,92.2969 L966.5,66.2969 " fill="#FFFFFF" style="stroke:#181818;stroke-width:1.5;"/><path d="M966.5,66.2969 C966.5,76.2969 984.5,76.2969 984.5,76.2969 C984.5,76.2969 1002.5,76.2969 1002.5,66.2969 " fill="none" style="stroke:#181818;stroke-width:1.5;"/><rect fill="#8DA0CB" height="13" style="stroke:#8DA0CB;stroke-width:1.0;" width="10" x="603.5" y="648.8516"/><line style="stroke:#181818;stroke-width:1.0;" x1="603.5" x2="603.5" y1="648.8516" y2="661.8516"/><line style="stroke:#181818;stroke-width:1.0;" x1="613.5" x2="613.5" y1="648.8516" y2="661.8516"/><line style="stroke:#181818;stroke-width:1.0;" x1="603.5" x2="613.5" y1="648.8516" y2="648.8516"/><rect fill="#8DA0CB" height="189.7969" style="stroke:#8DA0CB;stroke-width:1.0;" width="10" x="603.5" y="689.8516"/><line style="stroke:#181818;stroke-width:1.0;" x1="603.5" x2="603.5" y1="689.8516" y2="879.6484"/><line style="stroke:#181818;stroke-width:1.0;" x1="613.5" x2="613.5" y1="689.8516" y2="879.6484"/><line style="stroke:#181818;stroke-width:1.0;" x1="603.5" x2="613.5" y1="879.6484" y2="879.6484"/><rect fill="#FC8D62" height="13" style="stroke:#FC8D62;stroke-width:1.0;" width="10" x="603.5" y="923.7813"/><line style="stroke:#181818;stroke-width:1.0;" x1="603.5" x2="603.5" y1="923.7813" y2="936.7813"/><line style="stroke:#181818;stroke-width:1.0;" x1="613.5" x2="613.5" y1="923.7813" y2="936.7813"/><line style="stroke:#181818;stroke-width:1.0;" x1="603.5" x2="613.5" y1="923.7813" y2="923.7813"/><rect fill="#FC8D62" height="27.1328" style="stroke:#FC8D62;stroke-width:1.0;" width="10" x="603.5" y="964.7813"/><line style="stroke:#181818;stroke-width:1.0;" x1="603.5" x2="603.5" y1="964.7813" y2="991.9141"/><line style="stroke:#181818;stroke-width:1.0;" x1="613.5" x2="613.5" y1="964.7813" y2="991.9141"/><line style="stroke:#181818;stroke-width:1.0;" x1="603.5" x2="613.5" y1="991.9141" y2="991.9141"/><rect fill="#66C2A5" height="383.5938" style="stroke:#66C2A5;stroke-width:1.0;" width="10" x="791.5" y="278.2578"/><line style="stroke:#181818;stroke-width:1.0;" x1="791.5" x2="791.5" y1="278.2578" y2="661.8516"/><line style="stroke:#181818;stroke-width:1.0;" x1="801.5" x2="801.5" y1="278.2578" y2="661.8516"/><line style="stroke:#181818;stroke-width:1.0;" x1="791.5" x2="801.5" y1="278.2578" y2="278.2578"/><rect fill="#66C2A5" height="27.1328" style="stroke:#66C2A5;stroke-width:1.0;" width="10" x="791.5" y="689.8516"/><line style="stroke:#181818;stroke-width:1.0;" x1="791.5" x2="791.5" y1="689.8516" y2="716.9844"/><line style="stroke:#181818;stroke-width:1.0;" x1="801.5" x2="801.5" y1="689.8516" y2="716.9844"/><line style="stroke:#181818;stroke-width:1.0;" x1="791.5" x2="801.5" y1="716.9844" y2="716.9844"/><polygon fill="#66C2A5" points="972.5,147.7266,982.5,151.7266,972.5,155.7266" style="stroke:#66C2A5;stroke-width:1.0;"/><line style="stroke:#66C2A5;stroke-width:1.0;stroke-dasharray:2.0,2.0;" x1="277.5" x2="978.5" y1="151.7266" y2="151.7266"/><text fill="#000000" font-family="sans-serif" font-size="13" lengthAdjust="spacing" textLength="82" x="284.5" y="146.6606">GET /data/d1</text><rect fill="#66C2A5" height="23" style="stroke:#181818;stroke-width:0.5;" width="244" x="28" y="133.5938"/><text fill="#000000" font-family="sans-serif" font-size="13" lengthAdjust="spacing" textLength="236" x="32" y="149.6606">d2 &lt;- remote_call(fun, args=list(d1))</text><polygon fill="#66C2A5" points="288.5,178.8594,278.5,182.8594,288.5,186.8594" style="stroke:#66C2A5;stroke-width:1.0;"/><line style="stroke:#66C2A5;stroke-width:1.0;stroke-dasharray:2.0,2.0;" x1="282.5" x2="983.5" y1="182.8594" y2="182.8594"/><text fill="#000000" font-family="sans-serif" font-size="13" lengthAdjust="spacing" textLength="93" x="884.5" y="177.7935">d1 @ Worker 2</text><polygon fill="#66C2A5" points="784.5,207.9922,794.5,211.9922,784.5,215.9922" style="stroke:#66C2A5;stroke-width:1.0;"/><line style="stroke:#66C2A5;stroke-width:1.0;" x1="277.5" x2="790.5" y1="211.9922" y2="211.9922"/><text fill="#000000" font-family="sans-serif" font-size="13" lengthAdjust="spacing" textLength="280" x="284.5" y="206.9263">PUT /computation/c1 (result=d2; prereq d1)</text><polygon fill="#66C2A5" points="972.5,237.125,982.5,241.125,972.5,245.125" style="stroke:#66C2A5;stroke-width:1.0;"/><line style="stroke:#66C2A5;stroke-width:1.0;" x1="277.5" x2="978.5" y1="241.125" y2="241.125"/><text fill="#000000" font-family="sans-serif" font-size="13" lengthAdjust="spacing" textLength="197" x="284.5" y="236.0591">POST /data/c1,d2 (@ Worker 2)</text><line style="stroke:#66C2A5;stroke-width:1.0;" x1="796.5" x2="843.5" y1="265.2578" y2="265.2578"/><line style="stroke:#66C2A5;stroke-width:1.0;" x1="843.5" x2="843.5" y1="265.2578" y2="278.2578"/><line style="stroke:#66C2A5;stroke-width:1.0;" x1="802.5" x2="843.5" y1="278.2578" y2="278.2578"/><polygon fill="#66C2A5" points="812.5,274.2578,802.5,278.2578,812.5,282.2578" style="stroke:#66C2A5;stroke-width:1.0;"/><text fill="#000000" font-family="sans-serif" font-size="13" lengthAdjust="spacing" textLength="174" x="808.5" y="260.1919">PUT /computation-ready/c1</text><polygon fill="#FC8D62" points="972.5,310.3906,982.5,314.3906,972.5,318.3906" style="stroke:#FC8D62;stroke-width:1.0;"/><line style="stroke:#FC8D62;stroke-width:1.0;stroke-dasharray:2.0,2.0;" x1="277.5" x2="978.5" y1="314.3906" y2="314.3906"/><text fill="#000000" font-family="sans-serif" font-size="13" lengthAdjust="spacing" textLength="82" x="284.5" y="309.3247">GET /data/d0</text><rect fill="#FC8D62" height="23" style="stroke:#181818;stroke-width:0.5;" width="268" x="5" y="296.2578"/><text fill="#000000" font-family="sans-serif" font-size="13" lengthAdjust="spacing" textLength="260" x="9" y="312.3247">d3 &lt;- remote_call(fun, args=list(d0, d2))</text><polygon fill="#FC8D62" points="288.5,341.5234,278.5,345.5234,288.5,349.5234" style="stroke:#FC8D62;stroke-width:1.0;"/><line style="stroke:#FC8D62;stroke-width:1.0;stroke-dasharray:2.0,2.0;" x1="282.5" x2="983.5" y1="345.5234" y2="345.5234"/><text fill="#000000" font-family="sans-serif" font-size="13" lengthAdjust="spacing" textLength="93" x="884.5" y="340.4575">d1 @ Worker 2</text><polygon fill="#FC8D62" points="596.5,370.6563,606.5,374.6563,596.5,378.6563" style="stroke:#FC8D62;stroke-width:1.0;"/><line style="stroke:#FC8D62;stroke-width:1.0;" x1="277.5" x2="602.5" y1="374.6563" y2="374.6563"/><text fill="#000000" font-family="sans-serif" font-size="13" lengthAdjust="spacing" textLength="307" x="284.5" y="369.5903">PUT /computation/c2 (result=d3; prereq=d0,d2)</text><polygon fill="#FC8D62" points="972.5,399.7891,982.5,403.7891,972.5,407.7891" style="stroke:#FC8D62;stroke-width:1.0;"/><line style="stroke:#FC8D62;stroke-width:1.0;" x1="277.5" x2="978.5" y1="403.7891" y2="403.7891"/><text fill="#000000" font-family="sans-serif" font-size="13" lengthAdjust="spacing" textLength="197" x="284.5" y="398.7231">POST /data/c2,d3 (@ Worker 1)</text><polygon fill="#FC8D62" points="972.5,428.9219,982.5,432.9219,972.5,436.9219" style="stroke:#FC8D62;stroke-width:1.0;"/><line style="stroke:#FC8D62;stroke-width:1.0;stroke-dasharray:2.0,2.0;" x1="608.5" x2="978.5" y1="432.9219" y2="432.9219"/><text fill="#000000" font-family="sans-serif" font-size="13" lengthAdjust="spacing" textLength="82" x="615.5" y="427.856">GET /data/d2</text><polygon fill="#FC8D62" points="619.5,458.0547,609.5,462.0547,619.5,466.0547" style="stroke:#FC8D62;stroke-width:1.0;"/><line style="stroke:#FC8D62;stroke-width:1.0;stroke-dasharray:2.0,2.0;" x1="613.5" x2="983.5" y1="462.0547" y2="462.0547"/><text fill="#000000" font-family="sans-serif" font-size="13" lengthAdjust="spacing" textLength="93" x="884.5" y="456.9888">d2 @ Worker 2</text><polygon fill="#FC8D62" points="779.5,487.1875,789.5,491.1875,779.5,495.1875" style="stroke:#FC8D62;stroke-width:1.0;"/><line style="stroke:#FC8D62;stroke-width:1.0;" x1="608.5" x2="785.5" y1="491.1875" y2="491.1875"/><text fill="#000000" font-family="sans-serif" font-size="13" lengthAdjust="spacing" textLength="82" x="615.5" y="486.1216">GET /data/d2</text><polygon fill="#8DA0CB" points="972.5,518.3203,982.5,522.3203,972.5,526.3203" style="stroke:#8DA0CB;stroke-width:1.0;"/><line style="stroke:#8DA0CB;stroke-width:1.0;stroke-dasharray:2.0,2.0;" x1="277.5" x2="978.5" y1="522.3203" y2="522.3203"/><text fill="#000000" font-family="sans-serif" font-size="13" lengthAdjust="spacing" textLength="72" x="284.5" y="517.2544">GET /nodes</text><rect fill="#8DA0CB" height="23" style="stroke:#181818;stroke-width:0.5;" width="228" x="44" y="504.1875"/><text fill="#000000" font-family="sans-serif" font-size="13" lengthAdjust="spacing" textLength="220" x="48" y="520.2544">d4 &lt;- remote_call(fun, args=list())</text><polygon fill="#8DA0CB" points="288.5,549.4531,278.5,553.4531,288.5,557.4531" style="stroke:#8DA0CB;stroke-width:1.0;"/><line style="stroke:#8DA0CB;stroke-width:1.0;stroke-dasharray:2.0,2.0;" x1="282.5" x2="983.5" y1="553.4531" y2="553.4531"/><text fill="#000000" font-family="sans-serif" font-size="13" lengthAdjust="spacing" textLength="60" x="917.5" y="548.3872">Node List</text><polygon fill="#8DA0CB" points="596.5,578.5859,606.5,582.5859,596.5,586.5859" style="stroke:#8DA0CB;stroke-width:1.0;"/><line style="stroke:#8DA0CB;stroke-width:1.0;" x1="277.5" x2="602.5" y1="582.5859" y2="582.5859"/><text fill="#000000" font-family="sans-serif" font-size="13" lengthAdjust="spacing" textLength="305" x="284.5" y="577.52">PUT /computation/c3 (result=d4; prereq=NULL)</text><polygon fill="#8DA0CB" points="972.5,607.7188,982.5,611.7188,972.5,615.7188" style="stroke:#8DA0CB;stroke-width:1.0;"/><line style="stroke:#8DA0CB;stroke-width:1.0;" x1="277.5" x2="978.5" y1="611.7188" y2="611.7188"/><text fill="#000000" font-family="sans-serif" font-size="13" lengthAdjust="spacing" textLength="197" x="284.5" y="606.6528">POST /data/c3,d4 (@ Worker 1)</text><line style="stroke:#8DA0CB;stroke-width:1.0;" x1="608.5" x2="655.5" y1="635.8516" y2="635.8516"/><line style="stroke:#8DA0CB;stroke-width:1.0;" x1="655.5" x2="655.5" y1="635.8516" y2="648.8516"/><line style="stroke:#8DA0CB;stroke-width:1.0;" x1="614.5" x2="655.5" y1="648.8516" y2="648.8516"/><polygon fill="#8DA0CB" points="624.5,644.8516,614.5,648.8516,624.5,652.8516" style="stroke:#8DA0CB;stroke-width:1.0;"/><text fill="#000000" font-family="sans-serif" font-size="13" lengthAdjust="spacing" textLength="174" x="620.5" y="630.7856">PUT /computation-ready/c3</text><line style="stroke:#66C2A5;stroke-width:1.0;" x1="801.5" x2="843.5" y1="715.9844" y2="715.9844"/><line style="stroke:#66C2A5;stroke-width:1.0;" x1="843.5" x2="843.5" y1="715.9844" y2="728.9844"/><line style="stroke:#66C2A5;stroke-width:1.0;" x1="796.5" x2="843.5" y1="728.9844" y2="728.9844"/><polygon fill="#66C2A5" points="806.5,724.9844,796.5,728.9844,806.5,732.9844" style="stroke:#66C2A5;stroke-width:1.0;"/><text fill="#000000" font-family="sans-serif" font-size="13" lengthAdjust="spacing" textLength="91" x="808.5" y="710.9185">POST /data/d2</text><polygon fill="#FC8D62" points="624.5,749.1172,614.5,753.1172,624.5,757.1172" style="stroke:#FC8D62;stroke-width:1.0;"/><line style="stroke:#FC8D62;stroke-width:1.0;" x1="618.5" x2="795.5" y1="753.1172" y2="753.1172"/><text fill="#000000" font-family="sans-serif" font-size="13" lengthAdjust="spacing" textLength="91" x="698.5" y="748.0513">POST /data/d2</text><polygon fill="#E78AC3" points="972.5,780.25,982.5,784.25,972.5,788.25" style="stroke:#E78AC3;stroke-width:1.0;"/><line style="stroke:#E78AC3;stroke-width:1.0;stroke-dasharray:2.0,2.0;" x1="277.5" x2="978.5" y1="784.25" y2="784.25"/><text fill="#000000" font-family="sans-serif" font-size="13" lengthAdjust="spacing" textLength="82" x="284.5" y="779.1841">GET /data/d3</text><rect fill="#E78AC3" height="23" style="stroke:#181818;stroke-width:0.5;" width="56" x="216" y="766.1172"/><text fill="#000000" font-family="sans-serif" font-size="13" lengthAdjust="spacing" textLength="48" x="220" y="782.1841">pull(d3)</text><polygon fill="#E78AC3" points="288.5,811.3828,278.5,815.3828,288.5,819.3828" style="stroke:#E78AC3;stroke-width:1.0;"/><line style="stroke:#E78AC3;stroke-width:1.0;stroke-dasharray:2.0,2.0;" x1="282.5" x2="983.5" y1="815.3828" y2="815.3828"/><text fill="#000000" font-family="sans-serif" font-size="13" lengthAdjust="spacing" textLength="93" x="884.5" y="810.3169">d3 @ Worker 1</text><polygon fill="#E78AC3" points="591.5,840.5156,601.5,844.5156,591.5,848.5156" style="stroke:#E78AC3;stroke-width:1.0;"/><line style="stroke:#E78AC3;stroke-width:1.0;" x1="277.5" x2="597.5" y1="844.5156" y2="844.5156"/><text fill="#000000" font-family="sans-serif" font-size="13" lengthAdjust="spacing" textLength="82" x="284.5" y="839.4497">GET /data/d3</text><line style="stroke:#8DA0CB;stroke-width:1.0;" x1="613.5" x2="655.5" y1="878.6484" y2="878.6484"/><line style="stroke:#8DA0CB;stroke-width:1.0;" x1="655.5" x2="655.5" y1="878.6484" y2="891.6484"/><line style="stroke:#8DA0CB;stroke-width:1.0;" x1="608.5" x2="655.5" y1="891.6484" y2="891.6484"/><polygon fill="#8DA0CB" points="618.5,887.6484,608.5,891.6484,618.5,895.6484" style="stroke:#8DA0CB;stroke-width:1.0;"/><text fill="#000000" font-family="sans-serif" font-size="13" lengthAdjust="spacing" textLength="91" x="620.5" y="873.5825">POST /data/d4</text><line style="stroke:#FC8D62;stroke-width:1.0;" x1="608.5" x2="655.5" y1="910.7813" y2="910.7813"/><line style="stroke:#FC8D62;stroke-width:1.0;" x1="655.5" x2="655.5" y1="910.7813" y2="923.7813"/><line style="stroke:#FC8D62;stroke-width:1.0;" x1="614.5" x2="655.5" y1="923.7813" y2="923.7813"/><polygon fill="#FC8D62" points="624.5,919.7813,614.5,923.7813,624.5,927.7813" style="stroke:#FC8D62;stroke-width:1.0;"/><text fill="#000000" font-family="sans-serif" font-size="13" lengthAdjust="spacing" textLength="174" x="620.5" y="905.7153">PUT /computation-ready/c2</text><line style="stroke:#FC8D62;stroke-width:1.0;" x1="613.5" x2="655.5" y1="990.9141" y2="990.9141"/><line style="stroke:#FC8D62;stroke-width:1.0;" x1="655.5" x2="655.5" y1="990.9141" y2="1003.9141"/><line style="stroke:#FC8D62;stroke-width:1.0;" x1="608.5" x2="655.5" y1="1003.9141" y2="1003.9141"/><polygon fill="#FC8D62" points="618.5,999.9141,608.5,1003.9141,618.5,1007.9141" style="stroke:#FC8D62;stroke-width:1.0;"/><text fill="#000000" font-family="sans-serif" font-size="13" lengthAdjust="spacing" textLength="91" x="620.5" y="985.8481">POST /data/d3</text><polygon fill="#E78AC3" points="288.5,1024.0469,278.5,1028.0469,288.5,1032.0469" style="stroke:#E78AC3;stroke-width:1.0;"/><line style="stroke:#E78AC3;stroke-width:1.0;" x1="282.5" x2="607.5" y1="1028.0469" y2="1028.0469"/><text fill="#000000" font-family="sans-serif" font-size="13" lengthAdjust="spacing" textLength="91" x="510.5" y="1022.981">POST /data/d3</text><!--MD5=[51ef8877dd8373ee1cf39904393a0b1e]
@startuml

skinparam style strictuml
skinparam sequenceMessageAlign direction

title Concurrent Requests in New LargeScaleR System

actor Client as c #white
participant "Worker 1\n- - - -\nInitialised with d0" as w1 #white
participant "Worker 2\n- - - -\nInitialised with d1" as w2 #white
database "Location Service" as ls #white


c - -[#66c2a5]> ls: GET /data/d1
rnote left #66c2a5: d2 <- remote_call(fun, args=list(d1))
ls - -[#66c2a5]> c: d1 @ Worker 2
c -[#66c2a5]> w2: PUT /computation/c1 (result=d2; prereq d1)
c -[#66c2a5]> ls: POST /data/c1,d2 (@ Worker 2)
w2 -[#66c2a5]> w2: PUT /computation-ready/c1
activate w2 #66c2a5

c - -[#fc8d62]> ls: GET /data/d0
rnote left #fc8d62: d3 <- remote_call(fun, args=list(d0, d2))
ls - -[#fc8d62]> c: d1 @ Worker 2
c -[#fc8d62]> w1: PUT /computation/c2 (result=d3; prereq=d0,d2)
c -[#fc8d62]> ls: POST /data/c2,d3 (@ Worker 1)
w1 - -[#fc8d62]> ls: GET /data/d2
ls - -[#fc8d62]> w1: d2 @ Worker 2
w1 -[#fc8d62]> w2: GET /data/d2

c - -[#8da0cb]> ls: GET /nodes
rnote left #8da0cb: d4 <- remote_call(fun, args=list())
ls - -[#8da0cb]> c: Node List
c -[#8da0cb]> w1: PUT /computation/c3 (result=d4; prereq=NULL)
c -[#8da0cb]> ls: POST /data/c3,d4 (@ Worker 1)
w1 -[#8da0cb]> w1: PUT /computation-ready/c3
activate w1 #8da0cb
...
w2 -[#66c2a5]> w2: POST /data/d2
deactivate w2
w2 -[#fc8d62]> w1: POST /data/d2

c - -[#e78ac3]> ls: GET /data/d3
rnote left #e78ac3: pull(d3)
ls - -[#e78ac3]> c: d3 @ Worker 1
c -[#e78ac3]> w1: GET /data/d3
w1 -[#8da0cb]> w1: POST /data/d4
deactivate w1
w1 -[#fc8d62]> w1: PUT /computation-ready/c2
activate w1 #fc8d62
...
w1 -[#fc8d62]> w1: POST /data/d3
deactivate w1
w1 -[#e78ac3]> c: POST /data/d3

@enduml

PlantUML version 1.2022.2(Sun Mar 06 05:30:19 NZDT 2022)
(GPL source distribution)
Java Runtime: OpenJDK Runtime Environment
JVM: OpenJDK 64-Bit Server VM
Default Encoding: UTF-8
Language: en
Country: NZ
--></g></svg>