<?xml version="1.0" encoding="UTF-8" standalone="no"?><svg xmlns="http://www.w3.org/2000/svg" xmlns:xlink="http://www.w3.org/1999/xlink" contentScriptType="application/ecmascript" contentStyleType="text/css" height="1957px" preserveAspectRatio="none" style="width:782px;height:1957px;background:#FFFFFF;" version="1.1" viewBox="0 0 782 1957" width="782px" zoomAndPan="magnify"><defs><filter height="300%" id="fquu2j8eeq7es" width="300%" x="-1" y="-1"><feGaussianBlur result="blurOut" stdDeviation="2.0"/><feColorMatrix in="blurOut" result="blurOut2" type="matrix" values="0 0 0 0 0 0 0 0 0 0 0 0 0 0 0 0 0 0 .4 0"/><feOffset dx="4.0" dy="4.0" in="blurOut2" result="blurOut3"/><feBlend in="SourceGraphic" in2="blurOut3" mode="normal"/></filter></defs><g><ellipse cx="314.5" cy="20" fill="#000000" filter="url(#fquu2j8eeq7es)" rx="10" ry="10" style="stroke:none;stroke-width:1.0;"/><polygon fill="#FEFECE" filter="url(#fquu2j8eeq7es)" points="292.5,94,336.5,94,348.5,106,336.5,118,292.5,118,280.5,106,292.5,94" style="stroke:#A80036;stroke-width:1.5;"/><text fill="#000000" font-family="sans-serif" font-size="11" lengthAdjust="spacing" textLength="44" x="292.5" y="109.8081">request</text><ellipse cx="76.5" cy="163.6094" fill="#FEFECE" filter="url(#fquu2j8eeq7es)" rx="10" ry="10" style="stroke:#A80036;stroke-width:1.5;"/><path d="M76.6094,159.7813 L75,164.125 L78.2188,164.125 L76.6094,159.7813 Z M75.9375,158.6094 L77.2813,158.6094 L80.6094,167.3594 L79.375,167.3594 L78.5781,165.1094 L74.6406,165.1094 L73.8438,167.3594 L72.5938,167.3594 L75.9375,158.6094 Z " fill="#000000"/><ellipse cx="216.5" cy="163.6094" fill="#FEFECE" filter="url(#fquu2j8eeq7es)" rx="10" ry="10" style="stroke:#A80036;stroke-width:1.5;"/><path d="M215.3594,163.9375 L215.3594,167.1406 L217.2656,167.1406 Q218.2188,167.1406 218.6719,166.75 Q219.1406,166.3438 219.1406,165.5313 Q219.1406,164.7031 218.6719,164.3281 Q218.2188,163.9375 217.2656,163.9375 L215.3594,163.9375 Z M215.3594,160.3281 L215.3594,162.9688 L217.1094,162.9688 Q217.9844,162.9688 218.4063,162.6406 Q218.8281,162.3125 218.8281,161.6563 Q218.8281,160.9844 218.4063,160.6563 Q217.9844,160.3281 217.1094,160.3281 L215.3594,160.3281 Z M214.1719,159.3594 L217.2031,159.3594 Q218.5625,159.3594 219.2813,159.9219 Q220.0156,160.4844 220.0156,161.5156 Q220.0156,162.3281 219.6406,162.8125 Q219.2656,163.2813 218.5469,163.3906 Q219.4219,163.5781 219.9063,164.1719 Q220.3906,164.7656 220.3906,165.6563 Q220.3906,166.8281 219.5938,167.4688 Q218.7969,168.1094 217.3125,168.1094 L214.1719,168.1094 L214.1719,159.3594 Z " fill="#000000"/><ellipse cx="320.5" cy="163.6094" fill="#FEFECE" filter="url(#fquu2j8eeq7es)" rx="10" ry="10" style="stroke:#A80036;stroke-width:1.5;"/><path d="M323.7344,160.0313 L323.7344,161.2813 Q323.125,160.7188 322.4531,160.4531 Q321.7813,160.1719 321.0156,160.1719 Q319.5156,160.1719 318.7188,161.0938 Q317.9219,162.0156 317.9219,163.75 Q317.9219,165.4688 318.7188,166.3906 Q319.5156,167.3125 321.0156,167.3125 Q321.7813,167.3125 322.4531,167.0313 Q323.125,166.75 323.7344,166.2031 L323.7344,167.4375 Q323.1094,167.8594 322.4063,168.0781 Q321.7188,168.2813 320.9531,168.2813 Q318.9531,168.2813 317.8125,167.0625 Q316.6719,165.8438 316.6719,163.75 Q316.6719,161.6406 317.8125,160.4219 Q318.9531,159.2031 320.9531,159.2031 Q321.7344,159.2031 322.4219,159.4219 Q323.125,159.625 323.7344,160.0313 Z " fill="#000000"/><ellipse cx="496.5" cy="163.6094" fill="#FEFECE" filter="url(#fquu2j8eeq7es)" rx="10" ry="10" style="stroke:#A80036;stroke-width:1.5;"/><path d="M495.3594,160.3281 L495.3594,167.1406 L496.7969,167.1406 Q498.6094,167.1406 499.4375,166.3281 Q500.2813,165.5 500.2813,163.7188 Q500.2813,161.9688 499.4375,161.1563 Q498.6094,160.3281 496.7969,160.3281 L495.3594,160.3281 Z M494.1719,159.3594 L496.6094,159.3594 Q499.1563,159.3594 500.3438,160.4219 Q501.5313,161.4688 501.5313,163.7188 Q501.5313,165.9844 500.3281,167.0469 Q499.1406,168.1094 496.6094,168.1094 L494.1719,168.1094 L494.1719,159.3594 Z " fill="#000000"/><polygon fill="#FEFECE" filter="url(#fquu2j8eeq7es)" points="314.5,213.6094,314.5,213.6094,326.5,225.6094,314.5,237.6094,314.5,237.6094,302.5,225.6094,314.5,213.6094" style="stroke:#A80036;stroke-width:1.5;"/><polygon fill="#FEFECE" filter="url(#fquu2j8eeq7es)" points="280,50,349,50,361,62,349,74,280,74,268,62,280,50" style="stroke:#A80036;stroke-width:1.5;"/><text fill="#000000" font-family="sans-serif" font-size="11" lengthAdjust="spacing" textLength="69" x="280" y="65.8081">loop forever</text><ellipse cx="314.5" cy="279.6094" fill="#FEFECE" filter="url(#fquu2j8eeq7es)" rx="10" ry="10" style="stroke:#A80036;stroke-width:1.5;"/><path d="M314.6094,275.7813 L313,280.125 L316.2188,280.125 L314.6094,275.7813 Z M313.9375,274.6094 L315.2813,274.6094 L318.6094,283.3594 L317.375,283.3594 L316.5781,281.1094 L312.6406,281.1094 L311.8438,283.3594 L310.5938,283.3594 L313.9375,274.6094 Z " fill="#000000"/><rect fill="#FEFECE" filter="url(#fquu2j8eeq7es)" height="33.9688" rx="12.5" ry="12.5" style="stroke:#A80036;stroke-width:1.5;" width="136" x="246.5" y="309.6094"/><text fill="#000000" font-family="sans-serif" font-size="12" lengthAdjust="spacing" textLength="116" x="256.5" y="330.748">store computation</text><rect fill="#FFFFFF" filter="url(#fquu2j8eeq7es)" height="424.3159" style="stroke:#000000;stroke-width:2.0;" width="754" x="11" y="353.5781"/><path d="M151,353.5781 L151,362.875 L141,372.875 L11,372.875 " fill="none" style="stroke:#000000;stroke-width:2.0;"/><text fill="#000000" font-family="sans-serif" font-size="14" lengthAdjust="spacing" textLength="130" x="14" y="367.5732">stage computation</text><rect fill="#FEFECE" filter="url(#fquu2j8eeq7es)" height="33.9688" rx="12.5" ry="12.5" style="stroke:#A80036;stroke-width:1.5;" width="256" x="186.5" y="445.5854"/><text fill="#000000" font-family="sans-serif" font-size="12" lengthAdjust="spacing" textLength="236" x="196.5" y="466.7241">select next unaccounted prerequisite</text><polygon fill="#FEFECE" filter="url(#fquu2j8eeq7es)" points="203.5,499.5542,425.5,499.5542,437.5,511.5542,425.5,523.5542,203.5,523.5542,191.5,511.5542,203.5,499.5542" style="stroke:#A80036;stroke-width:1.5;"/><text fill="#000000" font-family="sans-serif" font-size="11" lengthAdjust="spacing" textLength="222" x="203.5" y="515.3623">prerequisite currently locally available?</text><text fill="#000000" font-family="sans-serif" font-size="11" lengthAdjust="spacing" textLength="20" x="171.5" y="508.96">yes</text><text fill="#000000" font-family="sans-serif" font-size="11" lengthAdjust="spacing" textLength="14" x="437.5" y="508.96">no</text><rect fill="#FEFECE" filter="url(#fquu2j8eeq7es)" height="33.9688" rx="12.5" ry="12.5" style="stroke:#A80036;stroke-width:1.5;" width="190" x="41" y="533.5542"/><text fill="#000000" font-family="sans-serif" font-size="12" lengthAdjust="spacing" textLength="170" x="51" y="554.6929">mark prerequisite available</text><rect fill="#FEFECE" filter="url(#fquu2j8eeq7es)" height="33.9688" rx="12.5" ry="12.5" style="stroke:#A80036;stroke-width:1.5;" width="484" x="251" y="533.5542"/><text fill="#000000" font-family="sans-serif" font-size="12" lengthAdjust="spacing" textLength="464" x="261" y="554.6929">locate and issue request for prerequisite data (send GET /data/* request)</text><polygon fill="#FEFECE" filter="url(#fquu2j8eeq7es)" points="314.5,573.5229,326.5,585.5229,314.5,597.5229,302.5,585.5229,314.5,573.5229" style="stroke:#A80036;stroke-width:1.5;"/><polygon fill="#FEFECE" filter="url(#fquu2j8eeq7es)" points="227,389.875,402,389.875,414,401.875,402,413.875,227,413.875,215,401.875,227,389.875" style="stroke:#A80036;stroke-width:1.5;"/><text fill="#000000" font-family="sans-serif" font-size="11" lengthAdjust="spacing" textLength="14" x="318.5" y="424.0854">no</text><text fill="#000000" font-family="sans-serif" font-size="11" lengthAdjust="spacing" textLength="175" x="227" y="405.6831">all prerequisites accounted for</text><text fill="#000000" font-family="sans-serif" font-size="11" lengthAdjust="spacing" textLength="20" x="195" y="399.2808">yes</text><rect fill="#FEFECE" filter="url(#fquu2j8eeq7es)" height="33.9688" rx="12.5" ry="12.5" style="stroke:#A80036;stroke-width:1.5;" width="414" x="107.5" y="687.9253"/><text fill="#000000" font-family="sans-serif" font-size="12" lengthAdjust="spacing" textLength="394" x="117.5" y="709.064">set computation ready (send PUT /computation-ready/* to self)</text><polygon fill="#FEFECE" filter="url(#fquu2j8eeq7es)" points="186,639.5229,443,639.5229,455,651.5229,443,663.5229,186,663.5229,174,651.5229,186,639.5229" style="stroke:#A80036;stroke-width:1.5;"/><text fill="#000000" font-family="sans-serif" font-size="11" lengthAdjust="spacing" textLength="20" x="318.5" y="673.7334">yes</text><text fill="#000000" font-family="sans-serif" font-size="11" lengthAdjust="spacing" textLength="257" x="186" y="655.3311">all prerequisites marked as locally available?</text><text fill="#000000" font-family="sans-serif" font-size="11" lengthAdjust="spacing" textLength="14" x="455" y="648.9287">no</text><polygon fill="#FEFECE" filter="url(#fquu2j8eeq7es)" points="314.5,741.894,326.5,753.894,314.5,765.894,302.5,753.894,314.5,741.894" style="stroke:#A80036;stroke-width:1.5;"/><ellipse cx="314.5" cy="808.894" fill="#FFFFFF" filter="url(#fquu2j8eeq7es)" rx="11" ry="11" style="stroke:#000000;stroke-width:1.0;"/><ellipse cx="314.5" cy="808.894" fill="#000000" rx="6" ry="6" style="stroke:#7F7F7F;stroke-width:1.0;"/><ellipse cx="314.5" cy="839.894" fill="#FEFECE" filter="url(#fquu2j8eeq7es)" rx="10" ry="10" style="stroke:#A80036;stroke-width:1.5;"/><path d="M313.3594,840.2222 L313.3594,843.4253 L315.2656,843.4253 Q316.2188,843.4253 316.6719,843.0347 Q317.1406,842.6284 317.1406,841.8159 Q317.1406,840.9878 316.6719,840.6128 Q316.2188,840.2222 315.2656,840.2222 L313.3594,840.2222 Z M313.3594,836.6128 L313.3594,839.2534 L315.1094,839.2534 Q315.9844,839.2534 316.4063,838.9253 Q316.8281,838.5972 316.8281,837.9409 Q316.8281,837.269 316.4063,836.9409 Q315.9844,836.6128 315.1094,836.6128 L313.3594,836.6128 Z M312.1719,835.644 L315.2031,835.644 Q316.5625,835.644 317.2813,836.2065 Q318.0156,836.769 318.0156,837.8003 Q318.0156,838.6128 317.6406,839.0972 Q317.2656,839.5659 316.5469,839.6753 Q317.4219,839.8628 317.9063,840.4565 Q318.3906,841.0503 318.3906,841.9409 Q318.3906,843.1128 317.5938,843.7534 Q316.7969,844.394 315.3125,844.394 L312.1719,844.394 L312.1719,835.644 Z " fill="#000000"/><rect fill="#FEFECE" filter="url(#fquu2j8eeq7es)" height="33.9688" rx="12.5" ry="12.5" style="stroke:#A80036;stroke-width:1.5;" width="86" x="271.5" y="869.894"/><text fill="#000000" font-family="sans-serif" font-size="12" lengthAdjust="spacing" textLength="66" x="281.5" y="891.0327">store data</text><rect fill="#FFFFFF" filter="url(#fquu2j8eeq7es)" height="321.0391" style="stroke:#000000;stroke-width:2.0;" width="498" x="77.5" y="913.8628"/><path d="M387.5,913.8628 L387.5,923.1597 L377.5,933.1597 L77.5,933.1597 " fill="none" style="stroke:#000000;stroke-width:2.0;"/><text fill="#000000" font-family="sans-serif" font-size="14" lengthAdjust="spacing" textLength="300" x="80.5" y="927.8579">Check if data is prerequisite to computation</text><rect fill="#FEFECE" filter="url(#fquu2j8eeq7es)" height="33.9688" rx="12.5" ry="12.5" style="stroke:#A80036;stroke-width:1.5;" width="190" x="219.5" y="998.562"/><text fill="#000000" font-family="sans-serif" font-size="12" lengthAdjust="spacing" textLength="170" x="229.5" y="1019.7007">mark prerequisite available</text><rect fill="#FEFECE" filter="url(#fquu2j8eeq7es)" height="33.9688" rx="12.5" ry="12.5" style="stroke:#A80036;stroke-width:1.5;" width="414" x="107.5" y="1100.9331"/><text fill="#000000" font-family="sans-serif" font-size="12" lengthAdjust="spacing" textLength="394" x="117.5" y="1122.0718">set computation ready (send PUT /computation-ready/* to self)</text><polygon fill="#FEFECE" filter="url(#fquu2j8eeq7es)" points="213.5,1052.5308,415.5,1052.5308,427.5,1064.5308,415.5,1076.5308,213.5,1076.5308,201.5,1064.5308,213.5,1052.5308" style="stroke:#A80036;stroke-width:1.5;"/><text fill="#000000" font-family="sans-serif" font-size="11" lengthAdjust="spacing" textLength="20" x="318.5" y="1086.7412">yes</text><text fill="#000000" font-family="sans-serif" font-size="11" lengthAdjust="spacing" textLength="202" x="213.5" y="1068.3389">all prerequisites now accounted for</text><text fill="#000000" font-family="sans-serif" font-size="11" lengthAdjust="spacing" textLength="14" x="427.5" y="1061.9365">no</text><polygon fill="#FEFECE" filter="url(#fquu2j8eeq7es)" points="314.5,1154.9019,326.5,1166.9019,314.5,1178.9019,302.5,1166.9019,314.5,1154.9019" style="stroke:#A80036;stroke-width:1.5;"/><polygon fill="#FEFECE" filter="url(#fquu2j8eeq7es)" points="233,950.1597,396,950.1597,408,962.1597,396,974.1597,233,974.1597,221,962.1597,233,950.1597" style="stroke:#A80036;stroke-width:1.5;"/><text fill="#000000" font-family="sans-serif" font-size="11" lengthAdjust="spacing" textLength="20" x="318.5" y="984.3701">yes</text><text fill="#000000" font-family="sans-serif" font-size="11" lengthAdjust="spacing" textLength="163" x="233" y="965.9678">data marked as prerequisite</text><text fill="#000000" font-family="sans-serif" font-size="11" lengthAdjust="spacing" textLength="14" x="408" y="959.5654">no</text><polygon fill="#FEFECE" filter="url(#fquu2j8eeq7es)" points="314.5,1198.9019,326.5,1210.9019,314.5,1222.9019,302.5,1210.9019,314.5,1198.9019" style="stroke:#A80036;stroke-width:1.5;"/><rect fill="#FFFFFF" filter="url(#fquu2j8eeq7es)" height="174.668" style="stroke:#000000;stroke-width:2.0;" width="285" x="182.5" y="1245.7036"/><path d="M457.5,1245.7036 L457.5,1255.0005 L447.5,1265.0005 L182.5,1265.0005 " fill="none" style="stroke:#000000;stroke-width:2.0;"/><text fill="#000000" font-family="sans-serif" font-size="14" lengthAdjust="spacing" textLength="265" x="185.5" y="1259.6987">Check if data has associated audience</text><rect fill="#FEFECE" filter="url(#fquu2j8eeq7es)" height="33.9688" rx="12.5" ry="12.5" style="stroke:#A80036;stroke-width:1.5;" width="130" x="249.5" y="1330.4028"/><text fill="#000000" font-family="sans-serif" font-size="12" lengthAdjust="spacing" textLength="110" x="259.5" y="1351.5415">send to audience</text><polygon fill="#FEFECE" filter="url(#fquu2j8eeq7es)" points="229,1282.0005,400,1282.0005,412,1294.0005,400,1306.0005,229,1306.0005,217,1294.0005,229,1282.0005" style="stroke:#A80036;stroke-width:1.5;"/><text fill="#000000" font-family="sans-serif" font-size="11" lengthAdjust="spacing" textLength="20" x="318.5" y="1316.2109">yes</text><text fill="#000000" font-family="sans-serif" font-size="11" lengthAdjust="spacing" textLength="171" x="229" y="1297.8086">data has associated audience</text><text fill="#000000" font-family="sans-serif" font-size="11" lengthAdjust="spacing" textLength="14" x="412" y="1291.4063">no</text><polygon fill="#FEFECE" filter="url(#fquu2j8eeq7es)" points="314.5,1384.3716,326.5,1396.3716,314.5,1408.3716,302.5,1396.3716,314.5,1384.3716" style="stroke:#A80036;stroke-width:1.5;"/><ellipse cx="314.5" cy="1451.3716" fill="#FFFFFF" filter="url(#fquu2j8eeq7es)" rx="11" ry="11" style="stroke:#000000;stroke-width:1.0;"/><ellipse cx="314.5" cy="1451.3716" fill="#000000" rx="6" ry="6" style="stroke:#7F7F7F;stroke-width:1.0;"/><ellipse cx="314.5" cy="1482.3716" fill="#FEFECE" filter="url(#fquu2j8eeq7es)" rx="10" ry="10" style="stroke:#A80036;stroke-width:1.5;"/><path d="M317.7344,1478.7935 L317.7344,1480.0435 Q317.125,1479.481 316.4531,1479.2153 Q315.7813,1478.9341 315.0156,1478.9341 Q313.5156,1478.9341 312.7188,1479.856 Q311.9219,1480.7778 311.9219,1482.5122 Q311.9219,1484.231 312.7188,1485.1528 Q313.5156,1486.0747 315.0156,1486.0747 Q315.7813,1486.0747 316.4531,1485.7935 Q317.125,1485.5122 317.7344,1484.9653 L317.7344,1486.1997 Q317.1094,1486.6216 316.4063,1486.8403 Q315.7188,1487.0435 314.9531,1487.0435 Q312.9531,1487.0435 311.8125,1485.8247 Q310.6719,1484.606 310.6719,1482.5122 Q310.6719,1480.4028 311.8125,1479.1841 Q312.9531,1477.9653 314.9531,1477.9653 Q315.7344,1477.9653 316.4219,1478.1841 Q317.125,1478.3872 317.7344,1478.7935 Z " fill="#000000"/><rect fill="#FEFECE" filter="url(#fquu2j8eeq7es)" height="33.9688" rx="12.5" ry="12.5" style="stroke:#A80036;stroke-width:1.5;" width="368" x="130.5" y="1512.3716"/><text fill="#000000" font-family="sans-serif" font-size="12" lengthAdjust="spacing" textLength="348" x="140.5" y="1533.5103">Access computation and all arguments from local Store</text><rect fill="#FEFECE" filter="url(#fquu2j8eeq7es)" height="33.9688" rx="12.5" ry="12.5" style="stroke:#A80036;stroke-width:1.5;" width="127" x="251" y="1566.3403"/><text fill="#000000" font-family="sans-serif" font-size="12" lengthAdjust="spacing" textLength="107" x="261" y="1587.479">Run computation</text><rect fill="#FEFECE" filter="url(#fquu2j8eeq7es)" height="33.9688" rx="12.5" ry="12.5" style="stroke:#A80036;stroke-width:1.5;" width="187" x="221" y="1620.3091"/><text fill="#000000" font-family="sans-serif" font-size="12" lengthAdjust="spacing" textLength="167" x="231" y="1641.4478">Send returned data to self</text><rect fill="#FEFECE" filter="url(#fquu2j8eeq7es)" height="33.9688" rx="12.5" ry="12.5" style="stroke:#A80036;stroke-width:1.5;" width="358" x="135.5" y="1674.2778"/><text fill="#000000" font-family="sans-serif" font-size="12" lengthAdjust="spacing" textLength="338" x="145.5" y="1695.4165">Send returned data to self (send POST /data/* to self)</text><ellipse cx="314.5" cy="1739.2466" fill="#FFFFFF" filter="url(#fquu2j8eeq7es)" rx="11" ry="11" style="stroke:#000000;stroke-width:1.0;"/><ellipse cx="314.5" cy="1739.2466" fill="#000000" rx="6" ry="6" style="stroke:#7F7F7F;stroke-width:1.0;"/><ellipse cx="314.5" cy="1770.2466" fill="#FEFECE" filter="url(#fquu2j8eeq7es)" rx="10" ry="10" style="stroke:#A80036;stroke-width:1.5;"/><path d="M313.3594,1766.9653 L313.3594,1773.7778 L314.7969,1773.7778 Q316.6094,1773.7778 317.4375,1772.9653 Q318.2813,1772.1372 318.2813,1770.356 Q318.2813,1768.606 317.4375,1767.7935 Q316.6094,1766.9653 314.7969,1766.9653 L313.3594,1766.9653 Z M312.1719,1765.9966 L314.6094,1765.9966 Q317.1563,1765.9966 318.3438,1767.0591 Q319.5313,1768.106 319.5313,1770.356 Q319.5313,1772.6216 318.3281,1773.6841 Q317.1406,1774.7466 314.6094,1774.7466 L312.1719,1774.7466 L312.1719,1765.9966 Z " fill="#000000"/><polygon fill="#FEFECE" filter="url(#fquu2j8eeq7es)" points="252.5,1800.2466,376.5,1800.2466,388.5,1812.2466,376.5,1824.2466,252.5,1824.2466,240.5,1812.2466,252.5,1800.2466" style="stroke:#A80036;stroke-width:1.5;"/><text fill="#000000" font-family="sans-serif" font-size="11" lengthAdjust="spacing" textLength="124" x="252.5" y="1816.0547">data locally available?</text><text fill="#000000" font-family="sans-serif" font-size="11" lengthAdjust="spacing" textLength="20" x="220.5" y="1809.6523">yes</text><text fill="#000000" font-family="sans-serif" font-size="11" lengthAdjust="spacing" textLength="14" x="388.5" y="1809.6523">no</text><rect fill="#FEFECE" filter="url(#fquu2j8eeq7es)" height="33.9688" rx="12.5" ry="12.5" style="stroke:#A80036;stroke-width:1.5;" width="178" x="110.25" y="1834.2466"/><text fill="#000000" font-family="sans-serif" font-size="12" lengthAdjust="spacing" textLength="158" x="120.25" y="1855.3853">Return data to requester</text><rect fill="#FEFECE" filter="url(#fquu2j8eeq7es)" height="33.9688" rx="12.5" ry="12.5" style="stroke:#A80036;stroke-width:1.5;" width="243" x="308.25" y="1834.2466"/><text fill="#000000" font-family="sans-serif" font-size="12" lengthAdjust="spacing" textLength="223" x="318.25" y="1855.3853">Add requester to audience for data</text><polygon fill="#FEFECE" filter="url(#fquu2j8eeq7es)" points="314.5,1874.2153,326.5,1886.2153,314.5,1898.2153,302.5,1886.2153,314.5,1874.2153" style="stroke:#A80036;stroke-width:1.5;"/><ellipse cx="314.5" cy="1929.2153" fill="#FFFFFF" filter="url(#fquu2j8eeq7es)" rx="11" ry="11" style="stroke:#000000;stroke-width:1.0;"/><ellipse cx="314.5" cy="1929.2153" fill="#000000" rx="6" ry="6" style="stroke:#7F7F7F;stroke-width:1.0;"/><line style="stroke:#A80036;stroke-width:1.5;" x1="280.5" x2="76.5" y1="106" y2="106"/><line style="stroke:#A80036;stroke-width:1.5;" x1="76.5" x2="76.5" y1="106" y2="153.6094"/><polygon fill="#A80036" points="72.5,143.6094,76.5,153.6094,80.5,143.6094,76.5,147.6094" style="stroke:#A80036;stroke-width:1.0;"/><text fill="#000000" font-family="sans-serif" font-size="11" lengthAdjust="spacing" textLength="110" x="76.5" y="133.6128">PUT /computation/*</text><line style="stroke:#A80036;stroke-width:1.5;" x1="348.5" x2="496.5" y1="106" y2="106"/><line style="stroke:#A80036;stroke-width:1.5;" x1="496.5" x2="496.5" y1="106" y2="153.6094"/><polygon fill="#A80036" points="492.5,143.6094,496.5,153.6094,500.5,143.6094,496.5,147.6094" style="stroke:#A80036;stroke-width:1.0;"/><text fill="#000000" font-family="sans-serif" font-size="11" lengthAdjust="spacing" textLength="66" x="496.5" y="133.6128">GET /data/*</text><line style="stroke:#A80036;stroke-width:1.5;" x1="216.5" x2="216.5" y1="106" y2="153.6094"/><polygon fill="#A80036" points="212.5,143.6094,216.5,153.6094,220.5,143.6094,216.5,147.6094" style="stroke:#A80036;stroke-width:1.0;"/><text fill="#000000" font-family="sans-serif" font-size="11" lengthAdjust="spacing" textLength="74" x="216.5" y="128.6128">POST /data/*</text><line style="stroke:#A80036;stroke-width:1.5;" x1="314.5" x2="314.5" y1="118" y2="129.8698"/><line style="stroke:#A80036;stroke-width:1.5;" x1="314.5" x2="320.5" y1="129.8698" y2="129.8698"/><line style="stroke:#A80036;stroke-width:1.5;" x1="320.5" x2="320.5" y1="129.8698" y2="153.6094"/><polygon fill="#A80036" points="316.5,143.6094,320.5,153.6094,324.5,143.6094,320.5,147.6094" style="stroke:#A80036;stroke-width:1.0;"/><text fill="#000000" font-family="sans-serif" font-size="11" lengthAdjust="spacing" textLength="146" x="314.5" y="134.6128">PUT /computation-ready/*</text><line style="stroke:#A80036;stroke-width:1.5;" x1="76.5" x2="76.5" y1="173.6094" y2="225.6094"/><line style="stroke:#A80036;stroke-width:1.5;" x1="76.5" x2="302.5" y1="225.6094" y2="225.6094"/><polygon fill="#A80036" points="292.5,221.6094,302.5,225.6094,292.5,229.6094,296.5,225.6094" style="stroke:#A80036;stroke-width:1.0;"/><line style="stroke:#A80036;stroke-width:1.5;" x1="496.5" x2="496.5" y1="173.6094" y2="225.6094"/><line style="stroke:#A80036;stroke-width:1.5;" x1="496.5" x2="326.5" y1="225.6094" y2="225.6094"/><polygon fill="#A80036" points="336.5,221.6094,326.5,225.6094,336.5,229.6094,332.5,225.6094" style="stroke:#A80036;stroke-width:1.0;"/><line style="stroke:#A80036;stroke-width:1.5;" x1="216.5" x2="216.5" y1="173.6094" y2="225.6094"/><polygon fill="#A80036" points="212.5,215.6094,216.5,225.6094,220.5,215.6094,216.5,219.6094" style="stroke:#A80036;stroke-width:1.0;"/><line style="stroke:#A80036;stroke-width:1.5;" x1="320.5" x2="320.5" y1="173.6094" y2="198.6094"/><line style="stroke:#A80036;stroke-width:1.5;" x1="320.5" x2="314.5" y1="198.6094" y2="198.6094"/><line style="stroke:#A80036;stroke-width:1.5;" x1="314.5" x2="314.5" y1="198.6094" y2="213.6094"/><polygon fill="#A80036" points="310.5,203.6094,314.5,213.6094,318.5,203.6094,314.5,207.6094" style="stroke:#A80036;stroke-width:1.0;"/><line style="stroke:#A80036;stroke-width:1.5;" x1="314.5" x2="314.5" y1="74" y2="94"/><polygon fill="#A80036" points="310.5,84,314.5,94,318.5,84,314.5,88" style="stroke:#A80036;stroke-width:1.0;"/><line style="stroke:#A80036;stroke-width:1.5;" x1="314.5" x2="314.5" y1="237.6094" y2="247.6094"/><line style="stroke:#A80036;stroke-width:1.5;" x1="314.5" x2="574.5" y1="247.6094" y2="247.6094"/><polygon fill="#A80036" points="570.5,193.6094,574.5,183.6094,578.5,193.6094,574.5,189.6094" style="stroke:#A80036;stroke-width:1.5;"/><line style="stroke:#A80036;stroke-width:1.5;" x1="574.5" x2="574.5" y1="62" y2="247.6094"/><line style="stroke:#A80036;stroke-width:1.5;" x1="574.5" x2="361" y1="62" y2="62"/><polygon fill="#A80036" points="371,58,361,62,371,66,367,62" style="stroke:#A80036;stroke-width:1.0;"/><line style="stroke:#A80036;stroke-width:1.5;" x1="314.5" x2="314.5" y1="30" y2="50"/><polygon fill="#A80036" points="310.5,40,314.5,50,318.5,40,314.5,44" style="stroke:#A80036;stroke-width:1.0;"/><line style="stroke:#A80036;stroke-width:1.5;" x1="314.5" x2="314.5" y1="289.6094" y2="309.6094"/><polygon fill="#A80036" points="310.5,299.6094,314.5,309.6094,318.5,299.6094,314.5,303.6094" style="stroke:#A80036;stroke-width:1.0;"/><line style="stroke:#A80036;stroke-width:1.5;" x1="191.5" x2="136" y1="511.5542" y2="511.5542"/><line style="stroke:#A80036;stroke-width:1.5;" x1="136" x2="136" y1="511.5542" y2="533.5542"/><polygon fill="#A80036" points="132,523.5542,136,533.5542,140,523.5542,136,527.5542" style="stroke:#A80036;stroke-width:1.0;"/><line style="stroke:#A80036;stroke-width:1.5;" x1="437.5" x2="493" y1="511.5542" y2="511.5542"/><line style="stroke:#A80036;stroke-width:1.5;" x1="493" x2="493" y1="511.5542" y2="533.5542"/><polygon fill="#A80036" points="489,523.5542,493,533.5542,497,523.5542,493,527.5542" style="stroke:#A80036;stroke-width:1.0;"/><line style="stroke:#A80036;stroke-width:1.5;" x1="136" x2="136" y1="567.5229" y2="585.5229"/><line style="stroke:#A80036;stroke-width:1.5;" x1="136" x2="302.5" y1="585.5229" y2="585.5229"/><polygon fill="#A80036" points="292.5,581.5229,302.5,585.5229,292.5,589.5229,296.5,585.5229" style="stroke:#A80036;stroke-width:1.0;"/><line style="stroke:#A80036;stroke-width:1.5;" x1="493" x2="493" y1="567.5229" y2="585.5229"/><line style="stroke:#A80036;stroke-width:1.5;" x1="493" x2="326.5" y1="585.5229" y2="585.5229"/><polygon fill="#A80036" points="336.5,581.5229,326.5,585.5229,336.5,589.5229,332.5,585.5229" style="stroke:#A80036;stroke-width:1.0;"/><line style="stroke:#A80036;stroke-width:1.5;" x1="314.5" x2="314.5" y1="479.5542" y2="499.5542"/><polygon fill="#A80036" points="310.5,489.5542,314.5,499.5542,318.5,489.5542,314.5,493.5542" style="stroke:#A80036;stroke-width:1.0;"/><line style="stroke:#A80036;stroke-width:1.5;" x1="314.5" x2="314.5" y1="413.875" y2="445.5854"/><polygon fill="#A80036" points="310.5,435.5854,314.5,445.5854,318.5,435.5854,314.5,439.5854" style="stroke:#A80036;stroke-width:1.0;"/><line style="stroke:#A80036;stroke-width:1.5;" x1="314.5" x2="314.5" y1="597.5229" y2="607.5229"/><line style="stroke:#A80036;stroke-width:1.5;" x1="314.5" x2="749" y1="607.5229" y2="607.5229"/><polygon fill="#A80036" points="745,505.6519,749,495.6519,753,505.6519,749,501.6519" style="stroke:#A80036;stroke-width:1.5;"/><line style="stroke:#A80036;stroke-width:1.5;" x1="749" x2="749" y1="401.875" y2="607.5229"/><line style="stroke:#A80036;stroke-width:1.5;" x1="749" x2="414" y1="401.875" y2="401.875"/><polygon fill="#A80036" points="424,397.875,414,401.875,424,405.875,420,401.875" style="stroke:#A80036;stroke-width:1.0;"/><line style="stroke:#A80036;stroke-width:1.5;" x1="215" x2="27" y1="401.875" y2="401.875"/><polygon fill="#A80036" points="23,491.6519,27,501.6519,31,491.6519,27,495.6519" style="stroke:#A80036;stroke-width:1.5;"/><line style="stroke:#A80036;stroke-width:1.5;" x1="27" x2="27" y1="401.875" y2="619.5229"/><line style="stroke:#A80036;stroke-width:1.5;" x1="27" x2="314.5" y1="619.5229" y2="619.5229"/><line style="stroke:#A80036;stroke-width:1.5;" x1="314.5" x2="314.5" y1="619.5229" y2="639.5229"/><polygon fill="#A80036" points="310.5,629.5229,314.5,639.5229,318.5,629.5229,314.5,633.5229" style="stroke:#A80036;stroke-width:1.0;"/><line style="stroke:#A80036;stroke-width:1.5;" x1="314.5" x2="314.5" y1="663.5229" y2="687.9253"/><polygon fill="#A80036" points="310.5,677.9253,314.5,687.9253,318.5,677.9253,314.5,681.9253" style="stroke:#A80036;stroke-width:1.0;"/><line style="stroke:#A80036;stroke-width:1.5;" x1="455" x2="531.5" y1="651.5229" y2="651.5229"/><polygon fill="#A80036" points="527.5,694.9097,531.5,704.9097,535.5,694.9097,531.5,698.9097" style="stroke:#A80036;stroke-width:1.5;"/><line style="stroke:#A80036;stroke-width:1.5;" x1="531.5" x2="531.5" y1="651.5229" y2="753.894"/><line style="stroke:#A80036;stroke-width:1.5;" x1="531.5" x2="326.5" y1="753.894" y2="753.894"/><polygon fill="#A80036" points="336.5,749.894,326.5,753.894,336.5,757.894,332.5,753.894" style="stroke:#A80036;stroke-width:1.0;"/><line style="stroke:#A80036;stroke-width:1.5;" x1="314.5" x2="314.5" y1="721.894" y2="741.894"/><polygon fill="#A80036" points="310.5,731.894,314.5,741.894,318.5,731.894,314.5,735.894" style="stroke:#A80036;stroke-width:1.0;"/><line style="stroke:#A80036;stroke-width:1.5;" x1="314.5" x2="314.5" y1="343.5781" y2="389.875"/><polygon fill="#A80036" points="310.5,379.875,314.5,389.875,318.5,379.875,314.5,383.875" style="stroke:#A80036;stroke-width:1.0;"/><line style="stroke:#A80036;stroke-width:1.5;" x1="314.5" x2="314.5" y1="765.894" y2="797.894"/><polygon fill="#A80036" points="310.5,787.894,314.5,797.894,318.5,787.894,314.5,791.894" style="stroke:#A80036;stroke-width:1.0;"/><line style="stroke:#A80036;stroke-width:1.5;" x1="314.5" x2="314.5" y1="849.894" y2="869.894"/><polygon fill="#A80036" points="310.5,859.894,314.5,869.894,318.5,859.894,314.5,863.894" style="stroke:#A80036;stroke-width:1.0;"/><line style="stroke:#A80036;stroke-width:1.5;" x1="314.5" x2="314.5" y1="1076.5308" y2="1100.9331"/><polygon fill="#A80036" points="310.5,1090.9331,314.5,1100.9331,318.5,1090.9331,314.5,1094.9331" style="stroke:#A80036;stroke-width:1.0;"/><line style="stroke:#A80036;stroke-width:1.5;" x1="427.5" x2="531.5" y1="1064.5308" y2="1064.5308"/><polygon fill="#A80036" points="527.5,1107.9175,531.5,1117.9175,535.5,1107.9175,531.5,1111.9175" style="stroke:#A80036;stroke-width:1.5;"/><line style="stroke:#A80036;stroke-width:1.5;" x1="531.5" x2="531.5" y1="1064.5308" y2="1166.9019"/><line style="stroke:#A80036;stroke-width:1.5;" x1="531.5" x2="326.5" y1="1166.9019" y2="1166.9019"/><polygon fill="#A80036" points="336.5,1162.9019,326.5,1166.9019,336.5,1170.9019,332.5,1166.9019" style="stroke:#A80036;stroke-width:1.0;"/><line style="stroke:#A80036;stroke-width:1.5;" x1="314.5" x2="314.5" y1="1134.9019" y2="1154.9019"/><polygon fill="#A80036" points="310.5,1144.9019,314.5,1154.9019,318.5,1144.9019,314.5,1148.9019" style="stroke:#A80036;stroke-width:1.0;"/><line style="stroke:#A80036;stroke-width:1.5;" x1="314.5" x2="314.5" y1="1032.5308" y2="1052.5308"/><polygon fill="#A80036" points="310.5,1042.5308,314.5,1052.5308,318.5,1042.5308,314.5,1046.5308" style="stroke:#A80036;stroke-width:1.0;"/><line style="stroke:#A80036;stroke-width:1.5;" x1="314.5" x2="314.5" y1="974.1597" y2="998.562"/><polygon fill="#A80036" points="310.5,988.562,314.5,998.562,318.5,988.562,314.5,992.562" style="stroke:#A80036;stroke-width:1.0;"/><line style="stroke:#A80036;stroke-width:1.5;" x1="408" x2="553.5" y1="962.1597" y2="962.1597"/><polygon fill="#A80036" points="549.5,1073.4331,553.5,1083.4331,557.5,1073.4331,553.5,1077.4331" style="stroke:#A80036;stroke-width:1.5;"/><line style="stroke:#A80036;stroke-width:1.5;" x1="553.5" x2="553.5" y1="962.1597" y2="1210.9019"/><line style="stroke:#A80036;stroke-width:1.5;" x1="553.5" x2="326.5" y1="1210.9019" y2="1210.9019"/><polygon fill="#A80036" points="336.5,1206.9019,326.5,1210.9019,336.5,1214.9019,332.5,1210.9019" style="stroke:#A80036;stroke-width:1.0;"/><line style="stroke:#A80036;stroke-width:1.5;" x1="314.5" x2="314.5" y1="1178.9019" y2="1198.9019"/><polygon fill="#A80036" points="310.5,1188.9019,314.5,1198.9019,318.5,1188.9019,314.5,1192.9019" style="stroke:#A80036;stroke-width:1.0;"/><line style="stroke:#A80036;stroke-width:1.5;" x1="314.5" x2="314.5" y1="903.8628" y2="950.1597"/><polygon fill="#A80036" points="310.5,940.1597,314.5,950.1597,318.5,940.1597,314.5,944.1597" style="stroke:#A80036;stroke-width:1.0;"/><line style="stroke:#A80036;stroke-width:1.5;" x1="314.5" x2="314.5" y1="1306.0005" y2="1330.4028"/><polygon fill="#A80036" points="310.5,1320.4028,314.5,1330.4028,318.5,1320.4028,314.5,1324.4028" style="stroke:#A80036;stroke-width:1.0;"/><line style="stroke:#A80036;stroke-width:1.5;" x1="412" x2="424" y1="1294.0005" y2="1294.0005"/><polygon fill="#A80036" points="420,1337.3872,424,1347.3872,428,1337.3872,424,1341.3872" style="stroke:#A80036;stroke-width:1.5;"/><line style="stroke:#A80036;stroke-width:1.5;" x1="424" x2="424" y1="1294.0005" y2="1396.3716"/><line style="stroke:#A80036;stroke-width:1.5;" x1="424" x2="326.5" y1="1396.3716" y2="1396.3716"/><polygon fill="#A80036" points="336.5,1392.3716,326.5,1396.3716,336.5,1400.3716,332.5,1396.3716" style="stroke:#A80036;stroke-width:1.0;"/><line style="stroke:#A80036;stroke-width:1.5;" x1="314.5" x2="314.5" y1="1364.3716" y2="1384.3716"/><polygon fill="#A80036" points="310.5,1374.3716,314.5,1384.3716,318.5,1374.3716,314.5,1378.3716" style="stroke:#A80036;stroke-width:1.0;"/><line style="stroke:#A80036;stroke-width:1.5;" x1="314.5" x2="314.5" y1="1222.9019" y2="1282.0005"/><polygon fill="#A80036" points="310.5,1272.0005,314.5,1282.0005,318.5,1272.0005,314.5,1276.0005" style="stroke:#A80036;stroke-width:1.0;"/><line style="stroke:#A80036;stroke-width:1.5;" x1="314.5" x2="314.5" y1="1408.3716" y2="1440.3716"/><polygon fill="#A80036" points="310.5,1430.3716,314.5,1440.3716,318.5,1430.3716,314.5,1434.3716" style="stroke:#A80036;stroke-width:1.0;"/><line style="stroke:#A80036;stroke-width:1.5;" x1="314.5" x2="314.5" y1="1492.3716" y2="1512.3716"/><polygon fill="#A80036" points="310.5,1502.3716,314.5,1512.3716,318.5,1502.3716,314.5,1506.3716" style="stroke:#A80036;stroke-width:1.0;"/><line style="stroke:#A80036;stroke-width:1.5;" x1="314.5" x2="314.5" y1="1546.3403" y2="1566.3403"/><polygon fill="#A80036" points="310.5,1556.3403,314.5,1566.3403,318.5,1556.3403,314.5,1560.3403" style="stroke:#A80036;stroke-width:1.0;"/><line style="stroke:#A80036;stroke-width:1.5;" x1="314.5" x2="314.5" y1="1600.3091" y2="1620.3091"/><polygon fill="#A80036" points="310.5,1610.3091,314.5,1620.3091,318.5,1610.3091,314.5,1614.3091" style="stroke:#A80036;stroke-width:1.0;"/><line style="stroke:#A80036;stroke-width:1.5;" x1="314.5" x2="314.5" y1="1654.2778" y2="1674.2778"/><polygon fill="#A80036" points="310.5,1664.2778,314.5,1674.2778,318.5,1664.2778,314.5,1668.2778" style="stroke:#A80036;stroke-width:1.0;"/><line style="stroke:#A80036;stroke-width:1.5;" x1="314.5" x2="314.5" y1="1708.2466" y2="1728.2466"/><polygon fill="#A80036" points="310.5,1718.2466,314.5,1728.2466,318.5,1718.2466,314.5,1722.2466" style="stroke:#A80036;stroke-width:1.0;"/><line style="stroke:#A80036;stroke-width:1.5;" x1="240.5" x2="199.25" y1="1812.2466" y2="1812.2466"/><line style="stroke:#A80036;stroke-width:1.5;" x1="199.25" x2="199.25" y1="1812.2466" y2="1834.2466"/><polygon fill="#A80036" points="195.25,1824.2466,199.25,1834.2466,203.25,1824.2466,199.25,1828.2466" style="stroke:#A80036;stroke-width:1.0;"/><line style="stroke:#A80036;stroke-width:1.5;" x1="388.5" x2="429.75" y1="1812.2466" y2="1812.2466"/><line style="stroke:#A80036;stroke-width:1.5;" x1="429.75" x2="429.75" y1="1812.2466" y2="1834.2466"/><polygon fill="#A80036" points="425.75,1824.2466,429.75,1834.2466,433.75,1824.2466,429.75,1828.2466" style="stroke:#A80036;stroke-width:1.0;"/><line style="stroke:#A80036;stroke-width:1.5;" x1="199.25" x2="199.25" y1="1868.2153" y2="1886.2153"/><line style="stroke:#A80036;stroke-width:1.5;" x1="199.25" x2="302.5" y1="1886.2153" y2="1886.2153"/><polygon fill="#A80036" points="292.5,1882.2153,302.5,1886.2153,292.5,1890.2153,296.5,1886.2153" style="stroke:#A80036;stroke-width:1.0;"/><line style="stroke:#A80036;stroke-width:1.5;" x1="429.75" x2="429.75" y1="1868.2153" y2="1886.2153"/><line style="stroke:#A80036;stroke-width:1.5;" x1="429.75" x2="326.5" y1="1886.2153" y2="1886.2153"/><polygon fill="#A80036" points="336.5,1882.2153,326.5,1886.2153,336.5,1890.2153,332.5,1886.2153" style="stroke:#A80036;stroke-width:1.0;"/><line style="stroke:#A80036;stroke-width:1.5;" x1="314.5" x2="314.5" y1="1780.2466" y2="1800.2466"/><polygon fill="#A80036" points="310.5,1790.2466,314.5,1800.2466,318.5,1790.2466,314.5,1794.2466" style="stroke:#A80036;stroke-width:1.0;"/><line style="stroke:#A80036;stroke-width:1.5;" x1="314.5" x2="314.5" y1="1898.2153" y2="1918.2153"/><polygon fill="#A80036" points="310.5,1908.2153,314.5,1918.2153,318.5,1908.2153,314.5,1912.2153" style="stroke:#A80036;stroke-width:1.0;"/><!--MD5=[bf3219ea1ca62e38736f12f6cc1e3aa0]
@startuml
start
while (loop forever)
switch (request)
case (PUT /computation/*)
(A)
case (POST /data/*)
(B)
case (PUT /computation-ready/*)
(C)
case (GET /data/*)
(D)
endswitch
endwhile
-[hidden]->
detach

(A)
:store computation;
group stage computation
while (all prerequisites accounted for) is (no)
:select next unaccounted prerequisite;
if (prerequisite currently locally available?) then (yes)
:mark prerequisite available;
else (no)
:locate and issue request for prerequisite data (send GET /data/* request);
endif
endwhile (yes)
if (all prerequisites marked as locally available?) then (yes)
:set computation ready (send PUT /computation-ready/* to self);
else (no)
endif
end group
stop

(B)
:store data;
group Check if data is prerequisite to computation
if (data marked as prerequisite) then (yes)
:mark prerequisite available;
if (all prerequisites now accounted for) then (yes)
:set computation ready (send PUT /computation-ready/* to self);
else (no)
endif
else (no)
endif
end group
group Check if data has associated audience
if (data has associated audience) then (yes)
:send to audience;
else (no)
endif
end group
stop

(C)
:Access computation and all arguments from local Store;
:Run computation;
:Send returned data to self;
:Send returned data to self (send POST /data/* to self);
stop

(D)
if (data locally available?) then (yes)
:Return data to requester;
else (no)
:Add requester to audience for data;
endif
stop

@enduml

PlantUML version 1.2021.15(Wed Dec 01 05:45:34 NZDT 2021)
(GPL source distribution)
Java Runtime: OpenJDK Runtime Environment
JVM: OpenJDK 64-Bit Server VM
Default Encoding: UTF-8
Language: en
Country: NZ
--></g></svg>