<?xml version="1.0" encoding="UTF-8" standalone="no"?><svg xmlns="http://www.w3.org/2000/svg" xmlns:xlink="http://www.w3.org/1999/xlink" contentScriptType="application/ecmascript" contentStyleType="text/css" height="393px" preserveAspectRatio="none" style="width:365px;height:393px;background:#FFFFFF;" version="1.1" viewBox="0 0 365 393" width="365px" zoomAndPan="magnify"><defs><filter height="300%" id="flq0avipl6mv7" width="300%" x="-1" y="-1"><feGaussianBlur result="blurOut" stdDeviation="2.0"/><feColorMatrix in="blurOut" result="blurOut2" type="matrix" values="0 0 0 0 0 0 0 0 0 0 0 0 0 0 0 0 0 0 .4 0"/><feOffset dx="4.0" dy="4.0" in="blurOut2" result="blurOut3"/><feBlend in="SourceGraphic" in2="blurOut3" mode="normal"/></filter></defs><g><!--MD5=[03893fb76ceacd170bf66541e27e4eb2]
class data_href--><rect fill="#FEFECE" filter="url(#flq0avipl6mv7)" height="48" id="data_href" style="stroke:#A80036;stroke-width:1.5;" width="92" x="58" y="223"/><ellipse cx="73" cy="239" fill="#ADD1B2" rx="11" ry="11" style="stroke:#A80036;stroke-width:1.0;"/><path d="M75.9688,244.6406 Q75.3906,244.9375 74.75,245.0781 Q74.1094,245.2344 73.4063,245.2344 Q70.9063,245.2344 69.5781,243.5938 Q68.2656,241.9375 68.2656,238.8125 Q68.2656,235.6875 69.5781,234.0313 Q70.9063,232.375 73.4063,232.375 Q74.1094,232.375 74.75,232.5313 Q75.4063,232.6875 75.9688,232.9844 L75.9688,235.7031 Q75.3438,235.125 74.75,234.8594 Q74.1563,234.5781 73.5313,234.5781 Q72.1875,234.5781 71.5,235.6563 Q70.8125,236.7188 70.8125,238.8125 Q70.8125,240.9063 71.5,241.9844 Q72.1875,243.0469 73.5313,243.0469 Q74.1563,243.0469 74.75,242.7813 Q75.3438,242.5 75.9688,241.9219 L75.9688,244.6406 Z " fill="#000000"/><text fill="#000000" font-family="sans-serif" font-size="12" lengthAdjust="spacing" textLength="60" x="87" y="243.1543">data_href</text><line style="stroke:#A80036;stroke-width:1.5;" x1="59" x2="149" y1="255" y2="255"/><line style="stroke:#A80036;stroke-width:1.5;" x1="59" x2="149" y1="263" y2="263"/><!--MD5=[489239261dcfee250f6eb1f0b66f8670]
class value--><rect fill="#FEFECE" filter="url(#flq0avipl6mv7)" height="48" id="value" style="stroke:#A80036;stroke-width:1.5;" width="65" x="71.5" y="331"/><ellipse cx="86.5" cy="347" fill="#ADD1B2" rx="11" ry="11" style="stroke:#A80036;stroke-width:1.0;"/><path d="M89.4688,352.6406 Q88.8906,352.9375 88.25,353.0781 Q87.6094,353.2344 86.9063,353.2344 Q84.4063,353.2344 83.0781,351.5938 Q81.7656,349.9375 81.7656,346.8125 Q81.7656,343.6875 83.0781,342.0313 Q84.4063,340.375 86.9063,340.375 Q87.6094,340.375 88.25,340.5313 Q88.9063,340.6875 89.4688,340.9844 L89.4688,343.7031 Q88.8438,343.125 88.25,342.8594 Q87.6563,342.5781 87.0313,342.5781 Q85.6875,342.5781 85,343.6563 Q84.3125,344.7188 84.3125,346.8125 Q84.3125,348.9063 85,349.9844 Q85.6875,351.0469 87.0313,351.0469 Q87.6563,351.0469 88.25,350.7813 Q88.8438,350.5 89.4688,349.9219 L89.4688,352.6406 Z " fill="#000000"/><text fill="#000000" font-family="sans-serif" font-size="12" lengthAdjust="spacing" textLength="33" x="100.5" y="351.1543">value</text><line style="stroke:#A80036;stroke-width:1.5;" x1="72.5" x2="135.5" y1="363" y2="363"/><line style="stroke:#A80036;stroke-width:1.5;" x1="72.5" x2="135.5" y1="371" y2="371"/><!--MD5=[ba2d775fd07132ba3739331c419e1780]
class fd--><rect fill="#FEFECE" filter="url(#flq0avipl6mv7)" height="48" id="fd" style="stroke:#A80036;stroke-width:1.5;" width="44" x="7" y="115"/><ellipse cx="22" cy="131" fill="#ADD1B2" rx="11" ry="11" style="stroke:#A80036;stroke-width:1.0;"/><path d="M24.9688,136.6406 Q24.3906,136.9375 23.75,137.0781 Q23.1094,137.2344 22.4063,137.2344 Q19.9063,137.2344 18.5781,135.5938 Q17.2656,133.9375 17.2656,130.8125 Q17.2656,127.6875 18.5781,126.0313 Q19.9063,124.375 22.4063,124.375 Q23.1094,124.375 23.75,124.5313 Q24.4063,124.6875 24.9688,124.9844 L24.9688,127.7031 Q24.3438,127.125 23.75,126.8594 Q23.1563,126.5781 22.5313,126.5781 Q21.1875,126.5781 20.5,127.6563 Q19.8125,128.7188 19.8125,130.8125 Q19.8125,132.9063 20.5,133.9844 Q21.1875,135.0469 22.5313,135.0469 Q23.1563,135.0469 23.75,134.7813 Q24.3438,134.5 24.9688,133.9219 L24.9688,136.6406 Z " fill="#000000"/><text fill="#000000" font-family="sans-serif" font-size="12" lengthAdjust="spacing" textLength="12" x="36" y="135.1543">fd</text><line style="stroke:#A80036;stroke-width:1.5;" x1="8" x2="50" y1="147" y2="147"/><line style="stroke:#A80036;stroke-width:1.5;" x1="8" x2="50" y1="155" y2="155"/><!--MD5=[1eff99314d62e351de8b69598428f107]
class pending_computation_href--><rect fill="#FEFECE" filter="url(#flq0avipl6mv7)" height="48" id="pending_computation_href" style="stroke:#A80036;stroke-width:1.5;" width="199" x="79.5" y="7"/><ellipse cx="94.5" cy="23" fill="#ADD1B2" rx="11" ry="11" style="stroke:#A80036;stroke-width:1.0;"/><path d="M97.4688,28.6406 Q96.8906,28.9375 96.25,29.0781 Q95.6094,29.2344 94.9063,29.2344 Q92.4063,29.2344 91.0781,27.5938 Q89.7656,25.9375 89.7656,22.8125 Q89.7656,19.6875 91.0781,18.0313 Q92.4063,16.375 94.9063,16.375 Q95.6094,16.375 96.25,16.5313 Q96.9063,16.6875 97.4688,16.9844 L97.4688,19.7031 Q96.8438,19.125 96.25,18.8594 Q95.6563,18.5781 95.0313,18.5781 Q93.6875,18.5781 93,19.6563 Q92.3125,20.7188 92.3125,22.8125 Q92.3125,24.9063 93,25.9844 Q93.6875,27.0469 95.0313,27.0469 Q95.6563,27.0469 96.25,26.7813 Q96.8438,26.5 97.4688,25.9219 L97.4688,28.6406 Z " fill="#000000"/><text fill="#000000" font-family="sans-serif" font-size="12" lengthAdjust="spacing" textLength="167" x="108.5" y="27.1543">pending_computation_href</text><line style="stroke:#A80036;stroke-width:1.5;" x1="80.5" x2="277.5" y1="39" y2="39"/><line style="stroke:#A80036;stroke-width:1.5;" x1="80.5" x2="277.5" y1="47" y2="47"/><!--MD5=[fc6134d1b85706909151c2577bbbb89e]
class unaccounted_prereq_href--><rect fill="#FEFECE" filter="url(#flq0avipl6mv7)" height="48" id="unaccounted_prereq_href" style="stroke:#A80036;stroke-width:1.5;" width="194" x="157" y="115"/><ellipse cx="172" cy="131" fill="#ADD1B2" rx="11" ry="11" style="stroke:#A80036;stroke-width:1.0;"/><path d="M174.9688,136.6406 Q174.3906,136.9375 173.75,137.0781 Q173.1094,137.2344 172.4063,137.2344 Q169.9063,137.2344 168.5781,135.5938 Q167.2656,133.9375 167.2656,130.8125 Q167.2656,127.6875 168.5781,126.0313 Q169.9063,124.375 172.4063,124.375 Q173.1094,124.375 173.75,124.5313 Q174.4063,124.6875 174.9688,124.9844 L174.9688,127.7031 Q174.3438,127.125 173.75,126.8594 Q173.1563,126.5781 172.5313,126.5781 Q171.1875,126.5781 170.5,127.6563 Q169.8125,128.7188 169.8125,130.8125 Q169.8125,132.9063 170.5,133.9844 Q171.1875,135.0469 172.5313,135.0469 Q173.1563,135.0469 173.75,134.7813 Q174.3438,134.5 174.9688,133.9219 L174.9688,136.6406 Z " fill="#000000"/><text fill="#000000" font-family="sans-serif" font-size="12" lengthAdjust="spacing" textLength="162" x="186" y="135.1543">unaccounted_prereq_href</text><line style="stroke:#A80036;stroke-width:1.5;" x1="158" x2="350" y1="147" y2="147"/><line style="stroke:#A80036;stroke-width:1.5;" x1="158" x2="350" y1="155" y2="155"/><!--MD5=[9fac274a9d3699446a67f26fcd7b565b]
link data_href to value--><path codeLine="2" d="M104,278.36 C104,292.52 104,309.35 104,323.53 " fill="none" id="data_href-value" style="stroke:#A80036;stroke-width:1.0;"/><line style="stroke:#A80036;stroke-width:1.0;" x1="108" x2="100" y1="326.68" y2="326.68"/><line style="stroke:#A80036;stroke-width:1.0;" x1="108" x2="100" y1="323.68" y2="323.68"/><line style="stroke:#A80036;stroke-width:1.0;" x1="104" x2="104" y1="322.68" y2="330.68"/><line style="stroke:#A80036;stroke-width:1.0;" x1="100" x2="108" y1="275" y2="275"/><line style="stroke:#A80036;stroke-width:1.0;" x1="100" x2="108" y1="278" y2="278"/><line style="stroke:#A80036;stroke-width:1.0;" x1="104" x2="104" y1="279" y2="271"/><!--MD5=[7eae35f6af2515225e9099640113427f]
link fd to data_href--><path codeLine="3" d="M50.16,169.91 C60.33,184.28 72.49,201.46 82.67,215.86 " fill="none" id="fd-data_href" style="stroke:#A80036;stroke-width:1.0;"/><line style="stroke:#A80036;stroke-width:1.0;" x1="82.8731" x2="92.3947" y1="216.1538" y2="219.2098"/><line style="stroke:#A80036;stroke-width:1.0;" x1="82.8731" x2="82.6053" y1="216.1538" y2="226.1502"/><line style="stroke:#A80036;stroke-width:1.0;" x1="82.8731" x2="87.5" y1="216.1538" y2="222.68"/><line style="stroke:#A80036;stroke-width:1.0;" x1="84.9795" x2="78.4532" y1="212.2088" y2="216.8357"/><line style="stroke:#A80036;stroke-width:1.0;" x1="49.8969" x2="40.3753" y1="169.5262" y2="166.4702"/><line style="stroke:#A80036;stroke-width:1.0;" x1="49.8969" x2="50.1647" y1="169.5262" y2="159.5298"/><line style="stroke:#A80036;stroke-width:1.0;" x1="49.8969" x2="45.27" y1="169.5262" y2="163"/><ellipse cx="53.3671" cy="174.4209" rx="4" ry="4" style="stroke:#A80036;stroke-width:1.0;fill:none;"/><!--MD5=[ba1e84adb0c6fb615d7864ecfb87de16]
link pending_computation_href to unaccounted_prereq_href--><path codeLine="4" d="M200.16,61.91 C210.33,76.28 222.49,93.46 232.67,107.86 " fill="none" id="pending_computation_href-unaccounted_prereq_href" style="stroke:#A80036;stroke-width:1.0;"/><line style="stroke:#A80036;stroke-width:1.0;" x1="232.8731" x2="242.3947" y1="108.1538" y2="111.2098"/><line style="stroke:#A80036;stroke-width:1.0;" x1="232.8731" x2="232.6053" y1="108.1538" y2="118.1502"/><line style="stroke:#A80036;stroke-width:1.0;" x1="232.8731" x2="237.5" y1="108.1538" y2="114.68"/><ellipse cx="229.4029" cy="103.2591" rx="4" ry="4" style="stroke:#A80036;stroke-width:1.0;fill:none;"/><line style="stroke:#A80036;stroke-width:1.0;fill:none;" x1="199.8969" x2="190.3753" y1="61.5262" y2="58.4702"/><line style="stroke:#A80036;stroke-width:1.0;fill:none;" x1="199.8969" x2="200.1647" y1="61.5262" y2="51.5298"/><line style="stroke:#A80036;stroke-width:1.0;fill:none;" x1="199.8969" x2="195.27" y1="61.5262" y2="55"/><line style="stroke:#A80036;stroke-width:1.0;fill:none;" x1="197.7905" x2="204.3168" y1="65.4712" y2="60.8443"/><!--MD5=[c58fedc2ada276b81161c2d8cf87fac7]
link unaccounted_prereq_href to data_href--><path codeLine="6" d="M215.72,167.05 C193.31,182.89 165.09,202.83 142.62,218.71 " fill="none" id="unaccounted_prereq_href-data_href" style="stroke:#A80036;stroke-width:1.0;"/><line style="stroke:#A80036;stroke-width:1.0;" x1="142.314" x2="137.7044" y1="223.8244" y2="217.286"/><line style="stroke:#A80036;stroke-width:1.0;" x1="144.766" x2="140.1563" y1="222.0958" y2="215.5574"/><line style="stroke:#A80036;stroke-width:1.0;" x1="143.2785" x2="136.74" y1="218.2504" y2="222.86"/><line style="stroke:#A80036;stroke-width:1.0;" x1="215.8744" x2="220.4949" y1="162.0449" y2="168.5756"/><line style="stroke:#A80036;stroke-width:1.0;" x1="213.4253" x2="218.0458" y1="163.7776" y2="170.3083"/><line style="stroke:#A80036;stroke-width:1.0;" x1="214.9192" x2="221.45" y1="167.6205" y2="163"/><!--MD5=[8a17fe2cd0e7b3b375479ab318e50bfd]
link pending_computation_href to data_href--><path codeLine="7" d="M163.59,61.58 C155.84,77.2 146.71,96.83 140,115 C127.48,148.92 117.04,189.19 110.69,216.04 " fill="none" id="pending_computation_href-data_href" style="stroke:#A80036;stroke-width:1.0;"/><line style="stroke:#A80036;stroke-width:1.0;" x1="113.8884" x2="106.1002" y1="219.9302" y2="218.1016"/><line style="stroke:#A80036;stroke-width:1.0;" x1="114.5742" x2="106.786" y1="217.0097" y2="215.181"/><line style="stroke:#A80036;stroke-width:1.0;" x1="110.9087" x2="109.08" y1="215.1218" y2="222.91"/><line style="stroke:#A80036;stroke-width:1.0;" x1="161.4402" x2="168.5891" y1="56.9291" y2="60.5198"/><line style="stroke:#A80036;stroke-width:1.0;" x1="160.0936" x2="167.2425" y1="59.6099" y2="63.2006"/><line style="stroke:#A80036;stroke-width:1.0;" x1="163.2192" x2="166.81" y1="62.2989" y2="55.15"/><!--MD5=[44a77d3f9815646141191fc1523269da]
@startuml

data_href ||- -|| value
fd }o- -|{ data_href
pending_computation_href }|- -o{ unaccounted_prereq_href

unaccounted_prereq_href ||- -|| data_href
pending_computation_href ||- -|| data_href

@enduml

PlantUML version 1.2021.15(Wed Dec 01 05:45:34 NZDT 2021)
(GPL source distribution)
Java Runtime: OpenJDK Runtime Environment
JVM: OpenJDK 64-Bit Server VM
Default Encoding: UTF-8
Language: en
Country: NZ
--></g></svg>