<?xml version="1.0" encoding="UTF-8" standalone="no"?>
<!DOCTYPE svg PUBLIC "-//W3C//DTD SVG 1.1//EN"
 "http://www.w3.org/Graphics/SVG/1.1/DTD/svg11.dtd">
<!-- Generated by graphviz version 2.42.3 (20191010.1750)
 -->
<!-- Title: calls Pages: 1 -->
<svg width="409pt" height="98pt"
 viewBox="0.00 0.00 409.29 98.00" xmlns="http://www.w3.org/2000/svg" xmlns:xlink="http://www.w3.org/1999/xlink">
<g id="graph0" class="graph" transform="scale(1 1) rotate(0) translate(4 94)">
<title>calls</title>
<polygon fill="white" stroke="transparent" points="-4,4 -4,-94 405.29,-94 405.29,4 -4,4"/>
<!-- d0 -->
<g id="node1" class="node">
<title>d0</title>
<ellipse fill="lightgrey" stroke="black" cx="117" cy="-72" rx="27" ry="18"/>
<text text-anchor="middle" x="117" y="-68.3" font-family="Times,serif" font-size="14.00">d0</text>
</g>
<!-- d3 -->
<g id="node4" class="node">
<title>d3</title>
<ellipse fill="#fc8d62" stroke="black" cx="207" cy="-45" rx="27" ry="18"/>
<text text-anchor="middle" x="207" y="-41.3" font-family="Times,serif" font-size="14.00">d3</text>
</g>
<!-- d0&#45;&gt;d3 -->
<g id="edge2" class="edge">
<title>d0&#45;&gt;d3</title>
<path fill="none" stroke="black" d="M142.05,-64.62C151.44,-61.74 162.36,-58.39 172.5,-55.28"/>
<polygon fill="black" stroke="black" points="173.75,-58.55 182.29,-52.28 171.7,-51.86 173.75,-58.55"/>
</g>
<!-- d1 -->
<g id="node2" class="node">
<title>d1</title>
<ellipse fill="lightgrey" stroke="black" cx="27" cy="-18" rx="27" ry="18"/>
<text text-anchor="middle" x="27" y="-14.3" font-family="Times,serif" font-size="14.00">d1</text>
</g>
<!-- d2 -->
<g id="node3" class="node">
<title>d2</title>
<ellipse fill="#66c2a5" stroke="black" cx="117" cy="-18" rx="27" ry="18"/>
<text text-anchor="middle" x="117" y="-14.3" font-family="Times,serif" font-size="14.00">d2</text>
</g>
<!-- d1&#45;&gt;d2 -->
<g id="edge1" class="edge">
<title>d1&#45;&gt;d2</title>
<path fill="none" stroke="black" d="M54.4,-18C62.39,-18 71.31,-18 79.82,-18"/>
<polygon fill="black" stroke="black" points="79.92,-21.5 89.92,-18 79.92,-14.5 79.92,-21.5"/>
</g>
<!-- d2&#45;&gt;d3 -->
<g id="edge3" class="edge">
<title>d2&#45;&gt;d3</title>
<path fill="none" stroke="black" d="M142.05,-25.38C151.44,-28.26 162.36,-31.61 172.5,-34.72"/>
<polygon fill="black" stroke="black" points="171.7,-38.14 182.29,-37.72 173.75,-31.45 171.7,-38.14"/>
</g>
<!-- e -->
<g id="node6" class="node">
<title>e</title>
<ellipse fill="#e78ac3" stroke="black" cx="335.64" cy="-45" rx="65.79" ry="18"/>
<text text-anchor="middle" x="335.64" y="-41.3" font-family="Times,serif" font-size="14.00">Examine d3</text>
</g>
<!-- d3&#45;&gt;e -->
<g id="edge4" class="edge">
<title>d3&#45;&gt;e</title>
<path fill="none" stroke="black" d="M234.24,-45C241.82,-45 250.5,-45 259.5,-45"/>
<polygon fill="black" stroke="black" points="259.77,-48.5 269.77,-45 259.77,-41.5 259.77,-48.5"/>
</g>
<!-- d4 -->
<g id="node5" class="node">
<title>d4</title>
<ellipse fill="#8da0cb" stroke="black" cx="27" cy="-72" rx="27" ry="18"/>
<text text-anchor="middle" x="27" y="-68.3" font-family="Times,serif" font-size="14.00">d4</text>
</g>
</g>
</svg>
