<?xml version="1.0" encoding="UTF-8" standalone="no"?><svg xmlns="http://www.w3.org/2000/svg" xmlns:xlink="http://www.w3.org/1999/xlink" contentStyleType="text/css" height="1764px" preserveAspectRatio="none" style="width:802px;height:1764px;background:#FFFFFF;" version="1.1" viewBox="0 0 802 1764" width="802px" zoomAndPan="magnify"><defs/><g><ellipse cx="340.5" cy="20" fill="#222222" rx="10" ry="10" style="stroke:#222222;stroke-width:1.0;"/><polygon fill="#F1F1F1" points="318.5,94,362.5,94,374.5,106,362.5,118,318.5,118,306.5,106,318.5,94" style="stroke:#181818;stroke-width:0.5;"/><text fill="#000000" font-family="sans-serif" font-size="11" lengthAdjust="spacing" textLength="44" x="318.5" y="109.8081">request</text><ellipse cx="102.5" cy="163.6094" fill="#F1F1F1" rx="10" ry="10" style="stroke:#181818;stroke-width:0.5;"/><path d="M102.6094,159.7813 L101,164.125 L104.2188,164.125 L102.6094,159.7813 Z M101.9375,158.6094 L103.2813,158.6094 L106.6094,167.3594 L105.375,167.3594 L104.5781,165.1094 L100.6406,165.1094 L99.8438,167.3594 L98.5938,167.3594 L101.9375,158.6094 Z " fill="#000000"/><ellipse cx="102.5" cy="203.6094" fill="#F1F1F1" rx="10" ry="10" style="stroke:#181818;stroke-width:0.5;"/><path d="M99.6719,199.3594 L105.2031,199.3594 L105.2031,200.3594 L100.8594,200.3594 L100.8594,202.9531 L105.0313,202.9531 L105.0313,203.9375 L100.8594,203.9375 L100.8594,207.1094 L105.3125,207.1094 L105.3125,208.1094 L99.6719,208.1094 L99.6719,199.3594 Z " fill="#000000"/><ellipse cx="242.5" cy="163.6094" fill="#F1F1F1" rx="10" ry="10" style="stroke:#181818;stroke-width:0.5;"/><path d="M241.3594,163.9375 L241.3594,167.1406 L243.2656,167.1406 Q244.2188,167.1406 244.6719,166.75 Q245.1406,166.3438 245.1406,165.5313 Q245.1406,164.7031 244.6719,164.3281 Q244.2188,163.9375 243.2656,163.9375 L241.3594,163.9375 Z M241.3594,160.3281 L241.3594,162.9688 L243.1094,162.9688 Q243.9844,162.9688 244.4063,162.6406 Q244.8281,162.3125 244.8281,161.6563 Q244.8281,160.9844 244.4063,160.6563 Q243.9844,160.3281 243.1094,160.3281 L241.3594,160.3281 Z M240.1719,159.3594 L243.2031,159.3594 Q244.5625,159.3594 245.2813,159.9219 Q246.0156,160.4844 246.0156,161.5156 Q246.0156,162.3281 245.6406,162.8125 Q245.2656,163.2813 244.5469,163.3906 Q245.4219,163.5781 245.9063,164.1719 Q246.3906,164.7656 246.3906,165.6563 Q246.3906,166.8281 245.5938,167.4688 Q244.7969,168.1094 243.3125,168.1094 L240.1719,168.1094 L240.1719,159.3594 Z " fill="#000000"/><ellipse cx="242.5" cy="203.6094" fill="#F1F1F1" rx="10" ry="10" style="stroke:#181818;stroke-width:0.5;"/><path d="M239.6719,199.3594 L245.2031,199.3594 L245.2031,200.3594 L240.8594,200.3594 L240.8594,202.9531 L245.0313,202.9531 L245.0313,203.9375 L240.8594,203.9375 L240.8594,207.1094 L245.3125,207.1094 L245.3125,208.1094 L239.6719,208.1094 L239.6719,199.3594 Z " fill="#000000"/><ellipse cx="346.5" cy="163.6094" fill="#F1F1F1" rx="10" ry="10" style="stroke:#181818;stroke-width:0.5;"/><path d="M349.7344,160.0313 L349.7344,161.2813 Q349.125,160.7188 348.4531,160.4531 Q347.7813,160.1719 347.0156,160.1719 Q345.5156,160.1719 344.7188,161.0938 Q343.9219,162.0156 343.9219,163.75 Q343.9219,165.4688 344.7188,166.3906 Q345.5156,167.3125 347.0156,167.3125 Q347.7813,167.3125 348.4531,167.0313 Q349.125,166.75 349.7344,166.2031 L349.7344,167.4375 Q349.1094,167.8594 348.4063,168.0781 Q347.7188,168.2813 346.9531,168.2813 Q344.9531,168.2813 343.8125,167.0625 Q342.6719,165.8438 342.6719,163.75 Q342.6719,161.6406 343.8125,160.4219 Q344.9531,159.2031 346.9531,159.2031 Q347.7344,159.2031 348.4219,159.4219 Q349.125,159.625 349.7344,160.0313 Z " fill="#000000"/><ellipse cx="522.5" cy="163.6094" fill="#F1F1F1" rx="10" ry="10" style="stroke:#181818;stroke-width:0.5;"/><path d="M521.3594,160.3281 L521.3594,167.1406 L522.7969,167.1406 Q524.6094,167.1406 525.4375,166.3281 Q526.2813,165.5 526.2813,163.7188 Q526.2813,161.9688 525.4375,161.1563 Q524.6094,160.3281 522.7969,160.3281 L521.3594,160.3281 Z M520.1719,159.3594 L522.6094,159.3594 Q525.1563,159.3594 526.3438,160.4219 Q527.5313,161.4688 527.5313,163.7188 Q527.5313,165.9844 526.3281,167.0469 Q525.1406,168.1094 522.6094,168.1094 L520.1719,168.1094 L520.1719,159.3594 Z " fill="#000000"/><polygon fill="#F1F1F1" points="340.5,233.6094,340.5,233.6094,352.5,245.6094,340.5,257.6094,340.5,257.6094,328.5,245.6094,340.5,233.6094" style="stroke:#181818;stroke-width:0.5;"/><polygon fill="#F1F1F1" points="297,50,384,50,396,62,384,74,297,74,285,62,297,50" style="stroke:#181818;stroke-width:0.5;"/><text fill="#000000" font-family="sans-serif" font-size="11" lengthAdjust="spacing" textLength="87" x="297" y="65.8081">loop while alive</text><ellipse cx="340.5" cy="299.6094" fill="#F1F1F1" rx="10" ry="10" style="stroke:#181818;stroke-width:0.5;"/><path d="M340.6094,295.7813 L339,300.125 L342.2188,300.125 L340.6094,295.7813 Z M339.9375,294.6094 L341.2813,294.6094 L344.6094,303.3594 L343.375,303.3594 L342.5781,301.1094 L338.6406,301.1094 L337.8438,303.3594 L336.5938,303.3594 L339.9375,294.6094 Z " fill="#000000"/><rect fill="#F1F1F1" height="33.9688" rx="12.5" ry="12.5" style="stroke:#181818;stroke-width:0.5;" width="136" x="272.5" y="329.6094"/><text fill="#000000" font-family="sans-serif" font-size="12" lengthAdjust="spacing" textLength="116" x="282.5" y="350.748">store computation</text><rect fill="none" height="277.9448" style="stroke:#000000;stroke-width:1.5;" width="768" x="23" y="373.5781"/><path d="M163,373.5781 L163,382.875 L153,392.875 L23,392.875 " fill="none" style="stroke:#000000;stroke-width:1.5;"/><text fill="#000000" font-family="sans-serif" font-size="14" lengthAdjust="spacing" textLength="130" x="26" y="387.5732">stage computation</text><rect fill="#F1F1F1" height="33.9688" rx="12.5" ry="12.5" style="stroke:#181818;stroke-width:0.5;" width="256" x="212.5" y="465.5854"/><text fill="#000000" font-family="sans-serif" font-size="12" lengthAdjust="spacing" textLength="236" x="222.5" y="486.7241">select next unaccounted prerequisite</text><polygon fill="#F1F1F1" points="229.5,519.5542,451.5,519.5542,463.5,531.5542,451.5,543.5542,229.5,543.5542,217.5,531.5542,229.5,519.5542" style="stroke:#181818;stroke-width:0.5;"/><text fill="#000000" font-family="sans-serif" font-size="11" lengthAdjust="spacing" textLength="222" x="229.5" y="535.3623">prerequisite currently locally available?</text><text fill="#000000" font-family="sans-serif" font-size="11" lengthAdjust="spacing" textLength="20" x="197.5" y="528.96">yes</text><text fill="#000000" font-family="sans-serif" font-size="11" lengthAdjust="spacing" textLength="14" x="463.5" y="528.96">no</text><rect fill="#F1F1F1" height="33.9688" rx="12.5" ry="12.5" style="stroke:#181818;stroke-width:0.5;" width="190" x="67" y="553.5542"/><text fill="#000000" font-family="sans-serif" font-size="12" lengthAdjust="spacing" textLength="170" x="77" y="574.6929">mark prerequisite available</text><rect fill="#F1F1F1" height="33.9688" rx="12.5" ry="12.5" style="stroke:#181818;stroke-width:0.5;" width="484" x="277" y="553.5542"/><text fill="#000000" font-family="sans-serif" font-size="12" lengthAdjust="spacing" textLength="464" x="287" y="574.6929">locate and issue request for prerequisite data (send GET /data/* request)</text><polygon fill="#F1F1F1" points="340.5,593.5229,352.5,605.5229,340.5,617.5229,328.5,605.5229,340.5,593.5229" style="stroke:#181818;stroke-width:0.5;"/><polygon fill="#F1F1F1" points="253,409.875,428,409.875,440,421.875,428,433.875,253,433.875,241,421.875,253,409.875" style="stroke:#181818;stroke-width:0.5;"/><text fill="#000000" font-family="sans-serif" font-size="11" lengthAdjust="spacing" textLength="14" x="344.5" y="444.0854">no</text><text fill="#000000" font-family="sans-serif" font-size="11" lengthAdjust="spacing" textLength="175" x="253" y="425.6831">all prerequisites accounted for</text><text fill="#000000" font-family="sans-serif" font-size="11" lengthAdjust="spacing" textLength="20" x="221" y="419.2808">yes</text><ellipse cx="340.5" cy="682.5229" rx="11" ry="11" style="stroke:#222222;stroke-width:1.0;fill:none;"/><ellipse cx="340.5" cy="682.5229" fill="#222222" rx="6" ry="6" style="stroke:#111111;stroke-width:1.0;"/><ellipse cx="340.5" cy="713.5229" fill="#F1F1F1" rx="10" ry="10" style="stroke:#181818;stroke-width:0.5;"/><path d="M339.3594,713.8511 L339.3594,717.0542 L341.2656,717.0542 Q342.2188,717.0542 342.6719,716.6636 Q343.1406,716.2573 343.1406,715.4448 Q343.1406,714.6167 342.6719,714.2417 Q342.2188,713.8511 341.2656,713.8511 L339.3594,713.8511 Z M339.3594,710.2417 L339.3594,712.8823 L341.1094,712.8823 Q341.9844,712.8823 342.4063,712.5542 Q342.8281,712.2261 342.8281,711.5698 Q342.8281,710.8979 342.4063,710.5698 Q341.9844,710.2417 341.1094,710.2417 L339.3594,710.2417 Z M338.1719,709.2729 L341.2031,709.2729 Q342.5625,709.2729 343.2813,709.8354 Q344.0156,710.3979 344.0156,711.4292 Q344.0156,712.2417 343.6406,712.7261 Q343.2656,713.1948 342.5469,713.3042 Q343.4219,713.4917 343.9063,714.0854 Q344.3906,714.6792 344.3906,715.5698 Q344.3906,716.7417 343.5938,717.3823 Q342.7969,718.0229 341.3125,718.0229 L338.1719,718.0229 L338.1719,709.2729 Z " fill="#000000"/><rect fill="#F1F1F1" height="33.9688" rx="12.5" ry="12.5" style="stroke:#181818;stroke-width:0.5;" width="86" x="297.5" y="743.5229"/><text fill="#000000" font-family="sans-serif" font-size="12" lengthAdjust="spacing" textLength="66" x="307.5" y="764.6616">store data</text><rect fill="#555555" height="6" rx="2.5" ry="2.5" style="stroke:#555555;stroke-width:1.0;" width="660" x="11" y="797.4917"/><rect fill="none" height="174.668" style="stroke:#000000;stroke-width:1.5;" width="285" x="24" y="814.2935"/><path d="M299,814.2935 L299,823.5903 L289,833.5903 L24,833.5903 " fill="none" style="stroke:#000000;stroke-width:1.5;"/><text fill="#000000" font-family="sans-serif" font-size="14" lengthAdjust="spacing" textLength="265" x="27" y="828.2886">Check if data has associated audience</text><rect fill="#F1F1F1" height="33.9688" rx="12.5" ry="12.5" style="stroke:#181818;stroke-width:0.5;" width="130" x="91" y="898.9927"/><text fill="#000000" font-family="sans-serif" font-size="12" lengthAdjust="spacing" textLength="110" x="101" y="920.1313">send to audience</text><polygon fill="#F1F1F1" points="70.5,850.5903,241.5,850.5903,253.5,862.5903,241.5,874.5903,70.5,874.5903,58.5,862.5903,70.5,850.5903" style="stroke:#181818;stroke-width:0.5;"/><text fill="#000000" font-family="sans-serif" font-size="11" lengthAdjust="spacing" textLength="20" x="160" y="884.8008">yes</text><text fill="#000000" font-family="sans-serif" font-size="11" lengthAdjust="spacing" textLength="171" x="70.5" y="866.3984">data has associated audience</text><text fill="#000000" font-family="sans-serif" font-size="11" lengthAdjust="spacing" textLength="14" x="253.5" y="859.9961">no</text><polygon fill="#F1F1F1" points="156,952.9614,168,964.9614,156,976.9614,144,964.9614,156,952.9614" style="stroke:#181818;stroke-width:0.5;"/><rect fill="none" height="174.668" style="stroke:#000000;stroke-width:1.5;" width="320" x="337" y="814.2935"/><path d="M647,814.2935 L647,823.5903 L637,833.5903 L337,833.5903 " fill="none" style="stroke:#000000;stroke-width:1.5;"/><text fill="#000000" font-family="sans-serif" font-size="14" lengthAdjust="spacing" textLength="300" x="340" y="828.2886">Check if data is prerequisite to computation</text><rect fill="#F1F1F1" height="33.9688" rx="12.5" ry="12.5" style="stroke:#181818;stroke-width:0.5;" width="190" x="396" y="898.9927"/><text fill="#000000" font-family="sans-serif" font-size="12" lengthAdjust="spacing" textLength="170" x="406" y="920.1313">mark prerequisite available</text><polygon fill="#F1F1F1" points="409.5,850.5903,572.5,850.5903,584.5,862.5903,572.5,874.5903,409.5,874.5903,397.5,862.5903,409.5,850.5903" style="stroke:#181818;stroke-width:0.5;"/><text fill="#000000" font-family="sans-serif" font-size="11" lengthAdjust="spacing" textLength="20" x="495" y="884.8008">yes</text><text fill="#000000" font-family="sans-serif" font-size="11" lengthAdjust="spacing" textLength="163" x="409.5" y="866.3984">data marked as prerequisite</text><text fill="#000000" font-family="sans-serif" font-size="11" lengthAdjust="spacing" textLength="14" x="584.5" y="859.9961">no</text><polygon fill="#F1F1F1" points="491,952.9614,503,964.9614,491,976.9614,479,964.9614,491,952.9614" style="stroke:#181818;stroke-width:0.5;"/><rect fill="#555555" height="6" rx="2.5" ry="2.5" style="stroke:#555555;stroke-width:1.0;" width="660" x="11" y="1008.9614"/><ellipse cx="340.5" cy="1045.9614" rx="11" ry="11" style="stroke:#222222;stroke-width:1.0;fill:none;"/><ellipse cx="340.5" cy="1045.9614" fill="#222222" rx="6" ry="6" style="stroke:#111111;stroke-width:1.0;"/><ellipse cx="340.5" cy="1076.9614" fill="#F1F1F1" rx="10" ry="10" style="stroke:#181818;stroke-width:0.5;"/><path d="M343.7344,1073.3833 L343.7344,1074.6333 Q343.125,1074.0708 342.4531,1073.8052 Q341.7813,1073.5239 341.0156,1073.5239 Q339.5156,1073.5239 338.7188,1074.4458 Q337.9219,1075.3677 337.9219,1077.1021 Q337.9219,1078.8208 338.7188,1079.7427 Q339.5156,1080.6646 341.0156,1080.6646 Q341.7813,1080.6646 342.4531,1080.3833 Q343.125,1080.1021 343.7344,1079.5552 L343.7344,1080.7896 Q343.1094,1081.2114 342.4063,1081.4302 Q341.7188,1081.6333 340.9531,1081.6333 Q338.9531,1081.6333 337.8125,1080.4146 Q336.6719,1079.1958 336.6719,1077.1021 Q336.6719,1074.9927 337.8125,1073.7739 Q338.9531,1072.5552 340.9531,1072.5552 Q341.7344,1072.5552 342.4219,1072.7739 Q343.125,1072.9771 343.7344,1073.3833 Z " fill="#000000"/><rect fill="#F1F1F1" height="33.9688" rx="12.5" ry="12.5" style="stroke:#181818;stroke-width:0.5;" width="368" x="156.5" y="1106.9614"/><text fill="#000000" font-family="sans-serif" font-size="12" lengthAdjust="spacing" textLength="348" x="166.5" y="1128.1001">Access computation and all arguments from local Store</text><rect fill="#F1F1F1" height="33.9688" rx="12.5" ry="12.5" style="stroke:#181818;stroke-width:0.5;" width="127" x="277" y="1160.9302"/><text fill="#000000" font-family="sans-serif" font-size="12" lengthAdjust="spacing" textLength="107" x="287" y="1182.0688">Run computation</text><rect fill="#F1F1F1" height="33.9688" rx="12.5" ry="12.5" style="stroke:#181818;stroke-width:0.5;" width="187" x="247" y="1214.8989"/><text fill="#000000" font-family="sans-serif" font-size="12" lengthAdjust="spacing" textLength="167" x="257" y="1236.0376">Send returned data to self</text><rect fill="#F1F1F1" height="33.9688" rx="12.5" ry="12.5" style="stroke:#181818;stroke-width:0.5;" width="358" x="161.5" y="1268.8677"/><text fill="#000000" font-family="sans-serif" font-size="12" lengthAdjust="spacing" textLength="338" x="171.5" y="1290.0063">Send returned data to self (send POST /data/* to self)</text><ellipse cx="340.5" cy="1333.8364" rx="11" ry="11" style="stroke:#222222;stroke-width:1.0;fill:none;"/><ellipse cx="340.5" cy="1333.8364" fill="#222222" rx="6" ry="6" style="stroke:#111111;stroke-width:1.0;"/><ellipse cx="340.5" cy="1364.8364" fill="#F1F1F1" rx="10" ry="10" style="stroke:#181818;stroke-width:0.5;"/><path d="M339.3594,1361.5552 L339.3594,1368.3677 L340.7969,1368.3677 Q342.6094,1368.3677 343.4375,1367.5552 Q344.2813,1366.7271 344.2813,1364.9458 Q344.2813,1363.1958 343.4375,1362.3833 Q342.6094,1361.5552 340.7969,1361.5552 L339.3594,1361.5552 Z M338.1719,1360.5864 L340.6094,1360.5864 Q343.1563,1360.5864 344.3438,1361.6489 Q345.5313,1362.6958 345.5313,1364.9458 Q345.5313,1367.2114 344.3281,1368.2739 Q343.1406,1369.3364 340.6094,1369.3364 L338.1719,1369.3364 L338.1719,1360.5864 Z " fill="#000000"/><polygon fill="#F1F1F1" points="278.5,1394.8364,402.5,1394.8364,414.5,1406.8364,402.5,1418.8364,278.5,1418.8364,266.5,1406.8364,278.5,1394.8364" style="stroke:#181818;stroke-width:0.5;"/><text fill="#000000" font-family="sans-serif" font-size="11" lengthAdjust="spacing" textLength="124" x="278.5" y="1410.6445">data locally available?</text><text fill="#000000" font-family="sans-serif" font-size="11" lengthAdjust="spacing" textLength="20" x="246.5" y="1404.2422">yes</text><text fill="#000000" font-family="sans-serif" font-size="11" lengthAdjust="spacing" textLength="14" x="414.5" y="1404.2422">no</text><rect fill="#F1F1F1" height="33.9688" rx="12.5" ry="12.5" style="stroke:#181818;stroke-width:0.5;" width="178" x="136.25" y="1428.8364"/><text fill="#000000" font-family="sans-serif" font-size="12" lengthAdjust="spacing" textLength="158" x="146.25" y="1449.9751">Return data to requester</text><rect fill="#F1F1F1" height="33.9688" rx="12.5" ry="12.5" style="stroke:#181818;stroke-width:0.5;" width="243" x="334.25" y="1428.8364"/><text fill="#000000" font-family="sans-serif" font-size="12" lengthAdjust="spacing" textLength="223" x="344.25" y="1449.9751">Add requester to audience for data</text><polygon fill="#F1F1F1" points="340.5,1468.8052,352.5,1480.8052,340.5,1492.8052,328.5,1480.8052,340.5,1468.8052" style="stroke:#181818;stroke-width:0.5;"/><ellipse cx="340.5" cy="1523.8052" rx="11" ry="11" style="stroke:#222222;stroke-width:1.0;fill:none;"/><ellipse cx="340.5" cy="1523.8052" fill="#222222" rx="6" ry="6" style="stroke:#111111;stroke-width:1.0;"/><ellipse cx="340.5" cy="1554.8052" fill="#F1F1F1" rx="10" ry="10" style="stroke:#181818;stroke-width:0.5;"/><path d="M337.6719,1550.5552 L343.2031,1550.5552 L343.2031,1551.5552 L338.8594,1551.5552 L338.8594,1554.1489 L343.0313,1554.1489 L343.0313,1555.1333 L338.8594,1555.1333 L338.8594,1558.3052 L343.3125,1558.3052 L343.3125,1559.3052 L337.6719,1559.3052 L337.6719,1550.5552 Z " fill="#000000"/><rect fill="#F1F1F1" height="33.9688" rx="12.5" ry="12.5" style="stroke:#181818;stroke-width:0.5;" width="414" x="133.5" y="1633.2075"/><text fill="#000000" font-family="sans-serif" font-size="12" lengthAdjust="spacing" textLength="394" x="143.5" y="1654.3462">set computation ready (send PUT /computation-ready/* to self)</text><polygon fill="#F1F1F1" points="165,1584.8052,516,1584.8052,528,1596.8052,516,1608.8052,165,1608.8052,153,1596.8052,165,1584.8052" style="stroke:#181818;stroke-width:0.5;"/><text fill="#000000" font-family="sans-serif" font-size="11" lengthAdjust="spacing" textLength="20" x="344.5" y="1619.0156">yes</text><text fill="#000000" font-family="sans-serif" font-size="11" lengthAdjust="spacing" textLength="351" x="165" y="1600.6133">all prerequisites for computation marked as locally available?</text><text fill="#000000" font-family="sans-serif" font-size="11" lengthAdjust="spacing" textLength="14" x="528" y="1594.2109">no</text><polygon fill="#F1F1F1" points="340.5,1687.1763,352.5,1699.1763,340.5,1711.1763,328.5,1699.1763,340.5,1687.1763" style="stroke:#181818;stroke-width:0.5;"/><ellipse cx="340.5" cy="1742.1763" rx="11" ry="11" style="stroke:#222222;stroke-width:1.0;fill:none;"/><ellipse cx="340.5" cy="1742.1763" fill="#222222" rx="6" ry="6" style="stroke:#111111;stroke-width:1.0;"/><line style="stroke:#181818;stroke-width:1.0;" x1="102.5" x2="102.5" y1="173.6094" y2="193.6094"/><polygon fill="#181818" points="98.5,183.6094,102.5,193.6094,106.5,183.6094,102.5,187.6094" style="stroke:#181818;stroke-width:1.0;"/><line style="stroke:#181818;stroke-width:1.0;" x1="242.5" x2="242.5" y1="173.6094" y2="193.6094"/><polygon fill="#181818" points="238.5,183.6094,242.5,193.6094,246.5,183.6094,242.5,187.6094" style="stroke:#181818;stroke-width:1.0;"/><line style="stroke:#181818;stroke-width:1.0;" x1="306.5" x2="102.5" y1="106" y2="106"/><line style="stroke:#181818;stroke-width:1.0;" x1="102.5" x2="102.5" y1="106" y2="153.6094"/><polygon fill="#181818" points="98.5,143.6094,102.5,153.6094,106.5,143.6094,102.5,147.6094" style="stroke:#181818;stroke-width:1.0;"/><text fill="#000000" font-family="sans-serif" font-size="11" lengthAdjust="spacing" textLength="110" x="102.5" y="133.6128">PUT /computation/*</text><line style="stroke:#181818;stroke-width:1.0;" x1="374.5" x2="522.5" y1="106" y2="106"/><line style="stroke:#181818;stroke-width:1.0;" x1="522.5" x2="522.5" y1="106" y2="153.6094"/><polygon fill="#181818" points="518.5,143.6094,522.5,153.6094,526.5,143.6094,522.5,147.6094" style="stroke:#181818;stroke-width:1.0;"/><text fill="#000000" font-family="sans-serif" font-size="11" lengthAdjust="spacing" textLength="66" x="522.5" y="133.6128">GET /data/*</text><line style="stroke:#181818;stroke-width:1.0;" x1="242.5" x2="242.5" y1="106" y2="153.6094"/><polygon fill="#181818" points="238.5,143.6094,242.5,153.6094,246.5,143.6094,242.5,147.6094" style="stroke:#181818;stroke-width:1.0;"/><text fill="#000000" font-family="sans-serif" font-size="11" lengthAdjust="spacing" textLength="74" x="242.5" y="128.6128">POST /data/*</text><line style="stroke:#181818;stroke-width:1.0;" x1="340.5" x2="340.5" y1="118" y2="129.8698"/><line style="stroke:#181818;stroke-width:1.0;" x1="340.5" x2="346.5" y1="129.8698" y2="129.8698"/><line style="stroke:#181818;stroke-width:1.0;" x1="346.5" x2="346.5" y1="129.8698" y2="153.6094"/><polygon fill="#181818" points="342.5,143.6094,346.5,153.6094,350.5,143.6094,346.5,147.6094" style="stroke:#181818;stroke-width:1.0;"/><text fill="#000000" font-family="sans-serif" font-size="11" lengthAdjust="spacing" textLength="146" x="340.5" y="134.6128">PUT /computation-ready/*</text><line style="stroke:#181818;stroke-width:1.0;" x1="102.5" x2="102.5" y1="213.6094" y2="245.6094"/><line style="stroke:#181818;stroke-width:1.0;" x1="102.5" x2="328.5" y1="245.6094" y2="245.6094"/><polygon fill="#181818" points="318.5,241.6094,328.5,245.6094,318.5,249.6094,322.5,245.6094" style="stroke:#181818;stroke-width:1.0;"/><line style="stroke:#181818;stroke-width:1.0;" x1="522.5" x2="522.5" y1="173.6094" y2="245.6094"/><line style="stroke:#181818;stroke-width:1.0;" x1="522.5" x2="352.5" y1="245.6094" y2="245.6094"/><polygon fill="#181818" points="362.5,241.6094,352.5,245.6094,362.5,249.6094,358.5,245.6094" style="stroke:#181818;stroke-width:1.0;"/><line style="stroke:#181818;stroke-width:1.0;" x1="242.5" x2="242.5" y1="213.6094" y2="245.6094"/><polygon fill="#181818" points="238.5,235.6094,242.5,245.6094,246.5,235.6094,242.5,239.6094" style="stroke:#181818;stroke-width:1.0;"/><line style="stroke:#181818;stroke-width:1.0;" x1="346.5" x2="346.5" y1="173.6094" y2="218.6094"/><line style="stroke:#181818;stroke-width:1.0;" x1="346.5" x2="340.5" y1="218.6094" y2="218.6094"/><line style="stroke:#181818;stroke-width:1.0;" x1="340.5" x2="340.5" y1="218.6094" y2="233.6094"/><polygon fill="#181818" points="336.5,223.6094,340.5,233.6094,344.5,223.6094,340.5,227.6094" style="stroke:#181818;stroke-width:1.0;"/><line style="stroke:#181818;stroke-width:1.0;" x1="340.5" x2="340.5" y1="74" y2="94"/><polygon fill="#181818" points="336.5,84,340.5,94,344.5,84,340.5,88" style="stroke:#181818;stroke-width:1.0;"/><line style="stroke:#181818;stroke-width:1.0;" x1="340.5" x2="340.5" y1="257.6094" y2="267.6094"/><line style="stroke:#181818;stroke-width:1.0;" x1="340.5" x2="600.5" y1="267.6094" y2="267.6094"/><polygon fill="#181818" points="596.5,211.3047,600.5,201.3047,604.5,211.3047,600.5,207.3047" style="stroke:#181818;stroke-width:1.0;"/><line style="stroke:#181818;stroke-width:1.0;" x1="600.5" x2="600.5" y1="62" y2="267.6094"/><line style="stroke:#181818;stroke-width:1.0;" x1="600.5" x2="396" y1="62" y2="62"/><polygon fill="#181818" points="406,58,396,62,406,66,402,62" style="stroke:#181818;stroke-width:1.0;"/><line style="stroke:#181818;stroke-width:1.0;" x1="340.5" x2="340.5" y1="30" y2="50"/><polygon fill="#181818" points="336.5,40,340.5,50,344.5,40,340.5,44" style="stroke:#181818;stroke-width:1.0;"/><line style="stroke:#181818;stroke-width:1.0;" x1="340.5" x2="340.5" y1="309.6094" y2="329.6094"/><polygon fill="#181818" points="336.5,319.6094,340.5,329.6094,344.5,319.6094,340.5,323.6094" style="stroke:#181818;stroke-width:1.0;"/><line style="stroke:#181818;stroke-width:1.0;" x1="217.5" x2="162" y1="531.5542" y2="531.5542"/><line style="stroke:#181818;stroke-width:1.0;" x1="162" x2="162" y1="531.5542" y2="553.5542"/><polygon fill="#181818" points="158,543.5542,162,553.5542,166,543.5542,162,547.5542" style="stroke:#181818;stroke-width:1.0;"/><line style="stroke:#181818;stroke-width:1.0;" x1="463.5" x2="519" y1="531.5542" y2="531.5542"/><line style="stroke:#181818;stroke-width:1.0;" x1="519" x2="519" y1="531.5542" y2="553.5542"/><polygon fill="#181818" points="515,543.5542,519,553.5542,523,543.5542,519,547.5542" style="stroke:#181818;stroke-width:1.0;"/><line style="stroke:#181818;stroke-width:1.0;" x1="162" x2="162" y1="587.5229" y2="605.5229"/><line style="stroke:#181818;stroke-width:1.0;" x1="162" x2="328.5" y1="605.5229" y2="605.5229"/><polygon fill="#181818" points="318.5,601.5229,328.5,605.5229,318.5,609.5229,322.5,605.5229" style="stroke:#181818;stroke-width:1.0;"/><line style="stroke:#181818;stroke-width:1.0;" x1="519" x2="519" y1="587.5229" y2="605.5229"/><line style="stroke:#181818;stroke-width:1.0;" x1="519" x2="352.5" y1="605.5229" y2="605.5229"/><polygon fill="#181818" points="362.5,601.5229,352.5,605.5229,362.5,609.5229,358.5,605.5229" style="stroke:#181818;stroke-width:1.0;"/><line style="stroke:#181818;stroke-width:1.0;" x1="340.5" x2="340.5" y1="499.5542" y2="519.5542"/><polygon fill="#181818" points="336.5,509.5542,340.5,519.5542,344.5,509.5542,340.5,513.5542" style="stroke:#181818;stroke-width:1.0;"/><line style="stroke:#181818;stroke-width:1.0;" x1="340.5" x2="340.5" y1="433.875" y2="465.5854"/><polygon fill="#181818" points="336.5,455.5854,340.5,465.5854,344.5,455.5854,340.5,459.5854" style="stroke:#181818;stroke-width:1.0;"/><line style="stroke:#181818;stroke-width:1.0;" x1="340.5" x2="340.5" y1="617.5229" y2="627.5229"/><line style="stroke:#181818;stroke-width:1.0;" x1="340.5" x2="775" y1="627.5229" y2="627.5229"/><polygon fill="#181818" points="771,525.6519,775,515.6519,779,525.6519,775,521.6519" style="stroke:#181818;stroke-width:1.0;"/><line style="stroke:#181818;stroke-width:1.0;" x1="775" x2="775" y1="421.875" y2="627.5229"/><line style="stroke:#181818;stroke-width:1.0;" x1="775" x2="440" y1="421.875" y2="421.875"/><polygon fill="#181818" points="450,417.875,440,421.875,450,425.875,446,421.875" style="stroke:#181818;stroke-width:1.0;"/><line style="stroke:#181818;stroke-width:1.0;" x1="241" x2="45" y1="421.875" y2="421.875"/><polygon fill="#181818" points="41,511.6519,45,521.6519,49,511.6519,45,515.6519" style="stroke:#181818;stroke-width:1.0;"/><line style="stroke:#181818;stroke-width:1.0;" x1="45" x2="45" y1="421.875" y2="639.5229"/><line style="stroke:#181818;stroke-width:1.0;" x1="45" x2="340.5" y1="639.5229" y2="639.5229"/><line style="stroke:#181818;stroke-width:1.0;" x1="340.5" x2="340.5" y1="639.5229" y2="671.5229"/><polygon fill="#181818" points="336.5,661.5229,340.5,671.5229,344.5,661.5229,340.5,665.5229" style="stroke:#181818;stroke-width:1.0;"/><line style="stroke:#181818;stroke-width:1.0;" x1="340.5" x2="340.5" y1="363.5781" y2="409.875"/><polygon fill="#181818" points="336.5,399.875,340.5,409.875,344.5,399.875,340.5,403.875" style="stroke:#181818;stroke-width:1.0;"/><line style="stroke:#181818;stroke-width:1.0;" x1="340.5" x2="340.5" y1="723.5229" y2="743.5229"/><polygon fill="#181818" points="336.5,733.5229,340.5,743.5229,344.5,733.5229,340.5,737.5229" style="stroke:#181818;stroke-width:1.0;"/><line style="stroke:#181818;stroke-width:1.0;" x1="156" x2="156" y1="874.5903" y2="898.9927"/><polygon fill="#181818" points="152,888.9927,156,898.9927,160,888.9927,156,892.9927" style="stroke:#181818;stroke-width:1.0;"/><line style="stroke:#181818;stroke-width:1.0;" x1="253.5" x2="265.5" y1="862.5903" y2="862.5903"/><polygon fill="#181818" points="261.5,905.9771,265.5,915.9771,269.5,905.9771,265.5,909.9771" style="stroke:#181818;stroke-width:1.0;"/><line style="stroke:#181818;stroke-width:1.0;" x1="265.5" x2="265.5" y1="862.5903" y2="964.9614"/><line style="stroke:#181818;stroke-width:1.0;" x1="265.5" x2="168" y1="964.9614" y2="964.9614"/><polygon fill="#181818" points="178,960.9614,168,964.9614,178,968.9614,174,964.9614" style="stroke:#181818;stroke-width:1.0;"/><line style="stroke:#181818;stroke-width:1.0;" x1="156" x2="156" y1="932.9614" y2="952.9614"/><polygon fill="#181818" points="152,942.9614,156,952.9614,160,942.9614,156,946.9614" style="stroke:#181818;stroke-width:1.0;"/><line style="stroke:#181818;stroke-width:1.0;" x1="491" x2="491" y1="874.5903" y2="898.9927"/><polygon fill="#181818" points="487,888.9927,491,898.9927,495,888.9927,491,892.9927" style="stroke:#181818;stroke-width:1.0;"/><line style="stroke:#181818;stroke-width:1.0;" x1="584.5" x2="596.5" y1="862.5903" y2="862.5903"/><polygon fill="#181818" points="592.5,905.9771,596.5,915.9771,600.5,905.9771,596.5,909.9771" style="stroke:#181818;stroke-width:1.0;"/><line style="stroke:#181818;stroke-width:1.0;" x1="596.5" x2="596.5" y1="862.5903" y2="964.9614"/><line style="stroke:#181818;stroke-width:1.0;" x1="596.5" x2="503" y1="964.9614" y2="964.9614"/><polygon fill="#181818" points="513,960.9614,503,964.9614,513,968.9614,509,964.9614" style="stroke:#181818;stroke-width:1.0;"/><line style="stroke:#181818;stroke-width:1.0;" x1="491" x2="491" y1="932.9614" y2="952.9614"/><polygon fill="#181818" points="487,942.9614,491,952.9614,495,942.9614,491,946.9614" style="stroke:#181818;stroke-width:1.0;"/><line style="stroke:#181818;stroke-width:1.0;" x1="156" x2="156" y1="803.4917" y2="850.5903"/><polygon fill="#181818" points="152,840.5903,156,850.5903,160,840.5903,156,844.5903" style="stroke:#181818;stroke-width:1.0;"/><line style="stroke:#181818;stroke-width:1.0;" x1="491" x2="491" y1="803.4917" y2="850.5903"/><polygon fill="#181818" points="487,840.5903,491,850.5903,495,840.5903,491,844.5903" style="stroke:#181818;stroke-width:1.0;"/><line style="stroke:#181818;stroke-width:1.0;" x1="156" x2="156" y1="976.9614" y2="1008.9614"/><polygon fill="#181818" points="152,998.9614,156,1008.9614,160,998.9614,156,1002.9614" style="stroke:#181818;stroke-width:1.0;"/><line style="stroke:#181818;stroke-width:1.0;" x1="491" x2="491" y1="976.9614" y2="1008.9614"/><polygon fill="#181818" points="487,998.9614,491,1008.9614,495,998.9614,491,1002.9614" style="stroke:#181818;stroke-width:1.0;"/><line style="stroke:#181818;stroke-width:1.0;" x1="340.5" x2="340.5" y1="777.4917" y2="797.4917"/><polygon fill="#181818" points="336.5,787.4917,340.5,797.4917,344.5,787.4917,340.5,791.4917" style="stroke:#181818;stroke-width:1.0;"/><line style="stroke:#181818;stroke-width:1.0;" x1="340.5" x2="340.5" y1="1014.9614" y2="1034.9614"/><polygon fill="#181818" points="336.5,1024.9614,340.5,1034.9614,344.5,1024.9614,340.5,1028.9614" style="stroke:#181818;stroke-width:1.0;"/><line style="stroke:#181818;stroke-width:1.0;" x1="340.5" x2="340.5" y1="1086.9614" y2="1106.9614"/><polygon fill="#181818" points="336.5,1096.9614,340.5,1106.9614,344.5,1096.9614,340.5,1100.9614" style="stroke:#181818;stroke-width:1.0;"/><line style="stroke:#181818;stroke-width:1.0;" x1="340.5" x2="340.5" y1="1140.9302" y2="1160.9302"/><polygon fill="#181818" points="336.5,1150.9302,340.5,1160.9302,344.5,1150.9302,340.5,1154.9302" style="stroke:#181818;stroke-width:1.0;"/><line style="stroke:#181818;stroke-width:1.0;" x1="340.5" x2="340.5" y1="1194.8989" y2="1214.8989"/><polygon fill="#181818" points="336.5,1204.8989,340.5,1214.8989,344.5,1204.8989,340.5,1208.8989" style="stroke:#181818;stroke-width:1.0;"/><line style="stroke:#181818;stroke-width:1.0;" x1="340.5" x2="340.5" y1="1248.8677" y2="1268.8677"/><polygon fill="#181818" points="336.5,1258.8677,340.5,1268.8677,344.5,1258.8677,340.5,1262.8677" style="stroke:#181818;stroke-width:1.0;"/><line style="stroke:#181818;stroke-width:1.0;" x1="340.5" x2="340.5" y1="1302.8364" y2="1322.8364"/><polygon fill="#181818" points="336.5,1312.8364,340.5,1322.8364,344.5,1312.8364,340.5,1316.8364" style="stroke:#181818;stroke-width:1.0;"/><line style="stroke:#181818;stroke-width:1.0;" x1="266.5" x2="225.25" y1="1406.8364" y2="1406.8364"/><line style="stroke:#181818;stroke-width:1.0;" x1="225.25" x2="225.25" y1="1406.8364" y2="1428.8364"/><polygon fill="#181818" points="221.25,1418.8364,225.25,1428.8364,229.25,1418.8364,225.25,1422.8364" style="stroke:#181818;stroke-width:1.0;"/><line style="stroke:#181818;stroke-width:1.0;" x1="414.5" x2="455.75" y1="1406.8364" y2="1406.8364"/><line style="stroke:#181818;stroke-width:1.0;" x1="455.75" x2="455.75" y1="1406.8364" y2="1428.8364"/><polygon fill="#181818" points="451.75,1418.8364,455.75,1428.8364,459.75,1418.8364,455.75,1422.8364" style="stroke:#181818;stroke-width:1.0;"/><line style="stroke:#181818;stroke-width:1.0;" x1="225.25" x2="225.25" y1="1462.8052" y2="1480.8052"/><line style="stroke:#181818;stroke-width:1.0;" x1="225.25" x2="328.5" y1="1480.8052" y2="1480.8052"/><polygon fill="#181818" points="318.5,1476.8052,328.5,1480.8052,318.5,1484.8052,322.5,1480.8052" style="stroke:#181818;stroke-width:1.0;"/><line style="stroke:#181818;stroke-width:1.0;" x1="455.75" x2="455.75" y1="1462.8052" y2="1480.8052"/><line style="stroke:#181818;stroke-width:1.0;" x1="455.75" x2="352.5" y1="1480.8052" y2="1480.8052"/><polygon fill="#181818" points="362.5,1476.8052,352.5,1480.8052,362.5,1484.8052,358.5,1480.8052" style="stroke:#181818;stroke-width:1.0;"/><line style="stroke:#181818;stroke-width:1.0;" x1="340.5" x2="340.5" y1="1374.8364" y2="1394.8364"/><polygon fill="#181818" points="336.5,1384.8364,340.5,1394.8364,344.5,1384.8364,340.5,1388.8364" style="stroke:#181818;stroke-width:1.0;"/><line style="stroke:#181818;stroke-width:1.0;" x1="340.5" x2="340.5" y1="1492.8052" y2="1512.8052"/><polygon fill="#181818" points="336.5,1502.8052,340.5,1512.8052,344.5,1502.8052,340.5,1506.8052" style="stroke:#181818;stroke-width:1.0;"/><line style="stroke:#181818;stroke-width:1.0;" x1="340.5" x2="340.5" y1="1608.8052" y2="1633.2075"/><polygon fill="#181818" points="336.5,1623.2075,340.5,1633.2075,344.5,1623.2075,340.5,1627.2075" style="stroke:#181818;stroke-width:1.0;"/><line style="stroke:#181818;stroke-width:1.0;" x1="528" x2="557.5" y1="1596.8052" y2="1596.8052"/><polygon fill="#181818" points="553.5,1640.1919,557.5,1650.1919,561.5,1640.1919,557.5,1644.1919" style="stroke:#181818;stroke-width:1.0;"/><line style="stroke:#181818;stroke-width:1.0;" x1="557.5" x2="557.5" y1="1596.8052" y2="1699.1763"/><line style="stroke:#181818;stroke-width:1.0;" x1="557.5" x2="352.5" y1="1699.1763" y2="1699.1763"/><polygon fill="#181818" points="362.5,1695.1763,352.5,1699.1763,362.5,1703.1763,358.5,1699.1763" style="stroke:#181818;stroke-width:1.0;"/><line style="stroke:#181818;stroke-width:1.0;" x1="340.5" x2="340.5" y1="1667.1763" y2="1687.1763"/><polygon fill="#181818" points="336.5,1677.1763,340.5,1687.1763,344.5,1677.1763,340.5,1681.1763" style="stroke:#181818;stroke-width:1.0;"/><line style="stroke:#181818;stroke-width:1.0;" x1="340.5" x2="340.5" y1="1564.8052" y2="1584.8052"/><polygon fill="#181818" points="336.5,1574.8052,340.5,1584.8052,344.5,1574.8052,340.5,1578.8052" style="stroke:#181818;stroke-width:1.0;"/><line style="stroke:#181818;stroke-width:1.0;" x1="340.5" x2="340.5" y1="1711.1763" y2="1731.1763"/><polygon fill="#181818" points="336.5,1721.1763,340.5,1731.1763,344.5,1721.1763,340.5,1725.1763" style="stroke:#181818;stroke-width:1.0;"/><!--MD5=[f08406fe4b4356b0d14bc3b2ce122908]
@startuml
start
while (loop while alive)
switch (request)
case (PUT /computation/*)
(A)
(E)
case (POST /data/*)
(B)
(E)
case (PUT /computation-ready/*)
(C)
case (GET /data/*)
(D)
endswitch
endwhile
-[hidden]->
detach

(A)
:store computation;
group stage computation
while (all prerequisites accounted for) is (no)
:select next unaccounted prerequisite;
if (prerequisite currently locally available?) then (yes)
:mark prerequisite available;
else (no)
:locate and issue request for prerequisite data (send GET /data/* request);
endif
endwhile (yes)
end group
stop

(B)
:store data;
fork
group Check if data has associated audience
if (data has associated audience) then (yes)
:send to audience;
else (no)
endif
end group
fork again
group Check if data is prerequisite to computation
if (data marked as prerequisite) then (yes)
:mark prerequisite available;
else (no)
endif
end group
end fork

stop

(C)
:Access computation and all arguments from local Store;
:Run computation;
:Send returned data to self;
:Send returned data to self (send POST /data/* to self);
stop

(D)
if (data locally available?) then (yes)
:Return data to requester;
else (no)
:Add requester to audience for data;
endif
stop

(E)
if (all prerequisites for computation marked as locally available?) then (yes)
:set computation ready (send PUT /computation-ready/* to self);
else (no)
endif
stop

@enduml

PlantUML version 1.2022.2(Sun Mar 06 05:30:19 NZDT 2022)
(GPL source distribution)
Java Runtime: OpenJDK Runtime Environment
JVM: OpenJDK 64-Bit Server VM
Default Encoding: UTF-8
Language: en
Country: NZ
--></g></svg>