<?xml version="1.0" encoding="UTF-8" standalone="no"?><svg xmlns="http://www.w3.org/2000/svg" xmlns:xlink="http://www.w3.org/1999/xlink" contentStyleType="text/css" height="386px" preserveAspectRatio="none" style="width:377px;height:386px;background:#FFFFFF;" version="1.1" viewBox="0 0 377 386" width="377px" zoomAndPan="magnify"><defs/><g><!--MD5=[03893fb76ceacd170bf66541e27e4eb2]
class data_href--><g id="elem_data_href"><rect fill="#F1F1F1" height="48" id="data_href" rx="2.5" ry="2.5" style="stroke:#181818;stroke-width:0.5;" width="96" x="57.5" y="223"/><ellipse cx="72.5" cy="239" fill="#ADD1B2" rx="11" ry="11" style="stroke:#181818;stroke-width:1.0;"/><path d="M75.4688,244.6406 Q74.8906,244.9375 74.25,245.0781 Q73.6094,245.2344 72.9063,245.2344 Q70.4063,245.2344 69.0781,243.5938 Q67.7656,241.9375 67.7656,238.8125 Q67.7656,235.6875 69.0781,234.0313 Q70.4063,232.375 72.9063,232.375 Q73.6094,232.375 74.25,232.5313 Q74.9063,232.6875 75.4688,232.9844 L75.4688,235.7031 Q74.8438,235.125 74.25,234.8594 Q73.6563,234.5781 73.0313,234.5781 Q71.6875,234.5781 71,235.6563 Q70.3125,236.7188 70.3125,238.8125 Q70.3125,240.9063 71,241.9844 Q71.6875,243.0469 73.0313,243.0469 Q73.6563,243.0469 74.25,242.7813 Q74.8438,242.5 75.4688,241.9219 L75.4688,244.6406 Z " fill="#000000"/><text fill="#000000" font-family="sans-serif" font-size="14" lengthAdjust="spacing" textLength="64" x="86.5" y="243.8467">data_href</text><line style="stroke:#181818;stroke-width:0.5;" x1="58.5" x2="152.5" y1="255" y2="255"/><line style="stroke:#181818;stroke-width:0.5;" x1="58.5" x2="152.5" y1="263" y2="263"/></g><!--MD5=[489239261dcfee250f6eb1f0b66f8670]
class value--><g id="elem_value"><rect fill="#F1F1F1" height="48" id="value" rx="2.5" ry="2.5" style="stroke:#181818;stroke-width:0.5;" width="68" x="71.5" y="331"/><ellipse cx="86.5" cy="347" fill="#ADD1B2" rx="11" ry="11" style="stroke:#181818;stroke-width:1.0;"/><path d="M89.4688,352.6406 Q88.8906,352.9375 88.25,353.0781 Q87.6094,353.2344 86.9063,353.2344 Q84.4063,353.2344 83.0781,351.5938 Q81.7656,349.9375 81.7656,346.8125 Q81.7656,343.6875 83.0781,342.0313 Q84.4063,340.375 86.9063,340.375 Q87.6094,340.375 88.25,340.5313 Q88.9063,340.6875 89.4688,340.9844 L89.4688,343.7031 Q88.8438,343.125 88.25,342.8594 Q87.6563,342.5781 87.0313,342.5781 Q85.6875,342.5781 85,343.6563 Q84.3125,344.7188 84.3125,346.8125 Q84.3125,348.9063 85,349.9844 Q85.6875,351.0469 87.0313,351.0469 Q87.6563,351.0469 88.25,350.7813 Q88.8438,350.5 89.4688,349.9219 L89.4688,352.6406 Z " fill="#000000"/><text fill="#000000" font-family="sans-serif" font-size="14" lengthAdjust="spacing" textLength="36" x="100.5" y="351.8467">value</text><line style="stroke:#181818;stroke-width:0.5;" x1="72.5" x2="138.5" y1="363" y2="363"/><line style="stroke:#181818;stroke-width:0.5;" x1="72.5" x2="138.5" y1="371" y2="371"/></g><!--MD5=[ba2d775fd07132ba3739331c419e1780]
class fd--><g id="elem_fd"><rect fill="#F1F1F1" height="48" id="fd" rx="2.5" ry="2.5" style="stroke:#181818;stroke-width:0.5;" width="45" x="7" y="115"/><ellipse cx="22" cy="131" fill="#ADD1B2" rx="11" ry="11" style="stroke:#181818;stroke-width:1.0;"/><path d="M24.9688,136.6406 Q24.3906,136.9375 23.75,137.0781 Q23.1094,137.2344 22.4063,137.2344 Q19.9063,137.2344 18.5781,135.5938 Q17.2656,133.9375 17.2656,130.8125 Q17.2656,127.6875 18.5781,126.0313 Q19.9063,124.375 22.4063,124.375 Q23.1094,124.375 23.75,124.5313 Q24.4063,124.6875 24.9688,124.9844 L24.9688,127.7031 Q24.3438,127.125 23.75,126.8594 Q23.1563,126.5781 22.5313,126.5781 Q21.1875,126.5781 20.5,127.6563 Q19.8125,128.7188 19.8125,130.8125 Q19.8125,132.9063 20.5,133.9844 Q21.1875,135.0469 22.5313,135.0469 Q23.1563,135.0469 23.75,134.7813 Q24.3438,134.5 24.9688,133.9219 L24.9688,136.6406 Z " fill="#000000"/><text fill="#000000" font-family="sans-serif" font-size="14" lengthAdjust="spacing" textLength="13" x="36" y="135.8467">fd</text><line style="stroke:#181818;stroke-width:0.5;" x1="8" x2="51" y1="147" y2="147"/><line style="stroke:#181818;stroke-width:0.5;" x1="8" x2="51" y1="155" y2="155"/></g><!--MD5=[1eff99314d62e351de8b69598428f107]
class pending_computation_href--><g id="elem_pending_computation_href"><rect fill="#F1F1F1" height="48" id="pending_computation_href" rx="2.5" ry="2.5" style="stroke:#181818;stroke-width:0.5;" width="217" x="76" y="7"/><ellipse cx="91" cy="23" fill="#ADD1B2" rx="11" ry="11" style="stroke:#181818;stroke-width:1.0;"/><path d="M93.9688,28.6406 Q93.3906,28.9375 92.75,29.0781 Q92.1094,29.2344 91.4063,29.2344 Q88.9063,29.2344 87.5781,27.5938 Q86.2656,25.9375 86.2656,22.8125 Q86.2656,19.6875 87.5781,18.0313 Q88.9063,16.375 91.4063,16.375 Q92.1094,16.375 92.75,16.5313 Q93.4063,16.6875 93.9688,16.9844 L93.9688,19.7031 Q93.3438,19.125 92.75,18.8594 Q92.1563,18.5781 91.5313,18.5781 Q90.1875,18.5781 89.5,19.6563 Q88.8125,20.7188 88.8125,22.8125 Q88.8125,24.9063 89.5,25.9844 Q90.1875,27.0469 91.5313,27.0469 Q92.1563,27.0469 92.75,26.7813 Q93.3438,26.5 93.9688,25.9219 L93.9688,28.6406 Z " fill="#000000"/><text fill="#000000" font-family="sans-serif" font-size="14" lengthAdjust="spacing" textLength="185" x="105" y="27.8467">pending_computation_href</text><line style="stroke:#181818;stroke-width:0.5;" x1="77" x2="292" y1="39" y2="39"/><line style="stroke:#181818;stroke-width:0.5;" x1="77" x2="292" y1="47" y2="47"/></g><!--MD5=[fc6134d1b85706909151c2577bbbb89e]
class unaccounted_prereq_href--><g id="elem_unaccounted_prereq_href"><rect fill="#F1F1F1" height="48" id="unaccounted_prereq_href" rx="2.5" ry="2.5" style="stroke:#181818;stroke-width:0.5;" width="211" x="159" y="115"/><ellipse cx="174" cy="131" fill="#ADD1B2" rx="11" ry="11" style="stroke:#181818;stroke-width:1.0;"/><path d="M176.9688,136.6406 Q176.3906,136.9375 175.75,137.0781 Q175.1094,137.2344 174.4063,137.2344 Q171.9063,137.2344 170.5781,135.5938 Q169.2656,133.9375 169.2656,130.8125 Q169.2656,127.6875 170.5781,126.0313 Q171.9063,124.375 174.4063,124.375 Q175.1094,124.375 175.75,124.5313 Q176.4063,124.6875 176.9688,124.9844 L176.9688,127.7031 Q176.3438,127.125 175.75,126.8594 Q175.1563,126.5781 174.5313,126.5781 Q173.1875,126.5781 172.5,127.6563 Q171.8125,128.7188 171.8125,130.8125 Q171.8125,132.9063 172.5,133.9844 Q173.1875,135.0469 174.5313,135.0469 Q175.1563,135.0469 175.75,134.7813 Q176.3438,134.5 176.9688,133.9219 L176.9688,136.6406 Z " fill="#000000"/><text fill="#000000" font-family="sans-serif" font-size="14" lengthAdjust="spacing" textLength="179" x="188" y="135.8467">unaccounted_prereq_href</text><line style="stroke:#181818;stroke-width:0.5;" x1="160" x2="369" y1="147" y2="147"/><line style="stroke:#181818;stroke-width:0.5;" x1="160" x2="369" y1="155" y2="155"/></g><!--MD5=[9fac274a9d3699446a67f26fcd7b565b]
link data_href to value--><g id="link_data_href_value"><path codeLine="2" d="M105.5,278.36 C105.5,292.52 105.5,309.35 105.5,323.53 " fill="none" id="data_href-value" style="stroke:#181818;stroke-width:1.0;"/><line style="stroke:#181818;stroke-width:1.0;" x1="109.5" x2="101.5" y1="326.68" y2="326.68"/><line style="stroke:#181818;stroke-width:1.0;" x1="109.5" x2="101.5" y1="323.68" y2="323.68"/><line style="stroke:#181818;stroke-width:1.0;" x1="105.5" x2="105.5" y1="322.68" y2="330.68"/><line style="stroke:#181818;stroke-width:1.0;" x1="101.5" x2="109.5" y1="275" y2="275"/><line style="stroke:#181818;stroke-width:1.0;" x1="101.5" x2="109.5" y1="278" y2="278"/><line style="stroke:#181818;stroke-width:1.0;" x1="105.5" x2="105.5" y1="279" y2="271"/></g><!--MD5=[7eae35f6af2515225e9099640113427f]
link fd to data_href--><g id="link_fd_data_href"><path codeLine="3" d="M50.94,169.91 C61.24,184.28 73.56,201.46 83.89,215.86 " fill="none" id="fd-data_href" style="stroke:#181818;stroke-width:1.0;"/><line style="stroke:#181818;stroke-width:1.0;" x1="84.1206" x2="93.6573" y1="216.1769" y2="219.1855"/><line style="stroke:#181818;stroke-width:1.0;" x1="84.1206" x2="83.9027" y1="216.1769" y2="226.1745"/><line style="stroke:#181818;stroke-width:1.0;" x1="84.1206" x2="88.78" y1="216.1769" y2="222.68"/><line style="stroke:#181818;stroke-width:1.0;" x1="86.2073" x2="79.7042" y1="212.2214" y2="216.8808"/><line style="stroke:#181818;stroke-width:1.0;" x1="50.6494" x2="41.1127" y1="169.5031" y2="166.4945"/><line style="stroke:#181818;stroke-width:1.0;" x1="50.6494" x2="50.8673" y1="169.5031" y2="159.5055"/><line style="stroke:#181818;stroke-width:1.0;" x1="50.6494" x2="45.99" y1="169.5031" y2="163"/><ellipse cx="54.1439" cy="174.3804" fill="none" rx="4" ry="4" style="stroke:#181818;stroke-width:1.0;"/></g><!--MD5=[ba1e84adb0c6fb615d7864ecfb87de16]
link pending_computation_href to unaccounted_prereq_href--><g id="link_pending_computation_href_unaccounted_prereq_href"><path codeLine="4" d="M206.73,61.46 C217.73,76.03 230.97,93.57 242,108.19 " fill="none" id="pending_computation_href-unaccounted_prereq_href" style="stroke:#181818;stroke-width:1.0;"/><line style="stroke:#181818;stroke-width:1.0;" x1="242.084" x2="251.691" y1="108.292" y2="111.068"/><line style="stroke:#181818;stroke-width:1.0;" x1="242.084" x2="242.109" y1="108.292" y2="118.292"/><line style="stroke:#181818;stroke-width:1.0;" x1="242.084" x2="246.9" y1="108.292" y2="114.68"/><ellipse cx="238.472" cy="103.501" fill="none" rx="4" ry="4" style="stroke:#181818;stroke-width:1.0;"/><line style="stroke:#181818;stroke-width:1.0;" x1="206.676" x2="197.069" y1="61.388" y2="58.612"/><line style="stroke:#181818;stroke-width:1.0;" x1="206.676" x2="206.651" y1="61.388" y2="51.388"/><line style="stroke:#181818;stroke-width:1.0;" x1="206.676" x2="201.86" y1="61.388" y2="55"/><line style="stroke:#181818;stroke-width:1.0;" x1="204.686" x2="211.074" y1="65.393" y2="60.577"/></g><!--MD5=[c58fedc2ada276b81161c2d8cf87fac7]
link unaccounted_prereq_href to data_href--><g id="link_unaccounted_prereq_href_data_href"><path codeLine="6" d="M223.92,167.05 C200.07,182.96 170,203 146.13,218.91 " fill="none" id="unaccounted_prereq_href-data_href" style="stroke:#181818;stroke-width:1.0;"/><line style="stroke:#181818;stroke-width:1.0;" x1="145.757" x2="141.3194" y1="223.9694" y2="217.313"/><line style="stroke:#181818;stroke-width:1.0;" x1="148.2532" x2="143.8156" y1="222.3053" y2="215.6489"/><line style="stroke:#181818;stroke-width:1.0;" x1="146.8664" x2="140.21" y1="218.4224" y2="222.86"/><line style="stroke:#181818;stroke-width:1.0;" x1="224.4549" x2="228.8812" y1="161.8812" y2="168.5451"/><line style="stroke:#181818;stroke-width:1.0;" x1="221.9559" x2="226.3822" y1="163.541" y2="170.205"/><line style="stroke:#181818;stroke-width:1.0;" x1="223.3361" x2="230" y1="167.4263" y2="163"/></g><!--MD5=[8a17fe2cd0e7b3b375479ab318e50bfd]
link pending_computation_href to data_href--><g id="link_pending_computation_href_data_href"><path codeLine="7" d="M167.34,61.41 C158.76,76.97 148.69,96.62 141.5,115 C128.32,148.67 118.02,188.99 111.87,215.92 " fill="none" id="pending_computation_href-data_href" style="stroke:#181818;stroke-width:1.0;"/><line style="stroke:#181818;stroke-width:1.0;" x1="115.1032" x2="107.2999" y1="219.7899" y2="218.0268"/><line style="stroke:#181818;stroke-width:1.0;" x1="115.7644" x2="107.9611" y1="216.8637" y2="215.1006"/><line style="stroke:#181818;stroke-width:1.0;" x1="112.0831" x2="110.32" y1="215.0067" y2="222.81"/><line style="stroke:#181818;stroke-width:1.0;" x1="165.4759" x2="172.4568" y1="56.5368" y2="60.4441"/><line style="stroke:#181818;stroke-width:1.0;" x1="164.0106" x2="170.9915" y1="59.1546" y2="63.0619"/><line style="stroke:#181818;stroke-width:1.0;" x1="167.0127" x2="170.92" y1="61.9809" y2="55"/></g><!--MD5=[743bab2b4a8df2e605a5f625fbe0da76]
@startuml

data_href ||- -|| value
fd }o- -|{ data_href
pending_computation_href }|- -o{ unaccounted_prereq_href

unaccounted_prereq_href ||- -|| data_href
pending_computation_href ||- -|| data_href

@enduml

PlantUML version 1.2022.2(Sun Mar 06 05:30:19 NZDT 2022)
(GPL source distribution)
Java Runtime: OpenJDK Runtime Environment
JVM: OpenJDK 64-Bit Server VM
Default Encoding: UTF-8
Language: en
Country: NZ
--></g></svg>