<?xml version="1.0" encoding="UTF-8" standalone="no"?>
<!DOCTYPE svg PUBLIC "-//W3C//DTD SVG 1.1//EN"
 "http://www.w3.org/Graphics/SVG/1.1/DTD/svg11.dtd">
<!-- Generated by graphviz version 2.42.3 (20191010.1750)
 -->
<!-- Title: G Pages: 1 -->
<svg width="222pt" height="437pt"
 viewBox="0.00 0.00 222.04 437.00" xmlns="http://www.w3.org/2000/svg" xmlns:xlink="http://www.w3.org/1999/xlink">
<g id="graph0" class="graph" transform="scale(1 1) rotate(0) translate(4 433)">
<title>G</title>
<polygon fill="white" stroke="transparent" points="-4,4 -4,-433 218.04,-433 218.04,4 -4,4"/>
<!-- family -->
<g id="node1" class="node">
<title>family</title>
<ellipse fill="none" stroke="black" cx="165.04" cy="-411" rx="39.79" ry="18"/>
<text text-anchor="middle" x="165.04" y="-407.3" font-family="Times,serif" font-size="14.00">family</text>
</g>
<!-- marriage -->
<g id="node2" class="node">
<title>marriage</title>
<ellipse fill="none" stroke="black" cx="124.04" cy="-338" rx="53.09" ry="18"/>
<text text-anchor="middle" x="124.04" y="-334.3" font-family="Times,serif" font-size="14.00">marriage</text>
</g>
<!-- family&#45;&gt;marriage -->
<g id="edge1" class="edge">
<title>family&#45;&gt;marriage</title>
<path fill="none" stroke="black" d="M155.33,-393.17C150.37,-384.6 144.25,-373.99 138.73,-364.44"/>
<polygon fill="black" stroke="black" points="141.72,-362.61 133.69,-355.71 135.66,-366.12 141.72,-362.61"/>
</g>
<!-- sexuality -->
<g id="node3" class="node">
<title>sexuality</title>
<ellipse fill="none" stroke="black" cx="121.04" cy="-265" rx="52.79" ry="18"/>
<text text-anchor="middle" x="121.04" y="-261.3" font-family="Times,serif" font-size="14.00">sexuality</text>
</g>
<!-- marriage&#45;&gt;sexuality -->
<g id="edge2" class="edge">
<title>marriage&#45;&gt;sexuality</title>
<path fill="none" stroke="black" d="M123.32,-319.81C122.98,-311.79 122.57,-302.05 122.19,-293.07"/>
<polygon fill="black" stroke="black" points="125.68,-292.87 121.76,-283.03 118.69,-293.17 125.68,-292.87"/>
</g>
<!-- sociality -->
<g id="node4" class="node">
<title>sociality</title>
<ellipse fill="none" stroke="black" cx="108.04" cy="-178" rx="49.29" ry="18"/>
<text text-anchor="middle" x="108.04" y="-174.3" font-family="Times,serif" font-size="14.00">sociality</text>
</g>
<!-- sexuality&#45;&gt;sociality -->
<g id="edge3" class="edge">
<title>sexuality&#45;&gt;sociality</title>
<path fill="none" stroke="black" d="M118.41,-246.8C116.63,-235.16 114.24,-219.55 112.21,-206.24"/>
<polygon fill="black" stroke="black" points="115.64,-205.53 110.67,-196.18 108.72,-206.59 115.64,-205.53"/>
</g>
<!-- interdependence -->
<g id="node5" class="node">
<title>interdependence</title>
<ellipse fill="none" stroke="black" cx="89.04" cy="-105" rx="89.08" ry="18"/>
<text text-anchor="middle" x="89.04" y="-101.3" font-family="Times,serif" font-size="14.00">interdependence</text>
</g>
<!-- sociality&#45;&gt;interdependence -->
<g id="edge4" class="edge">
<title>sociality&#45;&gt;interdependence</title>
<path fill="none" stroke="black" d="M103.44,-159.81C101.27,-151.7 98.63,-141.84 96.21,-132.78"/>
<polygon fill="black" stroke="black" points="99.57,-131.78 93.6,-123.03 92.8,-133.59 99.57,-131.78"/>
</g>
<!-- destructivity -->
<g id="node6" class="node">
<title>destructivity</title>
<ellipse fill="none" stroke="black" cx="120.04" cy="-18" rx="70.39" ry="18"/>
<text text-anchor="middle" x="120.04" y="-14.3" font-family="Times,serif" font-size="14.00">destructivity</text>
</g>
<!-- interdependence&#45;&gt;destructivity -->
<g id="edge5" class="edge">
<title>interdependence&#45;&gt;destructivity</title>
<path fill="none" stroke="black" d="M87.06,-86.79C86.56,-76.88 87.06,-64.38 91.04,-54 92.39,-50.48 94.25,-47.05 96.38,-43.8"/>
<polygon fill="black" stroke="black" points="99.26,-45.79 102.48,-35.7 93.67,-41.58 99.26,-45.79"/>
<text text-anchor="middle" x="95.04" y="-57.8" font-family="Times,serif" font-size="14.00">?</text>
</g>
<!-- destructivity&#45;&gt;family -->
<g id="edge7" class="edge">
<title>destructivity&#45;&gt;family</title>
<path fill="none" stroke="black" d="M151.58,-34.17C176.12,-48.42 206.04,-72.3 206.04,-104 206.04,-339 206.04,-339 206.04,-339 206.04,-356.4 196.7,-373.37 186.93,-386.35"/>
<polygon fill="black" stroke="black" points="184.09,-384.29 180.54,-394.27 189.54,-388.68 184.09,-384.29"/>
<text text-anchor="middle" x="210.04" y="-217.8" font-family="Times,serif" font-size="14.00">?</text>
</g>
<!-- destructivity&#45;&gt;interdependence -->
<g id="edge6" class="edge">
<title>destructivity&#45;&gt;interdependence</title>
<path fill="none" stroke="black" d="M113.78,-36.18C109.49,-47.92 103.73,-63.73 98.84,-77.13"/>
<polygon fill="black" stroke="black" points="95.45,-76.21 95.32,-86.8 102.03,-78.6 95.45,-76.21"/>
<text text-anchor="middle" x="111.04" y="-57.8" font-family="Times,serif" font-size="14.00">?</text>
</g>
</g>
</svg>
