<?xml version="1.0" encoding="UTF-8" standalone="no"?>
<!DOCTYPE svg PUBLIC "-//W3C//DTD SVG 1.1//EN"
 "http://www.w3.org/Graphics/SVG/1.1/DTD/svg11.dtd">
<!-- Generated by graphviz version 2.42.3 (20191010.1750)
 -->
<!-- Title: G Pages: 1 -->
<svg width="240pt" height="404pt"
 viewBox="0.00 0.00 240.34 404.00" xmlns="http://www.w3.org/2000/svg" xmlns:xlink="http://www.w3.org/1999/xlink">
<g id="graph0" class="graph" transform="scale(1 1) rotate(0) translate(4 400)">
<title>G</title>
<polygon fill="white" stroke="transparent" points="-4,4 -4,-400 236.34,-400 236.34,4 -4,4"/>
<!-- destructivity -->
<g id="node1" class="node">
<title>destructivity</title>
<ellipse fill="none" stroke="black" cx="143.3" cy="-378" rx="27" ry="18"/>
<text text-anchor="middle" x="143.3" y="-374.3" font-family="Times,serif" font-size="14.00">☠️</text>
</g>
<!-- family -->
<g id="node2" class="node">
<title>family</title>
<ellipse fill="none" stroke="black" cx="60.3" cy="-306" rx="39.79" ry="18"/>
<text text-anchor="middle" x="60.3" y="-302.3" font-family="Times,serif" font-size="14.00">family</text>
</g>
<!-- destructivity&#45;&gt;family -->
<g id="edge7" class="edge">
<title>destructivity&#45;&gt;family</title>
<path fill="none" stroke="black" d="M126.9,-363.17C115.32,-353.4 99.56,-340.11 86.28,-328.91"/>
<polygon fill="black" stroke="black" points="88.29,-326.03 78.39,-322.26 83.78,-331.38 88.29,-326.03"/>
</g>
<!-- interdependence -->
<g id="node6" class="node">
<title>interdependence</title>
<ellipse fill="none" stroke="black" cx="143.3" cy="-18" rx="89.08" ry="18"/>
<text text-anchor="middle" x="143.3" y="-14.3" font-family="Times,serif" font-size="14.00">interdependence</text>
</g>
<!-- destructivity&#45;&gt;interdependence -->
<g id="edge6" class="edge">
<title>destructivity&#45;&gt;interdependence</title>
<path fill="none" stroke="black" d="M137.64,-360.39C134.3,-333.87 134.3,-280.36 134.3,-235 134.3,-235 134.3,-235 134.3,-161 134.3,-121 134.3,-74.65 136.59,-46.08"/>
<polygon fill="black" stroke="black" points="140.08,-46.35 137.58,-36.05 133.11,-45.65 140.08,-46.35"/>
</g>
<!-- marriage -->
<g id="node3" class="node">
<title>marriage</title>
<ellipse fill="none" stroke="black" cx="53.3" cy="-234" rx="53.09" ry="18"/>
<text text-anchor="middle" x="53.3" y="-230.3" font-family="Times,serif" font-size="14.00">marriage</text>
</g>
<!-- family&#45;&gt;marriage -->
<g id="edge1" class="edge">
<title>family&#45;&gt;marriage</title>
<path fill="none" stroke="black" d="M58.56,-287.7C57.79,-279.98 56.87,-270.71 56.01,-262.11"/>
<polygon fill="black" stroke="black" points="59.48,-261.71 55.01,-252.1 52.52,-262.4 59.48,-261.71"/>
</g>
<!-- sexuality -->
<g id="node4" class="node">
<title>sexuality</title>
<ellipse fill="none" stroke="black" cx="53.3" cy="-162" rx="52.79" ry="18"/>
<text text-anchor="middle" x="53.3" y="-158.3" font-family="Times,serif" font-size="14.00">sexuality</text>
</g>
<!-- marriage&#45;&gt;sexuality -->
<g id="edge2" class="edge">
<title>marriage&#45;&gt;sexuality</title>
<path fill="none" stroke="black" d="M53.3,-215.7C53.3,-207.98 53.3,-198.71 53.3,-190.11"/>
<polygon fill="black" stroke="black" points="56.8,-190.1 53.3,-180.1 49.8,-190.1 56.8,-190.1"/>
</g>
<!-- sociality -->
<g id="node5" class="node">
<title>sociality</title>
<ellipse fill="none" stroke="black" cx="55.3" cy="-90" rx="49.29" ry="18"/>
<text text-anchor="middle" x="55.3" y="-86.3" font-family="Times,serif" font-size="14.00">sociality</text>
</g>
<!-- sexuality&#45;&gt;sociality -->
<g id="edge3" class="edge">
<title>sexuality&#45;&gt;sociality</title>
<path fill="none" stroke="black" d="M53.79,-143.7C54.01,-135.98 54.27,-126.71 54.52,-118.11"/>
<polygon fill="black" stroke="black" points="58.02,-118.2 54.81,-108.1 51.02,-118 58.02,-118.2"/>
</g>
<!-- sociality&#45;&gt;interdependence -->
<g id="edge4" class="edge">
<title>sociality&#45;&gt;interdependence</title>
<path fill="none" stroke="black" d="M74.83,-73.46C86.37,-64.28 101.22,-52.47 114.13,-42.2"/>
<polygon fill="black" stroke="black" points="116.64,-44.68 122.28,-35.71 112.28,-39.2 116.64,-44.68"/>
</g>
<!-- interdependence&#45;&gt;destructivity -->
<g id="edge5" class="edge">
<title>interdependence&#45;&gt;destructivity</title>
<path fill="none" stroke="black" d="M149.01,-36.05C152.3,-62.71 152.3,-115.89 152.3,-161 152.3,-235 152.3,-235 152.3,-235 152.3,-275.22 152.3,-321.85 149.97,-350.39"/>
<polygon fill="black" stroke="black" points="146.48,-350.08 148.95,-360.39 153.44,-350.79 146.48,-350.08"/>
</g>
</g>
</svg>
